G75*
%MOIN*%
%OFA0B0*%
%FSLAX24Y24*%
%IPPOS*%
%LPD*%
%AMOC8*
5,1,8,0,0,1.08239X$1,22.5*
%
%ADD10C,0.0000*%
%ADD11C,0.0740*%
%ADD12R,0.0560X0.0560*%
%ADD13OC8,0.0560*%
%ADD14C,0.0660*%
%ADD15C,0.0650*%
%ADD16C,0.0650*%
%ADD17C,0.0600*%
%ADD18OC8,0.0600*%
%ADD19R,0.0600X0.0600*%
%ADD20C,0.0594*%
%ADD21C,0.0600*%
%ADD22C,0.0394*%
%ADD23R,0.0787X0.0787*%
%ADD24C,0.0396*%
%ADD25C,0.0160*%
%ADD26C,0.0100*%
D10*
X009750Y000930D02*
X009750Y022326D01*
X049120Y022326D01*
X049120Y000930D01*
X009750Y000930D01*
X011405Y002675D02*
X011407Y002703D01*
X011413Y002731D01*
X011422Y002757D01*
X011435Y002783D01*
X011451Y002806D01*
X011471Y002826D01*
X011493Y002844D01*
X011517Y002859D01*
X011543Y002870D01*
X011570Y002878D01*
X011598Y002882D01*
X011626Y002882D01*
X011654Y002878D01*
X011681Y002870D01*
X011707Y002859D01*
X011731Y002844D01*
X011753Y002826D01*
X011773Y002806D01*
X011789Y002783D01*
X011802Y002757D01*
X011811Y002731D01*
X011817Y002703D01*
X011819Y002675D01*
X011817Y002647D01*
X011811Y002619D01*
X011802Y002593D01*
X011789Y002567D01*
X011773Y002544D01*
X011753Y002524D01*
X011731Y002506D01*
X011707Y002491D01*
X011681Y002480D01*
X011654Y002472D01*
X011626Y002468D01*
X011598Y002468D01*
X011570Y002472D01*
X011543Y002480D01*
X011517Y002491D01*
X011493Y002506D01*
X011471Y002524D01*
X011451Y002544D01*
X011435Y002567D01*
X011422Y002593D01*
X011413Y002619D01*
X011407Y002647D01*
X011405Y002675D01*
X011405Y004585D02*
X011407Y004613D01*
X011413Y004641D01*
X011422Y004667D01*
X011435Y004693D01*
X011451Y004716D01*
X011471Y004736D01*
X011493Y004754D01*
X011517Y004769D01*
X011543Y004780D01*
X011570Y004788D01*
X011598Y004792D01*
X011626Y004792D01*
X011654Y004788D01*
X011681Y004780D01*
X011707Y004769D01*
X011731Y004754D01*
X011753Y004736D01*
X011773Y004716D01*
X011789Y004693D01*
X011802Y004667D01*
X011811Y004641D01*
X011817Y004613D01*
X011819Y004585D01*
X011817Y004557D01*
X011811Y004529D01*
X011802Y004503D01*
X011789Y004477D01*
X011773Y004454D01*
X011753Y004434D01*
X011731Y004416D01*
X011707Y004401D01*
X011681Y004390D01*
X011654Y004382D01*
X011626Y004378D01*
X011598Y004378D01*
X011570Y004382D01*
X011543Y004390D01*
X011517Y004401D01*
X011493Y004416D01*
X011471Y004434D01*
X011451Y004454D01*
X011435Y004477D01*
X011422Y004503D01*
X011413Y004529D01*
X011407Y004557D01*
X011405Y004585D01*
X015879Y006125D02*
X015881Y006172D01*
X015887Y006219D01*
X015896Y006265D01*
X015910Y006310D01*
X015927Y006354D01*
X015948Y006397D01*
X015972Y006437D01*
X015999Y006476D01*
X016030Y006512D01*
X016063Y006545D01*
X016099Y006576D01*
X016138Y006603D01*
X016178Y006627D01*
X016221Y006648D01*
X016265Y006665D01*
X016310Y006679D01*
X016356Y006688D01*
X016403Y006694D01*
X016450Y006696D01*
X016497Y006694D01*
X016544Y006688D01*
X016590Y006679D01*
X016635Y006665D01*
X016679Y006648D01*
X016722Y006627D01*
X016762Y006603D01*
X016801Y006576D01*
X016837Y006545D01*
X016870Y006512D01*
X016901Y006476D01*
X016928Y006437D01*
X016952Y006397D01*
X016973Y006354D01*
X016990Y006310D01*
X017004Y006265D01*
X017013Y006219D01*
X017019Y006172D01*
X017021Y006125D01*
X017019Y006078D01*
X017013Y006031D01*
X017004Y005985D01*
X016990Y005940D01*
X016973Y005896D01*
X016952Y005853D01*
X016928Y005813D01*
X016901Y005774D01*
X016870Y005738D01*
X016837Y005705D01*
X016801Y005674D01*
X016762Y005647D01*
X016722Y005623D01*
X016679Y005602D01*
X016635Y005585D01*
X016590Y005571D01*
X016544Y005562D01*
X016497Y005556D01*
X016450Y005554D01*
X016403Y005556D01*
X016356Y005562D01*
X016310Y005571D01*
X016265Y005585D01*
X016221Y005602D01*
X016178Y005623D01*
X016138Y005647D01*
X016099Y005674D01*
X016063Y005705D01*
X016030Y005738D01*
X015999Y005774D01*
X015972Y005813D01*
X015948Y005853D01*
X015927Y005896D01*
X015910Y005940D01*
X015896Y005985D01*
X015887Y006031D01*
X015881Y006078D01*
X015879Y006125D01*
X037334Y016165D02*
X037336Y016212D01*
X037342Y016259D01*
X037351Y016305D01*
X037365Y016350D01*
X037382Y016394D01*
X037403Y016437D01*
X037427Y016477D01*
X037454Y016516D01*
X037485Y016552D01*
X037518Y016585D01*
X037554Y016616D01*
X037593Y016643D01*
X037633Y016667D01*
X037676Y016688D01*
X037720Y016705D01*
X037765Y016719D01*
X037811Y016728D01*
X037858Y016734D01*
X037905Y016736D01*
X037952Y016734D01*
X037999Y016728D01*
X038045Y016719D01*
X038090Y016705D01*
X038134Y016688D01*
X038177Y016667D01*
X038217Y016643D01*
X038256Y016616D01*
X038292Y016585D01*
X038325Y016552D01*
X038356Y016516D01*
X038383Y016477D01*
X038407Y016437D01*
X038428Y016394D01*
X038445Y016350D01*
X038459Y016305D01*
X038468Y016259D01*
X038474Y016212D01*
X038476Y016165D01*
X038474Y016118D01*
X038468Y016071D01*
X038459Y016025D01*
X038445Y015980D01*
X038428Y015936D01*
X038407Y015893D01*
X038383Y015853D01*
X038356Y015814D01*
X038325Y015778D01*
X038292Y015745D01*
X038256Y015714D01*
X038217Y015687D01*
X038177Y015663D01*
X038134Y015642D01*
X038090Y015625D01*
X038045Y015611D01*
X037999Y015602D01*
X037952Y015596D01*
X037905Y015594D01*
X037858Y015596D01*
X037811Y015602D01*
X037765Y015611D01*
X037720Y015625D01*
X037676Y015642D01*
X037633Y015663D01*
X037593Y015687D01*
X037554Y015714D01*
X037518Y015745D01*
X037485Y015778D01*
X037454Y015814D01*
X037427Y015853D01*
X037403Y015893D01*
X037382Y015936D01*
X037365Y015980D01*
X037351Y016025D01*
X037342Y016071D01*
X037336Y016118D01*
X037334Y016165D01*
D11*
X045370Y013070D03*
X047930Y013070D03*
X047930Y011290D03*
X045370Y011290D03*
X030600Y002030D03*
X029600Y002030D03*
X028600Y002030D03*
X027600Y002030D03*
X026600Y002030D03*
X025600Y002030D03*
X023600Y002030D03*
X022600Y002030D03*
X021600Y002030D03*
X020600Y002030D03*
X019600Y002030D03*
X018600Y002030D03*
X018100Y021030D03*
X017100Y021030D03*
X016100Y021030D03*
X015100Y021030D03*
X019100Y021030D03*
X020100Y021030D03*
X021100Y021030D03*
X022100Y021030D03*
X023600Y021030D03*
X024600Y021030D03*
X025600Y021030D03*
X026600Y021030D03*
X027600Y021030D03*
X028600Y021030D03*
X029600Y021030D03*
X030600Y021030D03*
D12*
X035050Y016980D03*
X040400Y016980D03*
X043900Y016980D03*
X043900Y005980D03*
X040400Y005980D03*
X036900Y005980D03*
X047000Y003280D03*
X012100Y013130D03*
X012100Y020980D03*
D13*
X011100Y020980D03*
X011100Y019980D03*
X012100Y019980D03*
X012100Y018980D03*
X011100Y018980D03*
X011100Y017980D03*
X012100Y017980D03*
X012100Y016980D03*
X011100Y016980D03*
X011100Y015980D03*
X012100Y015980D03*
X011100Y013130D03*
X011100Y012130D03*
X012100Y012130D03*
X012100Y011130D03*
X011100Y011130D03*
X011100Y010130D03*
X012100Y010130D03*
X012100Y009130D03*
X011100Y009130D03*
X011100Y008130D03*
X012100Y008130D03*
X035000Y003280D03*
X036000Y003280D03*
X037000Y003280D03*
X038000Y003280D03*
X039000Y003280D03*
X040000Y003280D03*
X041000Y003280D03*
X042000Y003280D03*
X043000Y003280D03*
X044000Y003280D03*
X045000Y003280D03*
X046000Y003280D03*
X046000Y002280D03*
X045000Y002280D03*
X044000Y002280D03*
X043000Y002280D03*
X042000Y002280D03*
X041000Y002280D03*
X040000Y002280D03*
X039000Y002280D03*
X038000Y002280D03*
X037000Y002280D03*
X036000Y002280D03*
X035000Y002280D03*
X037900Y005980D03*
X037900Y006980D03*
X036900Y006980D03*
X036900Y007980D03*
X037900Y007980D03*
X037900Y008980D03*
X036900Y008980D03*
X036900Y009980D03*
X037900Y009980D03*
X040400Y009980D03*
X041400Y009980D03*
X041400Y008980D03*
X040400Y008980D03*
X040400Y007980D03*
X041400Y007980D03*
X041400Y006980D03*
X040400Y006980D03*
X041400Y005980D03*
X043900Y006980D03*
X044900Y006980D03*
X044900Y007980D03*
X043900Y007980D03*
X043900Y008980D03*
X044900Y008980D03*
X044900Y009980D03*
X043900Y009980D03*
X044900Y005980D03*
X047000Y002280D03*
X044900Y016980D03*
X044900Y017980D03*
X043900Y017980D03*
X043900Y018980D03*
X044900Y018980D03*
X044900Y019980D03*
X043900Y019980D03*
X043900Y020980D03*
X044900Y020980D03*
X041400Y020980D03*
X040400Y020980D03*
X040400Y019980D03*
X041400Y019980D03*
X041400Y018980D03*
X040400Y018980D03*
X040400Y017980D03*
X041400Y017980D03*
X041400Y016980D03*
X036050Y016980D03*
X036050Y017980D03*
X035050Y017980D03*
X035050Y018980D03*
X036050Y018980D03*
X036050Y019980D03*
X035050Y019980D03*
X035050Y020980D03*
X036050Y020980D03*
D14*
X028860Y014560D03*
X027860Y014560D03*
D15*
X027430Y008890D03*
X029430Y008890D03*
D16*
X047045Y015410D02*
X047695Y015410D01*
X047695Y016410D02*
X047045Y016410D01*
X047045Y017410D02*
X047695Y017410D01*
D17*
X040900Y013480D03*
X030600Y013030D03*
X019050Y017380D03*
X032650Y021030D03*
X013900Y002380D03*
D18*
X030600Y011030D03*
X031600Y011030D03*
X031600Y012030D03*
X030600Y012030D03*
D19*
X031600Y013030D03*
D20*
X047153Y009980D02*
X047747Y009980D01*
X047747Y008980D02*
X047153Y008980D01*
X047153Y007980D02*
X047747Y007980D01*
X047747Y006980D02*
X047153Y006980D01*
X047153Y005980D02*
X047747Y005980D01*
D21*
X014100Y005830D02*
X014100Y006430D01*
X013100Y006430D02*
X013100Y005830D01*
X012100Y005830D02*
X012100Y006430D01*
D22*
X012650Y004830D03*
X020100Y015930D03*
X046350Y019380D03*
X048250Y003380D03*
D23*
X010419Y002557D03*
X010419Y004703D03*
D24*
X017600Y001930D03*
X019200Y003780D03*
X021900Y006180D03*
X021500Y006530D03*
X020800Y006480D03*
X020450Y006880D03*
X020100Y006480D03*
X019750Y006880D03*
X019400Y006480D03*
X019050Y006880D03*
X018650Y006480D03*
X017900Y007780D03*
X018750Y008630D03*
X017550Y009780D03*
X016950Y009780D03*
X016350Y009780D03*
X015750Y009780D03*
X014250Y011080D03*
X015300Y011630D03*
X020350Y012180D03*
X020950Y012530D03*
X021050Y011630D03*
X021150Y011130D03*
X022750Y011980D03*
X023400Y011330D03*
X023100Y010780D03*
X025250Y010530D03*
X025700Y011080D03*
X026900Y011680D03*
X028200Y011130D03*
X027950Y012580D03*
X027350Y012580D03*
X025350Y012080D03*
X025000Y012480D03*
X023950Y013630D03*
X025600Y014630D03*
X025550Y015580D03*
X026250Y016280D03*
X026800Y016280D03*
X027700Y016180D03*
X025400Y017480D03*
X024150Y016730D03*
X023500Y017580D03*
X019100Y015630D03*
X017550Y014530D03*
X016950Y014530D03*
X016350Y014530D03*
X015750Y014530D03*
X015750Y017330D03*
X016500Y017330D03*
X017150Y017330D03*
X017750Y017330D03*
X031650Y015280D03*
X032800Y014880D03*
X033900Y014380D03*
X034450Y013630D03*
X032350Y015980D03*
X039050Y018930D03*
X038300Y020480D03*
X033750Y020480D03*
X033300Y019930D03*
X032850Y010380D03*
X032550Y009880D03*
X032450Y009330D03*
X031950Y009130D03*
X031450Y008930D03*
X030950Y008730D03*
X028750Y008380D03*
X026200Y009080D03*
X024950Y008430D03*
X025450Y008080D03*
X025050Y007730D03*
X025450Y007380D03*
X024300Y007430D03*
X024000Y007030D03*
X022650Y006580D03*
X022250Y006930D03*
X023150Y008680D03*
X023650Y008980D03*
X022600Y009530D03*
X022350Y008880D03*
X020900Y009930D03*
X032500Y004630D03*
X039650Y005130D03*
X024900Y004230D03*
D25*
X025642Y003783D02*
X019538Y003783D01*
X019538Y003847D02*
X019487Y003972D01*
X019392Y004067D01*
X019390Y004067D01*
X019390Y004440D01*
X032213Y004440D01*
X032213Y004438D01*
X032302Y004350D01*
X026209Y004350D01*
X025209Y003350D01*
X019141Y003350D01*
X018270Y004221D01*
X018270Y004221D01*
X018141Y004350D01*
X015241Y004350D01*
X014320Y005271D01*
X014320Y005445D01*
X014349Y005457D01*
X014473Y005581D01*
X014540Y005742D01*
X014540Y006518D01*
X014473Y006679D01*
X014349Y006803D01*
X014188Y006870D01*
X014012Y006870D01*
X013851Y006803D01*
X013727Y006679D01*
X013660Y006518D01*
X013660Y005742D01*
X013727Y005581D01*
X013851Y005457D01*
X013880Y005445D01*
X013880Y005089D01*
X014009Y004960D01*
X015059Y003910D01*
X017959Y003910D01*
X018830Y003039D01*
X018830Y003039D01*
X018959Y002910D01*
X025391Y002910D01*
X025520Y003039D01*
X026391Y003910D01*
X034059Y003910D01*
X034580Y003389D01*
X034580Y003106D01*
X034826Y002860D01*
X035174Y002860D01*
X035420Y003106D01*
X035420Y003454D01*
X035174Y003700D01*
X034891Y003700D01*
X034241Y004350D01*
X032698Y004350D01*
X032787Y004438D01*
X032838Y004563D01*
X032838Y004697D01*
X032787Y004822D01*
X032692Y004917D01*
X032567Y004968D01*
X032433Y004968D01*
X032388Y004950D01*
X032579Y005140D01*
X034171Y005140D01*
X034721Y004590D01*
X038629Y004590D01*
X039829Y005790D01*
X039980Y005790D01*
X039980Y005642D01*
X040062Y005560D01*
X040738Y005560D01*
X040820Y005642D01*
X040820Y006290D01*
X040821Y006290D01*
X040980Y006131D01*
X040980Y005806D01*
X041226Y005560D01*
X041574Y005560D01*
X041820Y005806D01*
X041820Y006154D01*
X041574Y006400D01*
X041249Y006400D01*
X041090Y006559D01*
X040979Y006670D01*
X040684Y006670D01*
X040820Y006806D01*
X040820Y007154D01*
X040684Y007290D01*
X040821Y007290D01*
X040980Y007131D01*
X040980Y006806D01*
X041226Y006560D01*
X041574Y006560D01*
X041810Y006796D01*
X041810Y006651D01*
X042560Y005901D01*
X042671Y005790D01*
X043480Y005790D01*
X043480Y005642D01*
X043562Y005560D01*
X044238Y005560D01*
X044320Y005642D01*
X044320Y006290D01*
X044321Y006290D01*
X044480Y006131D01*
X044480Y005806D01*
X044726Y005560D01*
X045074Y005560D01*
X045320Y005806D01*
X045320Y006154D01*
X045074Y006400D01*
X044749Y006400D01*
X044479Y006670D01*
X044184Y006670D01*
X044320Y006806D01*
X044320Y007154D01*
X044184Y007290D01*
X044321Y007290D01*
X044480Y007131D01*
X044480Y006806D01*
X044726Y006560D01*
X045074Y006560D01*
X045320Y006806D01*
X045320Y007154D01*
X045074Y007400D01*
X044749Y007400D01*
X044590Y007559D01*
X044479Y007670D01*
X044184Y007670D01*
X044320Y007806D01*
X044320Y008154D01*
X044184Y008290D01*
X044321Y008290D01*
X044480Y008131D01*
X044480Y007806D01*
X044726Y007560D01*
X045074Y007560D01*
X045320Y007806D01*
X045320Y008154D01*
X045074Y008400D01*
X044749Y008400D01*
X044590Y008559D01*
X044479Y008670D01*
X044184Y008670D01*
X044320Y008806D01*
X044320Y009154D01*
X044184Y009290D01*
X044321Y009290D01*
X044480Y009131D01*
X044480Y008806D01*
X044726Y008560D01*
X045074Y008560D01*
X045320Y008806D01*
X045320Y009154D01*
X045074Y009400D01*
X044749Y009400D01*
X044479Y009670D01*
X044184Y009670D01*
X044320Y009806D01*
X044440Y009806D01*
X044440Y009789D02*
X044709Y009520D01*
X044890Y009520D01*
X044890Y009970D01*
X044440Y009970D01*
X044440Y009789D01*
X044320Y009806D02*
X044320Y010154D01*
X044074Y010400D01*
X043726Y010400D01*
X043590Y010264D01*
X043590Y010959D01*
X041479Y013070D01*
X039059Y013070D01*
X042279Y016290D01*
X042390Y016401D01*
X042390Y019859D01*
X042079Y020170D01*
X041804Y020170D01*
X041684Y020290D01*
X043479Y020290D01*
X043749Y020560D01*
X044074Y020560D01*
X044320Y020806D01*
X044320Y021154D01*
X044074Y021400D01*
X043726Y021400D01*
X043480Y021154D01*
X043480Y020829D01*
X043321Y020670D01*
X041741Y020670D01*
X041860Y020789D01*
X041860Y020970D01*
X041410Y020970D01*
X041410Y020990D01*
X041390Y020990D01*
X041390Y021440D01*
X041209Y021440D01*
X040940Y021171D01*
X040940Y020990D01*
X041390Y020990D01*
X041390Y020970D01*
X040940Y020970D01*
X040940Y020789D01*
X041059Y020670D01*
X040979Y020670D01*
X040820Y020829D01*
X040820Y021154D01*
X040574Y021400D01*
X040226Y021400D01*
X039980Y021154D01*
X039980Y020806D01*
X040226Y020560D01*
X040551Y020560D01*
X040710Y020401D01*
X040821Y020290D01*
X041116Y020290D01*
X040980Y020154D01*
X040980Y019806D01*
X041116Y019670D01*
X041023Y019670D01*
X040820Y019855D01*
X040820Y020154D01*
X040574Y020400D01*
X040226Y020400D01*
X039996Y020170D01*
X038435Y020170D01*
X038492Y020193D01*
X038587Y020288D01*
X038587Y020290D01*
X038629Y020290D01*
X039779Y021440D01*
X045221Y021440D01*
X045410Y021251D01*
X045410Y017801D01*
X046618Y016593D01*
X046580Y016502D01*
X046580Y016318D01*
X046651Y016147D01*
X046782Y016016D01*
X046953Y015945D01*
X047787Y015945D01*
X047958Y016016D01*
X048089Y016147D01*
X048160Y016318D01*
X048160Y016502D01*
X048089Y016673D01*
X047958Y016804D01*
X047787Y016875D01*
X046953Y016875D01*
X046897Y016852D01*
X045790Y017959D01*
X045790Y021409D01*
X045379Y021820D01*
X039621Y021820D01*
X039510Y021709D01*
X038530Y020728D01*
X038492Y020767D01*
X038367Y020818D01*
X038233Y020818D01*
X038108Y020767D01*
X038013Y020672D01*
X037962Y020547D01*
X037962Y020413D01*
X038013Y020288D01*
X038108Y020193D01*
X038165Y020170D01*
X038029Y020170D01*
X036379Y021820D01*
X029121Y021820D01*
X028800Y021499D01*
X028701Y021540D01*
X028499Y021540D01*
X028311Y021462D01*
X028168Y021319D01*
X028100Y021156D01*
X028032Y021319D01*
X027889Y021462D01*
X027701Y021540D01*
X027499Y021540D01*
X027311Y021462D01*
X027168Y021319D01*
X027100Y021156D01*
X027032Y021319D01*
X026889Y021462D01*
X026701Y021540D01*
X026499Y021540D01*
X026311Y021462D01*
X026168Y021319D01*
X026100Y021156D01*
X026032Y021319D01*
X025889Y021462D01*
X025701Y021540D01*
X025499Y021540D01*
X025311Y021462D01*
X025168Y021319D01*
X025100Y021156D01*
X025032Y021319D01*
X024889Y021462D01*
X024701Y021540D01*
X024499Y021540D01*
X024311Y021462D01*
X024168Y021319D01*
X024100Y021156D01*
X024032Y021319D01*
X023889Y021462D01*
X023701Y021540D01*
X023499Y021540D01*
X023311Y021462D01*
X023168Y021319D01*
X023090Y021131D01*
X023090Y020929D01*
X023168Y020741D01*
X023311Y020598D01*
X023338Y020587D01*
X021171Y018420D01*
X020609Y018420D01*
X022290Y020101D01*
X022290Y020557D01*
X022389Y020598D01*
X022532Y020741D01*
X022610Y020929D01*
X022610Y021131D01*
X022532Y021319D01*
X022389Y021462D01*
X022201Y021540D01*
X021999Y021540D01*
X021811Y021462D01*
X021668Y021319D01*
X021600Y021156D01*
X021532Y021319D01*
X021389Y021462D01*
X021201Y021540D01*
X020999Y021540D01*
X020811Y021462D01*
X020668Y021319D01*
X020600Y021156D01*
X020532Y021319D01*
X020389Y021462D01*
X020201Y021540D01*
X019999Y021540D01*
X019811Y021462D01*
X019668Y021319D01*
X019600Y021156D01*
X019532Y021319D01*
X019389Y021462D01*
X019201Y021540D01*
X018999Y021540D01*
X018811Y021462D01*
X018668Y021319D01*
X018600Y021156D01*
X018532Y021319D01*
X018389Y021462D01*
X018201Y021540D01*
X017999Y021540D01*
X017811Y021462D01*
X017668Y021319D01*
X017600Y021156D01*
X017532Y021319D01*
X017389Y021462D01*
X017201Y021540D01*
X016999Y021540D01*
X016811Y021462D01*
X016668Y021319D01*
X016621Y021206D01*
X016610Y021241D01*
X016570Y021318D01*
X016520Y021388D01*
X016458Y021450D01*
X016388Y021500D01*
X016311Y021540D01*
X016229Y021566D01*
X016143Y021580D01*
X016120Y021580D01*
X016120Y021050D01*
X016080Y021050D01*
X016080Y021580D01*
X016057Y021580D01*
X015971Y021566D01*
X015889Y021540D01*
X015812Y021500D01*
X015742Y021450D01*
X015680Y021388D01*
X015630Y021318D01*
X015590Y021241D01*
X015579Y021206D01*
X015532Y021319D01*
X015389Y021462D01*
X015201Y021540D01*
X014999Y021540D01*
X014811Y021462D01*
X014668Y021319D01*
X014590Y021131D01*
X014590Y020929D01*
X014668Y020741D01*
X014811Y020598D01*
X014999Y020520D01*
X015201Y020520D01*
X015389Y020598D01*
X015532Y020741D01*
X015579Y020854D01*
X015590Y020819D01*
X015630Y020742D01*
X015680Y020672D01*
X015742Y020610D01*
X015812Y020560D01*
X015889Y020520D01*
X015971Y020494D01*
X016057Y020480D01*
X016080Y020480D01*
X016080Y021010D01*
X016120Y021010D01*
X016120Y020480D01*
X016143Y020480D01*
X016229Y020494D01*
X016311Y020520D01*
X016388Y020560D01*
X016458Y020610D01*
X016520Y020672D01*
X016570Y020742D01*
X016610Y020819D01*
X016621Y020854D01*
X016668Y020741D01*
X016811Y020598D01*
X016838Y020587D01*
X016721Y020470D01*
X014329Y020470D01*
X013240Y021559D01*
X013129Y021670D01*
X010671Y021670D01*
X010560Y021559D01*
X010060Y021059D01*
X010060Y018251D01*
X010410Y017901D01*
X010521Y017790D01*
X010696Y017790D01*
X010926Y017560D01*
X011274Y017560D01*
X011520Y017806D01*
X011520Y018154D01*
X011384Y018290D01*
X011521Y018290D01*
X011680Y018131D01*
X011680Y017806D01*
X011926Y017560D01*
X012274Y017560D01*
X012520Y017806D01*
X012520Y018154D01*
X012274Y018400D01*
X011949Y018400D01*
X011679Y018670D01*
X011384Y018670D01*
X011520Y018806D01*
X011520Y019131D01*
X011679Y019290D01*
X011816Y019290D01*
X011680Y019154D01*
X011680Y018806D01*
X011926Y018560D01*
X012274Y018560D01*
X012504Y018790D01*
X016941Y018790D01*
X016860Y018709D01*
X015819Y017667D01*
X015817Y017668D01*
X015683Y017668D01*
X015558Y017617D01*
X015463Y017522D01*
X015412Y017397D01*
X015412Y017263D01*
X015463Y017138D01*
X015558Y017043D01*
X015683Y016992D01*
X015817Y016992D01*
X015942Y017043D01*
X016037Y017138D01*
X016088Y017263D01*
X016088Y017397D01*
X016087Y017399D01*
X017129Y018440D01*
X017341Y018440D01*
X016569Y017667D01*
X016567Y017668D01*
X016433Y017668D01*
X016308Y017617D01*
X016213Y017522D01*
X016162Y017397D01*
X016162Y017263D01*
X016213Y017138D01*
X016308Y017043D01*
X016433Y016992D01*
X016567Y016992D01*
X016692Y017043D01*
X016787Y017138D01*
X016825Y017231D01*
X016863Y017138D01*
X016958Y017043D01*
X017083Y016992D01*
X017217Y016992D01*
X017342Y017043D01*
X017437Y017138D01*
X017450Y017171D01*
X017463Y017138D01*
X017558Y017043D01*
X017683Y016992D01*
X017817Y016992D01*
X017942Y017043D01*
X018037Y017138D01*
X018088Y017263D01*
X018088Y017397D01*
X018087Y017399D01*
X018529Y017840D01*
X021629Y017840D01*
X023179Y019390D01*
X023779Y019390D01*
X024790Y020401D01*
X024790Y020557D01*
X024889Y020598D01*
X025032Y020741D01*
X025100Y020904D01*
X025168Y020741D01*
X025311Y020598D01*
X025410Y020557D01*
X025410Y019459D01*
X025071Y019120D01*
X023471Y019120D01*
X023360Y019009D01*
X022671Y018320D01*
X022560Y018209D01*
X022560Y015159D01*
X020160Y012759D01*
X020160Y012467D01*
X020158Y012467D01*
X020063Y012372D01*
X020012Y012247D01*
X020012Y012113D01*
X020063Y011988D01*
X020158Y011893D01*
X020283Y011842D01*
X020417Y011842D01*
X020542Y011893D01*
X020637Y011988D01*
X020688Y012113D01*
X020688Y012247D01*
X020637Y012372D01*
X020542Y012467D01*
X020540Y012467D01*
X020540Y012601D01*
X020760Y012821D01*
X020760Y012817D01*
X020758Y012817D01*
X020663Y012722D01*
X020612Y012597D01*
X020612Y012463D01*
X020663Y012338D01*
X020758Y012243D01*
X020883Y012192D01*
X021017Y012192D01*
X021142Y012243D01*
X021237Y012338D01*
X021288Y012463D01*
X021288Y012597D01*
X021237Y012722D01*
X021142Y012817D01*
X021140Y012817D01*
X021140Y012901D01*
X023140Y014901D01*
X023140Y017951D01*
X023729Y018540D01*
X025979Y018540D01*
X026790Y019351D01*
X026790Y020557D01*
X026889Y020598D01*
X027032Y020741D01*
X027100Y020904D01*
X027168Y020741D01*
X027311Y020598D01*
X027499Y020520D01*
X027701Y020520D01*
X027889Y020598D01*
X028032Y020741D01*
X028100Y020904D01*
X028168Y020741D01*
X028311Y020598D01*
X028499Y020520D01*
X028701Y020520D01*
X028889Y020598D01*
X029032Y020741D01*
X029100Y020904D01*
X029168Y020741D01*
X029311Y020598D01*
X029499Y020520D01*
X029701Y020520D01*
X029889Y020598D01*
X030032Y020741D01*
X030100Y020904D01*
X030168Y020741D01*
X030311Y020598D01*
X030499Y020520D01*
X030701Y020520D01*
X030889Y020598D01*
X031032Y020741D01*
X031110Y020929D01*
X031110Y021131D01*
X031032Y021319D01*
X030911Y021440D01*
X036221Y021440D01*
X036221Y021440D01*
X036060Y021440D01*
X036060Y020990D01*
X036040Y020990D01*
X036040Y021440D01*
X035859Y021440D01*
X035590Y021171D01*
X035590Y020990D01*
X036040Y020990D01*
X036040Y020970D01*
X035590Y020970D01*
X035590Y020789D01*
X035709Y020670D01*
X035334Y020670D01*
X035470Y020806D01*
X035470Y021154D01*
X035224Y021400D01*
X034876Y021400D01*
X034630Y021154D01*
X034630Y020806D01*
X034766Y020670D01*
X034037Y020670D01*
X034037Y020672D01*
X033942Y020767D01*
X033817Y020818D01*
X033683Y020818D01*
X033558Y020767D01*
X033463Y020672D01*
X033463Y020670D01*
X033171Y020670D01*
X030071Y017570D01*
X026421Y017570D01*
X024710Y015859D01*
X024710Y015559D01*
X021119Y011967D01*
X021117Y011968D01*
X020983Y011968D01*
X020858Y011917D01*
X020763Y011822D01*
X020712Y011697D01*
X020712Y011563D01*
X020763Y011438D01*
X020858Y011343D01*
X020877Y011336D01*
X020863Y011322D01*
X020812Y011197D01*
X020812Y011063D01*
X020863Y010938D01*
X020958Y010843D01*
X021083Y010792D01*
X021217Y010792D01*
X021342Y010843D01*
X021437Y010938D01*
X021488Y011063D01*
X021488Y011197D01*
X021487Y011199D01*
X021629Y011340D01*
X021740Y011451D01*
X021740Y011751D01*
X025290Y015301D01*
X025290Y015362D01*
X025358Y015293D01*
X025483Y015242D01*
X025617Y015242D01*
X025742Y015293D01*
X025837Y015388D01*
X025837Y015390D01*
X026679Y015390D01*
X027373Y016085D01*
X027413Y015988D01*
X027508Y015893D01*
X027633Y015842D01*
X027767Y015842D01*
X027892Y015893D01*
X027987Y015988D01*
X028038Y016113D01*
X028038Y016190D01*
X031221Y016190D01*
X031960Y015451D01*
X032071Y015340D01*
X032671Y015340D01*
X032793Y015218D01*
X032733Y015218D01*
X032608Y015167D01*
X032513Y015072D01*
X032462Y014947D01*
X032462Y014870D01*
X029771Y014870D01*
X029303Y014402D01*
X029330Y014467D01*
X029330Y014653D01*
X029258Y014826D01*
X029126Y014958D01*
X028953Y015030D01*
X028767Y015030D01*
X028594Y014958D01*
X028462Y014826D01*
X028390Y014653D01*
X028390Y014467D01*
X028462Y014294D01*
X028594Y014162D01*
X028767Y014090D01*
X028953Y014090D01*
X029018Y014117D01*
X028621Y013720D01*
X026721Y013720D01*
X026610Y013609D01*
X026610Y013609D01*
X025671Y012670D01*
X025287Y012670D01*
X025287Y012672D01*
X025192Y012767D01*
X025067Y012818D01*
X024933Y012818D01*
X024808Y012767D01*
X024713Y012672D01*
X024662Y012547D01*
X024662Y012413D01*
X024713Y012288D01*
X024808Y012193D01*
X024933Y012142D01*
X025012Y012142D01*
X025012Y012013D01*
X025063Y011888D01*
X025132Y011820D01*
X025121Y011820D01*
X025010Y011709D01*
X025010Y011709D01*
X024421Y011120D01*
X024310Y011009D01*
X024310Y010709D01*
X023071Y009470D01*
X022960Y009359D01*
X022960Y008967D01*
X022958Y008967D01*
X022863Y008872D01*
X022812Y008747D01*
X022812Y008613D01*
X022863Y008488D01*
X022958Y008393D01*
X023083Y008342D01*
X023217Y008342D01*
X023342Y008393D01*
X023437Y008488D01*
X023488Y008613D01*
X023488Y008681D01*
X023583Y008642D01*
X023717Y008642D01*
X023842Y008693D01*
X023937Y008788D01*
X023988Y008913D01*
X023988Y009047D01*
X023937Y009172D01*
X023842Y009267D01*
X023840Y009267D01*
X023840Y009401D01*
X024779Y010340D01*
X024890Y010451D01*
X024890Y010751D01*
X025379Y011240D01*
X025400Y011240D01*
X025362Y011147D01*
X025362Y011013D01*
X025413Y010888D01*
X025508Y010793D01*
X025633Y010742D01*
X025767Y010742D01*
X025892Y010793D01*
X025987Y010888D01*
X026038Y011013D01*
X026038Y011147D01*
X026037Y011149D01*
X026379Y011490D01*
X026613Y011490D01*
X026613Y011488D01*
X026708Y011393D01*
X026833Y011342D01*
X026967Y011342D01*
X027092Y011393D01*
X027187Y011488D01*
X027238Y011613D01*
X027238Y011747D01*
X027187Y011872D01*
X027092Y011967D01*
X026967Y012018D01*
X026833Y012018D01*
X026708Y011967D01*
X026613Y011872D01*
X026613Y011870D01*
X026309Y011870D01*
X027012Y012573D01*
X027012Y012513D01*
X027063Y012388D01*
X027158Y012293D01*
X027283Y012242D01*
X027417Y012242D01*
X027419Y012243D01*
X027621Y012040D01*
X029079Y012040D01*
X029190Y012151D01*
X030163Y013124D01*
X030160Y013118D01*
X030160Y012942D01*
X030227Y012781D01*
X030351Y012657D01*
X030512Y012590D01*
X030688Y012590D01*
X030849Y012657D01*
X030973Y012781D01*
X031040Y012942D01*
X031040Y013118D01*
X030973Y013279D01*
X030849Y013403D01*
X030688Y013470D01*
X030512Y013470D01*
X030506Y013467D01*
X030529Y013490D01*
X032421Y013490D01*
X033310Y012601D01*
X033421Y012490D01*
X035441Y012490D01*
X033521Y010570D01*
X033137Y010570D01*
X033137Y010572D01*
X033042Y010667D01*
X032917Y010718D01*
X032783Y010718D01*
X032658Y010667D01*
X032563Y010572D01*
X032512Y010447D01*
X032512Y010313D01*
X032551Y010218D01*
X032483Y010218D01*
X032358Y010167D01*
X032263Y010072D01*
X032212Y009947D01*
X032212Y009813D01*
X032263Y009688D01*
X032313Y009639D01*
X032258Y009617D01*
X032163Y009522D01*
X032123Y009424D01*
X032017Y009468D01*
X031883Y009468D01*
X031758Y009417D01*
X031663Y009322D01*
X031623Y009224D01*
X031517Y009268D01*
X031383Y009268D01*
X031258Y009217D01*
X031163Y009122D01*
X031123Y009024D01*
X031017Y009068D01*
X030883Y009068D01*
X030758Y009017D01*
X030663Y008922D01*
X030612Y008797D01*
X030612Y008663D01*
X030663Y008538D01*
X030758Y008443D01*
X030819Y008418D01*
X030421Y008020D01*
X026429Y008020D01*
X025940Y008509D01*
X025829Y008620D01*
X025237Y008620D01*
X025237Y008622D01*
X025142Y008717D01*
X025017Y008768D01*
X024883Y008768D01*
X024758Y008717D01*
X024663Y008622D01*
X024612Y008497D01*
X024612Y008363D01*
X024663Y008238D01*
X024758Y008143D01*
X024883Y008092D01*
X025017Y008092D01*
X025112Y008131D01*
X025112Y008068D01*
X024983Y008068D01*
X024858Y008017D01*
X024763Y007922D01*
X024712Y007797D01*
X024712Y007663D01*
X024763Y007538D01*
X024858Y007443D01*
X024983Y007392D01*
X025112Y007392D01*
X025112Y007313D01*
X025150Y007220D01*
X024779Y007220D01*
X024637Y007361D01*
X024638Y007363D01*
X024638Y007497D01*
X024587Y007622D01*
X024492Y007717D01*
X024367Y007768D01*
X024233Y007768D01*
X024108Y007717D01*
X024013Y007622D01*
X023962Y007497D01*
X023962Y007368D01*
X023933Y007368D01*
X023808Y007317D01*
X023713Y007222D01*
X023662Y007097D01*
X023662Y006963D01*
X023713Y006838D01*
X023732Y006820D01*
X023729Y006820D01*
X023540Y007009D01*
X023429Y007120D01*
X022537Y007120D01*
X022537Y007122D01*
X022442Y007217D01*
X022317Y007268D01*
X022183Y007268D01*
X022058Y007217D01*
X021963Y007122D01*
X021912Y006997D01*
X021912Y006863D01*
X021963Y006738D01*
X021982Y006720D01*
X021787Y006720D01*
X021787Y006722D01*
X021692Y006817D01*
X021567Y006868D01*
X021433Y006868D01*
X021308Y006817D01*
X021213Y006722D01*
X021162Y006597D01*
X021162Y006463D01*
X021213Y006338D01*
X021308Y006243D01*
X021433Y006192D01*
X021562Y006192D01*
X021562Y006113D01*
X021600Y006020D01*
X021129Y006020D01*
X020990Y006159D01*
X020990Y006193D01*
X020992Y006193D01*
X021087Y006288D01*
X021138Y006413D01*
X021138Y006547D01*
X021087Y006672D01*
X020992Y006767D01*
X020867Y006818D01*
X020788Y006818D01*
X020788Y006947D01*
X020737Y007072D01*
X020642Y007167D01*
X020517Y007218D01*
X020383Y007218D01*
X020258Y007167D01*
X020163Y007072D01*
X020112Y006947D01*
X020112Y006818D01*
X020088Y006818D01*
X020088Y006947D01*
X020037Y007072D01*
X019942Y007167D01*
X019817Y007218D01*
X019683Y007218D01*
X019558Y007167D01*
X019463Y007072D01*
X019412Y006947D01*
X019412Y006818D01*
X019388Y006818D01*
X019388Y006947D01*
X019337Y007072D01*
X019242Y007167D01*
X019117Y007218D01*
X018983Y007218D01*
X018858Y007167D01*
X018763Y007072D01*
X018712Y006947D01*
X018712Y006818D01*
X018583Y006818D01*
X018458Y006767D01*
X018363Y006672D01*
X018312Y006547D01*
X018312Y006413D01*
X018363Y006288D01*
X018458Y006193D01*
X018460Y006193D01*
X018460Y004951D01*
X018571Y004840D01*
X018860Y004551D01*
X018971Y004440D01*
X019010Y004440D01*
X019010Y004067D01*
X019008Y004067D01*
X018913Y003972D01*
X018862Y003847D01*
X018862Y003713D01*
X018913Y003588D01*
X019008Y003493D01*
X019133Y003442D01*
X019267Y003442D01*
X019392Y003493D01*
X019487Y003588D01*
X019538Y003713D01*
X019538Y003847D01*
X019499Y003942D02*
X025800Y003942D01*
X025959Y004100D02*
X019390Y004100D01*
X019390Y004259D02*
X026117Y004259D01*
X026300Y004130D02*
X034150Y004130D01*
X035000Y003280D01*
X035420Y003308D02*
X035580Y003308D01*
X035580Y003454D02*
X035580Y003106D01*
X035826Y002860D01*
X036174Y002860D01*
X036420Y003106D01*
X036420Y003454D01*
X036174Y003700D01*
X035826Y003700D01*
X035580Y003454D01*
X035592Y003466D02*
X035408Y003466D01*
X035249Y003625D02*
X035751Y003625D01*
X036249Y003625D02*
X036694Y003625D01*
X036809Y003740D02*
X036540Y003471D01*
X036540Y003290D01*
X036990Y003290D01*
X036990Y003740D01*
X036809Y003740D01*
X037010Y003740D02*
X037191Y003740D01*
X037460Y003471D01*
X037460Y003290D01*
X037010Y003290D01*
X037010Y003270D01*
X037460Y003270D01*
X037460Y003089D01*
X037191Y002820D01*
X037010Y002820D01*
X037010Y003270D01*
X036990Y003270D01*
X036990Y002820D01*
X036809Y002820D01*
X036540Y003089D01*
X036540Y003270D01*
X036990Y003270D01*
X036990Y003290D01*
X037010Y003290D01*
X037010Y003740D01*
X037010Y003625D02*
X036990Y003625D01*
X036990Y003466D02*
X037010Y003466D01*
X037010Y003308D02*
X036990Y003308D01*
X036990Y003149D02*
X037010Y003149D01*
X037010Y002991D02*
X036990Y002991D01*
X036990Y002832D02*
X037010Y002832D01*
X037203Y002832D02*
X040797Y002832D01*
X040809Y002820D02*
X040990Y002820D01*
X040990Y003270D01*
X041010Y003270D01*
X041010Y003290D01*
X041460Y003290D01*
X041460Y003471D01*
X041191Y003740D01*
X041010Y003740D01*
X041010Y003290D01*
X040990Y003290D01*
X040990Y003740D01*
X040809Y003740D01*
X040540Y003471D01*
X040540Y003290D01*
X040990Y003290D01*
X040990Y003270D01*
X040540Y003270D01*
X040540Y003089D01*
X040809Y002820D01*
X040826Y002700D02*
X040580Y002454D01*
X040580Y002106D01*
X040826Y001860D01*
X041174Y001860D01*
X041420Y002106D01*
X041420Y002454D01*
X041174Y002700D01*
X040826Y002700D01*
X040800Y002674D02*
X040200Y002674D01*
X040174Y002700D02*
X039826Y002700D01*
X039580Y002454D01*
X039580Y002106D01*
X039826Y001860D01*
X040174Y001860D01*
X040420Y002106D01*
X040420Y002454D01*
X040174Y002700D01*
X040174Y002860D02*
X039826Y002860D01*
X039580Y003106D01*
X039580Y003454D01*
X039826Y003700D01*
X040174Y003700D01*
X040420Y003454D01*
X040420Y003106D01*
X040174Y002860D01*
X040304Y002991D02*
X040639Y002991D01*
X040540Y003149D02*
X040420Y003149D01*
X040420Y003308D02*
X040540Y003308D01*
X040540Y003466D02*
X040408Y003466D01*
X040249Y003625D02*
X040694Y003625D01*
X040990Y003625D02*
X041010Y003625D01*
X041010Y003466D02*
X040990Y003466D01*
X040990Y003308D02*
X041010Y003308D01*
X041010Y003270D02*
X041460Y003270D01*
X041460Y003089D01*
X041191Y002820D01*
X041010Y002820D01*
X041010Y003270D01*
X041010Y003149D02*
X040990Y003149D01*
X040990Y002991D02*
X041010Y002991D01*
X041010Y002832D02*
X040990Y002832D01*
X041203Y002832D02*
X043797Y002832D01*
X043809Y002820D02*
X043990Y002820D01*
X043990Y003270D01*
X044010Y003270D01*
X044010Y003290D01*
X044460Y003290D01*
X044460Y003471D01*
X044191Y003740D01*
X044010Y003740D01*
X044010Y003290D01*
X043990Y003290D01*
X043990Y003740D01*
X043809Y003740D01*
X043540Y003471D01*
X043540Y003290D01*
X043990Y003290D01*
X043990Y003270D01*
X043540Y003270D01*
X043540Y003089D01*
X043809Y002820D01*
X043826Y002700D02*
X043580Y002454D01*
X043580Y002106D01*
X043826Y001860D01*
X044174Y001860D01*
X044420Y002106D01*
X044420Y002454D01*
X044174Y002700D01*
X043826Y002700D01*
X043800Y002674D02*
X043200Y002674D01*
X043174Y002700D02*
X042826Y002700D01*
X042580Y002454D01*
X042580Y002106D01*
X042826Y001860D01*
X043174Y001860D01*
X043420Y002106D01*
X043420Y002454D01*
X043174Y002700D01*
X043174Y002860D02*
X042826Y002860D01*
X042580Y003106D01*
X042580Y003454D01*
X042826Y003700D01*
X043174Y003700D01*
X043420Y003454D01*
X043420Y003106D01*
X043174Y002860D01*
X043304Y002991D02*
X043639Y002991D01*
X043540Y003149D02*
X043420Y003149D01*
X043420Y003308D02*
X043540Y003308D01*
X043540Y003466D02*
X043408Y003466D01*
X043249Y003625D02*
X043694Y003625D01*
X043990Y003625D02*
X044010Y003625D01*
X044010Y003466D02*
X043990Y003466D01*
X043990Y003308D02*
X044010Y003308D01*
X044010Y003270D02*
X044460Y003270D01*
X044460Y003089D01*
X044191Y002820D01*
X044010Y002820D01*
X044010Y003270D01*
X044010Y003149D02*
X043990Y003149D01*
X043990Y002991D02*
X044010Y002991D01*
X044010Y002832D02*
X043990Y002832D01*
X044203Y002832D02*
X045310Y002832D01*
X045310Y002701D02*
X045310Y002996D01*
X045174Y002860D01*
X044826Y002860D01*
X044580Y003106D01*
X044580Y003454D01*
X044826Y003700D01*
X045174Y003700D01*
X045310Y003564D01*
X045310Y005559D01*
X046716Y006965D01*
X046716Y007067D01*
X046783Y007227D01*
X046906Y007350D01*
X047066Y007417D01*
X047834Y007417D01*
X047994Y007350D01*
X048117Y007227D01*
X048184Y007067D01*
X048184Y006893D01*
X048117Y006733D01*
X047994Y006610D01*
X047834Y006543D01*
X047066Y006543D01*
X046906Y006610D01*
X046902Y006613D01*
X045690Y005401D01*
X045690Y003564D01*
X045826Y003700D01*
X046151Y003700D01*
X047260Y004809D01*
X047260Y005543D01*
X047066Y005543D01*
X046906Y005610D01*
X046783Y005733D01*
X046716Y005893D01*
X046716Y006067D01*
X046783Y006227D01*
X046906Y006350D01*
X047066Y006417D01*
X047834Y006417D01*
X047994Y006350D01*
X048117Y006227D01*
X048184Y006067D01*
X048184Y005893D01*
X048117Y005733D01*
X047994Y005610D01*
X047834Y005543D01*
X047640Y005543D01*
X047640Y004651D01*
X046689Y003700D01*
X047338Y003700D01*
X047420Y003618D01*
X047420Y002942D01*
X047338Y002860D01*
X046662Y002860D01*
X046580Y002942D01*
X046580Y003591D01*
X046420Y003431D01*
X046420Y003106D01*
X046174Y002860D01*
X045826Y002860D01*
X045690Y002996D01*
X045690Y002859D01*
X045849Y002700D01*
X046174Y002700D01*
X046420Y002454D01*
X046420Y002106D01*
X046174Y001860D01*
X045826Y001860D01*
X045580Y002106D01*
X045580Y002431D01*
X045421Y002590D01*
X045310Y002701D01*
X045338Y002674D02*
X045200Y002674D01*
X045174Y002700D02*
X044826Y002700D01*
X044580Y002454D01*
X044580Y002106D01*
X044826Y001860D01*
X045174Y001860D01*
X045420Y002106D01*
X045420Y002454D01*
X045174Y002700D01*
X045359Y002515D02*
X045496Y002515D01*
X045420Y002357D02*
X045580Y002357D01*
X045580Y002198D02*
X045420Y002198D01*
X045353Y002040D02*
X045647Y002040D01*
X045805Y001881D02*
X045195Y001881D01*
X044805Y001881D02*
X044195Y001881D01*
X044353Y002040D02*
X044647Y002040D01*
X044580Y002198D02*
X044420Y002198D01*
X044420Y002357D02*
X044580Y002357D01*
X044641Y002515D02*
X044359Y002515D01*
X044200Y002674D02*
X044800Y002674D01*
X044696Y002991D02*
X044361Y002991D01*
X044460Y003149D02*
X044580Y003149D01*
X044580Y003308D02*
X044460Y003308D01*
X044460Y003466D02*
X044592Y003466D01*
X044751Y003625D02*
X044306Y003625D01*
X045249Y003625D02*
X045310Y003625D01*
X045310Y003783D02*
X039772Y003783D01*
X039840Y003851D02*
X039840Y004843D01*
X039842Y004843D01*
X039937Y004938D01*
X039988Y005063D01*
X039988Y005197D01*
X039937Y005322D01*
X039842Y005417D01*
X039717Y005468D01*
X039583Y005468D01*
X039458Y005417D01*
X039363Y005322D01*
X039312Y005197D01*
X039312Y005063D01*
X039363Y004938D01*
X039458Y004843D01*
X039460Y004843D01*
X039460Y004009D01*
X039151Y003700D01*
X038826Y003700D01*
X038580Y003454D01*
X038580Y003106D01*
X038826Y002860D01*
X039174Y002860D01*
X039420Y003106D01*
X039420Y003431D01*
X039840Y003851D01*
X039840Y003942D02*
X045310Y003942D01*
X045310Y004100D02*
X039840Y004100D01*
X039840Y004259D02*
X045310Y004259D01*
X045310Y004417D02*
X039840Y004417D01*
X039840Y004576D02*
X045310Y004576D01*
X045310Y004734D02*
X039840Y004734D01*
X039891Y004893D02*
X045310Y004893D01*
X045310Y005051D02*
X039983Y005051D01*
X039983Y005210D02*
X045310Y005210D01*
X045310Y005368D02*
X039890Y005368D01*
X039980Y005685D02*
X039724Y005685D01*
X039565Y005527D02*
X045310Y005527D01*
X045199Y005685D02*
X045436Y005685D01*
X045320Y005844D02*
X045595Y005844D01*
X045753Y006002D02*
X045320Y006002D01*
X045313Y006161D02*
X045912Y006161D01*
X046070Y006319D02*
X045155Y006319D01*
X045150Y006636D02*
X046387Y006636D01*
X046229Y006478D02*
X044671Y006478D01*
X044650Y006636D02*
X044513Y006636D01*
X044492Y006795D02*
X044308Y006795D01*
X044320Y006953D02*
X044480Y006953D01*
X044480Y007112D02*
X044320Y007112D01*
X044341Y007270D02*
X044204Y007270D01*
X044562Y007587D02*
X044699Y007587D01*
X044720Y007429D02*
X048890Y007429D01*
X048890Y007587D02*
X047940Y007587D01*
X047994Y007610D02*
X047834Y007543D01*
X047066Y007543D01*
X046906Y007610D01*
X046783Y007733D01*
X046716Y007893D01*
X046716Y008067D01*
X046783Y008227D01*
X046906Y008350D01*
X047066Y008417D01*
X047834Y008417D01*
X047994Y008350D01*
X048117Y008227D01*
X048184Y008067D01*
X048184Y007893D01*
X048117Y007733D01*
X047994Y007610D01*
X048123Y007746D02*
X048890Y007746D01*
X048890Y007904D02*
X048184Y007904D01*
X048184Y008063D02*
X048890Y008063D01*
X048890Y008221D02*
X048120Y008221D01*
X047924Y008380D02*
X048890Y008380D01*
X048890Y008538D02*
X047930Y008538D01*
X047997Y008572D01*
X048057Y008616D01*
X048111Y008669D01*
X048155Y008730D01*
X048189Y008797D01*
X048212Y008868D01*
X048224Y008942D01*
X048224Y008962D01*
X047468Y008962D01*
X047468Y008998D01*
X047432Y008998D01*
X047432Y009457D01*
X047116Y009457D01*
X047041Y009445D01*
X046970Y009422D01*
X046903Y009388D01*
X046843Y009344D01*
X046789Y009291D01*
X046745Y009230D01*
X046711Y009163D01*
X046688Y009092D01*
X046676Y009018D01*
X046676Y008998D01*
X047432Y008998D01*
X047432Y008962D01*
X047468Y008962D01*
X047468Y008503D01*
X047784Y008503D01*
X047859Y008515D01*
X047930Y008538D01*
X048130Y008697D02*
X048890Y008697D01*
X048890Y008855D02*
X048208Y008855D01*
X048224Y008998D02*
X048224Y009018D01*
X048212Y009092D01*
X048189Y009163D01*
X048155Y009230D01*
X048111Y009291D01*
X048057Y009344D01*
X047997Y009388D01*
X047930Y009422D01*
X047859Y009445D01*
X047784Y009457D01*
X047468Y009457D01*
X047468Y008998D01*
X048224Y008998D01*
X048224Y009014D02*
X048890Y009014D01*
X048890Y009172D02*
X048184Y009172D01*
X048071Y009331D02*
X048890Y009331D01*
X048890Y009489D02*
X044660Y009489D01*
X044582Y009648D02*
X044501Y009648D01*
X044890Y009648D02*
X044910Y009648D01*
X044910Y009520D02*
X045091Y009520D01*
X045360Y009789D01*
X045360Y009970D01*
X044910Y009970D01*
X044910Y009990D01*
X044890Y009990D01*
X044890Y010440D01*
X044709Y010440D01*
X044440Y010171D01*
X044440Y009990D01*
X044890Y009990D01*
X044890Y009970D01*
X044910Y009970D01*
X044910Y009520D01*
X044890Y009806D02*
X044910Y009806D01*
X044910Y009965D02*
X044890Y009965D01*
X044910Y009990D02*
X044910Y010440D01*
X045091Y010440D01*
X045360Y010171D01*
X045360Y009990D01*
X044910Y009990D01*
X044910Y010123D02*
X044890Y010123D01*
X044890Y010282D02*
X044910Y010282D01*
X045249Y010282D02*
X046837Y010282D01*
X046783Y010227D02*
X046716Y010067D01*
X046716Y009893D01*
X046783Y009733D01*
X046906Y009610D01*
X047066Y009543D01*
X047834Y009543D01*
X047994Y009610D01*
X048117Y009733D01*
X048184Y009893D01*
X048184Y010067D01*
X048117Y010227D01*
X047994Y010350D01*
X047834Y010417D01*
X047066Y010417D01*
X046906Y010350D01*
X046783Y010227D01*
X046740Y010123D02*
X045360Y010123D01*
X045360Y009965D02*
X046716Y009965D01*
X046752Y009806D02*
X045360Y009806D01*
X045218Y009648D02*
X046868Y009648D01*
X046829Y009331D02*
X045143Y009331D01*
X045302Y009172D02*
X046716Y009172D01*
X046676Y009014D02*
X045320Y009014D01*
X045320Y008855D02*
X046692Y008855D01*
X046688Y008868D02*
X046711Y008797D01*
X046745Y008730D01*
X046789Y008669D01*
X046843Y008616D01*
X046903Y008572D01*
X046970Y008538D01*
X047041Y008515D01*
X047116Y008503D01*
X047432Y008503D01*
X047432Y008962D01*
X046676Y008962D01*
X046676Y008942D01*
X046688Y008868D01*
X046770Y008697D02*
X045210Y008697D01*
X045094Y008380D02*
X046976Y008380D01*
X046970Y008538D02*
X044611Y008538D01*
X044590Y008697D02*
X044210Y008697D01*
X044320Y008855D02*
X044480Y008855D01*
X044480Y009014D02*
X044320Y009014D01*
X044302Y009172D02*
X044439Y009172D01*
X044440Y009965D02*
X044320Y009965D01*
X044320Y010123D02*
X044440Y010123D01*
X044551Y010282D02*
X044192Y010282D01*
X043608Y010282D02*
X043590Y010282D01*
X043590Y010440D02*
X048890Y010440D01*
X048890Y010282D02*
X048063Y010282D01*
X048160Y010123D02*
X048890Y010123D01*
X048890Y009965D02*
X048184Y009965D01*
X048148Y009806D02*
X048890Y009806D01*
X048890Y009648D02*
X048032Y009648D01*
X047468Y009331D02*
X047432Y009331D01*
X047432Y009172D02*
X047468Y009172D01*
X047468Y009014D02*
X047432Y009014D01*
X047432Y008855D02*
X047468Y008855D01*
X047468Y008697D02*
X047432Y008697D01*
X047432Y008538D02*
X047468Y008538D01*
X046780Y008221D02*
X045253Y008221D01*
X045320Y008063D02*
X046716Y008063D01*
X046716Y007904D02*
X045320Y007904D01*
X045259Y007746D02*
X046777Y007746D01*
X046960Y007587D02*
X045101Y007587D01*
X045204Y007270D02*
X046825Y007270D01*
X046735Y007112D02*
X045320Y007112D01*
X045320Y006953D02*
X046704Y006953D01*
X046546Y006795D02*
X045308Y006795D01*
X044451Y006161D02*
X044320Y006161D01*
X044320Y006002D02*
X044480Y006002D01*
X044480Y005844D02*
X044320Y005844D01*
X044320Y005685D02*
X044601Y005685D01*
X045690Y005368D02*
X047260Y005368D01*
X047260Y005210D02*
X045690Y005210D01*
X045690Y005051D02*
X047260Y005051D01*
X047260Y004893D02*
X045690Y004893D01*
X045690Y004734D02*
X047185Y004734D01*
X047027Y004576D02*
X045690Y004576D01*
X045690Y004417D02*
X046868Y004417D01*
X046710Y004259D02*
X045690Y004259D01*
X045690Y004100D02*
X046551Y004100D01*
X046393Y003942D02*
X045690Y003942D01*
X045690Y003783D02*
X046234Y003783D01*
X046455Y003466D02*
X046580Y003466D01*
X046580Y003308D02*
X046420Y003308D01*
X046420Y003149D02*
X046580Y003149D01*
X046580Y002991D02*
X046304Y002991D01*
X046200Y002674D02*
X046743Y002674D01*
X046809Y002740D02*
X046540Y002471D01*
X046540Y002290D01*
X046990Y002290D01*
X046990Y002740D01*
X046809Y002740D01*
X046990Y002674D02*
X047010Y002674D01*
X047010Y002740D02*
X047191Y002740D01*
X047460Y002471D01*
X047460Y002290D01*
X047010Y002290D01*
X047010Y002270D01*
X047460Y002270D01*
X047460Y002089D01*
X047191Y001820D01*
X047010Y001820D01*
X047010Y002270D01*
X046990Y002270D01*
X046990Y001820D01*
X046809Y001820D01*
X046540Y002089D01*
X046540Y002270D01*
X046990Y002270D01*
X046990Y002290D01*
X047010Y002290D01*
X047010Y002740D01*
X046990Y002515D02*
X047010Y002515D01*
X047010Y002357D02*
X046990Y002357D01*
X046990Y002198D02*
X047010Y002198D01*
X047010Y002040D02*
X046990Y002040D01*
X046990Y001881D02*
X047010Y001881D01*
X047252Y001881D02*
X048890Y001881D01*
X048890Y001723D02*
X031014Y001723D01*
X031032Y001741D02*
X031110Y001929D01*
X031110Y002131D01*
X031032Y002319D01*
X030889Y002462D01*
X030701Y002540D01*
X030499Y002540D01*
X030311Y002462D01*
X030168Y002319D01*
X030100Y002156D01*
X030032Y002319D01*
X029889Y002462D01*
X029701Y002540D01*
X029499Y002540D01*
X029311Y002462D01*
X029168Y002319D01*
X029100Y002156D01*
X029032Y002319D01*
X028889Y002462D01*
X028701Y002540D01*
X028499Y002540D01*
X028311Y002462D01*
X028168Y002319D01*
X028100Y002156D01*
X028032Y002319D01*
X027889Y002462D01*
X027701Y002540D01*
X027499Y002540D01*
X027311Y002462D01*
X027168Y002319D01*
X027100Y002156D01*
X027032Y002319D01*
X026889Y002462D01*
X026701Y002540D01*
X026499Y002540D01*
X026311Y002462D01*
X026168Y002319D01*
X026100Y002156D01*
X026032Y002319D01*
X025889Y002462D01*
X025701Y002540D01*
X025499Y002540D01*
X025311Y002462D01*
X025168Y002319D01*
X025090Y002131D01*
X025090Y001929D01*
X025168Y001741D01*
X025311Y001598D01*
X025499Y001520D01*
X025701Y001520D01*
X025889Y001598D01*
X026032Y001741D01*
X026100Y001904D01*
X026168Y001741D01*
X026311Y001598D01*
X026499Y001520D01*
X026701Y001520D01*
X026889Y001598D01*
X027032Y001741D01*
X027100Y001904D01*
X027168Y001741D01*
X027311Y001598D01*
X027499Y001520D01*
X027701Y001520D01*
X027889Y001598D01*
X028032Y001741D01*
X028100Y001904D01*
X028168Y001741D01*
X028311Y001598D01*
X028499Y001520D01*
X028701Y001520D01*
X028889Y001598D01*
X029032Y001741D01*
X029100Y001904D01*
X029168Y001741D01*
X029311Y001598D01*
X029499Y001520D01*
X029701Y001520D01*
X029889Y001598D01*
X030032Y001741D01*
X030100Y001904D01*
X030168Y001741D01*
X030311Y001598D01*
X030499Y001520D01*
X030701Y001520D01*
X030889Y001598D01*
X031032Y001741D01*
X031090Y001881D02*
X034805Y001881D01*
X034826Y001860D02*
X035174Y001860D01*
X035420Y002106D01*
X035420Y002454D01*
X035174Y002700D01*
X034826Y002700D01*
X034580Y002454D01*
X034580Y002106D01*
X034826Y001860D01*
X034647Y002040D02*
X031110Y002040D01*
X031082Y002198D02*
X034580Y002198D01*
X034580Y002357D02*
X030995Y002357D01*
X030762Y002515D02*
X034641Y002515D01*
X034800Y002674D02*
X012049Y002674D01*
X012049Y002588D02*
X011982Y002428D01*
X011860Y002305D01*
X011699Y002239D01*
X011525Y002239D01*
X011365Y002305D01*
X011242Y002428D01*
X011176Y002588D01*
X011176Y002762D01*
X011242Y002923D01*
X011365Y003045D01*
X011525Y003112D01*
X011699Y003112D01*
X011860Y003045D01*
X011982Y002923D01*
X012049Y002762D01*
X012049Y002588D01*
X012018Y002515D02*
X018438Y002515D01*
X018499Y002540D02*
X018311Y002462D01*
X018168Y002319D01*
X018090Y002131D01*
X018090Y001929D01*
X018168Y001741D01*
X018311Y001598D01*
X018499Y001520D01*
X018701Y001520D01*
X018889Y001598D01*
X019032Y001741D01*
X019100Y001904D01*
X019168Y001741D01*
X019311Y001598D01*
X019499Y001520D01*
X019701Y001520D01*
X019889Y001598D01*
X020032Y001741D01*
X020100Y001904D01*
X020168Y001741D01*
X020311Y001598D01*
X020499Y001520D01*
X020701Y001520D01*
X020889Y001598D01*
X021032Y001741D01*
X021079Y001854D01*
X021090Y001819D01*
X021130Y001742D01*
X021180Y001672D01*
X021242Y001610D01*
X021312Y001560D01*
X021389Y001520D01*
X021471Y001494D01*
X021557Y001480D01*
X021580Y001480D01*
X021580Y002010D01*
X021620Y002010D01*
X021620Y002050D01*
X021580Y002050D01*
X021580Y002580D01*
X021557Y002580D01*
X021471Y002566D01*
X021389Y002540D01*
X021312Y002500D01*
X021242Y002450D01*
X021180Y002388D01*
X021130Y002318D01*
X021090Y002241D01*
X021079Y002206D01*
X021032Y002319D01*
X020889Y002462D01*
X020701Y002540D01*
X020499Y002540D01*
X020311Y002462D01*
X020168Y002319D01*
X020100Y002156D01*
X020032Y002319D01*
X019889Y002462D01*
X019701Y002540D01*
X019499Y002540D01*
X019311Y002462D01*
X019168Y002319D01*
X019100Y002156D01*
X019032Y002319D01*
X018889Y002462D01*
X018701Y002540D01*
X018499Y002540D01*
X018762Y002515D02*
X019438Y002515D01*
X019205Y002357D02*
X018995Y002357D01*
X019082Y002198D02*
X019118Y002198D01*
X019110Y001881D02*
X019090Y001881D01*
X019014Y001723D02*
X019186Y001723D01*
X019392Y001564D02*
X018808Y001564D01*
X018392Y001564D02*
X009980Y001564D01*
X009980Y001406D02*
X048890Y001406D01*
X048890Y001564D02*
X030808Y001564D01*
X030392Y001564D02*
X029808Y001564D01*
X030014Y001723D02*
X030186Y001723D01*
X030110Y001881D02*
X030090Y001881D01*
X030082Y002198D02*
X030118Y002198D01*
X030205Y002357D02*
X029995Y002357D01*
X029762Y002515D02*
X030438Y002515D01*
X029438Y002515D02*
X028762Y002515D01*
X028995Y002357D02*
X029205Y002357D01*
X029118Y002198D02*
X029082Y002198D01*
X029090Y001881D02*
X029110Y001881D01*
X029186Y001723D02*
X029014Y001723D01*
X028808Y001564D02*
X029392Y001564D01*
X028392Y001564D02*
X027808Y001564D01*
X028014Y001723D02*
X028186Y001723D01*
X028110Y001881D02*
X028090Y001881D01*
X028082Y002198D02*
X028118Y002198D01*
X028205Y002357D02*
X027995Y002357D01*
X027762Y002515D02*
X028438Y002515D01*
X027438Y002515D02*
X026762Y002515D01*
X026995Y002357D02*
X027205Y002357D01*
X027118Y002198D02*
X027082Y002198D01*
X027090Y001881D02*
X027110Y001881D01*
X027186Y001723D02*
X027014Y001723D01*
X026808Y001564D02*
X027392Y001564D01*
X026392Y001564D02*
X025808Y001564D01*
X026014Y001723D02*
X026186Y001723D01*
X026110Y001881D02*
X026090Y001881D01*
X026082Y002198D02*
X026118Y002198D01*
X026205Y002357D02*
X025995Y002357D01*
X025762Y002515D02*
X026438Y002515D01*
X025438Y002515D02*
X023762Y002515D01*
X023701Y002540D02*
X023889Y002462D01*
X024032Y002319D01*
X024110Y002131D01*
X024110Y001929D01*
X024032Y001741D01*
X023889Y001598D01*
X023701Y001520D01*
X023499Y001520D01*
X023311Y001598D01*
X023168Y001741D01*
X023121Y001854D01*
X023110Y001819D01*
X023070Y001742D01*
X023020Y001672D01*
X022958Y001610D01*
X022888Y001560D01*
X022811Y001520D01*
X022729Y001494D01*
X022643Y001480D01*
X022620Y001480D01*
X022620Y002010D01*
X022580Y002010D01*
X022580Y001480D01*
X022557Y001480D01*
X022471Y001494D01*
X022389Y001520D01*
X022312Y001560D01*
X022242Y001610D01*
X022180Y001672D01*
X022130Y001742D01*
X022100Y001800D01*
X022070Y001742D01*
X022020Y001672D01*
X021958Y001610D01*
X021888Y001560D01*
X021811Y001520D01*
X021729Y001494D01*
X021643Y001480D01*
X021620Y001480D01*
X021620Y002010D01*
X022050Y002010D01*
X022580Y002010D01*
X022580Y002050D01*
X022580Y002580D01*
X022557Y002580D01*
X022471Y002566D01*
X022389Y002540D01*
X022312Y002500D01*
X022242Y002450D01*
X022180Y002388D01*
X022130Y002318D01*
X022100Y002260D01*
X022070Y002318D01*
X022020Y002388D01*
X021958Y002450D01*
X021888Y002500D01*
X021811Y002540D01*
X021729Y002566D01*
X021643Y002580D01*
X021620Y002580D01*
X021620Y002050D01*
X022580Y002050D01*
X022620Y002050D01*
X022620Y002580D01*
X022643Y002580D01*
X022729Y002566D01*
X022811Y002540D01*
X022888Y002500D01*
X022958Y002450D01*
X023020Y002388D01*
X023070Y002318D01*
X023110Y002241D01*
X023121Y002206D01*
X023168Y002319D01*
X023311Y002462D01*
X023499Y002540D01*
X023701Y002540D01*
X023438Y002515D02*
X022860Y002515D01*
X022620Y002515D02*
X022580Y002515D01*
X022580Y002357D02*
X022620Y002357D01*
X022620Y002198D02*
X022580Y002198D01*
X022580Y002040D02*
X021620Y002040D01*
X021620Y002198D02*
X021580Y002198D01*
X021580Y002357D02*
X021620Y002357D01*
X021620Y002515D02*
X021580Y002515D01*
X021340Y002515D02*
X020762Y002515D01*
X020995Y002357D02*
X021157Y002357D01*
X021860Y002515D02*
X022340Y002515D01*
X022157Y002357D02*
X022043Y002357D01*
X021620Y001881D02*
X021580Y001881D01*
X021580Y001723D02*
X021620Y001723D01*
X021620Y001564D02*
X021580Y001564D01*
X021306Y001564D02*
X020808Y001564D01*
X021014Y001723D02*
X021144Y001723D01*
X021894Y001564D02*
X022306Y001564D01*
X022144Y001723D02*
X022056Y001723D01*
X022580Y001723D02*
X022620Y001723D01*
X022620Y001881D02*
X022580Y001881D01*
X023056Y001723D02*
X023186Y001723D01*
X023392Y001564D02*
X022894Y001564D01*
X022620Y001564D02*
X022580Y001564D01*
X023808Y001564D02*
X025392Y001564D01*
X025186Y001723D02*
X024014Y001723D01*
X024090Y001881D02*
X025110Y001881D01*
X025090Y002040D02*
X024110Y002040D01*
X024082Y002198D02*
X025118Y002198D01*
X025205Y002357D02*
X023995Y002357D01*
X023205Y002357D02*
X023043Y002357D01*
X025300Y003130D02*
X019050Y003130D01*
X018050Y004130D01*
X015150Y004130D01*
X014100Y005180D01*
X014100Y006130D01*
X014540Y006161D02*
X015188Y006161D01*
X015188Y006296D02*
X015188Y005964D01*
X015274Y005643D01*
X015440Y005355D01*
X015675Y005120D01*
X015963Y004954D01*
X016284Y004868D01*
X016616Y004868D01*
X016937Y004954D01*
X017225Y005120D01*
X017460Y005355D01*
X017626Y005643D01*
X017712Y005964D01*
X017712Y006296D01*
X017626Y006617D01*
X017460Y006905D01*
X017225Y007140D01*
X016937Y007306D01*
X016616Y007392D01*
X016284Y007392D01*
X015963Y007306D01*
X015675Y007140D01*
X015440Y006905D01*
X015274Y006617D01*
X015188Y006296D01*
X015194Y006319D02*
X014540Y006319D01*
X014540Y006478D02*
X015236Y006478D01*
X015284Y006636D02*
X014491Y006636D01*
X014358Y006795D02*
X015376Y006795D01*
X015488Y006953D02*
X009980Y006953D01*
X009980Y006795D02*
X011842Y006795D01*
X011851Y006803D02*
X011727Y006679D01*
X011660Y006518D01*
X011660Y005742D01*
X011727Y005581D01*
X011851Y005457D01*
X012012Y005390D01*
X012188Y005390D01*
X012349Y005457D01*
X012473Y005581D01*
X012540Y005742D01*
X012540Y006518D01*
X012473Y006679D01*
X012349Y006803D01*
X012188Y006870D01*
X012012Y006870D01*
X011851Y006803D01*
X011709Y006636D02*
X009980Y006636D01*
X009980Y006478D02*
X011660Y006478D01*
X011660Y006319D02*
X009980Y006319D01*
X009980Y006161D02*
X011660Y006161D01*
X011660Y006002D02*
X009980Y006002D01*
X009980Y005844D02*
X011660Y005844D01*
X011684Y005685D02*
X009980Y005685D01*
X009980Y005527D02*
X011781Y005527D01*
X012248Y005098D02*
X012176Y004924D01*
X012176Y004736D01*
X012248Y004562D01*
X012382Y004428D01*
X012556Y004356D01*
X012744Y004356D01*
X012918Y004428D01*
X013052Y004562D01*
X013124Y004736D01*
X013124Y004924D01*
X013052Y005098D01*
X012918Y005232D01*
X012744Y005304D01*
X012556Y005304D01*
X012382Y005232D01*
X012248Y005098D01*
X012229Y005051D02*
X010953Y005051D01*
X010953Y005155D02*
X010871Y005237D01*
X009980Y005237D01*
X009980Y022096D01*
X048890Y022096D01*
X048890Y001160D01*
X009980Y001160D01*
X009980Y002023D01*
X010871Y002023D01*
X010953Y002105D01*
X010953Y003009D01*
X010871Y003091D01*
X009980Y003091D01*
X009980Y004169D01*
X010871Y004169D01*
X010953Y004251D01*
X010953Y005155D01*
X010898Y005210D02*
X012360Y005210D01*
X012419Y005527D02*
X012781Y005527D01*
X012727Y005581D02*
X012851Y005457D01*
X013012Y005390D01*
X013188Y005390D01*
X013349Y005457D01*
X013473Y005581D01*
X013540Y005742D01*
X013540Y006518D01*
X013473Y006679D01*
X013349Y006803D01*
X013188Y006870D01*
X013012Y006870D01*
X012851Y006803D01*
X012727Y006679D01*
X012660Y006518D01*
X012660Y005742D01*
X012727Y005581D01*
X012684Y005685D02*
X012516Y005685D01*
X012540Y005844D02*
X012660Y005844D01*
X012660Y006002D02*
X012540Y006002D01*
X012540Y006161D02*
X012660Y006161D01*
X012660Y006319D02*
X012540Y006319D01*
X012540Y006478D02*
X012660Y006478D01*
X012709Y006636D02*
X012491Y006636D01*
X012358Y006795D02*
X012842Y006795D01*
X013358Y006795D02*
X013842Y006795D01*
X013709Y006636D02*
X013491Y006636D01*
X013540Y006478D02*
X013660Y006478D01*
X013660Y006319D02*
X013540Y006319D01*
X013540Y006161D02*
X013660Y006161D01*
X013660Y006002D02*
X013540Y006002D01*
X013540Y005844D02*
X013660Y005844D01*
X013684Y005685D02*
X013516Y005685D01*
X013419Y005527D02*
X013781Y005527D01*
X013880Y005368D02*
X009980Y005368D01*
X010953Y004893D02*
X011302Y004893D01*
X011242Y004832D02*
X011365Y004955D01*
X011525Y005021D01*
X011699Y005021D01*
X011860Y004955D01*
X011982Y004832D01*
X012049Y004672D01*
X012049Y004498D01*
X011982Y004337D01*
X011860Y004215D01*
X011699Y004148D01*
X011525Y004148D01*
X011365Y004215D01*
X011242Y004337D01*
X011176Y004498D01*
X011176Y004672D01*
X011242Y004832D01*
X011201Y004734D02*
X010953Y004734D01*
X010953Y004576D02*
X011176Y004576D01*
X011209Y004417D02*
X010953Y004417D01*
X010953Y004259D02*
X011321Y004259D01*
X011904Y004259D02*
X014710Y004259D01*
X014552Y004417D02*
X012891Y004417D01*
X013057Y004576D02*
X014393Y004576D01*
X014235Y004734D02*
X013123Y004734D01*
X013124Y004893D02*
X014076Y004893D01*
X013918Y005051D02*
X013071Y005051D01*
X012940Y005210D02*
X013880Y005210D01*
X014320Y005368D02*
X015432Y005368D01*
X015341Y005527D02*
X014419Y005527D01*
X014516Y005685D02*
X015262Y005685D01*
X015220Y005844D02*
X014540Y005844D01*
X014540Y006002D02*
X015188Y006002D01*
X015585Y005210D02*
X014382Y005210D01*
X014540Y005051D02*
X015794Y005051D01*
X016190Y004893D02*
X014699Y004893D01*
X014857Y004734D02*
X018677Y004734D01*
X018519Y004893D02*
X016710Y004893D01*
X017106Y005051D02*
X018460Y005051D01*
X018460Y005210D02*
X017315Y005210D01*
X017468Y005368D02*
X018460Y005368D01*
X018460Y005527D02*
X017559Y005527D01*
X017638Y005685D02*
X018460Y005685D01*
X018460Y005844D02*
X017680Y005844D01*
X017712Y006002D02*
X018460Y006002D01*
X018460Y006161D02*
X017712Y006161D01*
X017706Y006319D02*
X018351Y006319D01*
X018312Y006478D02*
X017664Y006478D01*
X017616Y006636D02*
X018349Y006636D01*
X018526Y006795D02*
X017524Y006795D01*
X017412Y006953D02*
X018714Y006953D01*
X018803Y007112D02*
X017254Y007112D01*
X017000Y007270D02*
X023762Y007270D01*
X023668Y007112D02*
X023437Y007112D01*
X023540Y007009D02*
X023540Y007009D01*
X023596Y006953D02*
X023666Y006953D01*
X023962Y007429D02*
X009980Y007429D01*
X009980Y007587D02*
X017615Y007587D01*
X017613Y007588D02*
X017708Y007493D01*
X017833Y007442D01*
X017967Y007442D01*
X018092Y007493D01*
X018187Y007588D01*
X018238Y007713D01*
X018238Y007847D01*
X018237Y007849D01*
X018479Y008090D01*
X021829Y008090D01*
X021940Y008201D01*
X022281Y008543D01*
X022283Y008542D01*
X022417Y008542D01*
X022542Y008593D01*
X022637Y008688D01*
X022688Y008813D01*
X022688Y008947D01*
X022637Y009072D01*
X022542Y009167D01*
X022417Y009218D01*
X022283Y009218D01*
X022158Y009167D01*
X022063Y009072D01*
X022012Y008947D01*
X022012Y008813D01*
X022013Y008811D01*
X021671Y008470D01*
X021459Y008470D01*
X021540Y008551D01*
X022320Y009332D01*
X022408Y009243D01*
X022533Y009192D01*
X022667Y009192D01*
X022792Y009243D01*
X022887Y009338D01*
X022938Y009463D01*
X022938Y009597D01*
X022887Y009722D01*
X022792Y009817D01*
X022667Y009868D01*
X022533Y009868D01*
X022408Y009817D01*
X022313Y009722D01*
X022313Y009720D01*
X022171Y009720D01*
X022060Y009609D01*
X021271Y008820D01*
X019037Y008820D01*
X019037Y008822D01*
X018942Y008917D01*
X018817Y008968D01*
X018683Y008968D01*
X018558Y008917D01*
X018463Y008822D01*
X018412Y008697D01*
X018412Y008563D01*
X018450Y008470D01*
X018321Y008470D01*
X017969Y008117D01*
X017967Y008118D01*
X017833Y008118D01*
X017708Y008067D01*
X017613Y007972D01*
X017562Y007847D01*
X017562Y007713D01*
X017613Y007588D01*
X017562Y007746D02*
X012309Y007746D01*
X012274Y007710D02*
X012520Y007956D01*
X012520Y008304D01*
X012274Y008550D01*
X011926Y008550D01*
X011680Y008304D01*
X011680Y007956D01*
X011926Y007710D01*
X012274Y007710D01*
X012468Y007904D02*
X017585Y007904D01*
X017704Y008063D02*
X012520Y008063D01*
X012520Y008221D02*
X018072Y008221D01*
X018231Y008380D02*
X012444Y008380D01*
X012286Y008538D02*
X018422Y008538D01*
X018412Y008697D02*
X012317Y008697D01*
X012291Y008670D02*
X012560Y008939D01*
X012560Y009120D01*
X012110Y009120D01*
X012110Y009140D01*
X012090Y009140D01*
X012090Y009590D01*
X011909Y009590D01*
X011640Y009321D01*
X011640Y009140D01*
X012090Y009140D01*
X012090Y009120D01*
X011640Y009120D01*
X011640Y008939D01*
X011909Y008670D01*
X012090Y008670D01*
X012090Y009120D01*
X012110Y009120D01*
X012110Y008670D01*
X012291Y008670D01*
X012110Y008697D02*
X012090Y008697D01*
X012090Y008855D02*
X012110Y008855D01*
X012110Y009014D02*
X012090Y009014D01*
X012110Y009140D02*
X012560Y009140D01*
X012560Y009321D01*
X012291Y009590D01*
X012110Y009590D01*
X012110Y009140D01*
X012110Y009172D02*
X012090Y009172D01*
X012090Y009331D02*
X012110Y009331D01*
X012110Y009489D02*
X012090Y009489D01*
X011926Y009710D02*
X012274Y009710D01*
X012520Y009956D01*
X012520Y010304D01*
X012384Y010440D01*
X013879Y010440D01*
X015560Y010440D01*
X015560Y010282D02*
X012520Y010282D01*
X012520Y010123D02*
X015560Y010123D01*
X015560Y010067D02*
X015558Y010067D01*
X015463Y009972D01*
X015412Y009847D01*
X015412Y009713D01*
X015463Y009588D01*
X015558Y009493D01*
X015683Y009442D01*
X015817Y009442D01*
X015942Y009493D01*
X016037Y009588D01*
X016050Y009621D01*
X016063Y009588D01*
X016158Y009493D01*
X016283Y009442D01*
X016417Y009442D01*
X016542Y009493D01*
X016637Y009588D01*
X016650Y009621D01*
X016663Y009588D01*
X016758Y009493D01*
X016883Y009442D01*
X017017Y009442D01*
X017142Y009493D01*
X017237Y009588D01*
X017250Y009621D01*
X017263Y009588D01*
X017358Y009493D01*
X017483Y009442D01*
X017617Y009442D01*
X017742Y009493D01*
X017837Y009588D01*
X017888Y009713D01*
X017888Y009847D01*
X017837Y009972D01*
X017742Y010067D01*
X017740Y010067D01*
X017740Y014243D01*
X017742Y014243D01*
X017837Y014338D01*
X017888Y014463D01*
X017888Y014597D01*
X017837Y014722D01*
X017742Y014817D01*
X017617Y014868D01*
X017483Y014868D01*
X017358Y014817D01*
X017263Y014722D01*
X017250Y014689D01*
X017237Y014722D01*
X017142Y014817D01*
X017017Y014868D01*
X016883Y014868D01*
X016758Y014817D01*
X016663Y014722D01*
X016650Y014689D01*
X016637Y014722D01*
X016542Y014817D01*
X016417Y014868D01*
X016283Y014868D01*
X016158Y014817D01*
X016063Y014722D01*
X016050Y014689D01*
X016037Y014722D01*
X015942Y014817D01*
X015817Y014868D01*
X015683Y014868D01*
X015558Y014817D01*
X015463Y014722D01*
X015412Y014597D01*
X015412Y014463D01*
X015463Y014338D01*
X015558Y014243D01*
X015560Y014243D01*
X015560Y010067D01*
X015460Y009965D02*
X012520Y009965D01*
X012370Y009806D02*
X015412Y009806D01*
X015439Y009648D02*
X009980Y009648D01*
X009980Y009806D02*
X010830Y009806D01*
X010926Y009710D02*
X011274Y009710D01*
X011520Y009956D01*
X011520Y010304D01*
X011274Y010550D01*
X010926Y010550D01*
X010680Y010304D01*
X010680Y009956D01*
X010926Y009710D01*
X010909Y009590D02*
X010640Y009321D01*
X010640Y009140D01*
X011090Y009140D01*
X011090Y009590D01*
X010909Y009590D01*
X010808Y009489D02*
X009980Y009489D01*
X009980Y009331D02*
X010650Y009331D01*
X010640Y009172D02*
X009980Y009172D01*
X009980Y009014D02*
X010640Y009014D01*
X010640Y008939D02*
X010640Y009120D01*
X011090Y009120D01*
X011090Y009140D01*
X011110Y009140D01*
X011110Y009590D01*
X011291Y009590D01*
X011560Y009321D01*
X011560Y009140D01*
X011110Y009140D01*
X011110Y009120D01*
X011560Y009120D01*
X011560Y008939D01*
X011291Y008670D01*
X011110Y008670D01*
X011110Y009120D01*
X011090Y009120D01*
X011090Y008670D01*
X010909Y008670D01*
X010640Y008939D01*
X010724Y008855D02*
X009980Y008855D01*
X009980Y008697D02*
X010883Y008697D01*
X010926Y008550D02*
X010680Y008304D01*
X010680Y007956D01*
X010926Y007710D01*
X011274Y007710D01*
X011520Y007956D01*
X011520Y008304D01*
X011274Y008550D01*
X010926Y008550D01*
X010914Y008538D02*
X009980Y008538D01*
X009980Y008380D02*
X010756Y008380D01*
X010680Y008221D02*
X009980Y008221D01*
X009980Y008063D02*
X010680Y008063D01*
X010732Y007904D02*
X009980Y007904D01*
X009980Y007746D02*
X010891Y007746D01*
X011309Y007746D02*
X011891Y007746D01*
X011732Y007904D02*
X011468Y007904D01*
X011520Y008063D02*
X011680Y008063D01*
X011680Y008221D02*
X011520Y008221D01*
X011444Y008380D02*
X011756Y008380D01*
X011914Y008538D02*
X011286Y008538D01*
X011317Y008697D02*
X011883Y008697D01*
X011724Y008855D02*
X011476Y008855D01*
X011560Y009014D02*
X011640Y009014D01*
X011640Y009172D02*
X011560Y009172D01*
X011550Y009331D02*
X011650Y009331D01*
X011808Y009489D02*
X011392Y009489D01*
X011110Y009489D02*
X011090Y009489D01*
X011090Y009331D02*
X011110Y009331D01*
X011110Y009172D02*
X011090Y009172D01*
X011090Y009014D02*
X011110Y009014D01*
X011110Y008855D02*
X011090Y008855D01*
X011090Y008697D02*
X011110Y008697D01*
X012476Y008855D02*
X018497Y008855D01*
X019003Y008855D02*
X021306Y008855D01*
X021465Y009014D02*
X012560Y009014D01*
X012560Y009172D02*
X021623Y009172D01*
X021782Y009331D02*
X012550Y009331D01*
X012392Y009489D02*
X015569Y009489D01*
X015931Y009489D02*
X016169Y009489D01*
X016531Y009489D02*
X016769Y009489D01*
X017131Y009489D02*
X017369Y009489D01*
X017731Y009489D02*
X021940Y009489D01*
X022099Y009648D02*
X017861Y009648D01*
X017888Y009806D02*
X022398Y009806D01*
X022802Y009806D02*
X023407Y009806D01*
X023249Y009648D02*
X022917Y009648D01*
X022938Y009489D02*
X023090Y009489D01*
X022960Y009331D02*
X022879Y009331D01*
X022960Y009172D02*
X022529Y009172D01*
X022661Y009014D02*
X022960Y009014D01*
X022857Y008855D02*
X022688Y008855D01*
X022640Y008697D02*
X022812Y008697D01*
X022843Y008538D02*
X022277Y008538D01*
X022118Y008380D02*
X022992Y008380D01*
X023308Y008380D02*
X024612Y008380D01*
X024629Y008538D02*
X023457Y008538D01*
X023845Y008697D02*
X024738Y008697D01*
X025162Y008697D02*
X026315Y008697D01*
X026269Y008743D02*
X026821Y008190D01*
X028029Y008190D01*
X028529Y008690D01*
X029010Y008690D01*
X029036Y008627D01*
X029167Y008496D01*
X029338Y008425D01*
X029522Y008425D01*
X029693Y008496D01*
X029824Y008627D01*
X029895Y008798D01*
X029895Y008982D01*
X029824Y009153D01*
X029693Y009284D01*
X029522Y009355D01*
X029338Y009355D01*
X029167Y009284D01*
X029036Y009153D01*
X029001Y009070D01*
X028371Y009070D01*
X028260Y008959D01*
X027871Y008570D01*
X027768Y008570D01*
X027824Y008627D01*
X027895Y008798D01*
X027895Y008982D01*
X027824Y009153D01*
X027693Y009284D01*
X027522Y009355D01*
X027338Y009355D01*
X027264Y009325D01*
X025869Y010720D01*
X025537Y010720D01*
X025537Y010722D01*
X025442Y010817D01*
X025317Y010868D01*
X025183Y010868D01*
X025058Y010817D01*
X024963Y010722D01*
X024912Y010597D01*
X024912Y010463D01*
X024963Y010338D01*
X025058Y010243D01*
X025183Y010192D01*
X025317Y010192D01*
X025442Y010243D01*
X025537Y010338D01*
X025537Y010340D01*
X025711Y010340D01*
X026995Y009056D01*
X026965Y008982D01*
X026965Y008798D01*
X027036Y008627D01*
X027092Y008570D01*
X026979Y008570D01*
X026537Y009011D01*
X026538Y009013D01*
X026538Y009147D01*
X026487Y009272D01*
X026392Y009367D01*
X026267Y009418D01*
X026133Y009418D01*
X026008Y009367D01*
X025913Y009272D01*
X025862Y009147D01*
X025862Y009013D01*
X025913Y008888D01*
X026008Y008793D01*
X026133Y008742D01*
X026267Y008742D01*
X026269Y008743D01*
X026473Y008538D02*
X025911Y008538D01*
X026069Y008380D02*
X026632Y008380D01*
X026790Y008221D02*
X026228Y008221D01*
X026386Y008063D02*
X030464Y008063D01*
X030622Y008221D02*
X028060Y008221D01*
X028218Y008380D02*
X030781Y008380D01*
X030664Y008538D02*
X029736Y008538D01*
X029853Y008697D02*
X030612Y008697D01*
X030636Y008855D02*
X029895Y008855D01*
X029882Y009014D02*
X030755Y009014D01*
X031214Y009172D02*
X029806Y009172D01*
X029582Y009331D02*
X031672Y009331D01*
X032150Y009489D02*
X027100Y009489D01*
X027258Y009331D02*
X027278Y009331D01*
X027582Y009331D02*
X029278Y009331D01*
X029054Y009172D02*
X027806Y009172D01*
X027882Y009014D02*
X028315Y009014D01*
X028156Y008855D02*
X027895Y008855D01*
X027853Y008697D02*
X027998Y008697D01*
X028377Y008538D02*
X029124Y008538D01*
X027007Y008697D02*
X026852Y008697D01*
X026965Y008855D02*
X026694Y008855D01*
X026538Y009014D02*
X026978Y009014D01*
X026879Y009172D02*
X026528Y009172D01*
X026428Y009331D02*
X026721Y009331D01*
X026562Y009489D02*
X023928Y009489D01*
X023840Y009331D02*
X025972Y009331D01*
X025872Y009172D02*
X023936Y009172D01*
X023988Y009014D02*
X025862Y009014D01*
X025947Y008855D02*
X023964Y008855D01*
X024086Y009648D02*
X026404Y009648D01*
X026245Y009806D02*
X024245Y009806D01*
X024403Y009965D02*
X026087Y009965D01*
X025928Y010123D02*
X024562Y010123D01*
X024720Y010282D02*
X025020Y010282D01*
X024921Y010440D02*
X024879Y010440D01*
X024890Y010599D02*
X024912Y010599D01*
X024896Y010757D02*
X024999Y010757D01*
X025054Y010916D02*
X025402Y010916D01*
X025362Y011074D02*
X025213Y011074D01*
X025371Y011233D02*
X025397Y011233D01*
X024692Y011391D02*
X023738Y011391D01*
X023738Y011397D02*
X023687Y011522D01*
X023592Y011617D01*
X023467Y011668D01*
X023333Y011668D01*
X023331Y011667D01*
X023087Y011911D01*
X023088Y011913D01*
X023088Y012047D01*
X023037Y012172D01*
X022942Y012267D01*
X022817Y012318D01*
X022683Y012318D01*
X022558Y012267D01*
X022463Y012172D01*
X022412Y012047D01*
X022412Y011913D01*
X022463Y011788D01*
X022558Y011693D01*
X022683Y011642D01*
X022817Y011642D01*
X022819Y011643D01*
X023063Y011399D01*
X023062Y011397D01*
X023062Y011263D01*
X023113Y011138D01*
X023208Y011043D01*
X023333Y010992D01*
X023467Y010992D01*
X023592Y011043D01*
X023687Y011138D01*
X023738Y011263D01*
X023738Y011397D01*
X023726Y011233D02*
X024534Y011233D01*
X024375Y011074D02*
X023622Y011074D01*
X023178Y011074D02*
X021488Y011074D01*
X021521Y011233D02*
X023074Y011233D01*
X023062Y011391D02*
X021680Y011391D01*
X021740Y011550D02*
X022912Y011550D01*
X023132Y011867D02*
X025085Y011867D01*
X025012Y012025D02*
X023088Y012025D01*
X023025Y012184D02*
X024832Y012184D01*
X024691Y012342D02*
X022331Y012342D01*
X022475Y012184D02*
X022172Y012184D01*
X022014Y012025D02*
X022412Y012025D01*
X022431Y011867D02*
X021855Y011867D01*
X021740Y011708D02*
X022544Y011708D01*
X023291Y011708D02*
X025009Y011708D01*
X024851Y011550D02*
X023659Y011550D01*
X024310Y010916D02*
X021414Y010916D01*
X020886Y010916D02*
X017740Y010916D01*
X017740Y011074D02*
X020812Y011074D01*
X020826Y011233D02*
X017740Y011233D01*
X017740Y011391D02*
X020811Y011391D01*
X020717Y011550D02*
X017740Y011550D01*
X017740Y011708D02*
X020716Y011708D01*
X020808Y011867D02*
X020477Y011867D01*
X020652Y012025D02*
X021176Y012025D01*
X021335Y012184D02*
X020688Y012184D01*
X020662Y012342D02*
X020649Y012342D01*
X020612Y012501D02*
X020540Y012501D01*
X020598Y012659D02*
X020637Y012659D01*
X020756Y012818D02*
X020760Y012818D01*
X021140Y012818D02*
X021969Y012818D01*
X022127Y012976D02*
X021215Y012976D01*
X021373Y013135D02*
X022286Y013135D01*
X022444Y013293D02*
X021532Y013293D01*
X021690Y013452D02*
X022603Y013452D01*
X022761Y013610D02*
X021849Y013610D01*
X022007Y013769D02*
X022920Y013769D01*
X023078Y013927D02*
X022166Y013927D01*
X022324Y014086D02*
X023237Y014086D01*
X023395Y014244D02*
X022483Y014244D01*
X022641Y014403D02*
X023554Y014403D01*
X023712Y014561D02*
X022800Y014561D01*
X022958Y014720D02*
X023871Y014720D01*
X024029Y014878D02*
X023117Y014878D01*
X023140Y015037D02*
X024188Y015037D01*
X024346Y015195D02*
X023140Y015195D01*
X023140Y015354D02*
X024505Y015354D01*
X024663Y015512D02*
X023140Y015512D01*
X023140Y015671D02*
X024710Y015671D01*
X024710Y015829D02*
X023140Y015829D01*
X023140Y015988D02*
X024839Y015988D01*
X024997Y016146D02*
X023140Y016146D01*
X023140Y016305D02*
X025156Y016305D01*
X025314Y016463D02*
X024361Y016463D01*
X024342Y016443D02*
X024437Y016538D01*
X024488Y016663D01*
X024488Y016797D01*
X024487Y016799D01*
X024979Y017290D01*
X025113Y017290D01*
X025113Y017288D01*
X025208Y017193D01*
X025333Y017142D01*
X025467Y017142D01*
X025592Y017193D01*
X025687Y017288D01*
X025738Y017413D01*
X025738Y017547D01*
X025687Y017672D01*
X025592Y017767D01*
X025467Y017818D01*
X025333Y017818D01*
X025208Y017767D01*
X025113Y017672D01*
X025113Y017670D01*
X024821Y017670D01*
X024710Y017559D01*
X024219Y017067D01*
X024217Y017068D01*
X024083Y017068D01*
X023958Y017017D01*
X023863Y016922D01*
X023812Y016797D01*
X023812Y016663D01*
X023863Y016538D01*
X023958Y016443D01*
X024083Y016392D01*
X024217Y016392D01*
X024342Y016443D01*
X024471Y016622D02*
X025473Y016622D01*
X025631Y016780D02*
X024488Y016780D01*
X024627Y016939D02*
X025790Y016939D01*
X025948Y017097D02*
X024786Y017097D01*
X024944Y017256D02*
X025146Y017256D01*
X025654Y017256D02*
X026107Y017256D01*
X026265Y017414D02*
X025738Y017414D01*
X025728Y017573D02*
X030074Y017573D01*
X030232Y017731D02*
X025627Y017731D01*
X025173Y017731D02*
X023140Y017731D01*
X023140Y017573D02*
X024724Y017573D01*
X024565Y017414D02*
X023140Y017414D01*
X023140Y017256D02*
X024407Y017256D01*
X024248Y017097D02*
X023140Y017097D01*
X023140Y016939D02*
X023880Y016939D01*
X023812Y016780D02*
X023140Y016780D01*
X023140Y016622D02*
X023829Y016622D01*
X023939Y016463D02*
X023140Y016463D01*
X022560Y016463D02*
X009980Y016463D01*
X009980Y016305D02*
X010831Y016305D01*
X010926Y016400D02*
X010680Y016154D01*
X010680Y015806D01*
X010926Y015560D01*
X011274Y015560D01*
X011520Y015806D01*
X011520Y016154D01*
X011274Y016400D01*
X010926Y016400D01*
X010909Y016520D02*
X010640Y016789D01*
X010640Y016970D01*
X011090Y016970D01*
X011090Y016990D01*
X011090Y017440D01*
X010909Y017440D01*
X010640Y017171D01*
X010640Y016990D01*
X011090Y016990D01*
X011110Y016990D01*
X011110Y017440D01*
X011291Y017440D01*
X011560Y017171D01*
X011560Y016990D01*
X011110Y016990D01*
X011110Y016970D01*
X011560Y016970D01*
X011560Y016789D01*
X011291Y016520D01*
X011110Y016520D01*
X011110Y016970D01*
X011090Y016970D01*
X011090Y016520D01*
X010909Y016520D01*
X010808Y016622D02*
X009980Y016622D01*
X009980Y016780D02*
X010649Y016780D01*
X010640Y016939D02*
X009980Y016939D01*
X009980Y017097D02*
X010640Y017097D01*
X010725Y017256D02*
X009980Y017256D01*
X009980Y017414D02*
X010883Y017414D01*
X010914Y017573D02*
X009980Y017573D01*
X009980Y017731D02*
X010755Y017731D01*
X010422Y017890D02*
X009980Y017890D01*
X009980Y018048D02*
X010263Y018048D01*
X010410Y017901D02*
X010410Y017901D01*
X010105Y018207D02*
X009980Y018207D01*
X009980Y018365D02*
X010060Y018365D01*
X010060Y018524D02*
X009980Y018524D01*
X009980Y018682D02*
X010060Y018682D01*
X010060Y018841D02*
X009980Y018841D01*
X009980Y018999D02*
X010060Y018999D01*
X010060Y019158D02*
X009980Y019158D01*
X009980Y019316D02*
X010060Y019316D01*
X010060Y019475D02*
X009980Y019475D01*
X009980Y019633D02*
X010060Y019633D01*
X010060Y019792D02*
X009980Y019792D01*
X009980Y019950D02*
X010060Y019950D01*
X010060Y020109D02*
X009980Y020109D01*
X009980Y020267D02*
X010060Y020267D01*
X010060Y020426D02*
X009980Y020426D01*
X009980Y020584D02*
X010060Y020584D01*
X010060Y020743D02*
X009980Y020743D01*
X009980Y020901D02*
X010060Y020901D01*
X010061Y021060D02*
X009980Y021060D01*
X009980Y021218D02*
X010219Y021218D01*
X010378Y021377D02*
X009980Y021377D01*
X009980Y021535D02*
X010536Y021535D01*
X009980Y021694D02*
X028995Y021694D01*
X028836Y021535D02*
X028713Y021535D01*
X028487Y021535D02*
X027713Y021535D01*
X027487Y021535D02*
X026713Y021535D01*
X026487Y021535D02*
X025713Y021535D01*
X025487Y021535D02*
X024713Y021535D01*
X024487Y021535D02*
X023713Y021535D01*
X023487Y021535D02*
X022213Y021535D01*
X021987Y021535D02*
X021213Y021535D01*
X020987Y021535D02*
X020213Y021535D01*
X019987Y021535D02*
X019213Y021535D01*
X018987Y021535D02*
X018213Y021535D01*
X017987Y021535D02*
X017213Y021535D01*
X016987Y021535D02*
X016320Y021535D01*
X016120Y021535D02*
X016080Y021535D01*
X016080Y021377D02*
X016120Y021377D01*
X016120Y021218D02*
X016080Y021218D01*
X016080Y021060D02*
X016120Y021060D01*
X016120Y020901D02*
X016080Y020901D01*
X016080Y020743D02*
X016120Y020743D01*
X016120Y020584D02*
X016080Y020584D01*
X015778Y020584D02*
X015356Y020584D01*
X015533Y020743D02*
X015629Y020743D01*
X016422Y020584D02*
X016835Y020584D01*
X016667Y020743D02*
X016571Y020743D01*
X016617Y021218D02*
X016626Y021218D01*
X016528Y021377D02*
X016725Y021377D01*
X017475Y021377D02*
X017725Y021377D01*
X017626Y021218D02*
X017574Y021218D01*
X018475Y021377D02*
X018725Y021377D01*
X018626Y021218D02*
X018574Y021218D01*
X019475Y021377D02*
X019725Y021377D01*
X019626Y021218D02*
X019574Y021218D01*
X020475Y021377D02*
X020725Y021377D01*
X020626Y021218D02*
X020574Y021218D01*
X021475Y021377D02*
X021725Y021377D01*
X021626Y021218D02*
X021574Y021218D01*
X022475Y021377D02*
X023225Y021377D01*
X023126Y021218D02*
X022574Y021218D01*
X022610Y021060D02*
X023090Y021060D01*
X023101Y020901D02*
X022599Y020901D01*
X022533Y020743D02*
X023167Y020743D01*
X023335Y020584D02*
X022356Y020584D01*
X022290Y020426D02*
X023177Y020426D01*
X023018Y020267D02*
X022290Y020267D01*
X022290Y020109D02*
X022860Y020109D01*
X022701Y019950D02*
X022139Y019950D01*
X021980Y019792D02*
X022543Y019792D01*
X022384Y019633D02*
X021822Y019633D01*
X021663Y019475D02*
X022226Y019475D01*
X022067Y019316D02*
X021505Y019316D01*
X021346Y019158D02*
X021909Y019158D01*
X021750Y018999D02*
X021188Y018999D01*
X021029Y018841D02*
X021592Y018841D01*
X021433Y018682D02*
X020871Y018682D01*
X020712Y018524D02*
X021275Y018524D01*
X021837Y018048D02*
X022560Y018048D01*
X022560Y017890D02*
X021678Y017890D01*
X021995Y018207D02*
X022560Y018207D01*
X022716Y018365D02*
X022154Y018365D01*
X022312Y018524D02*
X022875Y018524D01*
X023033Y018682D02*
X022471Y018682D01*
X022629Y018841D02*
X023192Y018841D01*
X023350Y018999D02*
X022788Y018999D01*
X022946Y019158D02*
X025109Y019158D01*
X025267Y019316D02*
X023105Y019316D01*
X023863Y019475D02*
X025410Y019475D01*
X025410Y019633D02*
X024022Y019633D01*
X024180Y019792D02*
X025410Y019792D01*
X025410Y019950D02*
X024339Y019950D01*
X024497Y020109D02*
X025410Y020109D01*
X025410Y020267D02*
X024656Y020267D01*
X024790Y020426D02*
X025410Y020426D01*
X025344Y020584D02*
X024856Y020584D01*
X025033Y020743D02*
X025167Y020743D01*
X025101Y020901D02*
X025099Y020901D01*
X025074Y021218D02*
X025126Y021218D01*
X025225Y021377D02*
X024975Y021377D01*
X024225Y021377D02*
X023975Y021377D01*
X024074Y021218D02*
X024126Y021218D01*
X025975Y021377D02*
X026225Y021377D01*
X026126Y021218D02*
X026074Y021218D01*
X026975Y021377D02*
X027225Y021377D01*
X027126Y021218D02*
X027074Y021218D01*
X027975Y021377D02*
X028225Y021377D01*
X028126Y021218D02*
X028074Y021218D01*
X028099Y020901D02*
X028101Y020901D01*
X028167Y020743D02*
X028033Y020743D01*
X027856Y020584D02*
X028344Y020584D01*
X028856Y020584D02*
X029344Y020584D01*
X029167Y020743D02*
X029033Y020743D01*
X029099Y020901D02*
X029101Y020901D01*
X029856Y020584D02*
X030344Y020584D01*
X030167Y020743D02*
X030033Y020743D01*
X030099Y020901D02*
X030101Y020901D01*
X030856Y020584D02*
X033085Y020584D01*
X032927Y020426D02*
X026790Y020426D01*
X026790Y020267D02*
X032768Y020267D01*
X032610Y020109D02*
X026790Y020109D01*
X026790Y019950D02*
X032451Y019950D01*
X032293Y019792D02*
X026790Y019792D01*
X026790Y019633D02*
X032134Y019633D01*
X031976Y019475D02*
X026790Y019475D01*
X026755Y019316D02*
X031817Y019316D01*
X031659Y019158D02*
X026596Y019158D01*
X026438Y018999D02*
X031500Y018999D01*
X031342Y018841D02*
X026279Y018841D01*
X026121Y018682D02*
X031183Y018682D01*
X031025Y018524D02*
X023712Y018524D01*
X023554Y018365D02*
X030866Y018365D01*
X030708Y018207D02*
X023395Y018207D01*
X023237Y018048D02*
X030549Y018048D01*
X030391Y017890D02*
X023140Y017890D01*
X022560Y017731D02*
X018420Y017731D01*
X018261Y017573D02*
X022560Y017573D01*
X022560Y017414D02*
X018103Y017414D01*
X018085Y017256D02*
X022560Y017256D01*
X022560Y017097D02*
X017995Y017097D01*
X017505Y017097D02*
X017395Y017097D01*
X016905Y017097D02*
X016745Y017097D01*
X016255Y017097D02*
X015995Y017097D01*
X016085Y017256D02*
X016165Y017256D01*
X016169Y017414D02*
X016103Y017414D01*
X016261Y017573D02*
X016264Y017573D01*
X016420Y017731D02*
X016632Y017731D01*
X016578Y017890D02*
X016791Y017890D01*
X016737Y018048D02*
X016949Y018048D01*
X016895Y018207D02*
X017108Y018207D01*
X017054Y018365D02*
X017266Y018365D01*
X016675Y018524D02*
X011825Y018524D01*
X011804Y018682D02*
X011396Y018682D01*
X011520Y018841D02*
X011680Y018841D01*
X011680Y018999D02*
X011520Y018999D01*
X011546Y019158D02*
X011684Y019158D01*
X012396Y018682D02*
X016833Y018682D01*
X016516Y018365D02*
X012309Y018365D01*
X012467Y018207D02*
X016358Y018207D01*
X016199Y018048D02*
X012520Y018048D01*
X012520Y017890D02*
X016041Y017890D01*
X015882Y017731D02*
X012445Y017731D01*
X012286Y017573D02*
X015514Y017573D01*
X015419Y017414D02*
X012317Y017414D01*
X012291Y017440D02*
X012110Y017440D01*
X012110Y016990D01*
X012090Y016990D01*
X012090Y017440D01*
X011909Y017440D01*
X011640Y017171D01*
X011640Y016990D01*
X012090Y016990D01*
X012090Y016970D01*
X011640Y016970D01*
X011640Y016789D01*
X011909Y016520D01*
X012090Y016520D01*
X012090Y016970D01*
X012110Y016970D01*
X012110Y016990D01*
X012560Y016990D01*
X012560Y017171D01*
X012291Y017440D01*
X012110Y017414D02*
X012090Y017414D01*
X012090Y017256D02*
X012110Y017256D01*
X012110Y017097D02*
X012090Y017097D01*
X012110Y016970D02*
X012560Y016970D01*
X012560Y016789D01*
X012291Y016520D01*
X012110Y016520D01*
X012110Y016970D01*
X012110Y016939D02*
X012090Y016939D01*
X012090Y016780D02*
X012110Y016780D01*
X012110Y016622D02*
X012090Y016622D01*
X011926Y016400D02*
X011680Y016154D01*
X011680Y015806D01*
X011926Y015560D01*
X012274Y015560D01*
X012520Y015806D01*
X012520Y016154D01*
X012274Y016400D01*
X011926Y016400D01*
X011831Y016305D02*
X011369Y016305D01*
X011520Y016146D02*
X011680Y016146D01*
X011680Y015988D02*
X011520Y015988D01*
X011520Y015829D02*
X011680Y015829D01*
X011816Y015671D02*
X011384Y015671D01*
X010816Y015671D02*
X009980Y015671D01*
X009980Y015829D02*
X010680Y015829D01*
X010680Y015988D02*
X009980Y015988D01*
X009980Y016146D02*
X010680Y016146D01*
X011090Y016622D02*
X011110Y016622D01*
X011110Y016780D02*
X011090Y016780D01*
X011090Y016939D02*
X011110Y016939D01*
X011110Y017097D02*
X011090Y017097D01*
X011090Y017256D02*
X011110Y017256D01*
X011110Y017414D02*
X011090Y017414D01*
X011317Y017414D02*
X011883Y017414D01*
X011914Y017573D02*
X011286Y017573D01*
X011445Y017731D02*
X011755Y017731D01*
X011680Y017890D02*
X011520Y017890D01*
X011520Y018048D02*
X011680Y018048D01*
X011605Y018207D02*
X011467Y018207D01*
X011475Y017256D02*
X011725Y017256D01*
X011640Y017097D02*
X011560Y017097D01*
X011560Y016939D02*
X011640Y016939D01*
X011649Y016780D02*
X011551Y016780D01*
X011392Y016622D02*
X011808Y016622D01*
X012392Y016622D02*
X022560Y016622D01*
X022560Y016780D02*
X012551Y016780D01*
X012560Y016939D02*
X022560Y016939D01*
X022560Y016305D02*
X020395Y016305D01*
X020368Y016332D02*
X020194Y016404D01*
X020006Y016404D01*
X019832Y016332D01*
X019698Y016198D01*
X019626Y016024D01*
X019626Y015836D01*
X019698Y015662D01*
X019832Y015528D01*
X020006Y015456D01*
X020194Y015456D01*
X020368Y015528D01*
X020502Y015662D01*
X020574Y015836D01*
X020574Y016024D01*
X020502Y016198D01*
X020368Y016332D01*
X020523Y016146D02*
X022560Y016146D01*
X022560Y015988D02*
X020574Y015988D01*
X020571Y015829D02*
X022560Y015829D01*
X022560Y015671D02*
X020505Y015671D01*
X020329Y015512D02*
X022560Y015512D01*
X022560Y015354D02*
X009980Y015354D01*
X009980Y015512D02*
X019871Y015512D01*
X019695Y015671D02*
X012384Y015671D01*
X012520Y015829D02*
X019629Y015829D01*
X019626Y015988D02*
X012520Y015988D01*
X012520Y016146D02*
X019677Y016146D01*
X019805Y016305D02*
X012369Y016305D01*
X012560Y017097D02*
X015505Y017097D01*
X015415Y017256D02*
X012475Y017256D01*
X009980Y015195D02*
X022560Y015195D01*
X022438Y015037D02*
X009980Y015037D01*
X009980Y014878D02*
X022279Y014878D01*
X022121Y014720D02*
X017837Y014720D01*
X017888Y014561D02*
X021962Y014561D01*
X021804Y014403D02*
X017863Y014403D01*
X017742Y014244D02*
X021645Y014244D01*
X021487Y014086D02*
X017740Y014086D01*
X017740Y013927D02*
X021328Y013927D01*
X021170Y013769D02*
X017740Y013769D01*
X017740Y013610D02*
X021011Y013610D01*
X020853Y013452D02*
X017740Y013452D01*
X017740Y013293D02*
X020694Y013293D01*
X020536Y013135D02*
X017740Y013135D01*
X017740Y012976D02*
X020377Y012976D01*
X020219Y012818D02*
X017740Y012818D01*
X017740Y012659D02*
X020160Y012659D01*
X020160Y012501D02*
X017740Y012501D01*
X017740Y012342D02*
X020051Y012342D01*
X020012Y012184D02*
X017740Y012184D01*
X017740Y012025D02*
X020048Y012025D01*
X020223Y011867D02*
X017740Y011867D01*
X015560Y011867D02*
X012430Y011867D01*
X012520Y011956D02*
X012274Y011710D01*
X011926Y011710D01*
X011680Y011956D01*
X011680Y012304D01*
X011926Y012550D01*
X012274Y012550D01*
X012520Y012304D01*
X012520Y011956D01*
X012520Y012025D02*
X015560Y012025D01*
X015560Y012184D02*
X012520Y012184D01*
X012482Y012342D02*
X015560Y012342D01*
X015560Y012501D02*
X012323Y012501D01*
X012438Y012710D02*
X011762Y012710D01*
X011680Y012792D01*
X011680Y013468D01*
X011762Y013550D01*
X012438Y013550D01*
X012520Y013468D01*
X012520Y012792D01*
X012438Y012710D01*
X012520Y012818D02*
X015560Y012818D01*
X015560Y012976D02*
X012520Y012976D01*
X012520Y013135D02*
X015560Y013135D01*
X015560Y013293D02*
X012520Y013293D01*
X012520Y013452D02*
X015560Y013452D01*
X015560Y013610D02*
X009980Y013610D01*
X009980Y013452D02*
X010828Y013452D01*
X010926Y013550D02*
X010680Y013304D01*
X010680Y012956D01*
X010926Y012710D01*
X011274Y012710D01*
X011520Y012956D01*
X011520Y013304D01*
X011274Y013550D01*
X010926Y013550D01*
X010680Y013293D02*
X009980Y013293D01*
X009980Y013135D02*
X010680Y013135D01*
X010680Y012976D02*
X009980Y012976D01*
X009980Y012818D02*
X010819Y012818D01*
X010926Y012550D02*
X010680Y012304D01*
X010680Y011956D01*
X010926Y011710D01*
X011274Y011710D01*
X011520Y011956D01*
X011520Y012304D01*
X011274Y012550D01*
X010926Y012550D01*
X010877Y012501D02*
X009980Y012501D01*
X009980Y012659D02*
X015560Y012659D01*
X015560Y011708D02*
X009980Y011708D01*
X009980Y011550D02*
X010926Y011550D01*
X010680Y011304D01*
X010680Y010956D01*
X010926Y010710D01*
X011251Y010710D01*
X011410Y010551D01*
X011521Y010440D01*
X011384Y010440D01*
X011521Y010440D02*
X011816Y010440D01*
X011680Y010304D01*
X011680Y009956D01*
X011926Y009710D01*
X011830Y009806D02*
X011370Y009806D01*
X011520Y009965D02*
X011680Y009965D01*
X011680Y010123D02*
X011520Y010123D01*
X011520Y010282D02*
X011680Y010282D01*
X011363Y010599D02*
X009980Y010599D01*
X009980Y010757D02*
X010879Y010757D01*
X010721Y010916D02*
X009980Y010916D01*
X009980Y011074D02*
X010680Y011074D01*
X010680Y011233D02*
X009980Y011233D01*
X009980Y011391D02*
X010767Y011391D01*
X010926Y011550D02*
X011274Y011550D01*
X011520Y011304D01*
X011520Y010979D01*
X011679Y010820D01*
X011816Y010820D01*
X011680Y010956D01*
X011680Y011304D01*
X011926Y011550D01*
X012274Y011550D01*
X012520Y011304D01*
X012520Y010956D01*
X012384Y010820D01*
X013721Y010820D01*
X013913Y011011D01*
X013912Y011013D01*
X013912Y011147D01*
X013963Y011272D01*
X014058Y011367D01*
X014183Y011418D01*
X014317Y011418D01*
X014442Y011367D01*
X014537Y011272D01*
X014588Y011147D01*
X014588Y011013D01*
X014537Y010888D01*
X014442Y010793D01*
X014317Y010742D01*
X014183Y010742D01*
X014181Y010743D01*
X013879Y010440D01*
X014037Y010599D02*
X015560Y010599D01*
X015560Y010757D02*
X014354Y010757D01*
X014548Y010916D02*
X015560Y010916D01*
X015560Y011074D02*
X014588Y011074D01*
X014553Y011233D02*
X015560Y011233D01*
X015560Y011391D02*
X014383Y011391D01*
X014117Y011391D02*
X012433Y011391D01*
X012520Y011233D02*
X013947Y011233D01*
X013912Y011074D02*
X012520Y011074D01*
X012479Y010916D02*
X013817Y010916D01*
X012274Y011550D02*
X015560Y011550D01*
X017740Y010757D02*
X024310Y010757D01*
X024200Y010599D02*
X017740Y010599D01*
X017740Y010440D02*
X024041Y010440D01*
X023883Y010282D02*
X017740Y010282D01*
X017740Y010123D02*
X023724Y010123D01*
X023566Y009965D02*
X017840Y009965D01*
X021527Y008538D02*
X021739Y008538D01*
X021685Y008697D02*
X021898Y008697D01*
X021844Y008855D02*
X022012Y008855D01*
X022002Y009014D02*
X022039Y009014D01*
X022161Y009172D02*
X022171Y009172D01*
X022319Y009331D02*
X022321Y009331D01*
X021960Y008221D02*
X024681Y008221D01*
X024756Y007904D02*
X018293Y007904D01*
X018238Y007746D02*
X024178Y007746D01*
X023999Y007587D02*
X018185Y007587D01*
X018451Y008063D02*
X024969Y008063D01*
X024712Y007746D02*
X024422Y007746D01*
X024601Y007587D02*
X024743Y007587D01*
X024638Y007429D02*
X024894Y007429D01*
X024729Y007270D02*
X025130Y007270D01*
X021959Y007112D02*
X020697Y007112D01*
X020786Y006953D02*
X021912Y006953D01*
X021940Y006795D02*
X021714Y006795D01*
X021286Y006795D02*
X020924Y006795D01*
X021101Y006636D02*
X021178Y006636D01*
X021162Y006478D02*
X021138Y006478D01*
X021099Y006319D02*
X021233Y006319D01*
X020990Y006161D02*
X021562Y006161D01*
X020114Y006953D02*
X020086Y006953D01*
X019997Y007112D02*
X020203Y007112D01*
X019503Y007112D02*
X019297Y007112D01*
X019386Y006953D02*
X019414Y006953D01*
X015900Y007270D02*
X009980Y007270D01*
X009980Y007112D02*
X015646Y007112D01*
X012176Y004893D02*
X011922Y004893D01*
X012023Y004734D02*
X012177Y004734D01*
X012243Y004576D02*
X012049Y004576D01*
X012015Y004417D02*
X012409Y004417D01*
X009980Y004100D02*
X014869Y004100D01*
X015027Y003942D02*
X009980Y003942D01*
X009980Y003783D02*
X018086Y003783D01*
X018244Y003625D02*
X009980Y003625D01*
X009980Y003466D02*
X018403Y003466D01*
X018561Y003308D02*
X009980Y003308D01*
X009980Y003149D02*
X018720Y003149D01*
X018878Y002991D02*
X011915Y002991D01*
X012020Y002832D02*
X036797Y002832D01*
X036826Y002700D02*
X036580Y002454D01*
X036580Y002106D01*
X036826Y001860D01*
X037174Y001860D01*
X037420Y002106D01*
X037420Y002454D01*
X037174Y002700D01*
X036826Y002700D01*
X036800Y002674D02*
X036200Y002674D01*
X036174Y002700D02*
X035826Y002700D01*
X035580Y002454D01*
X035580Y002106D01*
X035826Y001860D01*
X036174Y001860D01*
X036420Y002106D01*
X036420Y002454D01*
X036174Y002700D01*
X036359Y002515D02*
X036641Y002515D01*
X036580Y002357D02*
X036420Y002357D01*
X036420Y002198D02*
X036580Y002198D01*
X036647Y002040D02*
X036353Y002040D01*
X036195Y001881D02*
X036805Y001881D01*
X037195Y001881D02*
X037805Y001881D01*
X037826Y001860D02*
X038174Y001860D01*
X038420Y002106D01*
X038420Y002454D01*
X038174Y002700D01*
X037826Y002700D01*
X037580Y002454D01*
X037580Y002106D01*
X037826Y001860D01*
X037647Y002040D02*
X037353Y002040D01*
X037420Y002198D02*
X037580Y002198D01*
X037580Y002357D02*
X037420Y002357D01*
X037359Y002515D02*
X037641Y002515D01*
X037800Y002674D02*
X037200Y002674D01*
X037361Y002991D02*
X037696Y002991D01*
X037580Y003106D02*
X037826Y002860D01*
X038174Y002860D01*
X038420Y003106D01*
X038420Y003454D01*
X038174Y003700D01*
X037826Y003700D01*
X037580Y003454D01*
X037580Y003106D01*
X037580Y003149D02*
X037460Y003149D01*
X037460Y003308D02*
X037580Y003308D01*
X037592Y003466D02*
X037460Y003466D01*
X037306Y003625D02*
X037751Y003625D01*
X038249Y003625D02*
X038751Y003625D01*
X038592Y003466D02*
X038408Y003466D01*
X038420Y003308D02*
X038580Y003308D01*
X038580Y003149D02*
X038420Y003149D01*
X038304Y002991D02*
X038696Y002991D01*
X038826Y002700D02*
X038580Y002454D01*
X038580Y002106D01*
X038826Y001860D01*
X039174Y001860D01*
X039420Y002106D01*
X039420Y002454D01*
X039174Y002700D01*
X038826Y002700D01*
X038800Y002674D02*
X038200Y002674D01*
X038359Y002515D02*
X038641Y002515D01*
X038580Y002357D02*
X038420Y002357D01*
X038420Y002198D02*
X038580Y002198D01*
X038647Y002040D02*
X038353Y002040D01*
X038195Y001881D02*
X038805Y001881D01*
X039195Y001881D02*
X039805Y001881D01*
X039647Y002040D02*
X039353Y002040D01*
X039420Y002198D02*
X039580Y002198D01*
X039580Y002357D02*
X039420Y002357D01*
X039359Y002515D02*
X039641Y002515D01*
X039800Y002674D02*
X039200Y002674D01*
X039304Y002991D02*
X039696Y002991D01*
X039580Y003149D02*
X039420Y003149D01*
X039420Y003308D02*
X039580Y003308D01*
X039592Y003466D02*
X039455Y003466D01*
X039613Y003625D02*
X039751Y003625D01*
X039234Y003783D02*
X034808Y003783D01*
X034650Y003942D02*
X039393Y003942D01*
X039460Y004100D02*
X034491Y004100D01*
X034333Y004259D02*
X039460Y004259D01*
X039460Y004417D02*
X032765Y004417D01*
X032838Y004576D02*
X039460Y004576D01*
X039460Y004734D02*
X038773Y004734D01*
X038931Y004893D02*
X039409Y004893D01*
X039317Y005051D02*
X039090Y005051D01*
X039248Y005210D02*
X039317Y005210D01*
X039407Y005368D02*
X039410Y005368D01*
X038660Y006059D02*
X038171Y005570D01*
X038084Y005570D01*
X038320Y005806D01*
X038320Y006154D01*
X038074Y006400D01*
X037749Y006400D01*
X037479Y006670D01*
X037184Y006670D01*
X037320Y006806D01*
X037320Y007154D01*
X037184Y007290D01*
X037321Y007290D01*
X037480Y007131D01*
X037480Y006806D01*
X037726Y006560D01*
X038074Y006560D01*
X038320Y006806D01*
X038320Y007154D01*
X038074Y007400D01*
X037749Y007400D01*
X037590Y007559D01*
X037479Y007670D01*
X037184Y007670D01*
X037320Y007806D01*
X037320Y008154D01*
X037184Y008290D01*
X037321Y008290D01*
X037480Y008131D01*
X037480Y007806D01*
X037726Y007560D01*
X038074Y007560D01*
X038320Y007806D01*
X038320Y008154D01*
X038074Y008400D01*
X037749Y008400D01*
X037590Y008559D01*
X037479Y008670D01*
X037184Y008670D01*
X037320Y008806D01*
X037320Y009154D01*
X037184Y009290D01*
X037321Y009290D01*
X037480Y009131D01*
X037480Y008806D01*
X037726Y008560D01*
X038074Y008560D01*
X038320Y008806D01*
X038320Y009154D01*
X038074Y009400D01*
X037749Y009400D01*
X037590Y009559D01*
X037479Y009670D01*
X037184Y009670D01*
X037320Y009806D01*
X037440Y009806D01*
X037440Y009789D02*
X037709Y009520D01*
X037890Y009520D01*
X037890Y009970D01*
X037440Y009970D01*
X037440Y009789D01*
X037320Y009806D02*
X037320Y010154D01*
X037074Y010400D01*
X036726Y010400D01*
X036480Y010154D01*
X036480Y009806D01*
X035995Y009806D01*
X035921Y009670D02*
X035810Y009559D01*
X033971Y007720D01*
X033909Y007720D01*
X036679Y010490D01*
X038221Y010490D01*
X038560Y010151D01*
X038560Y008201D01*
X038860Y007901D01*
X038971Y007790D01*
X039996Y007790D01*
X040116Y007670D01*
X039171Y007670D01*
X039060Y007559D01*
X038660Y007159D01*
X038660Y006059D01*
X038603Y006002D02*
X038320Y006002D01*
X038320Y005844D02*
X038445Y005844D01*
X038286Y005685D02*
X038199Y005685D01*
X038313Y006161D02*
X038660Y006161D01*
X038660Y006319D02*
X038155Y006319D01*
X038150Y006636D02*
X038660Y006636D01*
X038660Y006478D02*
X037671Y006478D01*
X037650Y006636D02*
X037513Y006636D01*
X037492Y006795D02*
X037308Y006795D01*
X037320Y006953D02*
X037480Y006953D01*
X037480Y007112D02*
X037320Y007112D01*
X037341Y007270D02*
X037204Y007270D01*
X037562Y007587D02*
X037699Y007587D01*
X037720Y007429D02*
X038930Y007429D01*
X039088Y007587D02*
X038101Y007587D01*
X038259Y007746D02*
X040041Y007746D01*
X040704Y007270D02*
X040841Y007270D01*
X040820Y007112D02*
X040980Y007112D01*
X040980Y006953D02*
X040820Y006953D01*
X040808Y006795D02*
X040992Y006795D01*
X041013Y006636D02*
X041150Y006636D01*
X041171Y006478D02*
X041984Y006478D01*
X041825Y006636D02*
X041650Y006636D01*
X041808Y006795D02*
X041810Y006795D01*
X041655Y006319D02*
X042142Y006319D01*
X042301Y006161D02*
X041813Y006161D01*
X041820Y006002D02*
X042459Y006002D01*
X042618Y005844D02*
X041820Y005844D01*
X041699Y005685D02*
X043480Y005685D01*
X041101Y005685D02*
X040820Y005685D01*
X040820Y005844D02*
X040980Y005844D01*
X040980Y006002D02*
X040820Y006002D01*
X040820Y006161D02*
X040951Y006161D01*
X038660Y006795D02*
X038308Y006795D01*
X038320Y006953D02*
X038660Y006953D01*
X038660Y007112D02*
X038320Y007112D01*
X038204Y007270D02*
X038771Y007270D01*
X037541Y007746D02*
X037259Y007746D01*
X037320Y007904D02*
X037480Y007904D01*
X037480Y008063D02*
X037320Y008063D01*
X037253Y008221D02*
X037390Y008221D01*
X037611Y008538D02*
X038560Y008538D01*
X038560Y008380D02*
X038094Y008380D01*
X038253Y008221D02*
X038560Y008221D01*
X038699Y008063D02*
X038320Y008063D01*
X038320Y007904D02*
X038857Y007904D01*
X038560Y008697D02*
X038210Y008697D01*
X038320Y008855D02*
X038560Y008855D01*
X038560Y009014D02*
X038320Y009014D01*
X038302Y009172D02*
X038560Y009172D01*
X038560Y009331D02*
X038143Y009331D01*
X038091Y009520D02*
X037910Y009520D01*
X037910Y009970D01*
X037910Y009990D01*
X037890Y009990D01*
X037890Y010440D01*
X037709Y010440D01*
X037440Y010171D01*
X037440Y009990D01*
X037890Y009990D01*
X037890Y009970D01*
X037910Y009970D01*
X038360Y009970D01*
X038360Y009789D01*
X038091Y009520D01*
X038218Y009648D02*
X038560Y009648D01*
X038560Y009806D02*
X038360Y009806D01*
X038360Y009965D02*
X038560Y009965D01*
X038560Y010123D02*
X038360Y010123D01*
X038360Y010171D02*
X038360Y009990D01*
X037910Y009990D01*
X037910Y010440D01*
X038091Y010440D01*
X038360Y010171D01*
X038430Y010282D02*
X038249Y010282D01*
X038271Y010440D02*
X036629Y010440D01*
X036608Y010282D02*
X036470Y010282D01*
X036480Y010123D02*
X036312Y010123D01*
X036153Y009965D02*
X036480Y009965D01*
X036480Y009806D02*
X036616Y009670D01*
X035921Y009670D01*
X035899Y009648D02*
X035836Y009648D01*
X035740Y009489D02*
X035678Y009489D01*
X035582Y009331D02*
X035519Y009331D01*
X035423Y009172D02*
X035361Y009172D01*
X035265Y009014D02*
X035202Y009014D01*
X035106Y008855D02*
X035044Y008855D01*
X034948Y008697D02*
X034885Y008697D01*
X034789Y008538D02*
X034727Y008538D01*
X034631Y008380D02*
X034568Y008380D01*
X034472Y008221D02*
X034410Y008221D01*
X034314Y008063D02*
X034251Y008063D01*
X034155Y007904D02*
X034093Y007904D01*
X033997Y007746D02*
X033934Y007746D01*
X037210Y008697D02*
X037590Y008697D01*
X037590Y008559D02*
X037590Y008559D01*
X037480Y008855D02*
X037320Y008855D01*
X037320Y009014D02*
X037480Y009014D01*
X037439Y009172D02*
X037302Y009172D01*
X037660Y009489D02*
X038560Y009489D01*
X037910Y009648D02*
X037890Y009648D01*
X037890Y009806D02*
X037910Y009806D01*
X037910Y009965D02*
X037890Y009965D01*
X037890Y010123D02*
X037910Y010123D01*
X037910Y010282D02*
X037890Y010282D01*
X037551Y010282D02*
X037192Y010282D01*
X037320Y010123D02*
X037440Y010123D01*
X037440Y009965D02*
X037320Y009965D01*
X037501Y009648D02*
X037582Y009648D01*
X039640Y010159D02*
X039980Y009819D01*
X039980Y010154D01*
X040226Y010400D01*
X040574Y010400D01*
X040820Y010154D01*
X040820Y009806D01*
X040940Y009806D01*
X040940Y009789D02*
X041209Y009520D01*
X041390Y009520D01*
X041390Y009970D01*
X041410Y009970D01*
X041410Y009520D01*
X041591Y009520D01*
X041810Y009739D01*
X041810Y009164D01*
X041574Y009400D01*
X041249Y009400D01*
X041090Y009559D01*
X040979Y009670D01*
X040684Y009670D01*
X040820Y009806D01*
X040940Y009789D02*
X040940Y009970D01*
X041390Y009970D01*
X041390Y009990D01*
X041390Y010440D01*
X041209Y010440D01*
X040940Y010171D01*
X040940Y009990D01*
X041390Y009990D01*
X041410Y009990D01*
X041410Y010440D01*
X041471Y010440D01*
X039640Y010440D01*
X039640Y010282D02*
X040108Y010282D01*
X039980Y010123D02*
X039676Y010123D01*
X039640Y010159D02*
X039640Y010659D01*
X039009Y011290D01*
X040621Y011290D01*
X041471Y010440D01*
X041410Y010282D02*
X041390Y010282D01*
X041390Y010123D02*
X041410Y010123D01*
X041410Y009965D02*
X041390Y009965D01*
X041390Y009806D02*
X041410Y009806D01*
X041410Y009648D02*
X041390Y009648D01*
X041160Y009489D02*
X041810Y009489D01*
X041810Y009331D02*
X041643Y009331D01*
X041802Y009172D02*
X041810Y009172D01*
X041810Y009648D02*
X041718Y009648D01*
X041082Y009648D02*
X041001Y009648D01*
X040940Y009965D02*
X040820Y009965D01*
X040820Y010123D02*
X040940Y010123D01*
X041051Y010282D02*
X040692Y010282D01*
X041313Y010599D02*
X039640Y010599D01*
X039542Y010757D02*
X041154Y010757D01*
X040996Y010916D02*
X039383Y010916D01*
X039225Y011074D02*
X040837Y011074D01*
X040679Y011233D02*
X039066Y011233D01*
X039834Y009965D02*
X039980Y009965D01*
X042841Y011708D02*
X045067Y011708D01*
X045081Y011722D02*
X044938Y011579D01*
X044860Y011391D01*
X043158Y011391D01*
X043316Y011233D02*
X044860Y011233D01*
X044860Y011189D02*
X044938Y011001D01*
X045081Y010858D01*
X045269Y010780D01*
X045471Y010780D01*
X045659Y010858D01*
X045802Y011001D01*
X045880Y011189D01*
X045880Y011391D01*
X047420Y011391D01*
X047420Y011189D01*
X047498Y011001D01*
X047641Y010858D01*
X047829Y010780D01*
X048031Y010780D01*
X048219Y010858D01*
X048362Y011001D01*
X048440Y011189D01*
X048440Y011391D01*
X048890Y011391D01*
X048890Y011233D02*
X048440Y011233D01*
X048440Y011391D02*
X048362Y011579D01*
X048219Y011722D01*
X048031Y011800D01*
X047829Y011800D01*
X047641Y011722D01*
X047498Y011579D01*
X047420Y011391D01*
X047420Y011233D02*
X045880Y011233D01*
X045880Y011391D02*
X045802Y011579D01*
X045659Y011722D01*
X045471Y011800D01*
X045269Y011800D01*
X045081Y011722D01*
X044925Y011550D02*
X042999Y011550D01*
X042682Y011867D02*
X048890Y011867D01*
X048890Y012025D02*
X042524Y012025D01*
X042365Y012184D02*
X048890Y012184D01*
X048890Y012342D02*
X042207Y012342D01*
X042048Y012501D02*
X048890Y012501D01*
X048890Y012659D02*
X048240Y012659D01*
X048219Y012638D02*
X048362Y012781D01*
X048440Y012969D01*
X048440Y013171D01*
X048362Y013359D01*
X048219Y013502D01*
X048031Y013580D01*
X047829Y013580D01*
X047641Y013502D01*
X047498Y013359D01*
X047420Y013171D01*
X047420Y012969D01*
X047498Y012781D01*
X047641Y012638D01*
X047829Y012560D01*
X048031Y012560D01*
X048219Y012638D01*
X048377Y012818D02*
X048890Y012818D01*
X048890Y012976D02*
X048440Y012976D01*
X048440Y013135D02*
X048890Y013135D01*
X048890Y013293D02*
X048390Y013293D01*
X048270Y013452D02*
X048890Y013452D01*
X048890Y013610D02*
X045476Y013610D01*
X045499Y013606D02*
X045413Y013620D01*
X045390Y013620D01*
X045390Y013090D01*
X045920Y013090D01*
X045920Y013113D01*
X045906Y013199D01*
X045880Y013281D01*
X045840Y013358D01*
X045790Y013428D01*
X045728Y013490D01*
X045658Y013540D01*
X045581Y013580D01*
X045499Y013606D01*
X045390Y013610D02*
X045350Y013610D01*
X045350Y013620D02*
X045327Y013620D01*
X045241Y013606D01*
X045159Y013580D01*
X045082Y013540D01*
X045012Y013490D01*
X044950Y013428D01*
X044900Y013358D01*
X044860Y013281D01*
X044834Y013199D01*
X044820Y013113D01*
X044820Y013090D01*
X045350Y013090D01*
X045350Y013620D01*
X045264Y013610D02*
X039599Y013610D01*
X039757Y013769D02*
X048890Y013769D01*
X048890Y013927D02*
X039916Y013927D01*
X040074Y014086D02*
X048890Y014086D01*
X048890Y014244D02*
X040233Y014244D01*
X040391Y014403D02*
X048890Y014403D01*
X048890Y014561D02*
X040550Y014561D01*
X040708Y014720D02*
X048890Y014720D01*
X048890Y014878D02*
X040867Y014878D01*
X041025Y015037D02*
X046761Y015037D01*
X046782Y015016D02*
X046953Y014945D01*
X047787Y014945D01*
X047958Y015016D01*
X048089Y015147D01*
X048160Y015318D01*
X048160Y015502D01*
X048089Y015673D01*
X047958Y015804D01*
X047787Y015875D01*
X046953Y015875D01*
X046782Y015804D01*
X046651Y015673D01*
X046580Y015502D01*
X046580Y015318D01*
X046651Y015147D01*
X046782Y015016D01*
X046631Y015195D02*
X041184Y015195D01*
X041342Y015354D02*
X046580Y015354D01*
X046584Y015512D02*
X041501Y015512D01*
X041659Y015671D02*
X046650Y015671D01*
X046842Y015829D02*
X041818Y015829D01*
X041976Y015988D02*
X046851Y015988D01*
X046652Y016146D02*
X042135Y016146D01*
X042293Y016305D02*
X046586Y016305D01*
X046580Y016463D02*
X042390Y016463D01*
X042390Y016622D02*
X043500Y016622D01*
X043480Y016642D02*
X043562Y016560D01*
X044238Y016560D01*
X044320Y016642D01*
X044320Y017318D01*
X044238Y017400D01*
X043562Y017400D01*
X043480Y017318D01*
X043480Y016642D01*
X043480Y016780D02*
X042390Y016780D01*
X042390Y016939D02*
X043480Y016939D01*
X043480Y017097D02*
X042390Y017097D01*
X042390Y017256D02*
X043480Y017256D01*
X043726Y017560D02*
X044074Y017560D01*
X044320Y017806D01*
X044320Y018154D01*
X044074Y018400D01*
X043726Y018400D01*
X043480Y018154D01*
X043480Y017806D01*
X043726Y017560D01*
X043714Y017573D02*
X042390Y017573D01*
X042390Y017731D02*
X043555Y017731D01*
X043480Y017890D02*
X042390Y017890D01*
X042390Y018048D02*
X043480Y018048D01*
X043533Y018207D02*
X042390Y018207D01*
X042390Y018365D02*
X043691Y018365D01*
X043726Y018560D02*
X044074Y018560D01*
X044320Y018806D01*
X044320Y019154D01*
X044074Y019400D01*
X043726Y019400D01*
X043480Y019154D01*
X043480Y018806D01*
X043726Y018560D01*
X043604Y018682D02*
X042390Y018682D01*
X042390Y018524D02*
X045410Y018524D01*
X045410Y018682D02*
X045196Y018682D01*
X045074Y018560D02*
X045320Y018806D01*
X045320Y019154D01*
X045074Y019400D01*
X044726Y019400D01*
X044480Y019154D01*
X044480Y018806D01*
X044726Y018560D01*
X045074Y018560D01*
X045074Y018400D02*
X044726Y018400D01*
X044480Y018154D01*
X044480Y017806D01*
X044726Y017560D01*
X045074Y017560D01*
X045320Y017806D01*
X045320Y018154D01*
X045074Y018400D01*
X045109Y018365D02*
X045410Y018365D01*
X045410Y018207D02*
X045267Y018207D01*
X045320Y018048D02*
X045410Y018048D01*
X045410Y017890D02*
X045320Y017890D01*
X045245Y017731D02*
X045480Y017731D01*
X045639Y017573D02*
X045086Y017573D01*
X045074Y017400D02*
X044726Y017400D01*
X044480Y017154D01*
X044480Y016806D01*
X044726Y016560D01*
X045074Y016560D01*
X045320Y016806D01*
X045320Y017154D01*
X045074Y017400D01*
X045218Y017256D02*
X045956Y017256D01*
X045797Y017414D02*
X042390Y017414D01*
X044086Y017573D02*
X044714Y017573D01*
X044555Y017731D02*
X044245Y017731D01*
X044320Y017890D02*
X044480Y017890D01*
X044480Y018048D02*
X044320Y018048D01*
X044267Y018207D02*
X044533Y018207D01*
X044691Y018365D02*
X044109Y018365D01*
X044196Y018682D02*
X044604Y018682D01*
X044480Y018841D02*
X044320Y018841D01*
X044320Y018999D02*
X044480Y018999D01*
X044484Y019158D02*
X044316Y019158D01*
X044158Y019316D02*
X044642Y019316D01*
X044726Y019560D02*
X045074Y019560D01*
X045320Y019806D01*
X045320Y020154D01*
X045074Y020400D01*
X044726Y020400D01*
X044480Y020154D01*
X044480Y019806D01*
X044726Y019560D01*
X044653Y019633D02*
X044147Y019633D01*
X044074Y019560D02*
X044320Y019806D01*
X044320Y020154D01*
X044074Y020400D01*
X043726Y020400D01*
X043480Y020154D01*
X043480Y019806D01*
X043726Y019560D01*
X044074Y019560D01*
X044305Y019792D02*
X044495Y019792D01*
X044480Y019950D02*
X044320Y019950D01*
X044320Y020109D02*
X044480Y020109D01*
X044593Y020267D02*
X044207Y020267D01*
X044709Y020520D02*
X044440Y020789D01*
X044440Y020970D01*
X044890Y020970D01*
X044890Y020990D01*
X044890Y021440D01*
X044709Y021440D01*
X044440Y021171D01*
X044440Y020990D01*
X044890Y020990D01*
X044910Y020990D01*
X044910Y021440D01*
X045091Y021440D01*
X045360Y021171D01*
X045360Y020990D01*
X044910Y020990D01*
X044910Y020970D01*
X045360Y020970D01*
X045360Y020789D01*
X045091Y020520D01*
X044910Y020520D01*
X044910Y020970D01*
X044890Y020970D01*
X044890Y020520D01*
X044709Y020520D01*
X044645Y020584D02*
X044098Y020584D01*
X044256Y020743D02*
X044487Y020743D01*
X044440Y020901D02*
X044320Y020901D01*
X044320Y021060D02*
X044440Y021060D01*
X044487Y021218D02*
X044256Y021218D01*
X044097Y021377D02*
X044646Y021377D01*
X044890Y021377D02*
X044910Y021377D01*
X044910Y021218D02*
X044890Y021218D01*
X044890Y021060D02*
X044910Y021060D01*
X044910Y020901D02*
X044890Y020901D01*
X044890Y020743D02*
X044910Y020743D01*
X044910Y020584D02*
X044890Y020584D01*
X045155Y020584D02*
X045410Y020584D01*
X045410Y020426D02*
X043614Y020426D01*
X043593Y020267D02*
X041707Y020267D01*
X042140Y020109D02*
X043480Y020109D01*
X043480Y019950D02*
X042299Y019950D01*
X042390Y019792D02*
X043495Y019792D01*
X043653Y019633D02*
X042390Y019633D01*
X042390Y019475D02*
X045410Y019475D01*
X045410Y019633D02*
X045147Y019633D01*
X045305Y019792D02*
X045410Y019792D01*
X045410Y019950D02*
X045320Y019950D01*
X045320Y020109D02*
X045410Y020109D01*
X045410Y020267D02*
X045207Y020267D01*
X045790Y020267D02*
X048890Y020267D01*
X048890Y020109D02*
X045790Y020109D01*
X045790Y019950D02*
X048890Y019950D01*
X048890Y019792D02*
X046594Y019792D01*
X046618Y019782D02*
X046444Y019854D01*
X046256Y019854D01*
X046082Y019782D01*
X045948Y019648D01*
X045876Y019474D01*
X045876Y019286D01*
X045948Y019112D01*
X046082Y018978D01*
X046256Y018906D01*
X046444Y018906D01*
X046618Y018978D01*
X046752Y019112D01*
X046824Y019286D01*
X046824Y019474D01*
X046752Y019648D01*
X046618Y019782D01*
X046758Y019633D02*
X048890Y019633D01*
X048890Y019475D02*
X046824Y019475D01*
X046824Y019316D02*
X048890Y019316D01*
X048890Y019158D02*
X046771Y019158D01*
X046639Y018999D02*
X048890Y018999D01*
X048890Y018841D02*
X045790Y018841D01*
X045790Y018999D02*
X046061Y018999D01*
X045929Y019158D02*
X045790Y019158D01*
X045790Y019316D02*
X045876Y019316D01*
X045876Y019475D02*
X045790Y019475D01*
X045790Y019633D02*
X045942Y019633D01*
X045790Y019792D02*
X046106Y019792D01*
X045410Y019316D02*
X045158Y019316D01*
X045316Y019158D02*
X045410Y019158D01*
X045410Y018999D02*
X045320Y018999D01*
X045320Y018841D02*
X045410Y018841D01*
X045790Y018682D02*
X048890Y018682D01*
X048890Y018524D02*
X045790Y018524D01*
X045790Y018365D02*
X048890Y018365D01*
X048890Y018207D02*
X045790Y018207D01*
X045790Y018048D02*
X048890Y018048D01*
X048890Y017890D02*
X045859Y017890D01*
X046018Y017731D02*
X046709Y017731D01*
X046651Y017673D02*
X046580Y017502D01*
X046580Y017318D01*
X046651Y017147D01*
X046782Y017016D01*
X046953Y016945D01*
X047787Y016945D01*
X047958Y017016D01*
X048089Y017147D01*
X048160Y017318D01*
X048160Y017502D01*
X048089Y017673D01*
X047958Y017804D01*
X047787Y017875D01*
X046953Y017875D01*
X046782Y017804D01*
X046651Y017673D01*
X046609Y017573D02*
X046176Y017573D01*
X046335Y017414D02*
X046580Y017414D01*
X046606Y017256D02*
X046493Y017256D01*
X046652Y017097D02*
X046701Y017097D01*
X046810Y016939D02*
X048890Y016939D01*
X048890Y017097D02*
X048039Y017097D01*
X048134Y017256D02*
X048890Y017256D01*
X048890Y017414D02*
X048160Y017414D01*
X048131Y017573D02*
X048890Y017573D01*
X048890Y017731D02*
X048031Y017731D01*
X047982Y016780D02*
X048890Y016780D01*
X048890Y016622D02*
X048110Y016622D01*
X048160Y016463D02*
X048890Y016463D01*
X048890Y016305D02*
X048154Y016305D01*
X048088Y016146D02*
X048890Y016146D01*
X048890Y015988D02*
X047889Y015988D01*
X047898Y015829D02*
X048890Y015829D01*
X048890Y015671D02*
X048090Y015671D01*
X048156Y015512D02*
X048890Y015512D01*
X048890Y015354D02*
X048160Y015354D01*
X048109Y015195D02*
X048890Y015195D01*
X048890Y015037D02*
X047979Y015037D01*
X047590Y013452D02*
X045766Y013452D01*
X045874Y013293D02*
X047470Y013293D01*
X047420Y013135D02*
X045917Y013135D01*
X045920Y013050D02*
X045390Y013050D01*
X045390Y013090D01*
X045350Y013090D01*
X045350Y013050D01*
X045390Y013050D01*
X045390Y012520D01*
X045413Y012520D01*
X045499Y012534D01*
X045581Y012560D01*
X045658Y012600D01*
X045728Y012650D01*
X045790Y012712D01*
X045840Y012782D01*
X045880Y012859D01*
X045906Y012941D01*
X045920Y013027D01*
X045920Y013050D01*
X045912Y012976D02*
X047420Y012976D01*
X047483Y012818D02*
X045859Y012818D01*
X045737Y012659D02*
X047620Y012659D01*
X047627Y011708D02*
X045673Y011708D01*
X045815Y011550D02*
X047485Y011550D01*
X048233Y011708D02*
X048890Y011708D01*
X048890Y011550D02*
X048375Y011550D01*
X048393Y011074D02*
X048890Y011074D01*
X048890Y010916D02*
X048277Y010916D01*
X048890Y010757D02*
X043590Y010757D01*
X043590Y010599D02*
X048890Y010599D01*
X047583Y010916D02*
X045717Y010916D01*
X045833Y011074D02*
X047467Y011074D01*
X045023Y010916D02*
X043590Y010916D01*
X043475Y011074D02*
X044907Y011074D01*
X044860Y011189D02*
X044860Y011391D01*
X045241Y012534D02*
X045327Y012520D01*
X045350Y012520D01*
X045350Y013050D01*
X044820Y013050D01*
X044820Y013027D01*
X044834Y012941D01*
X044860Y012859D01*
X044900Y012782D01*
X044950Y012712D01*
X045012Y012650D01*
X045082Y012600D01*
X045159Y012560D01*
X045241Y012534D01*
X045350Y012659D02*
X045390Y012659D01*
X045390Y012818D02*
X045350Y012818D01*
X045350Y012976D02*
X045390Y012976D01*
X045390Y013135D02*
X045350Y013135D01*
X045350Y013293D02*
X045390Y013293D01*
X045390Y013452D02*
X045350Y013452D01*
X044974Y013452D02*
X039440Y013452D01*
X039282Y013293D02*
X044866Y013293D01*
X044823Y013135D02*
X039123Y013135D01*
X041573Y012976D02*
X044828Y012976D01*
X044881Y012818D02*
X041731Y012818D01*
X041890Y012659D02*
X045003Y012659D01*
X045135Y016622D02*
X046590Y016622D01*
X046431Y016780D02*
X045294Y016780D01*
X045320Y016939D02*
X046273Y016939D01*
X046114Y017097D02*
X045320Y017097D01*
X044582Y017256D02*
X044320Y017256D01*
X044320Y017097D02*
X044480Y017097D01*
X044480Y016939D02*
X044320Y016939D01*
X044320Y016780D02*
X044506Y016780D01*
X044665Y016622D02*
X044300Y016622D01*
X043480Y018841D02*
X042390Y018841D01*
X042390Y018999D02*
X043480Y018999D01*
X043484Y019158D02*
X042390Y019158D01*
X042390Y019316D02*
X043642Y019316D01*
X045790Y020426D02*
X048890Y020426D01*
X048890Y020584D02*
X045790Y020584D01*
X045790Y020743D02*
X048890Y020743D01*
X048890Y020901D02*
X045790Y020901D01*
X045790Y021060D02*
X048890Y021060D01*
X048890Y021218D02*
X045790Y021218D01*
X045790Y021377D02*
X048890Y021377D01*
X048890Y021535D02*
X045664Y021535D01*
X045505Y021694D02*
X048890Y021694D01*
X048890Y021852D02*
X009980Y021852D01*
X009980Y022011D02*
X048890Y022011D01*
X045410Y021218D02*
X045313Y021218D01*
X045285Y021377D02*
X045154Y021377D01*
X045360Y021060D02*
X045410Y021060D01*
X045410Y020901D02*
X045360Y020901D01*
X045313Y020743D02*
X045410Y020743D01*
X043703Y021377D02*
X041654Y021377D01*
X041591Y021440D02*
X041410Y021440D01*
X041410Y020990D01*
X041860Y020990D01*
X041860Y021171D01*
X041591Y021440D01*
X041410Y021377D02*
X041390Y021377D01*
X041390Y021218D02*
X041410Y021218D01*
X041410Y021060D02*
X041390Y021060D01*
X041146Y021377D02*
X040597Y021377D01*
X040756Y021218D02*
X040987Y021218D01*
X040940Y021060D02*
X040820Y021060D01*
X040820Y020901D02*
X040940Y020901D01*
X040906Y020743D02*
X040987Y020743D01*
X040686Y020426D02*
X038764Y020426D01*
X038923Y020584D02*
X040202Y020584D01*
X040043Y020743D02*
X039081Y020743D01*
X039240Y020901D02*
X039980Y020901D01*
X039980Y021060D02*
X039398Y021060D01*
X039557Y021218D02*
X040044Y021218D01*
X040203Y021377D02*
X039715Y021377D01*
X039336Y021535D02*
X036664Y021535D01*
X036822Y021377D02*
X039178Y021377D01*
X039019Y021218D02*
X036981Y021218D01*
X037139Y021060D02*
X038861Y021060D01*
X038702Y020901D02*
X037298Y020901D01*
X037456Y020743D02*
X038084Y020743D01*
X037977Y020584D02*
X037615Y020584D01*
X037773Y020426D02*
X037962Y020426D01*
X037932Y020267D02*
X038035Y020267D01*
X037711Y019950D02*
X037399Y019950D01*
X037479Y019870D02*
X037791Y019870D01*
X037760Y019901D01*
X036510Y021151D01*
X036510Y020990D01*
X036060Y020990D01*
X036060Y020970D01*
X036510Y020970D01*
X036510Y020789D01*
X036391Y020670D01*
X036679Y020670D01*
X037479Y019870D01*
X037553Y020109D02*
X037240Y020109D01*
X037394Y020267D02*
X037082Y020267D01*
X037236Y020426D02*
X036923Y020426D01*
X037077Y020584D02*
X036765Y020584D01*
X036919Y020743D02*
X036463Y020743D01*
X036510Y020901D02*
X036760Y020901D01*
X036602Y021060D02*
X036510Y021060D01*
X036060Y021060D02*
X036040Y021060D01*
X036040Y021218D02*
X036060Y021218D01*
X036060Y021377D02*
X036040Y021377D01*
X035796Y021377D02*
X035247Y021377D01*
X035406Y021218D02*
X035637Y021218D01*
X035590Y021060D02*
X035470Y021060D01*
X035470Y020901D02*
X035590Y020901D01*
X035637Y020743D02*
X035406Y020743D01*
X034693Y020743D02*
X033966Y020743D01*
X033534Y020743D02*
X031033Y020743D01*
X031099Y020901D02*
X034630Y020901D01*
X034630Y021060D02*
X031110Y021060D01*
X031074Y021218D02*
X034694Y021218D01*
X034853Y021377D02*
X030975Y021377D01*
X027344Y020584D02*
X026856Y020584D01*
X027033Y020743D02*
X027167Y020743D01*
X027101Y020901D02*
X027099Y020901D01*
X036505Y021694D02*
X039495Y021694D01*
X041813Y021218D02*
X043544Y021218D01*
X043480Y021060D02*
X041860Y021060D01*
X041860Y020901D02*
X043480Y020901D01*
X043394Y020743D02*
X041813Y020743D01*
X041093Y020267D02*
X040707Y020267D01*
X040820Y020109D02*
X040980Y020109D01*
X040980Y019950D02*
X040820Y019950D01*
X040890Y019792D02*
X040995Y019792D01*
X040093Y020267D02*
X038565Y020267D01*
X038544Y020743D02*
X038516Y020743D01*
X031265Y016146D02*
X028038Y016146D01*
X027986Y015988D02*
X031424Y015988D01*
X031582Y015829D02*
X027118Y015829D01*
X027276Y015988D02*
X027414Y015988D01*
X026959Y015671D02*
X031741Y015671D01*
X031899Y015512D02*
X026801Y015512D01*
X027594Y014958D02*
X027767Y015030D01*
X027953Y015030D01*
X028126Y014958D01*
X028258Y014826D01*
X028330Y014653D01*
X028330Y014467D01*
X028258Y014294D01*
X028126Y014162D01*
X027953Y014090D01*
X027767Y014090D01*
X027594Y014162D01*
X027462Y014294D01*
X027390Y014467D01*
X027390Y014653D01*
X027462Y014826D01*
X027594Y014958D01*
X027513Y014878D02*
X024867Y014878D01*
X025025Y015037D02*
X032499Y015037D01*
X032462Y014878D02*
X029207Y014878D01*
X029303Y014720D02*
X029621Y014720D01*
X029462Y014561D02*
X029330Y014561D01*
X029303Y014403D02*
X029304Y014403D01*
X028987Y014086D02*
X024074Y014086D01*
X024233Y014244D02*
X027511Y014244D01*
X027417Y014403D02*
X024391Y014403D01*
X024550Y014561D02*
X027390Y014561D01*
X027417Y014720D02*
X024708Y014720D01*
X025184Y015195D02*
X032677Y015195D01*
X032058Y015354D02*
X025802Y015354D01*
X025298Y015354D02*
X025290Y015354D01*
X023916Y013927D02*
X028828Y013927D01*
X028670Y013769D02*
X023757Y013769D01*
X023599Y013610D02*
X026611Y013610D01*
X026453Y013452D02*
X023440Y013452D01*
X023282Y013293D02*
X026294Y013293D01*
X026136Y013135D02*
X023123Y013135D01*
X022965Y012976D02*
X025977Y012976D01*
X025819Y012818D02*
X025069Y012818D01*
X024931Y012818D02*
X022806Y012818D01*
X022648Y012659D02*
X024708Y012659D01*
X024662Y012501D02*
X022489Y012501D01*
X021810Y012659D02*
X021263Y012659D01*
X021288Y012501D02*
X021652Y012501D01*
X021493Y012342D02*
X021238Y012342D01*
X025501Y010757D02*
X025596Y010757D01*
X025804Y010757D02*
X030251Y010757D01*
X030160Y010848D02*
X030418Y010590D01*
X030782Y010590D01*
X031040Y010848D01*
X031040Y011212D01*
X030782Y011470D01*
X030418Y011470D01*
X030160Y011212D01*
X030160Y010848D01*
X030160Y010916D02*
X025998Y010916D01*
X026038Y011074D02*
X030160Y011074D01*
X030180Y011233D02*
X026121Y011233D01*
X026280Y011391D02*
X026714Y011391D01*
X027086Y011391D02*
X030339Y011391D01*
X030418Y011590D02*
X030782Y011590D01*
X031040Y011848D01*
X031040Y012212D01*
X030782Y012470D01*
X030418Y012470D01*
X030160Y012212D01*
X030160Y011848D01*
X030418Y011590D01*
X030300Y011708D02*
X027238Y011708D01*
X027212Y011550D02*
X034501Y011550D01*
X034659Y011708D02*
X031900Y011708D01*
X031782Y011590D02*
X032040Y011848D01*
X032040Y012212D01*
X031782Y012470D01*
X031418Y012470D01*
X031160Y012212D01*
X031160Y011848D01*
X031418Y011590D01*
X031782Y011590D01*
X031799Y011510D02*
X031620Y011510D01*
X031620Y011050D01*
X031580Y011050D01*
X031580Y011510D01*
X031401Y011510D01*
X031120Y011229D01*
X031120Y011050D01*
X031580Y011050D01*
X031580Y011010D01*
X031120Y011010D01*
X031120Y010831D01*
X031401Y010550D01*
X031580Y010550D01*
X031580Y011010D01*
X031620Y011010D01*
X031620Y011050D01*
X032080Y011050D01*
X032080Y011229D01*
X031799Y011510D01*
X031918Y011391D02*
X034342Y011391D01*
X034184Y011233D02*
X032076Y011233D01*
X032080Y011074D02*
X034025Y011074D01*
X033867Y010916D02*
X032080Y010916D01*
X032080Y010831D02*
X032080Y011010D01*
X031620Y011010D01*
X031620Y010550D01*
X031799Y010550D01*
X032080Y010831D01*
X032006Y010757D02*
X033708Y010757D01*
X033550Y010599D02*
X033110Y010599D01*
X032590Y010599D02*
X031847Y010599D01*
X031620Y010599D02*
X031580Y010599D01*
X031580Y010757D02*
X031620Y010757D01*
X031620Y010916D02*
X031580Y010916D01*
X031580Y011074D02*
X031620Y011074D01*
X031620Y011233D02*
X031580Y011233D01*
X031580Y011391D02*
X031620Y011391D01*
X031282Y011391D02*
X030861Y011391D01*
X031020Y011233D02*
X031124Y011233D01*
X031120Y011074D02*
X031040Y011074D01*
X031040Y010916D02*
X031120Y010916D01*
X031194Y010757D02*
X030949Y010757D01*
X030791Y010599D02*
X031353Y010599D01*
X030409Y010599D02*
X025990Y010599D01*
X026149Y010440D02*
X032512Y010440D01*
X032525Y010282D02*
X026307Y010282D01*
X026466Y010123D02*
X032315Y010123D01*
X032219Y009965D02*
X026624Y009965D01*
X026783Y009806D02*
X032215Y009806D01*
X032304Y009648D02*
X026941Y009648D01*
X025770Y010282D02*
X025480Y010282D01*
X027189Y011867D02*
X030160Y011867D01*
X030160Y012025D02*
X026464Y012025D01*
X026622Y012184D02*
X027478Y012184D01*
X027110Y012342D02*
X026781Y012342D01*
X026939Y012501D02*
X027017Y012501D01*
X029222Y012184D02*
X030160Y012184D01*
X030290Y012342D02*
X029381Y012342D01*
X029539Y012501D02*
X033411Y012501D01*
X033252Y012659D02*
X032027Y012659D01*
X032040Y012672D02*
X032040Y013388D01*
X031958Y013470D01*
X031242Y013470D01*
X031160Y013388D01*
X031160Y012672D01*
X031242Y012590D01*
X031958Y012590D01*
X032040Y012672D01*
X032040Y012818D02*
X033094Y012818D01*
X032935Y012976D02*
X032040Y012976D01*
X032040Y013135D02*
X032777Y013135D01*
X032618Y013293D02*
X032040Y013293D01*
X031976Y013452D02*
X032460Y013452D01*
X031224Y013452D02*
X030732Y013452D01*
X030959Y013293D02*
X031160Y013293D01*
X031160Y013135D02*
X031033Y013135D01*
X031040Y012976D02*
X031160Y012976D01*
X031160Y012818D02*
X030988Y012818D01*
X030851Y012659D02*
X031173Y012659D01*
X031290Y012342D02*
X030910Y012342D01*
X031040Y012184D02*
X031160Y012184D01*
X031160Y012025D02*
X031040Y012025D01*
X031040Y011867D02*
X031160Y011867D01*
X031300Y011708D02*
X030900Y011708D01*
X032040Y011867D02*
X034818Y011867D01*
X034976Y012025D02*
X032040Y012025D01*
X032040Y012184D02*
X035135Y012184D01*
X035293Y012342D02*
X031910Y012342D01*
X030349Y012659D02*
X029698Y012659D01*
X029856Y012818D02*
X030212Y012818D01*
X030160Y012976D02*
X030015Y012976D01*
X028511Y014244D02*
X028209Y014244D01*
X028303Y014403D02*
X028417Y014403D01*
X028390Y014561D02*
X028330Y014561D01*
X028303Y014720D02*
X028417Y014720D01*
X028513Y014878D02*
X028207Y014878D01*
X017263Y014720D02*
X017237Y014720D01*
X016663Y014720D02*
X016637Y014720D01*
X016063Y014720D02*
X016037Y014720D01*
X015463Y014720D02*
X009980Y014720D01*
X009980Y014561D02*
X015412Y014561D01*
X015437Y014403D02*
X009980Y014403D01*
X009980Y014244D02*
X015558Y014244D01*
X015560Y014086D02*
X009980Y014086D01*
X009980Y013927D02*
X015560Y013927D01*
X015560Y013769D02*
X009980Y013769D01*
X011372Y013452D02*
X011680Y013452D01*
X011680Y013293D02*
X011520Y013293D01*
X011520Y013135D02*
X011680Y013135D01*
X011680Y012976D02*
X011520Y012976D01*
X011381Y012818D02*
X011680Y012818D01*
X011877Y012501D02*
X011323Y012501D01*
X011482Y012342D02*
X011718Y012342D01*
X011680Y012184D02*
X011520Y012184D01*
X011520Y012025D02*
X011680Y012025D01*
X011770Y011867D02*
X011430Y011867D01*
X011274Y011550D02*
X011926Y011550D01*
X011767Y011391D02*
X011433Y011391D01*
X011520Y011233D02*
X011680Y011233D01*
X011680Y011074D02*
X011520Y011074D01*
X011583Y010916D02*
X011721Y010916D01*
X010816Y010440D02*
X009980Y010440D01*
X009980Y010282D02*
X010680Y010282D01*
X010680Y010123D02*
X009980Y010123D01*
X009980Y009965D02*
X010680Y009965D01*
X010770Y011867D02*
X009980Y011867D01*
X009980Y012025D02*
X010680Y012025D01*
X010680Y012184D02*
X009980Y012184D01*
X009980Y012342D02*
X010718Y012342D01*
X015016Y004576D02*
X018836Y004576D01*
X019010Y004417D02*
X015174Y004417D01*
X018233Y004259D02*
X019010Y004259D01*
X019010Y004100D02*
X018391Y004100D01*
X018550Y003942D02*
X018901Y003942D01*
X018862Y003783D02*
X018708Y003783D01*
X018867Y003625D02*
X018898Y003625D01*
X019025Y003466D02*
X019075Y003466D01*
X019325Y003466D02*
X025325Y003466D01*
X025483Y003625D02*
X019502Y003625D01*
X019390Y004417D02*
X032235Y004417D01*
X032823Y004734D02*
X034577Y004734D01*
X034419Y004893D02*
X032716Y004893D01*
X032490Y005051D02*
X034260Y005051D01*
X034186Y003783D02*
X026264Y003783D01*
X026106Y003625D02*
X034344Y003625D01*
X034503Y003466D02*
X025947Y003466D01*
X025789Y003308D02*
X034580Y003308D01*
X034580Y003149D02*
X025630Y003149D01*
X025472Y002991D02*
X034696Y002991D01*
X035200Y002674D02*
X035800Y002674D01*
X035641Y002515D02*
X035359Y002515D01*
X035420Y002357D02*
X035580Y002357D01*
X035580Y002198D02*
X035420Y002198D01*
X035353Y002040D02*
X035647Y002040D01*
X035805Y001881D02*
X035195Y001881D01*
X035304Y002991D02*
X035696Y002991D01*
X035580Y003149D02*
X035420Y003149D01*
X036304Y002991D02*
X036639Y002991D01*
X036540Y003149D02*
X036420Y003149D01*
X036420Y003308D02*
X036540Y003308D01*
X036540Y003466D02*
X036408Y003466D01*
X040359Y002515D02*
X040641Y002515D01*
X040580Y002357D02*
X040420Y002357D01*
X040420Y002198D02*
X040580Y002198D01*
X040647Y002040D02*
X040353Y002040D01*
X040195Y001881D02*
X040805Y001881D01*
X041195Y001881D02*
X041805Y001881D01*
X041826Y001860D02*
X042174Y001860D01*
X042420Y002106D01*
X042420Y002454D01*
X042174Y002700D01*
X041826Y002700D01*
X041580Y002454D01*
X041580Y002106D01*
X041826Y001860D01*
X041647Y002040D02*
X041353Y002040D01*
X041420Y002198D02*
X041580Y002198D01*
X041580Y002357D02*
X041420Y002357D01*
X041359Y002515D02*
X041641Y002515D01*
X041800Y002674D02*
X041200Y002674D01*
X041361Y002991D02*
X041696Y002991D01*
X041580Y003106D02*
X041826Y002860D01*
X042174Y002860D01*
X042420Y003106D01*
X042420Y003454D01*
X042174Y003700D01*
X041826Y003700D01*
X041580Y003454D01*
X041580Y003106D01*
X041580Y003149D02*
X041460Y003149D01*
X041460Y003308D02*
X041580Y003308D01*
X041592Y003466D02*
X041460Y003466D01*
X041306Y003625D02*
X041751Y003625D01*
X042249Y003625D02*
X042751Y003625D01*
X042592Y003466D02*
X042408Y003466D01*
X042420Y003308D02*
X042580Y003308D01*
X042580Y003149D02*
X042420Y003149D01*
X042304Y002991D02*
X042696Y002991D01*
X042800Y002674D02*
X042200Y002674D01*
X042359Y002515D02*
X042641Y002515D01*
X042580Y002357D02*
X042420Y002357D01*
X042420Y002198D02*
X042580Y002198D01*
X042647Y002040D02*
X042353Y002040D01*
X042195Y001881D02*
X042805Y001881D01*
X043195Y001881D02*
X043805Y001881D01*
X043647Y002040D02*
X043353Y002040D01*
X043420Y002198D02*
X043580Y002198D01*
X043580Y002357D02*
X043420Y002357D01*
X043359Y002515D02*
X043641Y002515D01*
X045304Y002991D02*
X045310Y002991D01*
X045690Y002991D02*
X045696Y002991D01*
X045717Y002832D02*
X048890Y002832D01*
X048890Y002674D02*
X047257Y002674D01*
X047416Y002515D02*
X048890Y002515D01*
X048890Y002357D02*
X047460Y002357D01*
X047460Y002198D02*
X048890Y002198D01*
X048890Y002040D02*
X047410Y002040D01*
X046748Y001881D02*
X046195Y001881D01*
X046353Y002040D02*
X046590Y002040D01*
X046540Y002198D02*
X046420Y002198D01*
X046420Y002357D02*
X046540Y002357D01*
X046584Y002515D02*
X046359Y002515D01*
X047420Y002991D02*
X047970Y002991D01*
X047982Y002978D02*
X047848Y003112D01*
X047776Y003286D01*
X047776Y003474D01*
X047848Y003648D01*
X047982Y003782D01*
X048156Y003854D01*
X048344Y003854D01*
X048518Y003782D01*
X048652Y003648D01*
X048724Y003474D01*
X048724Y003286D01*
X048652Y003112D01*
X048518Y002978D01*
X048344Y002906D01*
X048156Y002906D01*
X047982Y002978D01*
X047833Y003149D02*
X047420Y003149D01*
X047420Y003308D02*
X047776Y003308D01*
X047776Y003466D02*
X047420Y003466D01*
X047413Y003625D02*
X047839Y003625D01*
X047985Y003783D02*
X046772Y003783D01*
X046930Y003942D02*
X048890Y003942D01*
X048890Y004100D02*
X047089Y004100D01*
X047247Y004259D02*
X048890Y004259D01*
X048890Y004417D02*
X047406Y004417D01*
X047564Y004576D02*
X048890Y004576D01*
X048890Y004734D02*
X047640Y004734D01*
X047640Y004893D02*
X048890Y004893D01*
X048890Y005051D02*
X047640Y005051D01*
X047640Y005210D02*
X048890Y005210D01*
X048890Y005368D02*
X047640Y005368D01*
X047640Y005527D02*
X048890Y005527D01*
X048890Y005685D02*
X048070Y005685D01*
X048163Y005844D02*
X048890Y005844D01*
X048890Y006002D02*
X048184Y006002D01*
X048145Y006161D02*
X048890Y006161D01*
X048890Y006319D02*
X048026Y006319D01*
X048021Y006636D02*
X048890Y006636D01*
X048890Y006478D02*
X046766Y006478D01*
X046874Y006319D02*
X046608Y006319D01*
X046755Y006161D02*
X046449Y006161D01*
X046291Y006002D02*
X046716Y006002D01*
X046737Y005844D02*
X046132Y005844D01*
X045974Y005685D02*
X046830Y005685D01*
X047260Y005527D02*
X045815Y005527D01*
X048143Y006795D02*
X048890Y006795D01*
X048890Y006953D02*
X048184Y006953D01*
X048165Y007112D02*
X048890Y007112D01*
X048890Y007270D02*
X048075Y007270D01*
X044541Y007746D02*
X044259Y007746D01*
X044320Y007904D02*
X044480Y007904D01*
X044480Y008063D02*
X044320Y008063D01*
X044253Y008221D02*
X044390Y008221D01*
X048515Y003783D02*
X048890Y003783D01*
X048890Y003625D02*
X048661Y003625D01*
X048724Y003466D02*
X048890Y003466D01*
X048890Y003308D02*
X048724Y003308D01*
X048667Y003149D02*
X048890Y003149D01*
X048890Y002991D02*
X048530Y002991D01*
X045751Y003625D02*
X045690Y003625D01*
X048890Y001247D02*
X009980Y001247D01*
X009980Y001723D02*
X018186Y001723D01*
X018110Y001881D02*
X009980Y001881D01*
X010887Y002040D02*
X018090Y002040D01*
X018118Y002198D02*
X010953Y002198D01*
X010953Y002357D02*
X011313Y002357D01*
X011206Y002515D02*
X010953Y002515D01*
X010953Y002674D02*
X011176Y002674D01*
X011204Y002832D02*
X010953Y002832D01*
X010953Y002991D02*
X011310Y002991D01*
X011911Y002357D02*
X018205Y002357D01*
X019762Y002515D02*
X020438Y002515D01*
X020205Y002357D02*
X019995Y002357D01*
X020082Y002198D02*
X020118Y002198D01*
X020110Y001881D02*
X020090Y001881D01*
X020014Y001723D02*
X020186Y001723D01*
X020392Y001564D02*
X019808Y001564D01*
X025300Y003130D02*
X026300Y004130D01*
X014844Y020584D02*
X014215Y020584D01*
X014056Y020743D02*
X014667Y020743D01*
X014601Y020901D02*
X013898Y020901D01*
X013739Y021060D02*
X014590Y021060D01*
X014626Y021218D02*
X013581Y021218D01*
X013422Y021377D02*
X014725Y021377D01*
X014987Y021535D02*
X013264Y021535D01*
X013240Y021559D02*
X013240Y021559D01*
X015213Y021535D02*
X015880Y021535D01*
X015672Y021377D02*
X015475Y021377D01*
X015574Y021218D02*
X015583Y021218D01*
D26*
X017100Y021030D02*
X017100Y020580D01*
X016800Y020280D01*
X014250Y020280D01*
X013050Y021480D01*
X010750Y021480D01*
X010250Y020980D01*
X010250Y018330D01*
X010600Y017980D01*
X011100Y017980D01*
X011600Y018480D02*
X012100Y017980D01*
X011600Y018480D02*
X010750Y018480D01*
X010550Y018680D01*
X010550Y020280D01*
X010750Y020480D01*
X013200Y020480D01*
X013700Y019980D01*
X017450Y019980D01*
X018100Y020630D01*
X018100Y021030D01*
X019100Y021030D02*
X019100Y020130D01*
X018450Y019480D01*
X011600Y019480D01*
X011100Y018980D01*
X012100Y018980D02*
X019250Y018980D01*
X020100Y019830D01*
X020100Y021030D01*
X021100Y021030D02*
X021100Y019980D01*
X019750Y018630D01*
X017050Y018630D01*
X015750Y017330D01*
X016500Y017330D02*
X017600Y018430D01*
X020350Y018430D01*
X022100Y020180D01*
X022100Y021030D01*
X023600Y021030D02*
X023600Y020580D01*
X021250Y018230D01*
X018050Y018230D01*
X017150Y017330D01*
X017750Y017330D02*
X018450Y018030D01*
X021550Y018030D01*
X023100Y019580D01*
X023700Y019580D01*
X024600Y020480D01*
X024600Y021030D01*
X025600Y021030D02*
X025600Y019380D01*
X025150Y018930D01*
X023550Y018930D01*
X022750Y018130D01*
X022750Y015080D01*
X020350Y012680D01*
X020350Y012180D01*
X020950Y012530D02*
X020950Y012980D01*
X022950Y014980D01*
X022950Y018030D01*
X023650Y018730D01*
X025900Y018730D01*
X026600Y019430D01*
X026600Y021030D01*
X028600Y021030D02*
X029200Y021630D01*
X036300Y021630D01*
X037950Y019980D01*
X040400Y019980D01*
X040950Y019480D01*
X041750Y019480D01*
X042000Y019230D01*
X042000Y016580D01*
X038700Y013280D01*
X033800Y013280D01*
X032800Y014280D01*
X030100Y014280D01*
X028950Y013130D01*
X027000Y013130D01*
X025500Y011630D01*
X025200Y011630D01*
X024500Y010930D01*
X024500Y010630D01*
X023150Y009280D01*
X023150Y008680D01*
X023650Y008980D02*
X023650Y009480D01*
X024700Y010530D01*
X024700Y010830D01*
X025300Y011430D01*
X025600Y011430D01*
X027100Y012930D01*
X029100Y012930D01*
X030250Y014080D01*
X032700Y014080D01*
X033700Y013080D01*
X038800Y013080D01*
X042200Y016480D01*
X042200Y019780D01*
X042000Y019980D01*
X041400Y019980D01*
X040900Y020480D02*
X043400Y020480D01*
X043900Y020980D01*
X044450Y021430D02*
X041850Y021430D01*
X041400Y020980D01*
X040900Y020480D02*
X040400Y020980D01*
X039700Y021630D02*
X045300Y021630D01*
X045600Y021330D01*
X045600Y017880D01*
X047070Y016410D01*
X047370Y016410D01*
X041400Y016980D02*
X040900Y017480D01*
X040000Y017480D01*
X039800Y017280D01*
X039800Y014980D01*
X038650Y013830D01*
X034800Y013830D01*
X034650Y013980D01*
X033700Y013980D01*
X032800Y014880D01*
X032600Y014680D01*
X029850Y014680D01*
X028700Y013530D01*
X026800Y013530D01*
X025750Y012480D01*
X025000Y012480D01*
X025350Y012080D02*
X025650Y012080D01*
X026900Y013330D01*
X028800Y013330D01*
X029950Y014480D01*
X032900Y014480D01*
X033750Y013630D01*
X034450Y013630D01*
X038750Y013630D01*
X040400Y015280D01*
X040400Y016980D01*
X039600Y017680D02*
X039900Y017980D01*
X040400Y017980D01*
X039600Y017680D02*
X039600Y015080D01*
X038550Y014030D01*
X034900Y014030D01*
X034550Y014380D01*
X033900Y014380D01*
X032750Y015530D01*
X032150Y015530D01*
X031300Y016380D01*
X027900Y016380D01*
X027700Y016180D01*
X027600Y016580D02*
X031400Y016580D01*
X032000Y015980D01*
X032350Y015980D01*
X032600Y015980D01*
X033800Y014780D01*
X034450Y014780D01*
X035000Y014230D01*
X038450Y014230D01*
X039400Y015180D01*
X039400Y017930D01*
X039950Y018480D01*
X040900Y018480D01*
X041400Y017980D01*
X040400Y018980D02*
X039800Y018980D01*
X039100Y019680D01*
X037400Y019680D01*
X036600Y020480D01*
X033750Y020480D01*
X033250Y020480D01*
X030150Y017380D01*
X026500Y017380D01*
X024900Y015780D01*
X024900Y015480D01*
X021050Y011630D01*
X021550Y011530D02*
X021550Y011830D01*
X025100Y015380D01*
X025100Y015680D01*
X026600Y017180D01*
X030550Y017180D01*
X033300Y019930D01*
X033750Y019480D01*
X038500Y019480D01*
X039050Y018930D01*
X038550Y020480D02*
X038300Y020480D01*
X038550Y020480D02*
X039700Y021630D01*
X044450Y021430D02*
X044900Y020980D01*
X036050Y016980D02*
X035550Y017480D01*
X034650Y017480D01*
X034150Y016980D01*
X026950Y016980D01*
X026875Y016905D01*
X026250Y016280D01*
X026800Y016280D02*
X027300Y016780D01*
X034250Y016780D01*
X034450Y016980D01*
X035050Y016980D01*
X032600Y013880D02*
X030350Y013880D01*
X029050Y012580D01*
X027950Y012580D01*
X027700Y012230D02*
X029000Y012230D01*
X030450Y013680D01*
X032500Y013680D01*
X033500Y012680D01*
X041300Y012680D01*
X043200Y010780D01*
X043200Y009230D01*
X043450Y008980D01*
X043900Y008980D01*
X043350Y008480D02*
X043000Y008830D01*
X043000Y010680D01*
X041200Y012480D01*
X035700Y012480D01*
X033600Y010380D01*
X032850Y010380D01*
X032550Y009880D02*
X033400Y009880D01*
X035800Y012280D01*
X041100Y012280D01*
X042800Y010580D01*
X042800Y008380D01*
X043200Y007980D01*
X043900Y007980D01*
X044400Y007480D02*
X043100Y007480D01*
X042600Y007980D01*
X042600Y010480D01*
X041000Y012080D01*
X035900Y012080D01*
X032950Y009130D01*
X032650Y009130D01*
X032450Y009330D01*
X032150Y008930D02*
X031950Y009130D01*
X032150Y008930D02*
X033050Y008930D01*
X036000Y011880D01*
X040900Y011880D01*
X042400Y010380D01*
X042400Y007330D01*
X042750Y006980D01*
X043900Y006980D01*
X044400Y006480D02*
X042650Y006480D01*
X042200Y006930D01*
X042200Y010280D01*
X040800Y011680D01*
X036100Y011680D01*
X033150Y008730D01*
X031650Y008730D01*
X031450Y008930D01*
X031150Y008530D02*
X030950Y008730D01*
X031150Y008530D02*
X033250Y008530D01*
X036200Y011480D01*
X040700Y011480D01*
X042000Y010180D01*
X042000Y006730D01*
X042750Y005980D01*
X043900Y005980D01*
X044400Y006480D02*
X044900Y005980D01*
X045500Y005480D02*
X047000Y006980D01*
X047450Y006980D01*
X047450Y005980D02*
X047450Y004730D01*
X046000Y003280D01*
X045500Y002780D02*
X045500Y005480D01*
X044900Y006980D02*
X044400Y007480D01*
X044900Y007980D02*
X044400Y008480D01*
X043350Y008480D01*
X044400Y009480D02*
X044900Y008980D01*
X044400Y009480D02*
X043650Y009480D01*
X043400Y009730D01*
X043400Y010880D01*
X041400Y012880D01*
X033600Y012880D01*
X032600Y013880D01*
X027700Y012230D02*
X027350Y012580D01*
X026900Y011680D02*
X026300Y011680D01*
X025700Y011080D01*
X025790Y010530D02*
X025250Y010530D01*
X025790Y010530D02*
X027430Y008890D01*
X027950Y008380D02*
X026900Y008380D01*
X026200Y009080D01*
X025750Y008430D02*
X024950Y008430D01*
X025450Y008080D02*
X025750Y008080D01*
X026200Y007630D01*
X030600Y007630D01*
X031100Y008130D01*
X033450Y008130D01*
X036400Y011080D01*
X038500Y011080D01*
X039150Y010430D01*
X039150Y009480D01*
X039650Y008980D01*
X040400Y008980D01*
X040900Y008480D02*
X039350Y008480D01*
X038950Y008880D01*
X038950Y010330D01*
X038400Y010880D01*
X036500Y010880D01*
X033550Y007930D01*
X031200Y007930D01*
X030700Y007430D01*
X026000Y007430D01*
X025700Y007730D01*
X025050Y007730D01*
X025200Y007730D01*
X025450Y007380D02*
X025600Y007230D01*
X030800Y007230D01*
X031300Y007730D01*
X033650Y007730D01*
X036600Y010680D01*
X038300Y010680D01*
X038750Y010230D01*
X038750Y008280D01*
X039050Y007980D01*
X040400Y007980D01*
X040900Y007480D02*
X039250Y007480D01*
X038850Y007080D01*
X038850Y005980D01*
X038250Y005380D01*
X035100Y005380D01*
X034550Y005930D01*
X032200Y005930D01*
X031700Y005430D01*
X020400Y005430D01*
X020100Y005730D01*
X020100Y006480D01*
X019750Y006880D02*
X019750Y005580D01*
X020100Y005230D01*
X031800Y005230D01*
X032300Y005730D01*
X034450Y005730D01*
X035000Y005180D01*
X038350Y005180D01*
X039050Y005880D01*
X039050Y006580D01*
X039450Y006980D01*
X040400Y006980D01*
X039950Y006480D02*
X040900Y006480D01*
X041400Y005980D01*
X040400Y005980D02*
X039750Y005980D01*
X038550Y004780D01*
X034800Y004780D01*
X034250Y005330D01*
X032500Y005330D01*
X032000Y004830D01*
X019450Y004830D01*
X019050Y005230D01*
X019050Y006880D01*
X019400Y006480D02*
X019400Y005430D01*
X019800Y005030D01*
X031900Y005030D01*
X032400Y005530D01*
X034350Y005530D01*
X034900Y004980D01*
X038450Y004980D01*
X039950Y006480D01*
X040900Y007480D02*
X041400Y006980D01*
X041400Y007980D02*
X040900Y008480D01*
X041400Y008980D02*
X040900Y009480D01*
X040050Y009480D01*
X039450Y010080D01*
X039450Y010580D01*
X038750Y011280D01*
X036300Y011280D01*
X033350Y008330D01*
X031000Y008330D01*
X030500Y007830D01*
X026350Y007830D01*
X025750Y008430D01*
X024700Y007030D02*
X024300Y007430D01*
X024000Y007030D02*
X024200Y006830D01*
X031000Y006830D01*
X031500Y007330D01*
X034150Y007330D01*
X035800Y008980D01*
X036900Y008980D01*
X037400Y008480D02*
X035600Y008480D01*
X034250Y007130D01*
X031600Y007130D01*
X031100Y006630D01*
X023650Y006630D01*
X023350Y006930D01*
X022250Y006930D01*
X022200Y006530D02*
X021500Y006530D01*
X022200Y006530D02*
X022500Y006230D01*
X031300Y006230D01*
X031800Y006730D01*
X034450Y006730D01*
X035200Y007480D01*
X037400Y007480D01*
X037900Y006980D01*
X037400Y006480D02*
X037900Y005980D01*
X036900Y005980D02*
X034800Y005980D01*
X034650Y006130D01*
X032100Y006130D01*
X031600Y005630D01*
X020700Y005630D01*
X020450Y005880D01*
X020450Y006880D01*
X020800Y006480D02*
X020800Y006080D01*
X021050Y005830D01*
X031500Y005830D01*
X032000Y006330D01*
X034650Y006330D01*
X034800Y006480D01*
X037400Y006480D01*
X036900Y006980D02*
X035000Y006980D01*
X034550Y006530D01*
X031900Y006530D01*
X031400Y006030D01*
X022050Y006030D01*
X021900Y006180D01*
X022650Y006580D02*
X022800Y006430D01*
X031200Y006430D01*
X031700Y006930D01*
X034350Y006930D01*
X035400Y007980D01*
X036900Y007980D01*
X037400Y008480D02*
X037900Y007980D01*
X037900Y008980D02*
X037400Y009480D01*
X036000Y009480D01*
X034050Y007530D01*
X031400Y007530D01*
X030900Y007030D01*
X024700Y007030D01*
X022350Y008880D02*
X021750Y008280D01*
X018400Y008280D01*
X017900Y007780D01*
X018750Y008630D02*
X021350Y008630D01*
X022250Y009530D01*
X022600Y009530D01*
X021150Y011130D02*
X021550Y011530D01*
X022750Y011980D02*
X023400Y011330D01*
X027950Y008380D02*
X028450Y008880D01*
X029420Y008880D01*
X029430Y008890D01*
X032500Y004630D02*
X019200Y004630D01*
X019200Y003780D01*
X019200Y004630D02*
X019050Y004630D01*
X018650Y005030D01*
X018650Y006480D01*
X017550Y009780D02*
X017550Y014530D01*
X016950Y014530D02*
X016950Y012742D01*
X016952Y012722D01*
X016956Y012703D01*
X016964Y012685D01*
X016974Y012669D01*
X016987Y012654D01*
X017002Y012641D01*
X017018Y012631D01*
X017036Y012623D01*
X017055Y012619D01*
X017075Y012617D01*
X017095Y012615D01*
X017114Y012611D01*
X017132Y012603D01*
X017148Y012593D01*
X017163Y012580D01*
X017176Y012565D01*
X017186Y012549D01*
X017194Y012531D01*
X017198Y012512D01*
X017200Y012492D01*
X017200Y012472D01*
X017198Y012452D01*
X017194Y012433D01*
X017186Y012415D01*
X017176Y012399D01*
X017163Y012384D01*
X017148Y012371D01*
X017132Y012361D01*
X017114Y012353D01*
X017095Y012349D01*
X017075Y012347D01*
X016825Y012347D01*
X016805Y012345D01*
X016786Y012341D01*
X016768Y012333D01*
X016752Y012323D01*
X016737Y012310D01*
X016724Y012295D01*
X016714Y012279D01*
X016706Y012261D01*
X016702Y012242D01*
X016700Y012222D01*
X016700Y012201D01*
X016702Y012181D01*
X016706Y012162D01*
X016714Y012144D01*
X016724Y012128D01*
X016737Y012113D01*
X016752Y012100D01*
X016768Y012090D01*
X016786Y012082D01*
X016805Y012078D01*
X016825Y012076D01*
X017075Y012076D01*
X017095Y012074D01*
X017114Y012070D01*
X017132Y012062D01*
X017148Y012052D01*
X017163Y012039D01*
X017176Y012024D01*
X017186Y012008D01*
X017194Y011990D01*
X017198Y011971D01*
X017200Y011951D01*
X017200Y011930D01*
X017198Y011910D01*
X017194Y011891D01*
X017186Y011873D01*
X017176Y011857D01*
X017163Y011842D01*
X017148Y011829D01*
X017132Y011819D01*
X017114Y011811D01*
X017095Y011807D01*
X017075Y011805D01*
X017055Y011803D01*
X017036Y011799D01*
X017018Y011791D01*
X017002Y011781D01*
X016987Y011768D01*
X016974Y011753D01*
X016964Y011737D01*
X016956Y011719D01*
X016952Y011700D01*
X016950Y011680D01*
X016950Y009780D01*
X016350Y009780D02*
X016350Y014530D01*
X015750Y014530D02*
X015750Y009780D01*
X014250Y011080D02*
X013800Y010630D01*
X011600Y010630D01*
X011100Y011130D01*
X024150Y016730D02*
X024900Y017480D01*
X025400Y017480D01*
X026600Y015580D02*
X027600Y016580D01*
X026600Y015580D02*
X025550Y015580D01*
X039650Y005130D02*
X039650Y003930D01*
X039000Y003280D01*
X045500Y002780D02*
X046000Y002280D01*
M02*
