G75*
%MOIN*%
%OFA0B0*%
%FSLAX24Y24*%
%IPPOS*%
%LPD*%
%AMOC8*
5,1,8,0,0,1.08239X$1,22.5*
%
%ADD10C,0.0000*%
%ADD11C,0.1222*%
%ADD12C,0.0820*%
%ADD13R,0.0640X0.0640*%
%ADD14OC8,0.0640*%
%ADD15C,0.0740*%
%ADD16C,0.0730*%
%ADD17C,0.0730*%
%ADD18C,0.0680*%
%ADD19OC8,0.0680*%
%ADD20R,0.0680X0.0680*%
%ADD21C,0.0674*%
%ADD22C,0.0680*%
%ADD23C,0.0787*%
%ADD24R,0.0867X0.0867*%
%ADD25C,0.0493*%
%ADD26C,0.0476*%
D10*
X009750Y000930D02*
X009750Y022326D01*
X049120Y022326D01*
X049120Y000930D01*
X009750Y000930D01*
X011405Y002675D02*
X011407Y002703D01*
X011413Y002731D01*
X011422Y002757D01*
X011435Y002783D01*
X011451Y002806D01*
X011471Y002826D01*
X011493Y002844D01*
X011517Y002859D01*
X011543Y002870D01*
X011570Y002878D01*
X011598Y002882D01*
X011626Y002882D01*
X011654Y002878D01*
X011681Y002870D01*
X011707Y002859D01*
X011731Y002844D01*
X011753Y002826D01*
X011773Y002806D01*
X011789Y002783D01*
X011802Y002757D01*
X011811Y002731D01*
X011817Y002703D01*
X011819Y002675D01*
X011817Y002647D01*
X011811Y002619D01*
X011802Y002593D01*
X011789Y002567D01*
X011773Y002544D01*
X011753Y002524D01*
X011731Y002506D01*
X011707Y002491D01*
X011681Y002480D01*
X011654Y002472D01*
X011626Y002468D01*
X011598Y002468D01*
X011570Y002472D01*
X011543Y002480D01*
X011517Y002491D01*
X011493Y002506D01*
X011471Y002524D01*
X011451Y002544D01*
X011435Y002567D01*
X011422Y002593D01*
X011413Y002619D01*
X011407Y002647D01*
X011405Y002675D01*
X011405Y004585D02*
X011407Y004613D01*
X011413Y004641D01*
X011422Y004667D01*
X011435Y004693D01*
X011451Y004716D01*
X011471Y004736D01*
X011493Y004754D01*
X011517Y004769D01*
X011543Y004780D01*
X011570Y004788D01*
X011598Y004792D01*
X011626Y004792D01*
X011654Y004788D01*
X011681Y004780D01*
X011707Y004769D01*
X011731Y004754D01*
X011753Y004736D01*
X011773Y004716D01*
X011789Y004693D01*
X011802Y004667D01*
X011811Y004641D01*
X011817Y004613D01*
X011819Y004585D01*
X011817Y004557D01*
X011811Y004529D01*
X011802Y004503D01*
X011789Y004477D01*
X011773Y004454D01*
X011753Y004434D01*
X011731Y004416D01*
X011707Y004401D01*
X011681Y004390D01*
X011654Y004382D01*
X011626Y004378D01*
X011598Y004378D01*
X011570Y004382D01*
X011543Y004390D01*
X011517Y004401D01*
X011493Y004416D01*
X011471Y004434D01*
X011451Y004454D01*
X011435Y004477D01*
X011422Y004503D01*
X011413Y004529D01*
X011407Y004557D01*
X011405Y004585D01*
X015879Y006125D02*
X015881Y006172D01*
X015887Y006219D01*
X015896Y006265D01*
X015910Y006310D01*
X015927Y006354D01*
X015948Y006397D01*
X015972Y006437D01*
X015999Y006476D01*
X016030Y006512D01*
X016063Y006545D01*
X016099Y006576D01*
X016138Y006603D01*
X016178Y006627D01*
X016221Y006648D01*
X016265Y006665D01*
X016310Y006679D01*
X016356Y006688D01*
X016403Y006694D01*
X016450Y006696D01*
X016497Y006694D01*
X016544Y006688D01*
X016590Y006679D01*
X016635Y006665D01*
X016679Y006648D01*
X016722Y006627D01*
X016762Y006603D01*
X016801Y006576D01*
X016837Y006545D01*
X016870Y006512D01*
X016901Y006476D01*
X016928Y006437D01*
X016952Y006397D01*
X016973Y006354D01*
X016990Y006310D01*
X017004Y006265D01*
X017013Y006219D01*
X017019Y006172D01*
X017021Y006125D01*
X017019Y006078D01*
X017013Y006031D01*
X017004Y005985D01*
X016990Y005940D01*
X016973Y005896D01*
X016952Y005853D01*
X016928Y005813D01*
X016901Y005774D01*
X016870Y005738D01*
X016837Y005705D01*
X016801Y005674D01*
X016762Y005647D01*
X016722Y005623D01*
X016679Y005602D01*
X016635Y005585D01*
X016590Y005571D01*
X016544Y005562D01*
X016497Y005556D01*
X016450Y005554D01*
X016403Y005556D01*
X016356Y005562D01*
X016310Y005571D01*
X016265Y005585D01*
X016221Y005602D01*
X016178Y005623D01*
X016138Y005647D01*
X016099Y005674D01*
X016063Y005705D01*
X016030Y005738D01*
X015999Y005774D01*
X015972Y005813D01*
X015948Y005853D01*
X015927Y005896D01*
X015910Y005940D01*
X015896Y005985D01*
X015887Y006031D01*
X015881Y006078D01*
X015879Y006125D01*
X037334Y016165D02*
X037336Y016212D01*
X037342Y016259D01*
X037351Y016305D01*
X037365Y016350D01*
X037382Y016394D01*
X037403Y016437D01*
X037427Y016477D01*
X037454Y016516D01*
X037485Y016552D01*
X037518Y016585D01*
X037554Y016616D01*
X037593Y016643D01*
X037633Y016667D01*
X037676Y016688D01*
X037720Y016705D01*
X037765Y016719D01*
X037811Y016728D01*
X037858Y016734D01*
X037905Y016736D01*
X037952Y016734D01*
X037999Y016728D01*
X038045Y016719D01*
X038090Y016705D01*
X038134Y016688D01*
X038177Y016667D01*
X038217Y016643D01*
X038256Y016616D01*
X038292Y016585D01*
X038325Y016552D01*
X038356Y016516D01*
X038383Y016477D01*
X038407Y016437D01*
X038428Y016394D01*
X038445Y016350D01*
X038459Y016305D01*
X038468Y016259D01*
X038474Y016212D01*
X038476Y016165D01*
X038474Y016118D01*
X038468Y016071D01*
X038459Y016025D01*
X038445Y015980D01*
X038428Y015936D01*
X038407Y015893D01*
X038383Y015853D01*
X038356Y015814D01*
X038325Y015778D01*
X038292Y015745D01*
X038256Y015714D01*
X038217Y015687D01*
X038177Y015663D01*
X038134Y015642D01*
X038090Y015625D01*
X038045Y015611D01*
X037999Y015602D01*
X037952Y015596D01*
X037905Y015594D01*
X037858Y015596D01*
X037811Y015602D01*
X037765Y015611D01*
X037720Y015625D01*
X037676Y015642D01*
X037633Y015663D01*
X037593Y015687D01*
X037554Y015714D01*
X037518Y015745D01*
X037485Y015778D01*
X037454Y015814D01*
X037427Y015853D01*
X037403Y015893D01*
X037382Y015936D01*
X037365Y015980D01*
X037351Y016025D01*
X037342Y016071D01*
X037336Y016118D01*
X037334Y016165D01*
D11*
X037905Y016165D03*
X016450Y006125D03*
D12*
X018600Y002030D03*
X019600Y002030D03*
X020600Y002030D03*
X021600Y002030D03*
X022600Y002030D03*
X023600Y002030D03*
X025600Y002030D03*
X026600Y002030D03*
X027600Y002030D03*
X028600Y002030D03*
X029600Y002030D03*
X030600Y002030D03*
X045370Y011290D03*
X047930Y011290D03*
X047930Y013070D03*
X045370Y013070D03*
X030600Y021030D03*
X029600Y021030D03*
X028600Y021030D03*
X027600Y021030D03*
X026600Y021030D03*
X025600Y021030D03*
X024600Y021030D03*
X023600Y021030D03*
X022100Y021030D03*
X021100Y021030D03*
X020100Y021030D03*
X019100Y021030D03*
X018100Y021030D03*
X017100Y021030D03*
X016100Y021030D03*
X015100Y021030D03*
D13*
X012100Y020980D03*
X012100Y013130D03*
X035050Y016980D03*
X040400Y016980D03*
X043900Y016980D03*
X043900Y005980D03*
X040400Y005980D03*
X036900Y005980D03*
X047000Y003280D03*
D14*
X046000Y003280D03*
X045000Y003280D03*
X044000Y003280D03*
X043000Y003280D03*
X042000Y003280D03*
X041000Y003280D03*
X040000Y003280D03*
X039000Y003280D03*
X038000Y003280D03*
X037000Y003280D03*
X036000Y003280D03*
X035000Y003280D03*
X035000Y002280D03*
X036000Y002280D03*
X037000Y002280D03*
X038000Y002280D03*
X039000Y002280D03*
X040000Y002280D03*
X041000Y002280D03*
X042000Y002280D03*
X043000Y002280D03*
X044000Y002280D03*
X045000Y002280D03*
X046000Y002280D03*
X047000Y002280D03*
X044900Y005980D03*
X044900Y006980D03*
X043900Y006980D03*
X043900Y007980D03*
X044900Y007980D03*
X044900Y008980D03*
X043900Y008980D03*
X043900Y009980D03*
X044900Y009980D03*
X041400Y009980D03*
X040400Y009980D03*
X040400Y008980D03*
X041400Y008980D03*
X041400Y007980D03*
X040400Y007980D03*
X040400Y006980D03*
X041400Y006980D03*
X041400Y005980D03*
X037900Y005980D03*
X037900Y006980D03*
X036900Y006980D03*
X036900Y007980D03*
X037900Y007980D03*
X037900Y008980D03*
X036900Y008980D03*
X036900Y009980D03*
X037900Y009980D03*
X036050Y016980D03*
X036050Y017980D03*
X035050Y017980D03*
X035050Y018980D03*
X036050Y018980D03*
X036050Y019980D03*
X035050Y019980D03*
X035050Y020980D03*
X036050Y020980D03*
X040400Y020980D03*
X041400Y020980D03*
X041400Y019980D03*
X040400Y019980D03*
X040400Y018980D03*
X041400Y018980D03*
X041400Y017980D03*
X040400Y017980D03*
X041400Y016980D03*
X043900Y017980D03*
X044900Y017980D03*
X044900Y016980D03*
X044900Y018980D03*
X043900Y018980D03*
X043900Y019980D03*
X044900Y019980D03*
X044900Y020980D03*
X043900Y020980D03*
X012100Y019980D03*
X011100Y019980D03*
X011100Y018980D03*
X012100Y018980D03*
X012100Y017980D03*
X011100Y017980D03*
X011100Y016980D03*
X012100Y016980D03*
X012100Y015980D03*
X011100Y015980D03*
X011100Y013130D03*
X011100Y012130D03*
X012100Y012130D03*
X012100Y011130D03*
X011100Y011130D03*
X011100Y010130D03*
X012100Y010130D03*
X012100Y009130D03*
X011100Y009130D03*
X011100Y008130D03*
X012100Y008130D03*
X011100Y020980D03*
D15*
X027860Y014560D03*
X028860Y014560D03*
D16*
X029430Y008890D03*
X027430Y008890D03*
D17*
X047045Y015410D02*
X047695Y015410D01*
X047695Y016410D02*
X047045Y016410D01*
X047045Y017410D02*
X047695Y017410D01*
D18*
X040900Y013480D03*
X030600Y013030D03*
X019050Y017380D03*
X032650Y021030D03*
X013900Y002380D03*
D19*
X030600Y011030D03*
X031600Y011030D03*
X031600Y012030D03*
X030600Y012030D03*
D20*
X031600Y013030D03*
D21*
X047153Y009980D02*
X047747Y009980D01*
X047747Y008980D02*
X047153Y008980D01*
X047153Y007980D02*
X047747Y007980D01*
X047747Y006980D02*
X047153Y006980D01*
X047153Y005980D02*
X047747Y005980D01*
D22*
X014100Y005830D02*
X014100Y006430D01*
X013100Y006430D02*
X013100Y005830D01*
X012100Y005830D02*
X012100Y006430D01*
D23*
X012650Y004830D03*
X020100Y015930D03*
X046350Y019380D03*
X048250Y003380D03*
D24*
X010419Y002557D03*
X010419Y004703D03*
D25*
X011612Y004585D03*
X011612Y002675D03*
D26*
X017600Y001930D03*
X019200Y003780D03*
X021900Y006180D03*
X021500Y006530D03*
X020800Y006480D03*
X020450Y006880D03*
X020100Y006480D03*
X019750Y006880D03*
X019400Y006480D03*
X019050Y006880D03*
X018650Y006480D03*
X017900Y007780D03*
X018750Y008630D03*
X017550Y009780D03*
X016950Y009780D03*
X016350Y009780D03*
X015750Y009780D03*
X014250Y011080D03*
X015300Y011630D03*
X020350Y012180D03*
X020950Y012530D03*
X021050Y011630D03*
X021150Y011130D03*
X022750Y011980D03*
X023400Y011330D03*
X023100Y010780D03*
X025250Y010530D03*
X025700Y011080D03*
X026900Y011680D03*
X028200Y011130D03*
X027950Y012580D03*
X027350Y012580D03*
X025350Y012080D03*
X025000Y012480D03*
X023950Y013630D03*
X025600Y014630D03*
X025550Y015580D03*
X026250Y016280D03*
X026800Y016280D03*
X027700Y016180D03*
X025400Y017480D03*
X024150Y016730D03*
X023500Y017580D03*
X019100Y015630D03*
X017550Y014530D03*
X016950Y014530D03*
X016350Y014530D03*
X015750Y014530D03*
X015750Y017330D03*
X016500Y017330D03*
X017150Y017330D03*
X017750Y017330D03*
X031650Y015280D03*
X032800Y014880D03*
X033900Y014380D03*
X034450Y013630D03*
X032350Y015980D03*
X039050Y018930D03*
X038300Y020480D03*
X033750Y020480D03*
X033300Y019930D03*
X032850Y010380D03*
X032550Y009880D03*
X032450Y009330D03*
X031950Y009130D03*
X031450Y008930D03*
X030950Y008730D03*
X028750Y008380D03*
X026200Y009080D03*
X024950Y008430D03*
X025450Y008080D03*
X025050Y007730D03*
X025450Y007380D03*
X024300Y007430D03*
X024000Y007030D03*
X022650Y006580D03*
X022250Y006930D03*
X023150Y008680D03*
X023650Y008980D03*
X022600Y009530D03*
X022350Y008880D03*
X020900Y009930D03*
X032500Y004630D03*
X039650Y005130D03*
X024900Y004230D03*
M02*
