G75*
%MOIN*%
%OFA0B0*%
%FSLAX24Y24*%
%IPPOS*%
%LPD*%
%AMOC8*
5,1,8,0,0,1.08239X$1,22.5*
%
%ADD10C,0.0000*%
%ADD11C,0.1222*%
%ADD12R,0.0434X0.0198*%
%ADD13R,0.0198X0.0434*%
%ADD14C,0.0820*%
%ADD15R,0.0640X0.0640*%
%ADD16OC8,0.0640*%
%ADD17R,0.0474X0.0513*%
%ADD18R,0.0513X0.0474*%
%ADD19C,0.0740*%
%ADD20C,0.0730*%
%ADD21C,0.0730*%
%ADD22C,0.0680*%
%ADD23OC8,0.0680*%
%ADD24R,0.0680X0.0680*%
%ADD25R,0.0395X0.0395*%
%ADD26C,0.0674*%
%ADD27R,0.0552X0.0297*%
%ADD28C,0.0680*%
%ADD29R,0.0879X0.1379*%
%ADD30C,0.0787*%
%ADD31R,0.0769X0.0237*%
%ADD32R,0.0867X0.0867*%
%ADD33C,0.0493*%
%ADD34C,0.0476*%
D10*
X009750Y000930D02*
X009750Y022326D01*
X049120Y022326D01*
X049120Y000930D01*
X009750Y000930D01*
X011405Y002675D02*
X011407Y002703D01*
X011413Y002731D01*
X011422Y002757D01*
X011435Y002783D01*
X011451Y002806D01*
X011471Y002826D01*
X011493Y002844D01*
X011517Y002859D01*
X011543Y002870D01*
X011570Y002878D01*
X011598Y002882D01*
X011626Y002882D01*
X011654Y002878D01*
X011681Y002870D01*
X011707Y002859D01*
X011731Y002844D01*
X011753Y002826D01*
X011773Y002806D01*
X011789Y002783D01*
X011802Y002757D01*
X011811Y002731D01*
X011817Y002703D01*
X011819Y002675D01*
X011817Y002647D01*
X011811Y002619D01*
X011802Y002593D01*
X011789Y002567D01*
X011773Y002544D01*
X011753Y002524D01*
X011731Y002506D01*
X011707Y002491D01*
X011681Y002480D01*
X011654Y002472D01*
X011626Y002468D01*
X011598Y002468D01*
X011570Y002472D01*
X011543Y002480D01*
X011517Y002491D01*
X011493Y002506D01*
X011471Y002524D01*
X011451Y002544D01*
X011435Y002567D01*
X011422Y002593D01*
X011413Y002619D01*
X011407Y002647D01*
X011405Y002675D01*
X011405Y004585D02*
X011407Y004613D01*
X011413Y004641D01*
X011422Y004667D01*
X011435Y004693D01*
X011451Y004716D01*
X011471Y004736D01*
X011493Y004754D01*
X011517Y004769D01*
X011543Y004780D01*
X011570Y004788D01*
X011598Y004792D01*
X011626Y004792D01*
X011654Y004788D01*
X011681Y004780D01*
X011707Y004769D01*
X011731Y004754D01*
X011753Y004736D01*
X011773Y004716D01*
X011789Y004693D01*
X011802Y004667D01*
X011811Y004641D01*
X011817Y004613D01*
X011819Y004585D01*
X011817Y004557D01*
X011811Y004529D01*
X011802Y004503D01*
X011789Y004477D01*
X011773Y004454D01*
X011753Y004434D01*
X011731Y004416D01*
X011707Y004401D01*
X011681Y004390D01*
X011654Y004382D01*
X011626Y004378D01*
X011598Y004378D01*
X011570Y004382D01*
X011543Y004390D01*
X011517Y004401D01*
X011493Y004416D01*
X011471Y004434D01*
X011451Y004454D01*
X011435Y004477D01*
X011422Y004503D01*
X011413Y004529D01*
X011407Y004557D01*
X011405Y004585D01*
X015879Y006125D02*
X015881Y006172D01*
X015887Y006219D01*
X015896Y006265D01*
X015910Y006310D01*
X015927Y006354D01*
X015948Y006397D01*
X015972Y006437D01*
X015999Y006476D01*
X016030Y006512D01*
X016063Y006545D01*
X016099Y006576D01*
X016138Y006603D01*
X016178Y006627D01*
X016221Y006648D01*
X016265Y006665D01*
X016310Y006679D01*
X016356Y006688D01*
X016403Y006694D01*
X016450Y006696D01*
X016497Y006694D01*
X016544Y006688D01*
X016590Y006679D01*
X016635Y006665D01*
X016679Y006648D01*
X016722Y006627D01*
X016762Y006603D01*
X016801Y006576D01*
X016837Y006545D01*
X016870Y006512D01*
X016901Y006476D01*
X016928Y006437D01*
X016952Y006397D01*
X016973Y006354D01*
X016990Y006310D01*
X017004Y006265D01*
X017013Y006219D01*
X017019Y006172D01*
X017021Y006125D01*
X017019Y006078D01*
X017013Y006031D01*
X017004Y005985D01*
X016990Y005940D01*
X016973Y005896D01*
X016952Y005853D01*
X016928Y005813D01*
X016901Y005774D01*
X016870Y005738D01*
X016837Y005705D01*
X016801Y005674D01*
X016762Y005647D01*
X016722Y005623D01*
X016679Y005602D01*
X016635Y005585D01*
X016590Y005571D01*
X016544Y005562D01*
X016497Y005556D01*
X016450Y005554D01*
X016403Y005556D01*
X016356Y005562D01*
X016310Y005571D01*
X016265Y005585D01*
X016221Y005602D01*
X016178Y005623D01*
X016138Y005647D01*
X016099Y005674D01*
X016063Y005705D01*
X016030Y005738D01*
X015999Y005774D01*
X015972Y005813D01*
X015948Y005853D01*
X015927Y005896D01*
X015910Y005940D01*
X015896Y005985D01*
X015887Y006031D01*
X015881Y006078D01*
X015879Y006125D01*
X037334Y016165D02*
X037336Y016212D01*
X037342Y016259D01*
X037351Y016305D01*
X037365Y016350D01*
X037382Y016394D01*
X037403Y016437D01*
X037427Y016477D01*
X037454Y016516D01*
X037485Y016552D01*
X037518Y016585D01*
X037554Y016616D01*
X037593Y016643D01*
X037633Y016667D01*
X037676Y016688D01*
X037720Y016705D01*
X037765Y016719D01*
X037811Y016728D01*
X037858Y016734D01*
X037905Y016736D01*
X037952Y016734D01*
X037999Y016728D01*
X038045Y016719D01*
X038090Y016705D01*
X038134Y016688D01*
X038177Y016667D01*
X038217Y016643D01*
X038256Y016616D01*
X038292Y016585D01*
X038325Y016552D01*
X038356Y016516D01*
X038383Y016477D01*
X038407Y016437D01*
X038428Y016394D01*
X038445Y016350D01*
X038459Y016305D01*
X038468Y016259D01*
X038474Y016212D01*
X038476Y016165D01*
X038474Y016118D01*
X038468Y016071D01*
X038459Y016025D01*
X038445Y015980D01*
X038428Y015936D01*
X038407Y015893D01*
X038383Y015853D01*
X038356Y015814D01*
X038325Y015778D01*
X038292Y015745D01*
X038256Y015714D01*
X038217Y015687D01*
X038177Y015663D01*
X038134Y015642D01*
X038090Y015625D01*
X038045Y015611D01*
X037999Y015602D01*
X037952Y015596D01*
X037905Y015594D01*
X037858Y015596D01*
X037811Y015602D01*
X037765Y015611D01*
X037720Y015625D01*
X037676Y015642D01*
X037633Y015663D01*
X037593Y015687D01*
X037554Y015714D01*
X037518Y015745D01*
X037485Y015778D01*
X037454Y015814D01*
X037427Y015853D01*
X037403Y015893D01*
X037382Y015936D01*
X037365Y015980D01*
X037351Y016025D01*
X037342Y016071D01*
X037336Y016118D01*
X037334Y016165D01*
D11*
X037905Y016165D03*
X016450Y006125D03*
D12*
G36*
X021467Y008537D02*
X021161Y008231D01*
X021021Y008371D01*
X021327Y008677D01*
X021467Y008537D01*
G37*
G36*
X021606Y008398D02*
X021300Y008092D01*
X021160Y008232D01*
X021466Y008538D01*
X021606Y008398D01*
G37*
G36*
X021746Y008258D02*
X021440Y007952D01*
X021300Y008092D01*
X021606Y008398D01*
X021746Y008258D01*
G37*
G36*
X021885Y008119D02*
X021579Y007813D01*
X021439Y007953D01*
X021745Y008259D01*
X021885Y008119D01*
G37*
G36*
X022024Y007980D02*
X021718Y007674D01*
X021578Y007814D01*
X021884Y008120D01*
X022024Y007980D01*
G37*
G36*
X022163Y007841D02*
X021857Y007535D01*
X021717Y007675D01*
X022023Y007981D01*
X022163Y007841D01*
G37*
G36*
X022302Y007702D02*
X021996Y007396D01*
X021856Y007536D01*
X022162Y007842D01*
X022302Y007702D01*
G37*
G36*
X021328Y008676D02*
X021022Y008370D01*
X020882Y008510D01*
X021188Y008816D01*
X021328Y008676D01*
G37*
G36*
X021189Y008815D02*
X020883Y008509D01*
X020743Y008649D01*
X021049Y008955D01*
X021189Y008815D01*
G37*
G36*
X021050Y008954D02*
X020744Y008648D01*
X020604Y008788D01*
X020910Y009094D01*
X021050Y008954D01*
G37*
G36*
X020910Y009094D02*
X020604Y008788D01*
X020464Y008928D01*
X020770Y009234D01*
X020910Y009094D01*
G37*
G36*
X020771Y009233D02*
X020465Y008927D01*
X020325Y009067D01*
X020631Y009373D01*
X020771Y009233D01*
G37*
G36*
X020632Y009372D02*
X020326Y009066D01*
X020186Y009206D01*
X020492Y009512D01*
X020632Y009372D01*
G37*
G36*
X020493Y009511D02*
X020187Y009205D01*
X020047Y009345D01*
X020353Y009651D01*
X020493Y009511D01*
G37*
G36*
X020354Y009650D02*
X020048Y009344D01*
X019908Y009484D01*
X020214Y009790D01*
X020354Y009650D01*
G37*
G36*
X020214Y009790D02*
X019908Y009484D01*
X019768Y009624D01*
X020074Y009930D01*
X020214Y009790D01*
G37*
G36*
X020075Y009929D02*
X019769Y009623D01*
X019629Y009763D01*
X019935Y010069D01*
X020075Y009929D01*
G37*
G36*
X019936Y010068D02*
X019630Y009762D01*
X019490Y009902D01*
X019796Y010208D01*
X019936Y010068D01*
G37*
G36*
X019797Y010207D02*
X019491Y009901D01*
X019351Y010041D01*
X019657Y010347D01*
X019797Y010207D01*
G37*
G36*
X019658Y010346D02*
X019352Y010040D01*
X019212Y010180D01*
X019518Y010486D01*
X019658Y010346D01*
G37*
G36*
X019518Y010486D02*
X019212Y010180D01*
X019072Y010320D01*
X019378Y010626D01*
X019518Y010486D01*
G37*
G36*
X019379Y010625D02*
X019073Y010319D01*
X018933Y010459D01*
X019239Y010765D01*
X019379Y010625D01*
G37*
G36*
X019240Y010764D02*
X018934Y010458D01*
X018794Y010598D01*
X019100Y010904D01*
X019240Y010764D01*
G37*
G36*
X019101Y010903D02*
X018795Y010597D01*
X018655Y010737D01*
X018961Y011043D01*
X019101Y010903D01*
G37*
G36*
X018962Y011042D02*
X018656Y010736D01*
X018516Y010876D01*
X018822Y011182D01*
X018962Y011042D01*
G37*
G36*
X025114Y013854D02*
X024808Y013548D01*
X024668Y013688D01*
X024974Y013994D01*
X025114Y013854D01*
G37*
G36*
X025253Y013715D02*
X024947Y013409D01*
X024807Y013549D01*
X025113Y013855D01*
X025253Y013715D01*
G37*
G36*
X025392Y013576D02*
X025086Y013270D01*
X024946Y013410D01*
X025252Y013716D01*
X025392Y013576D01*
G37*
G36*
X025532Y013436D02*
X025226Y013130D01*
X025086Y013270D01*
X025392Y013576D01*
X025532Y013436D01*
G37*
G36*
X025671Y013297D02*
X025365Y012991D01*
X025225Y013131D01*
X025531Y013437D01*
X025671Y013297D01*
G37*
G36*
X025810Y013158D02*
X025504Y012852D01*
X025364Y012992D01*
X025670Y013298D01*
X025810Y013158D01*
G37*
G36*
X025949Y013019D02*
X025643Y012713D01*
X025503Y012853D01*
X025809Y013159D01*
X025949Y013019D01*
G37*
G36*
X026088Y012880D02*
X025782Y012574D01*
X025642Y012714D01*
X025948Y013020D01*
X026088Y012880D01*
G37*
G36*
X026228Y012740D02*
X025922Y012434D01*
X025782Y012574D01*
X026088Y012880D01*
X026228Y012740D01*
G37*
G36*
X026367Y012601D02*
X026061Y012295D01*
X025921Y012435D01*
X026227Y012741D01*
X026367Y012601D01*
G37*
G36*
X026506Y012462D02*
X026200Y012156D01*
X026060Y012296D01*
X026366Y012602D01*
X026506Y012462D01*
G37*
G36*
X026645Y012323D02*
X026339Y012017D01*
X026199Y012157D01*
X026505Y012463D01*
X026645Y012323D01*
G37*
G36*
X026784Y012184D02*
X026478Y011878D01*
X026338Y012018D01*
X026644Y012324D01*
X026784Y012184D01*
G37*
G36*
X024975Y013993D02*
X024669Y013687D01*
X024529Y013827D01*
X024835Y014133D01*
X024975Y013993D01*
G37*
G36*
X024836Y014132D02*
X024530Y013826D01*
X024390Y013966D01*
X024696Y014272D01*
X024836Y014132D01*
G37*
G36*
X024696Y014272D02*
X024390Y013966D01*
X024250Y014106D01*
X024556Y014412D01*
X024696Y014272D01*
G37*
G36*
X024557Y014411D02*
X024251Y014105D01*
X024111Y014245D01*
X024417Y014551D01*
X024557Y014411D01*
G37*
G36*
X024418Y014550D02*
X024112Y014244D01*
X023972Y014384D01*
X024278Y014690D01*
X024418Y014550D01*
G37*
G36*
X024279Y014689D02*
X023973Y014383D01*
X023833Y014523D01*
X024139Y014829D01*
X024279Y014689D01*
G37*
G36*
X024140Y014828D02*
X023834Y014522D01*
X023694Y014662D01*
X024000Y014968D01*
X024140Y014828D01*
G37*
G36*
X024000Y014968D02*
X023694Y014662D01*
X023554Y014802D01*
X023860Y015108D01*
X024000Y014968D01*
G37*
G36*
X023861Y015107D02*
X023555Y014801D01*
X023415Y014941D01*
X023721Y015247D01*
X023861Y015107D01*
G37*
G36*
X023722Y015246D02*
X023416Y014940D01*
X023276Y015080D01*
X023582Y015386D01*
X023722Y015246D01*
G37*
G36*
X023583Y015385D02*
X023277Y015079D01*
X023137Y015219D01*
X023443Y015525D01*
X023583Y015385D01*
G37*
G36*
X023444Y015524D02*
X023138Y015218D01*
X022998Y015358D01*
X023304Y015664D01*
X023444Y015524D01*
G37*
D13*
G36*
X022302Y015358D02*
X022162Y015218D01*
X021856Y015524D01*
X021996Y015664D01*
X022302Y015358D01*
G37*
G36*
X022163Y015219D02*
X022023Y015079D01*
X021717Y015385D01*
X021857Y015525D01*
X022163Y015219D01*
G37*
G36*
X022024Y015080D02*
X021884Y014940D01*
X021578Y015246D01*
X021718Y015386D01*
X022024Y015080D01*
G37*
G36*
X021885Y014941D02*
X021745Y014801D01*
X021439Y015107D01*
X021579Y015247D01*
X021885Y014941D01*
G37*
G36*
X021746Y014802D02*
X021606Y014662D01*
X021300Y014968D01*
X021440Y015108D01*
X021746Y014802D01*
G37*
G36*
X021606Y014662D02*
X021466Y014522D01*
X021160Y014828D01*
X021300Y014968D01*
X021606Y014662D01*
G37*
G36*
X021467Y014523D02*
X021327Y014383D01*
X021021Y014689D01*
X021161Y014829D01*
X021467Y014523D01*
G37*
G36*
X021328Y014384D02*
X021188Y014244D01*
X020882Y014550D01*
X021022Y014690D01*
X021328Y014384D01*
G37*
G36*
X021189Y014245D02*
X021049Y014105D01*
X020743Y014411D01*
X020883Y014551D01*
X021189Y014245D01*
G37*
G36*
X021050Y014106D02*
X020910Y013966D01*
X020604Y014272D01*
X020744Y014412D01*
X021050Y014106D01*
G37*
G36*
X020910Y013966D02*
X020770Y013826D01*
X020464Y014132D01*
X020604Y014272D01*
X020910Y013966D01*
G37*
G36*
X020771Y013827D02*
X020631Y013687D01*
X020325Y013993D01*
X020465Y014133D01*
X020771Y013827D01*
G37*
G36*
X020632Y013688D02*
X020492Y013548D01*
X020186Y013854D01*
X020326Y013994D01*
X020632Y013688D01*
G37*
G36*
X020493Y013549D02*
X020353Y013409D01*
X020047Y013715D01*
X020187Y013855D01*
X020493Y013549D01*
G37*
G36*
X020354Y013410D02*
X020214Y013270D01*
X019908Y013576D01*
X020048Y013716D01*
X020354Y013410D01*
G37*
G36*
X020214Y013270D02*
X020074Y013130D01*
X019768Y013436D01*
X019908Y013576D01*
X020214Y013270D01*
G37*
G36*
X020075Y013131D02*
X019935Y012991D01*
X019629Y013297D01*
X019769Y013437D01*
X020075Y013131D01*
G37*
G36*
X019936Y012992D02*
X019796Y012852D01*
X019490Y013158D01*
X019630Y013298D01*
X019936Y012992D01*
G37*
G36*
X019797Y012853D02*
X019657Y012713D01*
X019351Y013019D01*
X019491Y013159D01*
X019797Y012853D01*
G37*
G36*
X019658Y012714D02*
X019518Y012574D01*
X019212Y012880D01*
X019352Y013020D01*
X019658Y012714D01*
G37*
G36*
X019518Y012574D02*
X019378Y012434D01*
X019072Y012740D01*
X019212Y012880D01*
X019518Y012574D01*
G37*
G36*
X019379Y012435D02*
X019239Y012295D01*
X018933Y012601D01*
X019073Y012741D01*
X019379Y012435D01*
G37*
G36*
X019240Y012296D02*
X019100Y012156D01*
X018794Y012462D01*
X018934Y012602D01*
X019240Y012296D01*
G37*
G36*
X019101Y012157D02*
X018961Y012017D01*
X018655Y012323D01*
X018795Y012463D01*
X019101Y012157D01*
G37*
G36*
X018962Y012018D02*
X018822Y011878D01*
X018516Y012184D01*
X018656Y012324D01*
X018962Y012018D01*
G37*
G36*
X025114Y009206D02*
X024974Y009066D01*
X024668Y009372D01*
X024808Y009512D01*
X025114Y009206D01*
G37*
G36*
X025253Y009345D02*
X025113Y009205D01*
X024807Y009511D01*
X024947Y009651D01*
X025253Y009345D01*
G37*
G36*
X025392Y009484D02*
X025252Y009344D01*
X024946Y009650D01*
X025086Y009790D01*
X025392Y009484D01*
G37*
G36*
X025532Y009624D02*
X025392Y009484D01*
X025086Y009790D01*
X025226Y009930D01*
X025532Y009624D01*
G37*
G36*
X025671Y009763D02*
X025531Y009623D01*
X025225Y009929D01*
X025365Y010069D01*
X025671Y009763D01*
G37*
G36*
X025810Y009902D02*
X025670Y009762D01*
X025364Y010068D01*
X025504Y010208D01*
X025810Y009902D01*
G37*
G36*
X025949Y010041D02*
X025809Y009901D01*
X025503Y010207D01*
X025643Y010347D01*
X025949Y010041D01*
G37*
G36*
X026088Y010180D02*
X025948Y010040D01*
X025642Y010346D01*
X025782Y010486D01*
X026088Y010180D01*
G37*
G36*
X026228Y010320D02*
X026088Y010180D01*
X025782Y010486D01*
X025922Y010626D01*
X026228Y010320D01*
G37*
G36*
X026367Y010459D02*
X026227Y010319D01*
X025921Y010625D01*
X026061Y010765D01*
X026367Y010459D01*
G37*
G36*
X026506Y010598D02*
X026366Y010458D01*
X026060Y010764D01*
X026200Y010904D01*
X026506Y010598D01*
G37*
G36*
X026645Y010737D02*
X026505Y010597D01*
X026199Y010903D01*
X026339Y011043D01*
X026645Y010737D01*
G37*
G36*
X026784Y010876D02*
X026644Y010736D01*
X026338Y011042D01*
X026478Y011182D01*
X026784Y010876D01*
G37*
G36*
X024975Y009067D02*
X024835Y008927D01*
X024529Y009233D01*
X024669Y009373D01*
X024975Y009067D01*
G37*
G36*
X024836Y008928D02*
X024696Y008788D01*
X024390Y009094D01*
X024530Y009234D01*
X024836Y008928D01*
G37*
G36*
X024696Y008788D02*
X024556Y008648D01*
X024250Y008954D01*
X024390Y009094D01*
X024696Y008788D01*
G37*
G36*
X024557Y008649D02*
X024417Y008509D01*
X024111Y008815D01*
X024251Y008955D01*
X024557Y008649D01*
G37*
G36*
X024418Y008510D02*
X024278Y008370D01*
X023972Y008676D01*
X024112Y008816D01*
X024418Y008510D01*
G37*
G36*
X024279Y008371D02*
X024139Y008231D01*
X023833Y008537D01*
X023973Y008677D01*
X024279Y008371D01*
G37*
G36*
X024140Y008232D02*
X024000Y008092D01*
X023694Y008398D01*
X023834Y008538D01*
X024140Y008232D01*
G37*
G36*
X024000Y008092D02*
X023860Y007952D01*
X023554Y008258D01*
X023694Y008398D01*
X024000Y008092D01*
G37*
G36*
X023861Y007953D02*
X023721Y007813D01*
X023415Y008119D01*
X023555Y008259D01*
X023861Y007953D01*
G37*
G36*
X023722Y007814D02*
X023582Y007674D01*
X023276Y007980D01*
X023416Y008120D01*
X023722Y007814D01*
G37*
G36*
X023583Y007675D02*
X023443Y007535D01*
X023137Y007841D01*
X023277Y007981D01*
X023583Y007675D01*
G37*
G36*
X023444Y007536D02*
X023304Y007396D01*
X022998Y007702D01*
X023138Y007842D01*
X023444Y007536D01*
G37*
D14*
X023600Y002030D03*
X022600Y002030D03*
X021600Y002030D03*
X020600Y002030D03*
X019600Y002030D03*
X018600Y002030D03*
X025600Y002030D03*
X026600Y002030D03*
X027600Y002030D03*
X028600Y002030D03*
X029600Y002030D03*
X030600Y002030D03*
X045370Y011290D03*
X047930Y011290D03*
X047930Y013070D03*
X045370Y013070D03*
X030600Y021030D03*
X029600Y021030D03*
X028600Y021030D03*
X027600Y021030D03*
X026600Y021030D03*
X025600Y021030D03*
X024600Y021030D03*
X023600Y021030D03*
X022100Y021030D03*
X021100Y021030D03*
X020100Y021030D03*
X019100Y021030D03*
X018100Y021030D03*
X017100Y021030D03*
X016100Y021030D03*
X015100Y021030D03*
D15*
X012100Y020980D03*
X012100Y013130D03*
X035050Y016980D03*
X040400Y016980D03*
X043900Y016980D03*
X043900Y005980D03*
X040400Y005980D03*
X036900Y005980D03*
X047000Y003280D03*
D16*
X046000Y003280D03*
X045000Y003280D03*
X044000Y003280D03*
X043000Y003280D03*
X042000Y003280D03*
X041000Y003280D03*
X040000Y003280D03*
X039000Y003280D03*
X038000Y003280D03*
X037000Y003280D03*
X036000Y003280D03*
X035000Y003280D03*
X035000Y002280D03*
X036000Y002280D03*
X037000Y002280D03*
X038000Y002280D03*
X039000Y002280D03*
X040000Y002280D03*
X041000Y002280D03*
X042000Y002280D03*
X043000Y002280D03*
X044000Y002280D03*
X045000Y002280D03*
X046000Y002280D03*
X047000Y002280D03*
X044900Y005980D03*
X044900Y006980D03*
X043900Y006980D03*
X043900Y007980D03*
X044900Y007980D03*
X044900Y008980D03*
X043900Y008980D03*
X043900Y009980D03*
X044900Y009980D03*
X041400Y009980D03*
X040400Y009980D03*
X040400Y008980D03*
X041400Y008980D03*
X041400Y007980D03*
X040400Y007980D03*
X040400Y006980D03*
X041400Y006980D03*
X041400Y005980D03*
X037900Y005980D03*
X037900Y006980D03*
X036900Y006980D03*
X036900Y007980D03*
X037900Y007980D03*
X037900Y008980D03*
X036900Y008980D03*
X036900Y009980D03*
X037900Y009980D03*
X036050Y016980D03*
X036050Y017980D03*
X035050Y017980D03*
X035050Y018980D03*
X036050Y018980D03*
X036050Y019980D03*
X035050Y019980D03*
X035050Y020980D03*
X036050Y020980D03*
X040400Y020980D03*
X041400Y020980D03*
X041400Y019980D03*
X040400Y019980D03*
X040400Y018980D03*
X041400Y018980D03*
X041400Y017980D03*
X040400Y017980D03*
X041400Y016980D03*
X043900Y017980D03*
X044900Y017980D03*
X044900Y016980D03*
X044900Y018980D03*
X043900Y018980D03*
X043900Y019980D03*
X044900Y019980D03*
X044900Y020980D03*
X043900Y020980D03*
X012100Y019980D03*
X011100Y019980D03*
X011100Y018980D03*
X012100Y018980D03*
X012100Y017980D03*
X011100Y017980D03*
X011100Y016980D03*
X012100Y016980D03*
X012100Y015980D03*
X011100Y015980D03*
X011100Y013130D03*
X011100Y012130D03*
X012100Y012130D03*
X012100Y011130D03*
X011100Y011130D03*
X011100Y010130D03*
X012100Y010130D03*
X012100Y009130D03*
X011100Y009130D03*
X011100Y008130D03*
X012100Y008130D03*
X011100Y020980D03*
D17*
X022550Y016815D03*
X022550Y016145D03*
X023500Y016395D03*
X023500Y017065D03*
X029700Y015165D03*
X029700Y014495D03*
X028900Y011815D03*
X027500Y011815D03*
X027500Y011145D03*
X028900Y011145D03*
X026250Y006215D03*
X026250Y005545D03*
X025450Y005545D03*
X024650Y005545D03*
X024650Y006215D03*
X025450Y006215D03*
X023850Y006215D03*
X023850Y005545D03*
X018050Y005395D03*
X018050Y006065D03*
X017850Y003515D03*
X017850Y002845D03*
X015250Y002795D03*
X015250Y003465D03*
D18*
X016565Y007780D03*
X017235Y007780D03*
X017235Y008480D03*
X016565Y008480D03*
G36*
X019111Y007806D02*
X018750Y007445D01*
X018415Y007780D01*
X018776Y008141D01*
X019111Y007806D01*
G37*
G36*
X019585Y008280D02*
X019224Y007919D01*
X018889Y008254D01*
X019250Y008615D01*
X019585Y008280D01*
G37*
X017685Y011180D03*
X017015Y011180D03*
X017015Y012080D03*
X017685Y012080D03*
G36*
X026161Y013956D02*
X025800Y013595D01*
X025465Y013930D01*
X025826Y014291D01*
X026161Y013956D01*
G37*
G36*
X026635Y014430D02*
X026274Y014069D01*
X025939Y014404D01*
X026300Y014765D01*
X026635Y014430D01*
G37*
X026465Y015280D03*
X027135Y015280D03*
X030365Y015630D03*
X031035Y015630D03*
X031035Y014830D03*
X030365Y014830D03*
G36*
X024824Y017391D02*
X025185Y017030D01*
X024850Y016695D01*
X024489Y017056D01*
X024824Y017391D01*
G37*
G36*
X024350Y017865D02*
X024711Y017504D01*
X024376Y017169D01*
X024015Y017530D01*
X024350Y017865D01*
G37*
X022785Y017580D03*
X022115Y017580D03*
X019235Y016430D03*
X018565Y016430D03*
X027415Y007630D03*
X028085Y007630D03*
X028765Y007630D03*
X029435Y007630D03*
X028735Y006830D03*
X028065Y006830D03*
X046815Y019480D03*
X047485Y019480D03*
X047485Y020780D03*
X046815Y020780D03*
D19*
X028860Y014560D03*
X027860Y014560D03*
D20*
X027430Y008890D03*
X029430Y008890D03*
D21*
X047045Y015410D02*
X047695Y015410D01*
X047695Y016410D02*
X047045Y016410D01*
X047045Y017410D02*
X047695Y017410D01*
D22*
X040900Y013480D03*
X030600Y013030D03*
X019050Y017380D03*
X032650Y021030D03*
X013900Y002380D03*
D23*
X030600Y011030D03*
X031600Y011030D03*
X031600Y012030D03*
X030600Y012030D03*
D24*
X031600Y013030D03*
D25*
X046905Y020180D03*
X047495Y020180D03*
X047495Y021480D03*
X046905Y021480D03*
D26*
X047153Y009980D02*
X047747Y009980D01*
X047747Y008980D02*
X047153Y008980D01*
X047153Y007980D02*
X047747Y007980D01*
X047747Y006980D02*
X047153Y006980D01*
X047153Y005980D02*
X047747Y005980D01*
D27*
X017062Y003204D03*
X016038Y003204D03*
X016038Y002830D03*
X016038Y002456D03*
X017062Y002456D03*
D28*
X014100Y005830D02*
X014100Y006430D01*
X013100Y006430D02*
X013100Y005830D01*
X012100Y005830D02*
X012100Y006430D01*
D29*
X013350Y008730D03*
X015050Y008730D03*
D30*
X014000Y004080D03*
X037700Y018280D03*
X047800Y004380D03*
D31*
X011531Y004142D03*
X011531Y003886D03*
X011531Y003630D03*
X011531Y003374D03*
X011531Y003118D03*
D32*
X010419Y002557D03*
X010419Y004703D03*
D33*
X011612Y004585D03*
X011612Y002675D03*
D34*
X017600Y001930D03*
X019200Y003780D03*
X021900Y006180D03*
X021500Y006530D03*
X020800Y006480D03*
X020450Y006880D03*
X020100Y006480D03*
X019750Y006880D03*
X019400Y006480D03*
X019050Y006880D03*
X018650Y006480D03*
X017900Y007780D03*
X018750Y008630D03*
X017550Y009780D03*
X016950Y009780D03*
X016350Y009780D03*
X015750Y009780D03*
X014250Y011080D03*
X015300Y011630D03*
X020350Y012180D03*
X020950Y012530D03*
X021050Y011630D03*
X021150Y011130D03*
X022750Y011980D03*
X023400Y011330D03*
X023100Y010780D03*
X025250Y010530D03*
X025700Y011080D03*
X026900Y011680D03*
X028200Y011130D03*
X027950Y012580D03*
X027350Y012580D03*
X025350Y012080D03*
X025000Y012480D03*
X023950Y013630D03*
X025600Y014630D03*
X025550Y015580D03*
X026250Y016280D03*
X026800Y016280D03*
X027700Y016180D03*
X025400Y017480D03*
X024150Y016730D03*
X023500Y017580D03*
X019100Y015630D03*
X017550Y014530D03*
X016950Y014530D03*
X016350Y014530D03*
X015750Y014530D03*
X015750Y017330D03*
X016500Y017330D03*
X017150Y017330D03*
X017750Y017330D03*
X031650Y015280D03*
X032800Y014880D03*
X033900Y014380D03*
X034450Y013630D03*
X032350Y015980D03*
X039050Y018930D03*
X038300Y020480D03*
X033750Y020480D03*
X033300Y019930D03*
X032850Y010380D03*
X032550Y009880D03*
X032450Y009330D03*
X031950Y009130D03*
X031450Y008930D03*
X030950Y008730D03*
X028750Y008380D03*
X026200Y009080D03*
X024950Y008430D03*
X025450Y008080D03*
X025050Y007730D03*
X025450Y007380D03*
X024300Y007430D03*
X024000Y007030D03*
X022650Y006580D03*
X022250Y006930D03*
X023150Y008680D03*
X023650Y008980D03*
X022600Y009530D03*
X022350Y008880D03*
X020900Y009930D03*
X032500Y004630D03*
X039650Y005130D03*
X024900Y004230D03*
M02*
