G75*
%MOIN*%
%OFA0B0*%
%FSLAX24Y24*%
%IPPOS*%
%LPD*%
%AMOC8*
5,1,8,0,0,1.08239X$1,22.5*
%
%ADD10C,0.0000*%
%ADD11C,0.0040*%
%ADD12C,0.2165*%
%ADD13C,0.0080*%
%ADD14C,0.0050*%
%ADD15C,0.0020*%
%ADD16C,0.0100*%
%ADD17C,0.0024*%
%ADD18C,0.0060*%
%ADD19C,0.0220*%
%ADD20C,0.0010*%
%ADD21C,0.0160*%
%ADD22R,0.0160X0.0230*%
%ADD23R,0.0180X0.0300*%
%ADD24R,0.0300X0.0180*%
D10*
X009750Y000930D02*
X009750Y022326D01*
X049120Y022326D01*
X049120Y000930D01*
X009750Y000930D01*
X011405Y002675D02*
X011407Y002703D01*
X011413Y002731D01*
X011422Y002757D01*
X011435Y002783D01*
X011451Y002806D01*
X011471Y002826D01*
X011493Y002844D01*
X011517Y002859D01*
X011543Y002870D01*
X011570Y002878D01*
X011598Y002882D01*
X011626Y002882D01*
X011654Y002878D01*
X011681Y002870D01*
X011707Y002859D01*
X011731Y002844D01*
X011753Y002826D01*
X011773Y002806D01*
X011789Y002783D01*
X011802Y002757D01*
X011811Y002731D01*
X011817Y002703D01*
X011819Y002675D01*
X011817Y002647D01*
X011811Y002619D01*
X011802Y002593D01*
X011789Y002567D01*
X011773Y002544D01*
X011753Y002524D01*
X011731Y002506D01*
X011707Y002491D01*
X011681Y002480D01*
X011654Y002472D01*
X011626Y002468D01*
X011598Y002468D01*
X011570Y002472D01*
X011543Y002480D01*
X011517Y002491D01*
X011493Y002506D01*
X011471Y002524D01*
X011451Y002544D01*
X011435Y002567D01*
X011422Y002593D01*
X011413Y002619D01*
X011407Y002647D01*
X011405Y002675D01*
X011405Y004585D02*
X011407Y004613D01*
X011413Y004641D01*
X011422Y004667D01*
X011435Y004693D01*
X011451Y004716D01*
X011471Y004736D01*
X011493Y004754D01*
X011517Y004769D01*
X011543Y004780D01*
X011570Y004788D01*
X011598Y004792D01*
X011626Y004792D01*
X011654Y004788D01*
X011681Y004780D01*
X011707Y004769D01*
X011731Y004754D01*
X011753Y004736D01*
X011773Y004716D01*
X011789Y004693D01*
X011802Y004667D01*
X011811Y004641D01*
X011817Y004613D01*
X011819Y004585D01*
X011817Y004557D01*
X011811Y004529D01*
X011802Y004503D01*
X011789Y004477D01*
X011773Y004454D01*
X011753Y004434D01*
X011731Y004416D01*
X011707Y004401D01*
X011681Y004390D01*
X011654Y004382D01*
X011626Y004378D01*
X011598Y004378D01*
X011570Y004382D01*
X011543Y004390D01*
X011517Y004401D01*
X011493Y004416D01*
X011471Y004434D01*
X011451Y004454D01*
X011435Y004477D01*
X011422Y004503D01*
X011413Y004529D01*
X011407Y004557D01*
X011405Y004585D01*
X015879Y006125D02*
X015881Y006172D01*
X015887Y006219D01*
X015896Y006265D01*
X015910Y006310D01*
X015927Y006354D01*
X015948Y006397D01*
X015972Y006437D01*
X015999Y006476D01*
X016030Y006512D01*
X016063Y006545D01*
X016099Y006576D01*
X016138Y006603D01*
X016178Y006627D01*
X016221Y006648D01*
X016265Y006665D01*
X016310Y006679D01*
X016356Y006688D01*
X016403Y006694D01*
X016450Y006696D01*
X016497Y006694D01*
X016544Y006688D01*
X016590Y006679D01*
X016635Y006665D01*
X016679Y006648D01*
X016722Y006627D01*
X016762Y006603D01*
X016801Y006576D01*
X016837Y006545D01*
X016870Y006512D01*
X016901Y006476D01*
X016928Y006437D01*
X016952Y006397D01*
X016973Y006354D01*
X016990Y006310D01*
X017004Y006265D01*
X017013Y006219D01*
X017019Y006172D01*
X017021Y006125D01*
X017019Y006078D01*
X017013Y006031D01*
X017004Y005985D01*
X016990Y005940D01*
X016973Y005896D01*
X016952Y005853D01*
X016928Y005813D01*
X016901Y005774D01*
X016870Y005738D01*
X016837Y005705D01*
X016801Y005674D01*
X016762Y005647D01*
X016722Y005623D01*
X016679Y005602D01*
X016635Y005585D01*
X016590Y005571D01*
X016544Y005562D01*
X016497Y005556D01*
X016450Y005554D01*
X016403Y005556D01*
X016356Y005562D01*
X016310Y005571D01*
X016265Y005585D01*
X016221Y005602D01*
X016178Y005623D01*
X016138Y005647D01*
X016099Y005674D01*
X016063Y005705D01*
X016030Y005738D01*
X015999Y005774D01*
X015972Y005813D01*
X015948Y005853D01*
X015927Y005896D01*
X015910Y005940D01*
X015896Y005985D01*
X015887Y006031D01*
X015881Y006078D01*
X015879Y006125D01*
X037334Y016165D02*
X037336Y016212D01*
X037342Y016259D01*
X037351Y016305D01*
X037365Y016350D01*
X037382Y016394D01*
X037403Y016437D01*
X037427Y016477D01*
X037454Y016516D01*
X037485Y016552D01*
X037518Y016585D01*
X037554Y016616D01*
X037593Y016643D01*
X037633Y016667D01*
X037676Y016688D01*
X037720Y016705D01*
X037765Y016719D01*
X037811Y016728D01*
X037858Y016734D01*
X037905Y016736D01*
X037952Y016734D01*
X037999Y016728D01*
X038045Y016719D01*
X038090Y016705D01*
X038134Y016688D01*
X038177Y016667D01*
X038217Y016643D01*
X038256Y016616D01*
X038292Y016585D01*
X038325Y016552D01*
X038356Y016516D01*
X038383Y016477D01*
X038407Y016437D01*
X038428Y016394D01*
X038445Y016350D01*
X038459Y016305D01*
X038468Y016259D01*
X038474Y016212D01*
X038476Y016165D01*
X038474Y016118D01*
X038468Y016071D01*
X038459Y016025D01*
X038445Y015980D01*
X038428Y015936D01*
X038407Y015893D01*
X038383Y015853D01*
X038356Y015814D01*
X038325Y015778D01*
X038292Y015745D01*
X038256Y015714D01*
X038217Y015687D01*
X038177Y015663D01*
X038134Y015642D01*
X038090Y015625D01*
X038045Y015611D01*
X037999Y015602D01*
X037952Y015596D01*
X037905Y015594D01*
X037858Y015596D01*
X037811Y015602D01*
X037765Y015611D01*
X037720Y015625D01*
X037676Y015642D01*
X037633Y015663D01*
X037593Y015687D01*
X037554Y015714D01*
X037518Y015745D01*
X037485Y015778D01*
X037454Y015814D01*
X037427Y015853D01*
X037403Y015893D01*
X037382Y015936D01*
X037365Y015980D01*
X037351Y016025D01*
X037342Y016071D01*
X037336Y016118D01*
X037334Y016165D01*
D11*
X038947Y013710D02*
X038870Y013634D01*
X038870Y013327D01*
X038947Y013250D01*
X039100Y013250D01*
X039177Y013327D01*
X039177Y013480D01*
X039023Y013480D01*
X039177Y013634D02*
X039100Y013710D01*
X038947Y013710D01*
X039330Y013710D02*
X039637Y013250D01*
X039637Y013710D01*
X039791Y013710D02*
X040021Y013710D01*
X040098Y013634D01*
X040098Y013327D01*
X040021Y013250D01*
X039791Y013250D01*
X039791Y013710D01*
X039330Y013710D02*
X039330Y013250D01*
X034388Y012234D02*
X034388Y012157D01*
X034081Y011850D01*
X034388Y011850D01*
X033928Y011850D02*
X033851Y011850D01*
X033851Y011927D01*
X033928Y011927D01*
X033928Y011850D01*
X033698Y011850D02*
X033391Y011850D01*
X033698Y012157D01*
X033698Y012234D01*
X033621Y012310D01*
X033468Y012310D01*
X033391Y012234D01*
X033084Y012310D02*
X033084Y011850D01*
X033237Y011850D02*
X032930Y011850D01*
X032700Y012003D02*
X032470Y012003D01*
X032470Y011850D02*
X032470Y012310D01*
X032700Y012310D01*
X032777Y012234D01*
X032777Y012080D01*
X032700Y012003D01*
X032930Y012157D02*
X033084Y012310D01*
X033007Y012850D02*
X032930Y012850D01*
X032930Y012927D01*
X033007Y012927D01*
X033007Y012850D01*
X033161Y012927D02*
X033237Y012850D01*
X033391Y012850D01*
X033468Y012927D01*
X033468Y013234D01*
X033161Y012927D01*
X033161Y013234D01*
X033237Y013310D01*
X033391Y013310D01*
X033468Y013234D01*
X033621Y013310D02*
X033621Y013003D01*
X033774Y012850D01*
X033928Y013003D01*
X033928Y013310D01*
X032777Y013310D02*
X032470Y013310D01*
X032470Y013080D01*
X032623Y013157D01*
X032700Y013157D01*
X032777Y013080D01*
X032777Y012927D01*
X032700Y012850D01*
X032547Y012850D01*
X032470Y012927D01*
X034081Y012234D02*
X034158Y012310D01*
X034312Y012310D01*
X034388Y012234D01*
X033621Y011310D02*
X033391Y011310D01*
X033391Y010850D01*
X033621Y010850D01*
X033698Y010927D01*
X033698Y011234D01*
X033621Y011310D01*
X033237Y011310D02*
X033237Y010850D01*
X032930Y011310D01*
X032930Y010850D01*
X032777Y010927D02*
X032777Y011080D01*
X032623Y011080D01*
X032470Y010927D02*
X032547Y010850D01*
X032700Y010850D01*
X032777Y010927D01*
X032777Y011234D02*
X032700Y011310D01*
X032547Y011310D01*
X032470Y011234D01*
X032470Y010927D01*
X033970Y009980D02*
X034277Y009980D01*
X034123Y010134D02*
X034123Y009827D01*
X035020Y009980D02*
X035327Y009980D01*
X035327Y009160D02*
X035327Y009084D01*
X035020Y008777D01*
X035020Y008700D01*
X035020Y009160D02*
X035327Y009160D01*
X034277Y009160D02*
X034123Y009084D01*
X033970Y008930D01*
X034200Y008930D01*
X034277Y008853D01*
X034277Y008777D01*
X034200Y008700D01*
X034047Y008700D01*
X033970Y008777D01*
X033970Y008930D01*
X034200Y008160D02*
X033970Y007930D01*
X034277Y007930D01*
X034200Y007700D02*
X034200Y008160D01*
X035020Y008160D02*
X035020Y007930D01*
X035173Y008007D01*
X035250Y008007D01*
X035327Y007930D01*
X035327Y007777D01*
X035250Y007700D01*
X035097Y007700D01*
X035020Y007777D01*
X035020Y008160D02*
X035327Y008160D01*
X035250Y007160D02*
X035327Y007084D01*
X035327Y007007D01*
X035250Y006930D01*
X035327Y006853D01*
X035327Y006777D01*
X035250Y006700D01*
X035097Y006700D01*
X035020Y006777D01*
X035173Y006930D02*
X035250Y006930D01*
X035250Y007160D02*
X035097Y007160D01*
X035020Y007084D01*
X034277Y007084D02*
X034200Y007160D01*
X034047Y007160D01*
X033970Y007084D01*
X034277Y007084D02*
X034277Y007007D01*
X033970Y006700D01*
X034277Y006700D01*
X033330Y006778D02*
X032870Y006778D01*
X032870Y006931D02*
X032870Y007238D01*
X032870Y007392D02*
X032870Y007545D01*
X032870Y007468D02*
X033330Y007468D01*
X033330Y007392D02*
X033330Y007545D01*
X033253Y007698D02*
X032946Y007698D01*
X032870Y007775D01*
X032870Y007929D01*
X032946Y008005D01*
X033100Y008005D02*
X033100Y007852D01*
X033100Y008005D02*
X033253Y008005D01*
X033330Y007929D01*
X033330Y007775D01*
X033253Y007698D01*
X032580Y007698D02*
X032120Y007698D01*
X032580Y008005D01*
X032120Y008005D01*
X032120Y007545D02*
X032120Y007392D01*
X032120Y007468D02*
X032580Y007468D01*
X032580Y007392D02*
X032580Y007545D01*
X032350Y007238D02*
X032427Y007161D01*
X032427Y006931D01*
X032580Y006931D02*
X032120Y006931D01*
X032120Y007161D01*
X032196Y007238D01*
X032350Y007238D01*
X032870Y006931D02*
X033330Y006931D01*
X033330Y006778D02*
X032870Y006471D01*
X033330Y006471D01*
X033253Y006317D02*
X032946Y006317D01*
X032870Y006241D01*
X032870Y006087D01*
X032946Y006010D01*
X033253Y006010D01*
X033330Y006087D01*
X033330Y006241D01*
X033253Y006317D01*
X032580Y006241D02*
X032580Y006087D01*
X032503Y006010D01*
X032196Y006317D01*
X032503Y006317D01*
X032580Y006241D01*
X032503Y006010D02*
X032196Y006010D01*
X032120Y006087D01*
X032120Y006241D01*
X032196Y006317D01*
X032580Y005857D02*
X032580Y005550D01*
X032580Y005703D02*
X032120Y005703D01*
X032273Y005550D01*
X032870Y005627D02*
X032870Y005780D01*
X032946Y005857D01*
X032870Y005627D02*
X032946Y005550D01*
X033253Y005550D01*
X033330Y005627D01*
X033330Y005780D01*
X033253Y005857D01*
X033970Y005777D02*
X033970Y006084D01*
X034047Y006160D01*
X034200Y006160D01*
X034277Y006084D01*
X033970Y005777D01*
X034047Y005700D01*
X034200Y005700D01*
X034277Y005777D01*
X034277Y006084D01*
X035020Y006007D02*
X035173Y006160D01*
X035173Y005700D01*
X035020Y005700D02*
X035327Y005700D01*
X033100Y006931D02*
X033100Y007085D01*
X030753Y004308D02*
X030830Y004231D01*
X030830Y004078D01*
X030753Y004001D01*
X030600Y004001D02*
X030523Y004154D01*
X030523Y004231D01*
X030600Y004308D01*
X030753Y004308D01*
X030600Y004001D02*
X030370Y004001D01*
X030370Y004308D01*
X029830Y004231D02*
X029370Y004231D01*
X029600Y004001D01*
X029600Y004308D01*
X029753Y003848D02*
X029830Y003848D01*
X029830Y003771D01*
X029753Y003771D01*
X029753Y003848D01*
X029753Y003617D02*
X029830Y003541D01*
X029830Y003387D01*
X029753Y003310D01*
X029600Y003157D02*
X029446Y003157D01*
X029370Y003080D01*
X029370Y002850D01*
X029830Y002850D01*
X029677Y002850D02*
X029677Y003080D01*
X029600Y003157D01*
X029446Y003310D02*
X029370Y003387D01*
X029370Y003541D01*
X029446Y003617D01*
X029523Y003617D01*
X029600Y003541D01*
X029677Y003617D01*
X029753Y003617D01*
X029600Y003541D02*
X029600Y003464D01*
X030370Y003387D02*
X030370Y003541D01*
X030446Y003617D01*
X030523Y003617D01*
X030600Y003541D01*
X030677Y003617D01*
X030753Y003617D01*
X030830Y003541D01*
X030830Y003387D01*
X030753Y003310D01*
X030600Y003157D02*
X030446Y003157D01*
X030370Y003080D01*
X030370Y002850D01*
X030830Y002850D01*
X030677Y002850D02*
X030677Y003080D01*
X030600Y003157D01*
X030446Y003310D02*
X030370Y003387D01*
X030600Y003464D02*
X030600Y003541D01*
X030753Y003771D02*
X030753Y003848D01*
X030830Y003848D01*
X030830Y003771D01*
X030753Y003771D01*
X028830Y003771D02*
X028830Y003848D01*
X028753Y003848D01*
X028753Y003771D01*
X028830Y003771D01*
X028753Y003617D02*
X028830Y003541D01*
X028830Y003387D01*
X028753Y003310D01*
X028600Y003157D02*
X028446Y003157D01*
X028370Y003080D01*
X028370Y002850D01*
X028830Y002850D01*
X028677Y002850D02*
X028677Y003080D01*
X028600Y003157D01*
X028446Y003310D02*
X028370Y003387D01*
X028370Y003541D01*
X028446Y003617D01*
X028523Y003617D01*
X028600Y003541D01*
X028677Y003617D01*
X028753Y003617D01*
X028600Y003541D02*
X028600Y003464D01*
X028753Y004001D02*
X028830Y004078D01*
X028830Y004231D01*
X028753Y004308D01*
X028677Y004308D01*
X028600Y004231D01*
X028600Y004154D01*
X028600Y004231D02*
X028523Y004308D01*
X028446Y004308D01*
X028370Y004231D01*
X028370Y004078D01*
X028446Y004001D01*
X027830Y004001D02*
X027523Y004308D01*
X027446Y004308D01*
X027370Y004231D01*
X027370Y004078D01*
X027446Y004001D01*
X027753Y003848D02*
X027830Y003848D01*
X027830Y003771D01*
X027753Y003771D01*
X027753Y003848D01*
X027830Y004001D02*
X027830Y004308D01*
X026830Y004308D02*
X026830Y004001D01*
X026830Y004154D02*
X026370Y004154D01*
X026523Y004001D01*
X026753Y003848D02*
X026830Y003848D01*
X026830Y003771D01*
X026753Y003771D01*
X026753Y003848D01*
X026753Y003617D02*
X026830Y003541D01*
X026830Y003387D01*
X026753Y003310D01*
X026600Y003157D02*
X026446Y003157D01*
X026370Y003080D01*
X026370Y002850D01*
X026830Y002850D01*
X026677Y002850D02*
X026677Y003080D01*
X026600Y003157D01*
X026446Y003310D02*
X026370Y003387D01*
X026370Y003541D01*
X026446Y003617D01*
X026523Y003617D01*
X026600Y003541D01*
X026677Y003617D01*
X026753Y003617D01*
X026600Y003541D02*
X026600Y003464D01*
X027370Y003387D02*
X027370Y003541D01*
X027446Y003617D01*
X027523Y003617D01*
X027600Y003541D01*
X027677Y003617D01*
X027753Y003617D01*
X027830Y003541D01*
X027830Y003387D01*
X027753Y003310D01*
X027600Y003157D02*
X027446Y003157D01*
X027370Y003080D01*
X027370Y002850D01*
X027830Y002850D01*
X027677Y002850D02*
X027677Y003080D01*
X027600Y003157D01*
X027446Y003310D02*
X027370Y003387D01*
X027600Y003464D02*
X027600Y003541D01*
X025830Y003541D02*
X025830Y003387D01*
X025753Y003310D01*
X025600Y003157D02*
X025446Y003157D01*
X025370Y003080D01*
X025370Y002850D01*
X025830Y002850D01*
X025677Y002850D02*
X025677Y003080D01*
X025600Y003157D01*
X025446Y003310D02*
X025370Y003387D01*
X025370Y003541D01*
X025446Y003617D01*
X025523Y003617D01*
X025600Y003541D01*
X025677Y003617D01*
X025753Y003617D01*
X025830Y003541D01*
X025830Y003771D02*
X025830Y003848D01*
X025753Y003848D01*
X025753Y003771D01*
X025830Y003771D01*
X025753Y004001D02*
X025446Y004001D01*
X025370Y004078D01*
X025370Y004231D01*
X025446Y004308D01*
X025753Y004001D01*
X025830Y004078D01*
X025830Y004231D01*
X025753Y004308D01*
X025446Y004308D01*
X025600Y003541D02*
X025600Y003464D01*
X023830Y003387D02*
X023830Y003541D01*
X023753Y003617D01*
X023830Y003387D02*
X023753Y003310D01*
X023446Y003310D01*
X023370Y003387D01*
X023370Y003541D01*
X023446Y003617D01*
X022830Y003617D02*
X022370Y003617D01*
X022370Y003771D02*
X022370Y004001D01*
X022446Y004078D01*
X022753Y004078D01*
X022830Y004001D01*
X022830Y003771D01*
X022370Y003771D01*
X022370Y003310D02*
X022830Y003617D01*
X022830Y003310D02*
X022370Y003310D01*
X022446Y003157D02*
X022370Y003080D01*
X022370Y002927D01*
X022446Y002850D01*
X022753Y002850D01*
X022830Y002927D01*
X022830Y003080D01*
X022753Y003157D01*
X022600Y003157D01*
X022600Y003003D01*
X023370Y002850D02*
X023830Y003157D01*
X023370Y003157D01*
X023370Y002850D02*
X023830Y002850D01*
X021830Y002927D02*
X021830Y003080D01*
X021753Y003157D01*
X021600Y003157D01*
X021600Y003003D01*
X021753Y002850D02*
X021446Y002850D01*
X021370Y002927D01*
X021370Y003080D01*
X021446Y003157D01*
X021370Y003310D02*
X021830Y003617D01*
X021370Y003617D01*
X021370Y003771D02*
X021370Y004001D01*
X021446Y004078D01*
X021753Y004078D01*
X021830Y004001D01*
X021830Y003771D01*
X021370Y003771D01*
X020830Y003771D02*
X020830Y003617D01*
X020753Y003541D01*
X020446Y003848D01*
X020753Y003848D01*
X020830Y003771D01*
X020753Y003541D02*
X020446Y003541D01*
X020370Y003617D01*
X020370Y003771D01*
X020446Y003848D01*
X020370Y004001D02*
X020677Y004001D01*
X020830Y004154D01*
X020677Y004308D01*
X020370Y004308D01*
X019830Y004154D02*
X019677Y004001D01*
X019370Y004001D01*
X019446Y003848D02*
X019523Y003848D01*
X019600Y003771D01*
X019677Y003848D01*
X019753Y003848D01*
X019830Y003771D01*
X019830Y003617D01*
X019753Y003541D01*
X019753Y003387D02*
X019830Y003387D01*
X019830Y003310D01*
X019753Y003310D01*
X019753Y003387D01*
X019753Y003157D02*
X019830Y003080D01*
X019830Y002927D01*
X019753Y002850D01*
X019600Y003003D02*
X019600Y003080D01*
X019677Y003157D01*
X019753Y003157D01*
X019600Y003080D02*
X019523Y003157D01*
X019446Y003157D01*
X019370Y003080D01*
X019370Y002927D01*
X019446Y002850D01*
X018830Y002850D02*
X018370Y002850D01*
X018370Y003080D01*
X018446Y003157D01*
X018600Y003157D01*
X018677Y003080D01*
X018677Y002850D01*
X018677Y003003D02*
X018830Y003157D01*
X018753Y003310D02*
X018830Y003387D01*
X018830Y003541D01*
X018753Y003617D01*
X018677Y003617D01*
X018600Y003541D01*
X018600Y003387D01*
X018523Y003310D01*
X018446Y003310D01*
X018370Y003387D01*
X018370Y003541D01*
X018446Y003617D01*
X018370Y003771D02*
X018370Y004078D01*
X018370Y003924D02*
X018830Y003924D01*
X019370Y003771D02*
X019446Y003848D01*
X019370Y003771D02*
X019370Y003617D01*
X019446Y003541D01*
X019600Y003694D02*
X019600Y003771D01*
X019830Y004154D02*
X019677Y004308D01*
X019370Y004308D01*
X020753Y003387D02*
X020830Y003387D01*
X020830Y003310D01*
X020753Y003310D01*
X020753Y003387D01*
X020753Y003157D02*
X020830Y003080D01*
X020830Y002927D01*
X020753Y002850D01*
X020600Y002850D02*
X020523Y003003D01*
X020523Y003080D01*
X020600Y003157D01*
X020753Y003157D01*
X020600Y002850D02*
X020370Y002850D01*
X020370Y003157D01*
X021370Y003310D02*
X021830Y003310D01*
X021830Y002927D02*
X021753Y002850D01*
X016967Y001450D02*
X016660Y001450D01*
X016813Y001450D02*
X016813Y001910D01*
X016660Y001757D01*
X016506Y001834D02*
X016429Y001910D01*
X016276Y001910D01*
X016199Y001834D01*
X016199Y001527D01*
X016276Y001450D01*
X016429Y001450D01*
X016506Y001527D01*
X016046Y001450D02*
X015892Y001450D01*
X015969Y001450D02*
X015969Y001910D01*
X015892Y001910D02*
X016046Y001910D01*
X014348Y001834D02*
X014348Y001527D01*
X014271Y001450D01*
X014041Y001450D01*
X014041Y001910D01*
X014271Y001910D01*
X014348Y001834D01*
X013887Y001910D02*
X013887Y001450D01*
X013580Y001910D01*
X013580Y001450D01*
X013427Y001527D02*
X013427Y001680D01*
X013273Y001680D01*
X013120Y001527D02*
X013120Y001834D01*
X013197Y001910D01*
X013350Y001910D01*
X013427Y001834D01*
X013427Y001527D02*
X013350Y001450D01*
X013197Y001450D01*
X013120Y001527D01*
X027970Y010400D02*
X027970Y010860D01*
X028200Y010860D01*
X028277Y010784D01*
X028277Y010630D01*
X028200Y010553D01*
X027970Y010553D01*
X028430Y010400D02*
X028737Y010400D01*
X028584Y010400D02*
X028584Y010860D01*
X028430Y010707D01*
X028891Y010784D02*
X028968Y010860D01*
X029121Y010860D01*
X029198Y010784D01*
X029198Y010707D01*
X028891Y010400D01*
X029198Y010400D01*
X029351Y010400D02*
X029428Y010400D01*
X029428Y010477D01*
X029351Y010477D01*
X029351Y010400D01*
X029581Y010477D02*
X029888Y010784D01*
X029888Y010477D01*
X029812Y010400D01*
X029658Y010400D01*
X029581Y010477D01*
X029581Y010784D01*
X029658Y010860D01*
X029812Y010860D01*
X029888Y010784D01*
X029888Y011800D02*
X029581Y011800D01*
X029428Y011800D02*
X029351Y011800D01*
X029351Y011877D01*
X029428Y011877D01*
X029428Y011800D01*
X029198Y011800D02*
X028891Y011800D01*
X029198Y012107D01*
X029198Y012184D01*
X029121Y012260D01*
X028968Y012260D01*
X028891Y012184D01*
X028584Y012260D02*
X028584Y011800D01*
X028737Y011800D02*
X028430Y011800D01*
X028200Y011953D02*
X027970Y011953D01*
X027970Y011800D02*
X027970Y012260D01*
X028200Y012260D01*
X028277Y012184D01*
X028277Y012030D01*
X028200Y011953D01*
X028430Y012107D02*
X028584Y012260D01*
X028584Y012850D02*
X028584Y013310D01*
X028430Y013157D01*
X028277Y013234D02*
X028277Y013080D01*
X028200Y013003D01*
X027970Y013003D01*
X027970Y012850D02*
X027970Y013310D01*
X028200Y013310D01*
X028277Y013234D01*
X028891Y013234D02*
X028968Y013310D01*
X029121Y013310D01*
X029198Y013234D01*
X029198Y013157D01*
X028891Y012850D01*
X029198Y012850D01*
X029351Y012850D02*
X029428Y012850D01*
X029428Y012927D01*
X029351Y012927D01*
X029351Y012850D01*
X029581Y012927D02*
X029658Y012850D01*
X029812Y012850D01*
X029888Y012927D01*
X029888Y013003D01*
X029812Y013080D01*
X029735Y013080D01*
X029812Y013080D02*
X029888Y013157D01*
X029888Y013234D01*
X029812Y013310D01*
X029658Y013310D01*
X029581Y013234D01*
X028737Y012850D02*
X028430Y012850D01*
X029581Y012107D02*
X029735Y012260D01*
X029735Y011800D01*
X020798Y017227D02*
X020798Y017534D01*
X020721Y017610D01*
X020491Y017610D01*
X020491Y017150D01*
X020721Y017150D01*
X020798Y017227D01*
X020337Y017150D02*
X020337Y017610D01*
X020030Y017610D02*
X020337Y017150D01*
X020030Y017150D02*
X020030Y017610D01*
X019877Y017534D02*
X019800Y017610D01*
X019647Y017610D01*
X019570Y017534D01*
X019570Y017227D01*
X019647Y017150D01*
X019800Y017150D01*
X019877Y017227D01*
X019877Y017380D01*
X019723Y017380D01*
X018025Y016160D02*
X018025Y015700D01*
X017718Y016160D01*
X017718Y015700D01*
X017565Y015700D02*
X017412Y015700D01*
X017488Y015700D02*
X017488Y016160D01*
X017412Y016160D02*
X017565Y016160D01*
X017258Y016084D02*
X017258Y015930D01*
X017181Y015853D01*
X016951Y015853D01*
X016951Y015700D02*
X016951Y016160D01*
X017181Y016160D01*
X017258Y016084D01*
X016337Y016084D02*
X016261Y016160D01*
X016107Y016160D01*
X016030Y016084D01*
X016337Y016084D02*
X016337Y016007D01*
X016030Y015700D01*
X016337Y015700D01*
X015877Y015700D02*
X015570Y015700D01*
X015723Y015700D02*
X015723Y016160D01*
X015570Y016007D01*
X014877Y015950D02*
X014570Y015950D01*
X014877Y016257D01*
X014877Y016334D01*
X014800Y016410D01*
X014647Y016410D01*
X014570Y016334D01*
X013877Y016334D02*
X013877Y016257D01*
X013800Y016180D01*
X013877Y016103D01*
X013877Y016027D01*
X013800Y015950D01*
X013647Y015950D01*
X013570Y016027D01*
X013723Y016180D02*
X013800Y016180D01*
X013877Y016334D02*
X013800Y016410D01*
X013647Y016410D01*
X013570Y016334D01*
X013570Y016950D02*
X013877Y016950D01*
X013723Y016950D02*
X013723Y017410D01*
X013570Y017257D01*
X014570Y017334D02*
X014570Y017027D01*
X014877Y017334D01*
X014877Y017027D01*
X014800Y016950D01*
X014647Y016950D01*
X014570Y017027D01*
X014570Y017334D02*
X014647Y017410D01*
X014800Y017410D01*
X014877Y017334D01*
X016870Y018750D02*
X016870Y018980D01*
X016946Y019057D01*
X017100Y019057D01*
X017177Y018980D01*
X017177Y018750D01*
X017330Y018750D02*
X016870Y018750D01*
X016330Y019027D02*
X016330Y019180D01*
X016253Y019257D01*
X016100Y019257D01*
X016100Y019103D01*
X016253Y018950D02*
X016330Y019027D01*
X016253Y018950D02*
X015946Y018950D01*
X015870Y019027D01*
X015870Y019180D01*
X015946Y019257D01*
X015870Y019410D02*
X016330Y019717D01*
X015870Y019717D01*
X015870Y019871D02*
X015870Y020101D01*
X015946Y020178D01*
X016253Y020178D01*
X016330Y020101D01*
X016330Y019871D01*
X015870Y019871D01*
X015330Y019937D02*
X015330Y020091D01*
X015253Y020167D01*
X015330Y019937D02*
X015253Y019860D01*
X014946Y019860D01*
X014870Y019937D01*
X014870Y020091D01*
X014946Y020167D01*
X014870Y019707D02*
X015330Y019707D01*
X014870Y019400D01*
X015330Y019400D01*
X015870Y019410D02*
X016330Y019410D01*
X016870Y019517D02*
X016946Y019364D01*
X017100Y019210D01*
X017100Y019441D01*
X017177Y019517D01*
X017253Y019517D01*
X017330Y019441D01*
X017330Y019287D01*
X017253Y019210D01*
X017100Y019210D01*
X017870Y018980D02*
X017946Y019057D01*
X018100Y019057D01*
X018177Y018980D01*
X018177Y018750D01*
X018330Y018750D02*
X017870Y018750D01*
X017870Y018980D01*
X018100Y019210D02*
X017946Y019364D01*
X017870Y019517D01*
X018100Y019441D02*
X018100Y019210D01*
X018253Y019210D01*
X018330Y019287D01*
X018330Y019441D01*
X018253Y019517D01*
X018177Y019517D01*
X018100Y019441D01*
X018253Y019671D02*
X018253Y019748D01*
X018330Y019748D01*
X018330Y019671D01*
X018253Y019671D01*
X018253Y019901D02*
X018330Y019978D01*
X018330Y020131D01*
X018253Y020208D01*
X018177Y020208D01*
X018100Y020131D01*
X018100Y019901D01*
X018253Y019901D01*
X018100Y019901D02*
X017946Y020054D01*
X017870Y020208D01*
X017330Y019901D02*
X017253Y019901D01*
X016946Y020208D01*
X016870Y020208D01*
X016870Y019901D01*
X017253Y019748D02*
X017330Y019748D01*
X017330Y019671D01*
X017253Y019671D01*
X017253Y019748D01*
X018870Y019901D02*
X019100Y019901D01*
X019023Y020054D01*
X019023Y020131D01*
X019100Y020208D01*
X019253Y020208D01*
X019330Y020131D01*
X019330Y019978D01*
X019253Y019901D01*
X019253Y019748D02*
X019330Y019748D01*
X019330Y019671D01*
X019253Y019671D01*
X019253Y019748D01*
X019253Y019517D02*
X019177Y019517D01*
X019100Y019441D01*
X019100Y019210D01*
X019253Y019210D01*
X019330Y019287D01*
X019330Y019441D01*
X019253Y019517D01*
X018946Y019364D02*
X019100Y019210D01*
X019100Y019057D02*
X018946Y019057D01*
X018870Y018980D01*
X018870Y018750D01*
X019330Y018750D01*
X019177Y018750D02*
X019177Y018980D01*
X019100Y019057D01*
X018946Y019364D02*
X018870Y019517D01*
X018870Y019901D02*
X018870Y020208D01*
X019870Y020131D02*
X020100Y019901D01*
X020100Y020208D01*
X020330Y020131D02*
X019870Y020131D01*
X020253Y019748D02*
X020330Y019748D01*
X020330Y019671D01*
X020253Y019671D01*
X020253Y019748D01*
X020253Y019517D02*
X020177Y019517D01*
X020100Y019441D01*
X020100Y019210D01*
X020253Y019210D01*
X020330Y019287D01*
X020330Y019441D01*
X020253Y019517D01*
X019946Y019364D02*
X020100Y019210D01*
X020100Y019057D02*
X019946Y019057D01*
X019870Y018980D01*
X019870Y018750D01*
X020330Y018750D01*
X020177Y018750D02*
X020177Y018980D01*
X020100Y019057D01*
X019946Y019364D02*
X019870Y019517D01*
X020870Y019517D02*
X020946Y019364D01*
X021100Y019210D01*
X021100Y019441D01*
X021177Y019517D01*
X021253Y019517D01*
X021330Y019441D01*
X021330Y019287D01*
X021253Y019210D01*
X021100Y019210D01*
X021100Y019057D02*
X020946Y019057D01*
X020870Y018980D01*
X020870Y018750D01*
X021330Y018750D01*
X021177Y018750D02*
X021177Y018980D01*
X021100Y019057D01*
X021870Y018980D02*
X021870Y018750D01*
X022330Y018750D01*
X022177Y018750D02*
X022177Y018980D01*
X022100Y019057D01*
X021946Y019057D01*
X021870Y018980D01*
X022100Y019210D02*
X021946Y019364D01*
X021870Y019517D01*
X022100Y019441D02*
X022100Y019210D01*
X022253Y019210D01*
X022330Y019287D01*
X022330Y019441D01*
X022253Y019517D01*
X022177Y019517D01*
X022100Y019441D01*
X022253Y019671D02*
X022253Y019748D01*
X022330Y019748D01*
X022330Y019671D01*
X022253Y019671D01*
X022330Y019901D02*
X022023Y020208D01*
X021946Y020208D01*
X021870Y020131D01*
X021870Y019978D01*
X021946Y019901D01*
X022330Y019901D02*
X022330Y020208D01*
X021330Y020131D02*
X021330Y019978D01*
X021253Y019901D01*
X021253Y019748D02*
X021330Y019748D01*
X021330Y019671D01*
X021253Y019671D01*
X021253Y019748D01*
X021100Y020054D02*
X021100Y020131D01*
X021177Y020208D01*
X021253Y020208D01*
X021330Y020131D01*
X021100Y020131D02*
X021023Y020208D01*
X020946Y020208D01*
X020870Y020131D01*
X020870Y019978D01*
X020946Y019901D01*
X023370Y020054D02*
X023830Y020054D01*
X023830Y019901D02*
X023830Y020208D01*
X023523Y019901D02*
X023370Y020054D01*
X023753Y019748D02*
X023830Y019748D01*
X023830Y019671D01*
X023753Y019671D01*
X023753Y019748D01*
X023753Y019517D02*
X023677Y019517D01*
X023600Y019441D01*
X023600Y019210D01*
X023753Y019210D01*
X023830Y019287D01*
X023830Y019441D01*
X023753Y019517D01*
X023446Y019364D02*
X023600Y019210D01*
X023600Y019057D02*
X023446Y019057D01*
X023370Y018980D01*
X023370Y018750D01*
X023830Y018750D01*
X023677Y018750D02*
X023677Y018980D01*
X023600Y019057D01*
X023446Y019364D02*
X023370Y019517D01*
X024370Y019517D02*
X024446Y019364D01*
X024600Y019210D01*
X024600Y019441D01*
X024677Y019517D01*
X024753Y019517D01*
X024830Y019441D01*
X024830Y019287D01*
X024753Y019210D01*
X024600Y019210D01*
X024600Y019057D02*
X024446Y019057D01*
X024370Y018980D01*
X024370Y018750D01*
X024830Y018750D01*
X024677Y018750D02*
X024677Y018980D01*
X024600Y019057D01*
X025370Y018914D02*
X025830Y018914D01*
X025830Y019067D02*
X025830Y018760D01*
X025677Y018530D02*
X025677Y018300D01*
X025830Y018300D02*
X025370Y018300D01*
X025370Y018530D01*
X025446Y018607D01*
X025600Y018607D01*
X025677Y018530D01*
X025523Y018760D02*
X025370Y018914D01*
X025370Y019221D02*
X025600Y019221D01*
X025523Y019374D01*
X025523Y019451D01*
X025600Y019528D01*
X025753Y019528D01*
X025830Y019451D01*
X025830Y019298D01*
X025753Y019221D01*
X025370Y019221D02*
X025370Y019528D01*
X025753Y019681D02*
X025753Y019758D01*
X025830Y019758D01*
X025830Y019681D01*
X025753Y019681D01*
X025753Y019911D02*
X025830Y019988D01*
X025830Y020142D01*
X025753Y020218D01*
X025600Y020218D01*
X025523Y020142D01*
X025523Y020065D01*
X025600Y019911D01*
X025370Y019911D01*
X025370Y020218D01*
X024830Y020131D02*
X024830Y019978D01*
X024753Y019901D01*
X024446Y020208D01*
X024753Y020208D01*
X024830Y020131D01*
X024753Y019901D02*
X024446Y019901D01*
X024370Y019978D01*
X024370Y020131D01*
X024446Y020208D01*
X024753Y019748D02*
X024830Y019748D01*
X024830Y019671D01*
X024753Y019671D01*
X024753Y019748D01*
X026370Y019528D02*
X026370Y019221D01*
X026600Y019221D01*
X026523Y019374D01*
X026523Y019451D01*
X026600Y019528D01*
X026753Y019528D01*
X026830Y019451D01*
X026830Y019298D01*
X026753Y019221D01*
X026830Y019067D02*
X026830Y018760D01*
X026830Y018914D02*
X026370Y018914D01*
X026523Y018760D01*
X026446Y018607D02*
X026600Y018607D01*
X026677Y018530D01*
X026677Y018300D01*
X026830Y018300D02*
X026370Y018300D01*
X026370Y018530D01*
X026446Y018607D01*
X027370Y018530D02*
X027370Y018300D01*
X027830Y018300D01*
X027677Y018300D02*
X027677Y018530D01*
X027600Y018607D01*
X027446Y018607D01*
X027370Y018530D01*
X027523Y018760D02*
X027370Y018914D01*
X027830Y018914D01*
X027830Y019067D02*
X027830Y018760D01*
X028370Y018914D02*
X028830Y018914D01*
X028830Y019067D02*
X028830Y018760D01*
X028677Y018530D02*
X028677Y018300D01*
X028830Y018300D02*
X028370Y018300D01*
X028370Y018530D01*
X028446Y018607D01*
X028600Y018607D01*
X028677Y018530D01*
X028523Y018760D02*
X028370Y018914D01*
X028446Y019221D02*
X028370Y019298D01*
X028370Y019451D01*
X028446Y019528D01*
X028523Y019528D01*
X028830Y019221D01*
X028830Y019528D01*
X028830Y019681D02*
X028830Y019758D01*
X028753Y019758D01*
X028753Y019681D01*
X028830Y019681D01*
X028753Y019911D02*
X028830Y019988D01*
X028830Y020142D01*
X028753Y020218D01*
X028677Y020218D01*
X028600Y020142D01*
X028600Y019911D01*
X028753Y019911D01*
X028600Y019911D02*
X028446Y020065D01*
X028370Y020218D01*
X027830Y019911D02*
X027753Y019911D01*
X027446Y020218D01*
X027370Y020218D01*
X027370Y019911D01*
X027753Y019758D02*
X027830Y019758D01*
X027830Y019681D01*
X027753Y019681D01*
X027753Y019758D01*
X027830Y019528D02*
X027830Y019221D01*
X027523Y019528D01*
X027446Y019528D01*
X027370Y019451D01*
X027370Y019298D01*
X027446Y019221D01*
X026830Y019681D02*
X026830Y019758D01*
X026753Y019758D01*
X026753Y019681D01*
X026830Y019681D01*
X026600Y019911D02*
X026600Y020218D01*
X026830Y020142D02*
X026370Y020142D01*
X026600Y019911D01*
X029370Y019911D02*
X029600Y019911D01*
X029523Y020065D01*
X029523Y020142D01*
X029600Y020218D01*
X029753Y020218D01*
X029830Y020142D01*
X029830Y019988D01*
X029753Y019911D01*
X029753Y019758D02*
X029830Y019758D01*
X029830Y019681D01*
X029753Y019681D01*
X029753Y019758D01*
X029830Y019528D02*
X029830Y019221D01*
X029523Y019528D01*
X029446Y019528D01*
X029370Y019451D01*
X029370Y019298D01*
X029446Y019221D01*
X029370Y018914D02*
X029830Y018914D01*
X029830Y019067D02*
X029830Y018760D01*
X029677Y018530D02*
X029677Y018300D01*
X029830Y018300D02*
X029370Y018300D01*
X029370Y018530D01*
X029446Y018607D01*
X029600Y018607D01*
X029677Y018530D01*
X029523Y018760D02*
X029370Y018914D01*
X030370Y018914D02*
X030830Y018914D01*
X030830Y019067D02*
X030830Y018760D01*
X030677Y018530D02*
X030677Y018300D01*
X030830Y018300D02*
X030370Y018300D01*
X030370Y018530D01*
X030446Y018607D01*
X030600Y018607D01*
X030677Y018530D01*
X030523Y018760D02*
X030370Y018914D01*
X030446Y019221D02*
X030370Y019298D01*
X030370Y019451D01*
X030446Y019528D01*
X030523Y019528D01*
X030830Y019221D01*
X030830Y019528D01*
X030830Y019681D02*
X030830Y019758D01*
X030753Y019758D01*
X030753Y019681D01*
X030830Y019681D01*
X030600Y019911D02*
X030600Y020218D01*
X030830Y020142D02*
X030370Y020142D01*
X030600Y019911D01*
X029370Y019911D02*
X029370Y020218D01*
X036970Y020210D02*
X036970Y019750D01*
X037277Y019750D02*
X037277Y020210D01*
X037430Y020134D02*
X037430Y019827D01*
X037507Y019750D01*
X037661Y019750D01*
X037737Y019827D01*
X037277Y019750D02*
X036970Y020210D01*
X037430Y020134D02*
X037507Y020210D01*
X037661Y020210D01*
X037737Y020134D01*
X046578Y019060D02*
X046578Y018600D01*
X046578Y018753D02*
X046809Y018753D01*
X046885Y018830D01*
X046885Y018984D01*
X046809Y019060D01*
X046578Y019060D01*
X047039Y019060D02*
X047269Y019060D01*
X047346Y018984D01*
X047346Y018830D01*
X047269Y018753D01*
X047039Y018753D01*
X047039Y018600D02*
X047039Y019060D01*
X047192Y018753D02*
X047346Y018600D01*
X047499Y018677D02*
X047576Y018600D01*
X047729Y018600D01*
X047806Y018677D01*
X047806Y018984D01*
X047729Y019060D01*
X047576Y019060D01*
X047499Y018984D01*
X047499Y018677D01*
X047960Y018677D02*
X048036Y018600D01*
X048190Y018600D01*
X048267Y018677D01*
X048267Y018830D01*
X048113Y018830D01*
X047960Y018677D02*
X047960Y018984D01*
X048036Y019060D01*
X048190Y019060D01*
X048267Y018984D01*
X048017Y014210D02*
X048017Y013750D01*
X047710Y014210D01*
X047710Y013750D01*
X047556Y013827D02*
X047556Y014210D01*
X047249Y014210D02*
X047249Y013827D01*
X047326Y013750D01*
X047479Y013750D01*
X047556Y013827D01*
X047096Y013750D02*
X046942Y013903D01*
X047019Y013903D02*
X046789Y013903D01*
X046789Y013750D02*
X046789Y014210D01*
X047019Y014210D01*
X047096Y014134D01*
X047096Y013980D01*
X047019Y013903D01*
X046523Y010084D02*
X046523Y009777D01*
X046370Y009930D02*
X046677Y009930D01*
X046677Y008930D02*
X046370Y008930D01*
X046370Y008210D02*
X046600Y008210D01*
X046677Y008134D01*
X046677Y007980D01*
X046600Y007903D01*
X046370Y007903D01*
X046370Y007750D02*
X046370Y008210D01*
X046523Y007903D02*
X046677Y007750D01*
X046600Y007210D02*
X046447Y007210D01*
X046370Y007134D01*
X046370Y006827D01*
X046447Y006750D01*
X046600Y006750D01*
X046677Y006827D01*
X046677Y007134D02*
X046600Y007210D01*
X046600Y006210D02*
X046370Y006210D01*
X046370Y005750D01*
X046600Y005750D01*
X046677Y005827D01*
X046677Y006134D01*
X046600Y006210D01*
X046597Y005210D02*
X046597Y004850D01*
X046537Y004850D02*
X046657Y004850D01*
X046783Y004850D02*
X046783Y005210D01*
X047023Y004850D01*
X047023Y005210D01*
X047151Y005210D02*
X047271Y005210D01*
X047211Y005210D02*
X047211Y004850D01*
X047151Y004850D02*
X047271Y004850D01*
X047397Y004850D02*
X047397Y005210D01*
X047577Y005210D01*
X047637Y005150D01*
X047637Y005030D01*
X047577Y004970D01*
X047397Y004970D01*
X047765Y004970D02*
X047945Y004970D01*
X048005Y005030D01*
X048005Y005150D01*
X047945Y005210D01*
X047765Y005210D01*
X047765Y004850D01*
X047885Y004970D02*
X048005Y004850D01*
X048133Y004910D02*
X048193Y004850D01*
X048314Y004850D01*
X048374Y004910D01*
X048374Y005150D01*
X048314Y005210D01*
X048193Y005210D01*
X048133Y005150D01*
X048133Y004910D01*
X048502Y004910D02*
X048502Y005150D01*
X048562Y005210D01*
X048682Y005210D01*
X048742Y005150D01*
X048742Y005030D02*
X048622Y005030D01*
X048742Y005030D02*
X048742Y004910D01*
X048682Y004850D01*
X048562Y004850D01*
X048502Y004910D01*
X046657Y005210D02*
X046537Y005210D01*
X046409Y005210D02*
X046409Y004850D01*
X046169Y004850D02*
X046169Y005210D01*
X046289Y005090D01*
X046409Y005210D01*
X047923Y003610D02*
X047923Y003150D01*
X047770Y003150D02*
X048077Y003150D01*
X047770Y003457D02*
X047923Y003610D01*
X047847Y002560D02*
X047770Y002484D01*
X047847Y002560D02*
X048000Y002560D01*
X048077Y002484D01*
X048077Y002407D01*
X047770Y002100D01*
X048077Y002100D01*
X041337Y001580D02*
X041030Y001580D01*
X041261Y001810D01*
X041261Y001350D01*
X040877Y001350D02*
X040570Y001350D01*
X040723Y001350D02*
X040723Y001810D01*
X040570Y001657D01*
X040570Y003750D02*
X040877Y003750D01*
X040723Y003750D02*
X040723Y004210D01*
X040570Y004057D01*
X041030Y004134D02*
X041107Y004210D01*
X041261Y004210D01*
X041337Y004134D01*
X041337Y004057D01*
X041261Y003980D01*
X041337Y003903D01*
X041337Y003827D01*
X041261Y003750D01*
X041107Y003750D01*
X041030Y003827D01*
X041184Y003980D02*
X041261Y003980D01*
X034437Y003510D02*
X034130Y003510D01*
X034130Y003280D01*
X034284Y003357D01*
X034361Y003357D01*
X034437Y003280D01*
X034437Y003127D01*
X034361Y003050D01*
X034207Y003050D01*
X034130Y003127D01*
X033977Y003050D02*
X033670Y003050D01*
X033977Y003357D01*
X033977Y003434D01*
X033900Y003510D01*
X033747Y003510D01*
X033670Y003434D01*
X033747Y002510D02*
X033670Y002434D01*
X033747Y002510D02*
X033900Y002510D01*
X033977Y002434D01*
X033977Y002357D01*
X033670Y002050D01*
X033977Y002050D01*
X034130Y002127D02*
X034207Y002050D01*
X034361Y002050D01*
X034437Y002127D01*
X034437Y002203D01*
X034361Y002280D01*
X034130Y002280D01*
X034130Y002127D01*
X034130Y002280D02*
X034284Y002434D01*
X034437Y002510D01*
X014827Y012180D02*
X014520Y012180D01*
X014673Y012027D02*
X014673Y012334D01*
X013877Y012180D02*
X013570Y012180D01*
X013723Y012027D02*
X013723Y012334D01*
X013570Y013180D02*
X013877Y013180D01*
X014520Y013180D02*
X014827Y013180D01*
X014750Y013950D02*
X014827Y014027D01*
X014827Y014103D01*
X014750Y014180D01*
X014520Y014180D01*
X014520Y014027D01*
X014597Y013950D01*
X014750Y013950D01*
X014520Y014180D02*
X014673Y014334D01*
X014827Y014410D01*
X014750Y014950D02*
X014750Y015410D01*
X014520Y015180D01*
X014827Y015180D01*
X015570Y015027D02*
X015647Y014950D01*
X015800Y014950D01*
X015877Y015027D01*
X016030Y015027D02*
X016107Y014950D01*
X016261Y014950D01*
X016337Y015027D01*
X016337Y015334D01*
X016261Y015410D01*
X016107Y015410D01*
X016030Y015334D01*
X016030Y015027D01*
X015877Y015334D02*
X015800Y015410D01*
X015647Y015410D01*
X015570Y015334D01*
X015570Y015027D01*
X016491Y014950D02*
X016491Y015410D01*
X016798Y014950D01*
X016798Y015410D01*
X016951Y015410D02*
X017258Y015410D01*
X017412Y015410D02*
X017565Y015410D01*
X017488Y015410D02*
X017488Y014950D01*
X017412Y014950D02*
X017565Y014950D01*
X017718Y015027D02*
X017795Y014950D01*
X017949Y014950D01*
X018025Y015027D01*
X018025Y015180D01*
X017872Y015180D01*
X017718Y015334D02*
X017718Y015027D01*
X017718Y015334D02*
X017795Y015410D01*
X017949Y015410D01*
X018025Y015334D01*
X017105Y015180D02*
X016951Y015180D01*
X016951Y014950D02*
X016951Y015410D01*
X013877Y015410D02*
X013570Y015410D01*
X013570Y015180D01*
X013723Y015257D01*
X013800Y015257D01*
X013877Y015180D01*
X013877Y015027D01*
X013800Y014950D01*
X013647Y014950D01*
X013570Y015027D01*
X013570Y014410D02*
X013877Y014410D01*
X013877Y014334D01*
X013570Y014027D01*
X013570Y013950D01*
D12*
X016450Y006130D03*
X037900Y016180D03*
D13*
X045450Y012585D02*
X045450Y011780D01*
X045950Y012180D02*
X045952Y012232D01*
X045958Y012284D01*
X045968Y012336D01*
X045981Y012386D01*
X045998Y012436D01*
X046019Y012484D01*
X046044Y012530D01*
X046072Y012574D01*
X046103Y012616D01*
X046137Y012656D01*
X046174Y012693D01*
X046214Y012727D01*
X046256Y012758D01*
X046300Y012786D01*
X046346Y012811D01*
X046394Y012832D01*
X046444Y012849D01*
X046494Y012862D01*
X046546Y012872D01*
X046598Y012878D01*
X046650Y012880D01*
X046702Y012878D01*
X046754Y012872D01*
X046806Y012862D01*
X046856Y012849D01*
X046906Y012832D01*
X046954Y012811D01*
X047000Y012786D01*
X047044Y012758D01*
X047086Y012727D01*
X047126Y012693D01*
X047163Y012656D01*
X047197Y012616D01*
X047228Y012574D01*
X047256Y012530D01*
X047281Y012484D01*
X047302Y012436D01*
X047319Y012386D01*
X047332Y012336D01*
X047342Y012284D01*
X047348Y012232D01*
X047350Y012180D01*
X047348Y012128D01*
X047342Y012076D01*
X047332Y012024D01*
X047319Y011974D01*
X047302Y011924D01*
X047281Y011876D01*
X047256Y011830D01*
X047228Y011786D01*
X047197Y011744D01*
X047163Y011704D01*
X047126Y011667D01*
X047086Y011633D01*
X047044Y011602D01*
X047000Y011574D01*
X046954Y011549D01*
X046906Y011528D01*
X046856Y011511D01*
X046806Y011498D01*
X046754Y011488D01*
X046702Y011482D01*
X046650Y011480D01*
X046598Y011482D01*
X046546Y011488D01*
X046494Y011498D01*
X046444Y011511D01*
X046394Y011528D01*
X046346Y011549D01*
X046300Y011574D01*
X046256Y011602D01*
X046214Y011633D01*
X046174Y011667D01*
X046137Y011704D01*
X046103Y011744D01*
X046072Y011786D01*
X046044Y011830D01*
X046019Y011876D01*
X045998Y011924D01*
X045981Y011974D01*
X045968Y012024D01*
X045958Y012076D01*
X045952Y012128D01*
X045950Y012180D01*
X047850Y012573D02*
X047850Y011780D01*
X047500Y010980D02*
X045800Y010980D01*
X045800Y013380D02*
X047500Y013380D01*
X048370Y014410D02*
X046370Y014410D01*
X046370Y018410D01*
X048370Y018410D01*
X048370Y014410D01*
X047267Y019999D02*
X047267Y020180D01*
X047145Y020088D01*
X047267Y020180D02*
X047267Y020361D01*
X047145Y020266D02*
X047261Y020190D01*
X047267Y021299D02*
X047267Y021480D01*
X047145Y021388D01*
X047267Y021480D02*
X047267Y021661D01*
X047145Y021566D02*
X047261Y021490D01*
X026491Y011530D02*
X022650Y007689D01*
X018809Y011530D01*
X022650Y015371D01*
X025066Y012348D02*
X024917Y012200D01*
X024917Y012101D01*
X025016Y012101D01*
X025116Y012200D01*
X025215Y012200D01*
X025215Y012101D01*
X025066Y011952D01*
X024943Y011829D02*
X024696Y011780D01*
X024745Y012027D01*
X024498Y011978D02*
X024795Y011681D01*
X024667Y011553D02*
X024519Y011405D01*
X024420Y011405D01*
X024321Y011504D01*
X024321Y011603D01*
X024469Y011751D01*
X024193Y011376D02*
X024094Y011376D01*
X023995Y011277D01*
X023995Y011178D01*
X024094Y011079D01*
X024193Y011079D01*
X024292Y011178D01*
X024292Y011277D01*
X024193Y011376D01*
X023868Y011051D02*
X023769Y011150D01*
X023669Y011150D01*
X023521Y011001D01*
X023818Y010704D01*
X023719Y010803D02*
X023868Y010952D01*
X023868Y011051D01*
X023818Y010902D02*
X024016Y010902D01*
X023117Y010499D02*
X023018Y010499D01*
X022919Y010400D01*
X022919Y010301D01*
X023117Y010103D01*
X023217Y010103D01*
X023316Y010202D01*
X023316Y010301D01*
X022990Y009975D02*
X022891Y010074D01*
X022792Y010074D01*
X022693Y009975D01*
X022693Y009876D01*
X022792Y009777D01*
X022891Y009777D01*
X022990Y009876D01*
X022990Y009975D01*
X022665Y009650D02*
X022615Y009699D01*
X022516Y009699D01*
X022417Y009600D01*
X022318Y009600D01*
X022268Y009650D01*
X022268Y009749D01*
X022367Y009848D01*
X022466Y009848D01*
X022665Y009650D02*
X022665Y009551D01*
X022565Y009451D01*
X022466Y009451D01*
X022240Y009423D02*
X022240Y009324D01*
X022091Y009175D01*
X022190Y009076D02*
X021893Y009374D01*
X022042Y009522D01*
X022141Y009522D01*
X022240Y009423D01*
X018948Y011391D02*
X018948Y011669D01*
X019595Y011955D02*
X019843Y011707D01*
X019942Y011707D01*
X020041Y011806D01*
X020041Y011905D01*
X019793Y012153D01*
X020020Y012181D02*
X020020Y012379D01*
X020317Y012082D01*
X020218Y011983D02*
X020416Y012181D01*
X027080Y009790D02*
X029780Y009790D01*
X029839Y009788D01*
X029897Y009782D01*
X029956Y009773D01*
X030013Y009759D01*
X030069Y009742D01*
X030124Y009721D01*
X030178Y009697D01*
X030230Y009669D01*
X030280Y009638D01*
X030328Y009604D01*
X030373Y009567D01*
X030416Y009526D01*
X030457Y009483D01*
X030494Y009438D01*
X030528Y009390D01*
X030559Y009340D01*
X030587Y009288D01*
X030611Y009234D01*
X030632Y009179D01*
X030649Y009123D01*
X030663Y009066D01*
X030672Y009007D01*
X030678Y008949D01*
X030680Y008890D01*
X030678Y008831D01*
X030672Y008773D01*
X030663Y008714D01*
X030649Y008657D01*
X030632Y008601D01*
X030611Y008546D01*
X030587Y008492D01*
X030559Y008440D01*
X030528Y008390D01*
X030494Y008342D01*
X030457Y008297D01*
X030416Y008254D01*
X030373Y008213D01*
X030328Y008176D01*
X030280Y008142D01*
X030230Y008111D01*
X030178Y008083D01*
X030124Y008059D01*
X030069Y008038D01*
X030013Y008021D01*
X029956Y008007D01*
X029897Y007998D01*
X029839Y007992D01*
X029780Y007990D01*
X027080Y007990D01*
X027021Y007992D01*
X026963Y007998D01*
X026904Y008007D01*
X026847Y008021D01*
X026791Y008038D01*
X026736Y008059D01*
X026682Y008083D01*
X026630Y008111D01*
X026580Y008142D01*
X026532Y008176D01*
X026487Y008213D01*
X026444Y008254D01*
X026403Y008297D01*
X026366Y008342D01*
X026332Y008390D01*
X026301Y008440D01*
X026273Y008492D01*
X026249Y008546D01*
X026228Y008601D01*
X026211Y008657D01*
X026197Y008714D01*
X026188Y008773D01*
X026182Y008831D01*
X026180Y008890D01*
X026182Y008949D01*
X026188Y009007D01*
X026197Y009066D01*
X026211Y009123D01*
X026228Y009179D01*
X026249Y009234D01*
X026273Y009288D01*
X026301Y009340D01*
X026332Y009390D01*
X026366Y009438D01*
X026403Y009483D01*
X026444Y009526D01*
X026487Y009567D01*
X026532Y009604D01*
X026580Y009638D01*
X026630Y009669D01*
X026682Y009697D01*
X026736Y009721D01*
X026791Y009742D01*
X026847Y009759D01*
X026904Y009773D01*
X026963Y009782D01*
X027021Y009788D01*
X027080Y009790D01*
D14*
X027216Y009965D02*
X026915Y009965D01*
X027216Y010265D01*
X027216Y010340D01*
X027141Y010415D01*
X026990Y010415D01*
X026915Y010340D01*
X026755Y010340D02*
X026755Y010415D01*
X026755Y010340D02*
X026605Y010190D01*
X026605Y009965D01*
X026605Y010190D02*
X026455Y010340D01*
X026455Y010415D01*
X026491Y011530D02*
X022650Y015371D01*
X027335Y015385D02*
X027410Y015385D01*
X027560Y015535D01*
X027785Y015535D01*
X027560Y015535D02*
X027410Y015685D01*
X027335Y015685D01*
X027485Y015845D02*
X027335Y015996D01*
X027785Y015996D01*
X027785Y016146D02*
X027785Y015845D01*
X035125Y015805D02*
X035125Y016255D01*
X035350Y016255D01*
X035425Y016180D01*
X035425Y016030D01*
X035350Y015955D01*
X035125Y015955D01*
X035585Y016030D02*
X035811Y016255D01*
X035811Y015805D01*
X035886Y016030D02*
X035585Y016030D01*
X040325Y015955D02*
X040550Y015955D01*
X040625Y016030D01*
X040625Y016180D01*
X040550Y016255D01*
X040325Y016255D01*
X040325Y015805D01*
X040785Y015805D02*
X041086Y015805D01*
X040936Y015805D02*
X040936Y016255D01*
X040785Y016105D01*
X041246Y016180D02*
X041321Y016255D01*
X041471Y016255D01*
X041546Y016180D01*
X041546Y016105D01*
X041246Y015805D01*
X041546Y015805D01*
X043975Y015855D02*
X043975Y016305D01*
X044200Y016305D01*
X044275Y016230D01*
X044275Y016080D01*
X044200Y016005D01*
X043975Y016005D01*
X044435Y015930D02*
X044435Y016230D01*
X044510Y016305D01*
X044661Y016305D01*
X044736Y016230D01*
X044435Y015930D01*
X044510Y015855D01*
X044661Y015855D01*
X044736Y015930D01*
X044736Y016230D01*
X044525Y012895D02*
X044525Y012595D01*
X044525Y012745D02*
X044975Y012745D01*
X044900Y012434D02*
X044975Y012359D01*
X044975Y012209D01*
X044900Y012134D01*
X044750Y012209D02*
X044750Y012359D01*
X044825Y012434D01*
X044900Y012434D01*
X044750Y012209D02*
X044675Y012134D01*
X044600Y012134D01*
X044525Y012209D01*
X044525Y012359D01*
X044600Y012434D01*
X044600Y011974D02*
X044750Y011974D01*
X044825Y011899D01*
X044825Y011674D01*
X044825Y011824D02*
X044975Y011974D01*
X044975Y011674D02*
X044525Y011674D01*
X044525Y011899D01*
X044600Y011974D01*
X044610Y011055D02*
X044761Y011055D01*
X044836Y010980D01*
X044836Y010905D01*
X044761Y010830D01*
X044836Y010755D01*
X044836Y010680D01*
X044761Y010605D01*
X044610Y010605D01*
X044535Y010680D01*
X044686Y010830D02*
X044761Y010830D01*
X044610Y011055D02*
X044535Y010980D01*
X044375Y010980D02*
X044375Y010830D01*
X044300Y010755D01*
X044075Y010755D01*
X044075Y010605D02*
X044075Y011055D01*
X044300Y011055D01*
X044375Y010980D01*
X042564Y011005D02*
X042414Y011155D01*
X042254Y011155D02*
X042254Y010855D01*
X042104Y010705D01*
X041954Y010855D01*
X041954Y011155D01*
X041794Y011080D02*
X041794Y011005D01*
X041718Y010930D01*
X041794Y010855D01*
X041794Y010780D01*
X041718Y010705D01*
X041568Y010705D01*
X041493Y010780D01*
X041338Y010780D02*
X041338Y010705D01*
X041263Y010705D01*
X041263Y010780D01*
X041338Y010780D01*
X041103Y010780D02*
X041028Y010705D01*
X040878Y010705D01*
X040803Y010780D01*
X040646Y010705D02*
X040496Y010855D01*
X040496Y011005D01*
X040646Y011155D01*
X040803Y011080D02*
X040878Y011155D01*
X041028Y011155D01*
X041103Y011080D01*
X041103Y011005D01*
X041028Y010930D01*
X041103Y010855D01*
X041103Y010780D01*
X041028Y010930D02*
X040953Y010930D01*
X040336Y010930D02*
X040336Y010780D01*
X040261Y010705D01*
X040110Y010705D01*
X040035Y010780D01*
X040035Y010930D02*
X040186Y011005D01*
X040261Y011005D01*
X040336Y010930D01*
X040336Y011155D02*
X040035Y011155D01*
X040035Y010930D01*
X039875Y010930D02*
X039875Y011080D01*
X039800Y011155D01*
X039575Y011155D01*
X039575Y010705D01*
X039575Y010855D02*
X039800Y010855D01*
X039875Y010930D01*
X039064Y010855D02*
X039064Y011005D01*
X038914Y011155D01*
X038754Y011155D02*
X038754Y010855D01*
X038604Y010705D01*
X038454Y010855D01*
X038454Y011155D01*
X038294Y011080D02*
X038294Y011005D01*
X038218Y010930D01*
X038294Y010855D01*
X038294Y010780D01*
X038218Y010705D01*
X038068Y010705D01*
X037993Y010780D01*
X037838Y010780D02*
X037838Y010705D01*
X037763Y010705D01*
X037763Y010780D01*
X037838Y010780D01*
X037603Y010780D02*
X037528Y010705D01*
X037378Y010705D01*
X037303Y010780D01*
X037146Y010705D02*
X036996Y010855D01*
X036996Y011005D01*
X037146Y011155D01*
X037303Y011080D02*
X037378Y011155D01*
X037528Y011155D01*
X037603Y011080D01*
X037603Y011005D01*
X037528Y010930D01*
X037603Y010855D01*
X037603Y010780D01*
X037528Y010930D02*
X037453Y010930D01*
X036836Y010705D02*
X036535Y010705D01*
X036686Y010705D02*
X036686Y011155D01*
X036535Y011005D01*
X036375Y011080D02*
X036375Y010930D01*
X036300Y010855D01*
X036075Y010855D01*
X036075Y010705D02*
X036075Y011155D01*
X036300Y011155D01*
X036375Y011080D01*
X037993Y011080D02*
X038068Y011155D01*
X038218Y011155D01*
X038294Y011080D01*
X038218Y010930D02*
X038143Y010930D01*
X038914Y010705D02*
X039064Y010855D01*
X041493Y011080D02*
X041568Y011155D01*
X041718Y011155D01*
X041794Y011080D01*
X041718Y010930D02*
X041643Y010930D01*
X042414Y010705D02*
X042564Y010855D01*
X042564Y011005D01*
X031815Y010280D02*
X031815Y010130D01*
X031740Y010055D01*
X031515Y010055D01*
X031515Y009905D02*
X031515Y010355D01*
X031740Y010355D01*
X031815Y010280D01*
X031354Y010280D02*
X031279Y010355D01*
X031129Y010355D01*
X031054Y010280D01*
X031054Y010205D01*
X031129Y010130D01*
X031279Y010130D01*
X031354Y010055D01*
X031354Y009980D01*
X031279Y009905D01*
X031129Y009905D01*
X031054Y009980D01*
X030894Y009980D02*
X030819Y009905D01*
X030669Y009905D01*
X030594Y009980D01*
X030594Y010280D01*
X030669Y010355D01*
X030819Y010355D01*
X030894Y010280D01*
X030437Y010355D02*
X030287Y010355D01*
X030362Y010355D02*
X030362Y009905D01*
X030287Y009905D02*
X030437Y009905D01*
X015066Y009360D02*
X015066Y008887D01*
X015043Y008885D01*
X015020Y008880D01*
X014998Y008871D01*
X014978Y008860D01*
X014959Y008845D01*
X014943Y008828D01*
X014930Y008809D01*
X014920Y008787D01*
X014913Y008765D01*
X014909Y008742D01*
X014909Y008718D01*
X014913Y008695D01*
X014920Y008673D01*
X014930Y008652D01*
X014943Y008632D01*
X014959Y008615D01*
X014978Y008600D01*
X014998Y008589D01*
X015020Y008580D01*
X015043Y008575D01*
X015066Y008573D01*
X015066Y008100D01*
X014791Y008100D01*
X014791Y009360D01*
X015066Y009360D01*
X014791Y009360D02*
X013609Y009360D01*
X013609Y008100D01*
X013334Y008100D01*
X013334Y008573D01*
X013357Y008575D01*
X013380Y008580D01*
X013402Y008589D01*
X013422Y008600D01*
X013441Y008615D01*
X013457Y008632D01*
X013470Y008652D01*
X013480Y008673D01*
X013487Y008695D01*
X013491Y008718D01*
X013491Y008742D01*
X013487Y008765D01*
X013480Y008787D01*
X013470Y008809D01*
X013457Y008828D01*
X013441Y008845D01*
X013422Y008860D01*
X013402Y008871D01*
X013380Y008880D01*
X013357Y008885D01*
X013334Y008887D01*
X013334Y009360D01*
X013609Y009360D01*
X013575Y009405D02*
X013125Y009405D01*
X013125Y009630D01*
X013200Y009705D01*
X013350Y009705D01*
X013425Y009630D01*
X013425Y009405D01*
X013575Y009865D02*
X013275Y010166D01*
X013200Y010166D01*
X013125Y010091D01*
X013125Y009940D01*
X013200Y009865D01*
X013575Y009865D02*
X013575Y010166D01*
X013609Y008100D02*
X014791Y008100D01*
X011375Y006695D02*
X011375Y006395D01*
X011375Y006545D02*
X010925Y006545D01*
X011075Y006395D01*
X011150Y006234D02*
X011225Y006159D01*
X011225Y005934D01*
X011375Y005934D02*
X010925Y005934D01*
X010925Y006159D01*
X011000Y006234D01*
X011150Y006234D01*
X010925Y005774D02*
X010925Y005624D01*
X010925Y005699D02*
X011300Y005699D01*
X011375Y005624D01*
X011375Y005549D01*
X011300Y005474D01*
X011719Y005106D02*
X011719Y004910D01*
X011719Y005106D02*
X009750Y005106D01*
X011719Y002350D02*
X011719Y002154D01*
X009750Y002154D01*
X013125Y018905D02*
X013125Y019130D01*
X013200Y019205D01*
X013350Y019205D01*
X013425Y019130D01*
X013425Y018905D01*
X013575Y018905D02*
X013125Y018905D01*
X013350Y019365D02*
X013350Y019591D01*
X013425Y019666D01*
X013500Y019666D01*
X013575Y019591D01*
X013575Y019440D01*
X013500Y019365D01*
X013350Y019365D01*
X013200Y019516D01*
X013125Y019666D01*
D15*
X023184Y012605D02*
X023331Y012753D01*
X023341Y012753D01*
X023405Y012807D01*
X023361Y012733D01*
X023361Y012713D01*
X023336Y012689D01*
X023331Y012674D01*
X023336Y012650D01*
X023243Y012547D01*
X023248Y012532D01*
X023277Y012532D01*
X023336Y012591D01*
X023366Y012581D01*
X023351Y012566D01*
X023351Y012547D01*
X023380Y012537D01*
X023395Y012551D01*
X023400Y012547D01*
X023370Y012517D01*
X023326Y012522D01*
X023312Y012507D01*
X023321Y012468D01*
X023316Y012443D01*
X023287Y012414D01*
X023272Y012419D01*
X023262Y012409D01*
X023267Y012385D01*
X023258Y012345D01*
X023258Y012326D01*
X023238Y012306D01*
X023218Y012316D01*
X023194Y012291D01*
X023174Y012223D01*
X023159Y012198D01*
X023184Y012203D01*
X023218Y012227D01*
X023267Y012277D01*
X023272Y012272D01*
X023307Y012306D01*
X023297Y012316D01*
X023312Y012350D01*
X023321Y012370D01*
X023370Y012370D01*
X023380Y012380D01*
X023380Y012399D01*
X023361Y012419D01*
X023385Y012443D01*
X023390Y012439D01*
X023434Y012483D01*
X023439Y012478D01*
X023434Y012483D02*
X023459Y012507D01*
X023459Y012517D01*
X023474Y012532D01*
X023493Y012532D01*
X023586Y012625D01*
X023606Y012645D01*
X023586Y012625D02*
X023586Y012605D01*
X023586Y012586D01*
X023596Y012576D01*
X023596Y012556D01*
X023523Y012483D01*
X023532Y012473D01*
X023498Y012439D01*
X023488Y012448D01*
X023474Y012434D01*
X023469Y012439D01*
X023454Y012424D01*
X023464Y012414D01*
X023434Y012385D01*
X023444Y012375D01*
X023366Y012296D01*
X023370Y012291D01*
X023346Y012267D01*
X023341Y012272D01*
X023307Y012237D01*
X023302Y012242D01*
X023243Y012183D01*
X023233Y012193D01*
X023208Y012169D01*
X023204Y012173D01*
X023174Y012144D01*
X023194Y012124D01*
X023174Y012105D01*
X023150Y012080D02*
X023096Y012075D01*
X023096Y012065D01*
X023100Y012061D01*
X023081Y012041D01*
X023066Y012036D02*
X023086Y012016D01*
X023150Y012080D01*
X023194Y012046D02*
X023159Y012011D01*
X023154Y011977D02*
X023125Y011977D01*
X023120Y011972D02*
X023145Y011957D01*
X023154Y011977D01*
X023179Y011953D02*
X023262Y012036D01*
X023233Y012085D01*
X023223Y012075D01*
X023223Y012056D01*
X023233Y012036D01*
X023194Y011977D01*
X023232Y011956D02*
X023315Y011956D01*
X023321Y011938D02*
X023307Y011982D01*
X023282Y012007D01*
X023105Y011830D01*
X023120Y011805D01*
X023120Y011737D01*
X023321Y011938D01*
X023213Y011938D01*
X023195Y011919D02*
X023303Y011919D01*
X023284Y011901D02*
X023176Y011901D01*
X023158Y011882D02*
X023266Y011882D01*
X023247Y011864D02*
X023139Y011864D01*
X023121Y011845D02*
X023229Y011845D01*
X023210Y011827D02*
X023107Y011827D01*
X023118Y011808D02*
X023192Y011808D01*
X023173Y011790D02*
X023120Y011790D01*
X023120Y011771D02*
X023155Y011771D01*
X023136Y011753D02*
X023120Y011753D01*
X023115Y011889D02*
X023125Y011918D01*
X023076Y011908D02*
X023076Y011889D01*
X023012Y011943D02*
X023002Y011943D01*
X023046Y011987D02*
X023051Y011992D01*
X023042Y011992D01*
X023250Y011975D02*
X023309Y011975D01*
X023296Y011993D02*
X023269Y011993D01*
X022894Y011825D02*
X022865Y011795D01*
X022816Y011786D02*
X022811Y011810D01*
X022801Y011820D01*
X022791Y011810D01*
X022796Y011805D01*
X022781Y011800D02*
X022801Y011781D01*
X022816Y011786D01*
X022816Y011737D02*
X022084Y011005D01*
X022065Y011025D01*
X021746Y010706D01*
X021721Y010730D01*
X022752Y011761D01*
X022781Y011732D01*
X022816Y011737D01*
X022813Y011734D02*
X022798Y011734D01*
X022795Y011716D02*
X022706Y011716D01*
X022688Y011697D02*
X022776Y011697D01*
X022758Y011679D02*
X022669Y011679D01*
X022651Y011660D02*
X022739Y011660D01*
X022721Y011642D02*
X022632Y011642D01*
X022614Y011623D02*
X022702Y011623D01*
X022684Y011605D02*
X022595Y011605D01*
X022577Y011586D02*
X022665Y011586D01*
X022647Y011568D02*
X022558Y011568D01*
X022540Y011549D02*
X022628Y011549D01*
X022610Y011531D02*
X022521Y011531D01*
X022503Y011512D02*
X022591Y011512D01*
X022573Y011494D02*
X022484Y011494D01*
X022466Y011475D02*
X022554Y011475D01*
X022536Y011457D02*
X022447Y011457D01*
X022429Y011438D02*
X022517Y011438D01*
X022499Y011420D02*
X022410Y011420D01*
X022392Y011401D02*
X022480Y011401D01*
X022462Y011383D02*
X022373Y011383D01*
X022355Y011364D02*
X022443Y011364D01*
X022425Y011346D02*
X022336Y011346D01*
X022318Y011327D02*
X022406Y011327D01*
X022388Y011309D02*
X022299Y011309D01*
X022281Y011290D02*
X022369Y011290D01*
X022351Y011272D02*
X022262Y011272D01*
X022244Y011253D02*
X022332Y011253D01*
X022314Y011235D02*
X022225Y011235D01*
X022207Y011216D02*
X022295Y011216D01*
X022277Y011198D02*
X022188Y011198D01*
X022170Y011179D02*
X022258Y011179D01*
X022240Y011161D02*
X022151Y011161D01*
X022133Y011142D02*
X022221Y011142D01*
X022203Y011124D02*
X022114Y011124D01*
X022096Y011105D02*
X022184Y011105D01*
X022166Y011087D02*
X022077Y011087D01*
X022059Y011068D02*
X022147Y011068D01*
X022129Y011050D02*
X022040Y011050D01*
X022022Y011031D02*
X022110Y011031D01*
X022092Y011013D02*
X022077Y011013D01*
X022053Y011013D02*
X022003Y011013D01*
X021985Y010994D02*
X022034Y010994D01*
X022016Y010976D02*
X021966Y010976D01*
X021948Y010957D02*
X021997Y010957D01*
X021979Y010939D02*
X021929Y010939D01*
X021911Y010920D02*
X021960Y010920D01*
X021942Y010902D02*
X021892Y010902D01*
X021874Y010883D02*
X021923Y010883D01*
X021905Y010865D02*
X021855Y010865D01*
X021837Y010846D02*
X021886Y010846D01*
X021868Y010828D02*
X021818Y010828D01*
X021800Y010809D02*
X021849Y010809D01*
X021831Y010791D02*
X021781Y010791D01*
X021763Y010772D02*
X021812Y010772D01*
X021794Y010754D02*
X021744Y010754D01*
X021726Y010735D02*
X021775Y010735D01*
X021757Y010717D02*
X021735Y010717D01*
X021530Y011206D02*
X021844Y011521D01*
X021849Y011516D01*
X021849Y011486D01*
X022232Y011869D01*
X022212Y011889D01*
X022271Y011948D01*
X022281Y011938D01*
X022281Y011977D01*
X022300Y011997D01*
X022340Y011997D01*
X022340Y012036D01*
X022354Y012051D01*
X022354Y012070D01*
X022374Y012090D01*
X022413Y012051D01*
X022457Y012095D01*
X022448Y012105D01*
X022487Y012144D01*
X022497Y012134D01*
X022713Y012350D01*
X022629Y012355D01*
X021530Y011256D01*
X021530Y011206D01*
X021530Y011216D02*
X021539Y011216D01*
X021530Y011235D02*
X021558Y011235D01*
X021576Y011253D02*
X021530Y011253D01*
X021546Y011272D02*
X021595Y011272D01*
X021613Y011290D02*
X021564Y011290D01*
X021583Y011309D02*
X021632Y011309D01*
X021650Y011327D02*
X021601Y011327D01*
X021620Y011346D02*
X021669Y011346D01*
X021687Y011364D02*
X021638Y011364D01*
X021657Y011383D02*
X021706Y011383D01*
X021724Y011401D02*
X021675Y011401D01*
X021694Y011420D02*
X021743Y011420D01*
X021761Y011438D02*
X021712Y011438D01*
X021731Y011457D02*
X021780Y011457D01*
X021798Y011475D02*
X021749Y011475D01*
X021768Y011494D02*
X021817Y011494D01*
X021835Y011512D02*
X021786Y011512D01*
X021805Y011531D02*
X021893Y011531D01*
X021912Y011549D02*
X021823Y011549D01*
X021842Y011568D02*
X021930Y011568D01*
X021949Y011586D02*
X021860Y011586D01*
X021879Y011605D02*
X021967Y011605D01*
X021986Y011623D02*
X021897Y011623D01*
X021916Y011642D02*
X022004Y011642D01*
X022023Y011660D02*
X021934Y011660D01*
X021953Y011679D02*
X022041Y011679D01*
X022060Y011697D02*
X021971Y011697D01*
X021990Y011716D02*
X022078Y011716D01*
X022097Y011734D02*
X022008Y011734D01*
X022027Y011753D02*
X022115Y011753D01*
X022134Y011771D02*
X022045Y011771D01*
X022064Y011790D02*
X022152Y011790D01*
X022171Y011808D02*
X022082Y011808D01*
X022101Y011827D02*
X022189Y011827D01*
X022208Y011845D02*
X022119Y011845D01*
X022138Y011864D02*
X022226Y011864D01*
X022219Y011882D02*
X022156Y011882D01*
X022175Y011901D02*
X022224Y011901D01*
X022242Y011919D02*
X022193Y011919D01*
X022212Y011938D02*
X022261Y011938D01*
X022281Y011956D02*
X022230Y011956D01*
X022249Y011975D02*
X022281Y011975D01*
X022267Y011993D02*
X022297Y011993D01*
X022286Y012012D02*
X022340Y012012D01*
X022340Y012030D02*
X022304Y012030D01*
X022323Y012049D02*
X022352Y012049D01*
X022354Y012067D02*
X022341Y012067D01*
X022360Y012086D02*
X022370Y012086D01*
X022378Y012086D02*
X022448Y012086D01*
X022448Y012104D02*
X022378Y012104D01*
X022397Y012123D02*
X022465Y012123D01*
X022484Y012141D02*
X022415Y012141D01*
X022434Y012160D02*
X022522Y012160D01*
X022541Y012178D02*
X022452Y012178D01*
X022471Y012197D02*
X022559Y012197D01*
X022578Y012215D02*
X022489Y012215D01*
X022508Y012234D02*
X022596Y012234D01*
X022615Y012252D02*
X022526Y012252D01*
X022545Y012271D02*
X022633Y012271D01*
X022652Y012289D02*
X022563Y012289D01*
X022582Y012308D02*
X022670Y012308D01*
X022689Y012326D02*
X022600Y012326D01*
X022619Y012345D02*
X022707Y012345D01*
X022762Y012350D02*
X022639Y012227D01*
X022673Y012242D01*
X022688Y012227D01*
X022678Y012208D01*
X022688Y012208D01*
X022732Y012252D01*
X022722Y012262D01*
X022747Y012286D01*
X022757Y012277D01*
X022786Y012306D01*
X022767Y012326D01*
X022693Y012252D01*
X022698Y012247D01*
X022762Y012311D01*
X022786Y012335D02*
X022762Y012350D01*
X022786Y012335D02*
X022826Y012345D01*
X022884Y012404D01*
X022909Y012458D01*
X022924Y012473D01*
X022973Y012483D01*
X023061Y012571D01*
X023081Y012551D01*
X023110Y012551D01*
X023159Y012601D01*
X023184Y012605D01*
X022504Y012141D02*
X022490Y012141D01*
X022430Y012067D02*
X022397Y012067D01*
X022624Y011761D02*
X022654Y011771D01*
X022673Y011791D01*
X022683Y011781D01*
X022732Y011830D01*
X022737Y011825D01*
X022743Y011753D02*
X022760Y011753D01*
X022779Y011734D02*
X022725Y011734D01*
X022840Y011849D02*
X022860Y011869D01*
X022899Y011751D02*
X022934Y011746D01*
X021875Y011512D02*
X021849Y011512D01*
X021849Y011494D02*
X021856Y011494D01*
X010539Y005448D02*
X010492Y005495D01*
X010352Y005495D01*
X010352Y005215D01*
X010492Y005215D01*
X010539Y005262D01*
X010539Y005308D01*
X010492Y005355D01*
X010352Y005355D01*
X010262Y005308D02*
X010262Y005262D01*
X010216Y005215D01*
X010122Y005215D01*
X010076Y005262D01*
X009986Y005262D02*
X009986Y005495D01*
X010076Y005448D02*
X010076Y005402D01*
X010122Y005355D01*
X010216Y005355D01*
X010262Y005308D01*
X010262Y005448D02*
X010216Y005495D01*
X010122Y005495D01*
X010076Y005448D01*
X009986Y005262D02*
X009939Y005215D01*
X009846Y005215D01*
X009799Y005262D01*
X009799Y005495D01*
X010492Y005355D02*
X010539Y005402D01*
X010539Y005448D01*
D16*
X019156Y011530D02*
X019158Y011550D01*
X019164Y011568D01*
X019173Y011586D01*
X019185Y011601D01*
X019200Y011613D01*
X019218Y011622D01*
X019236Y011628D01*
X019256Y011630D01*
X019276Y011628D01*
X019294Y011622D01*
X019312Y011613D01*
X019327Y011601D01*
X019339Y011586D01*
X019348Y011568D01*
X019354Y011550D01*
X019356Y011530D01*
X019354Y011510D01*
X019348Y011492D01*
X019339Y011474D01*
X019327Y011459D01*
X019312Y011447D01*
X019294Y011438D01*
X019276Y011432D01*
X019256Y011430D01*
X019236Y011432D01*
X019218Y011438D01*
X019200Y011447D01*
X019185Y011459D01*
X019173Y011474D01*
X019164Y011492D01*
X019158Y011510D01*
X019156Y011530D01*
X046150Y010430D02*
X046150Y005530D01*
X046152Y005517D01*
X046157Y005505D01*
X046165Y005495D01*
X046175Y005487D01*
X046187Y005482D01*
X046200Y005480D01*
X048700Y005480D01*
X048700Y010480D01*
X046200Y010480D01*
X046187Y010478D01*
X046175Y010473D01*
X046165Y010465D01*
X046157Y010455D01*
X046152Y010443D01*
X046150Y010430D01*
D17*
X023385Y011658D02*
X023174Y011447D01*
X023174Y011427D01*
X023199Y011403D01*
X023380Y011584D01*
X023385Y011658D01*
X023384Y011637D02*
X023364Y011637D01*
X023382Y011615D02*
X023342Y011615D01*
X023320Y011593D02*
X023381Y011593D01*
X023367Y011571D02*
X023298Y011571D01*
X023276Y011549D02*
X023345Y011549D01*
X023322Y011527D02*
X023254Y011527D01*
X023232Y011504D02*
X023300Y011504D01*
X023278Y011482D02*
X023209Y011482D01*
X023187Y011460D02*
X023256Y011460D01*
X023234Y011438D02*
X023174Y011438D01*
X023185Y011416D02*
X023212Y011416D01*
X023236Y011372D02*
X023315Y011372D01*
X023336Y011393D02*
X023370Y011506D01*
X023233Y011368D01*
X023238Y011344D01*
X023223Y011319D01*
X023228Y011285D01*
X023336Y011393D01*
X023336Y011394D02*
X023258Y011394D01*
X023280Y011416D02*
X023343Y011416D01*
X023350Y011438D02*
X023303Y011438D01*
X023325Y011460D02*
X023357Y011460D01*
X023363Y011482D02*
X023347Y011482D01*
X023369Y011504D02*
X023370Y011504D01*
X023273Y011615D02*
X023195Y011615D01*
X023217Y011637D02*
X023296Y011637D01*
X023318Y011659D02*
X023239Y011659D01*
X023261Y011681D02*
X023340Y011681D01*
X023362Y011704D02*
X023283Y011704D01*
X023306Y011726D02*
X023370Y011726D01*
X023370Y011712D02*
X023366Y011786D01*
X023145Y011565D01*
X023150Y011521D01*
X023154Y011516D01*
X023145Y011486D01*
X023370Y011712D01*
X023368Y011748D02*
X023328Y011748D01*
X023350Y011770D02*
X023367Y011770D01*
X023315Y011814D02*
X023247Y011814D01*
X023269Y011836D02*
X023338Y011836D01*
X023346Y011845D02*
X023336Y011903D01*
X023335Y011903D01*
X023336Y011903D02*
X023145Y011712D01*
X023154Y011692D01*
X023154Y011653D01*
X023346Y011845D01*
X023344Y011858D02*
X023291Y011858D01*
X023313Y011881D02*
X023340Y011881D01*
X023293Y011792D02*
X023225Y011792D01*
X023202Y011770D02*
X023271Y011770D01*
X023249Y011748D02*
X023180Y011748D01*
X023158Y011726D02*
X023227Y011726D01*
X023205Y011704D02*
X023149Y011704D01*
X023154Y011681D02*
X023183Y011681D01*
X023161Y011659D02*
X023154Y011659D01*
X023173Y011593D02*
X023251Y011593D01*
X023229Y011571D02*
X023151Y011571D01*
X023146Y011549D02*
X023207Y011549D01*
X023185Y011527D02*
X023149Y011527D01*
X023151Y011504D02*
X023163Y011504D01*
X023032Y011521D02*
X022364Y010853D01*
X022325Y010853D01*
X022016Y010544D01*
X021986Y010554D01*
X023017Y011584D01*
X023027Y011575D01*
X023032Y011521D01*
X023031Y011527D02*
X022959Y011527D01*
X022981Y011549D02*
X023029Y011549D01*
X023027Y011571D02*
X023003Y011571D01*
X022976Y011593D02*
X022868Y011593D01*
X022846Y011571D02*
X022954Y011571D01*
X022932Y011549D02*
X022824Y011549D01*
X022802Y011527D02*
X022910Y011527D01*
X022888Y011504D02*
X022780Y011504D01*
X022758Y011482D02*
X022866Y011482D01*
X022844Y011460D02*
X022736Y011460D01*
X022714Y011438D02*
X022822Y011438D01*
X022799Y011416D02*
X022691Y011416D01*
X022669Y011394D02*
X022777Y011394D01*
X022755Y011372D02*
X022647Y011372D01*
X022625Y011350D02*
X022733Y011350D01*
X022711Y011327D02*
X022603Y011327D01*
X022581Y011305D02*
X022689Y011305D01*
X022667Y011283D02*
X022559Y011283D01*
X022537Y011261D02*
X022645Y011261D01*
X022622Y011239D02*
X022514Y011239D01*
X022492Y011217D02*
X022600Y011217D01*
X022578Y011195D02*
X022470Y011195D01*
X022448Y011173D02*
X022556Y011173D01*
X022534Y011150D02*
X022426Y011150D01*
X022404Y011128D02*
X022512Y011128D01*
X022490Y011106D02*
X022382Y011106D01*
X022360Y011084D02*
X022468Y011084D01*
X022445Y011062D02*
X022338Y011062D01*
X022315Y011040D02*
X022423Y011040D01*
X022401Y011018D02*
X022293Y011018D01*
X022271Y010996D02*
X022379Y010996D01*
X022357Y010974D02*
X022249Y010974D01*
X022227Y010951D02*
X022335Y010951D01*
X022313Y010929D02*
X022205Y010929D01*
X022183Y010907D02*
X022291Y010907D01*
X022276Y010892D02*
X022227Y010892D01*
X022217Y010892D01*
X021913Y010588D01*
X021883Y010608D01*
X022958Y011683D01*
X023012Y011629D01*
X022276Y010892D01*
X022295Y010863D02*
X022374Y010863D01*
X022396Y010885D02*
X022318Y010885D01*
X022340Y010907D02*
X022418Y010907D01*
X022440Y010929D02*
X022362Y010929D01*
X022384Y010951D02*
X022462Y010951D01*
X022485Y010974D02*
X022406Y010974D01*
X022428Y010996D02*
X022507Y010996D01*
X022529Y011018D02*
X022450Y011018D01*
X022472Y011040D02*
X022551Y011040D01*
X022573Y011062D02*
X022495Y011062D01*
X022517Y011084D02*
X022595Y011084D01*
X022617Y011106D02*
X022539Y011106D01*
X022561Y011128D02*
X022639Y011128D01*
X022662Y011150D02*
X022583Y011150D01*
X022605Y011173D02*
X022684Y011173D01*
X022706Y011195D02*
X022627Y011195D01*
X022649Y011217D02*
X022728Y011217D01*
X022750Y011239D02*
X022672Y011239D01*
X022694Y011261D02*
X022772Y011261D01*
X022794Y011283D02*
X022716Y011283D01*
X022738Y011305D02*
X022816Y011305D01*
X022839Y011327D02*
X022760Y011327D01*
X022782Y011350D02*
X022861Y011350D01*
X022883Y011372D02*
X022804Y011372D01*
X022826Y011394D02*
X022905Y011394D01*
X022927Y011416D02*
X022849Y011416D01*
X022871Y011438D02*
X022949Y011438D01*
X022971Y011460D02*
X022893Y011460D01*
X022915Y011482D02*
X022993Y011482D01*
X023016Y011504D02*
X022937Y011504D01*
X023017Y011437D02*
X023022Y011432D01*
X023027Y011368D01*
X022565Y010907D01*
X022487Y010838D01*
X022472Y010843D01*
X022143Y010514D01*
X022099Y010519D01*
X023017Y011437D01*
X023023Y011416D02*
X022996Y011416D01*
X022974Y011394D02*
X023025Y011394D01*
X023027Y011372D02*
X022952Y011372D01*
X022929Y011350D02*
X023008Y011350D01*
X022986Y011327D02*
X022907Y011327D01*
X022885Y011305D02*
X022964Y011305D01*
X022942Y011283D02*
X022863Y011283D01*
X022841Y011261D02*
X022919Y011261D01*
X022897Y011239D02*
X022819Y011239D01*
X022797Y011217D02*
X022875Y011217D01*
X022853Y011195D02*
X022775Y011195D01*
X022752Y011173D02*
X022831Y011173D01*
X022809Y011150D02*
X022730Y011150D01*
X022708Y011128D02*
X022787Y011128D01*
X022765Y011106D02*
X022686Y011106D01*
X022664Y011084D02*
X022742Y011084D01*
X022720Y011062D02*
X022642Y011062D01*
X022620Y011040D02*
X022698Y011040D01*
X022676Y011018D02*
X022598Y011018D01*
X022575Y010996D02*
X022654Y010996D01*
X022632Y010974D02*
X022553Y010974D01*
X022531Y010951D02*
X022610Y010951D01*
X022588Y010929D02*
X022509Y010929D01*
X022487Y010907D02*
X022566Y010907D01*
X022540Y010885D02*
X022465Y010885D01*
X022443Y010863D02*
X022515Y010863D01*
X022490Y010841D02*
X022480Y010841D01*
X022470Y010841D02*
X022421Y010841D01*
X022399Y010819D02*
X022448Y010819D01*
X022425Y010797D02*
X022376Y010797D01*
X022354Y010774D02*
X022403Y010774D01*
X022381Y010752D02*
X022332Y010752D01*
X022310Y010730D02*
X022359Y010730D01*
X022337Y010708D02*
X022288Y010708D01*
X022266Y010686D02*
X022315Y010686D01*
X022293Y010664D02*
X022244Y010664D01*
X022222Y010642D02*
X022271Y010642D01*
X022248Y010620D02*
X022199Y010620D01*
X022177Y010597D02*
X022226Y010597D01*
X022204Y010575D02*
X022155Y010575D01*
X022133Y010553D02*
X022182Y010553D01*
X022160Y010531D02*
X022111Y010531D01*
X022047Y010575D02*
X022008Y010575D01*
X022025Y010553D02*
X021988Y010553D01*
X022030Y010597D02*
X022069Y010597D01*
X022052Y010620D02*
X022091Y010620D01*
X022074Y010642D02*
X022114Y010642D01*
X022096Y010664D02*
X022136Y010664D01*
X022119Y010686D02*
X022158Y010686D01*
X022141Y010708D02*
X022180Y010708D01*
X022163Y010730D02*
X022202Y010730D01*
X022185Y010752D02*
X022224Y010752D01*
X022207Y010774D02*
X022246Y010774D01*
X022229Y010797D02*
X022268Y010797D01*
X022251Y010819D02*
X022290Y010819D01*
X022273Y010841D02*
X022313Y010841D01*
X022210Y010885D02*
X022161Y010885D01*
X022138Y010863D02*
X022187Y010863D01*
X022165Y010841D02*
X022116Y010841D01*
X022094Y010819D02*
X022143Y010819D01*
X022121Y010797D02*
X022072Y010797D01*
X022050Y010774D02*
X022099Y010774D01*
X022077Y010752D02*
X022028Y010752D01*
X022006Y010730D02*
X022055Y010730D01*
X022033Y010708D02*
X021984Y010708D01*
X021961Y010686D02*
X022010Y010686D01*
X021988Y010664D02*
X021939Y010664D01*
X021917Y010642D02*
X021966Y010642D01*
X021944Y010620D02*
X021895Y010620D01*
X021898Y010597D02*
X021922Y010597D01*
X021851Y010664D02*
X021812Y010664D01*
X021800Y010652D02*
X021819Y010632D01*
X022148Y010961D01*
X022168Y010941D01*
X022919Y011692D01*
X022870Y011722D01*
X021800Y010652D01*
X021810Y010642D02*
X021829Y010642D01*
X021834Y010686D02*
X021873Y010686D01*
X021856Y010708D02*
X021895Y010708D01*
X021878Y010730D02*
X021917Y010730D01*
X021900Y010752D02*
X021939Y010752D01*
X021922Y010774D02*
X021962Y010774D01*
X021944Y010797D02*
X021984Y010797D01*
X021967Y010819D02*
X022006Y010819D01*
X021989Y010841D02*
X022028Y010841D01*
X022011Y010863D02*
X022050Y010863D01*
X022033Y010885D02*
X022072Y010885D01*
X022055Y010907D02*
X022094Y010907D01*
X022077Y010929D02*
X022116Y010929D01*
X022099Y010951D02*
X022139Y010951D01*
X022158Y010951D02*
X022178Y010951D01*
X022200Y010974D02*
X022121Y010974D01*
X022144Y010996D02*
X022222Y010996D01*
X022244Y011018D02*
X022166Y011018D01*
X022188Y011040D02*
X022266Y011040D01*
X022288Y011062D02*
X022210Y011062D01*
X022232Y011084D02*
X022311Y011084D01*
X022333Y011106D02*
X022254Y011106D01*
X022276Y011128D02*
X022355Y011128D01*
X022377Y011150D02*
X022298Y011150D01*
X022321Y011173D02*
X022399Y011173D01*
X022421Y011195D02*
X022343Y011195D01*
X022365Y011217D02*
X022443Y011217D01*
X022465Y011239D02*
X022387Y011239D01*
X022409Y011261D02*
X022488Y011261D01*
X022510Y011283D02*
X022431Y011283D01*
X022453Y011305D02*
X022532Y011305D01*
X022554Y011327D02*
X022475Y011327D01*
X022497Y011350D02*
X022576Y011350D01*
X022598Y011372D02*
X022520Y011372D01*
X022542Y011394D02*
X022620Y011394D01*
X022642Y011416D02*
X022564Y011416D01*
X022586Y011438D02*
X022664Y011438D01*
X022687Y011460D02*
X022608Y011460D01*
X022630Y011482D02*
X022709Y011482D01*
X022731Y011504D02*
X022652Y011504D01*
X022674Y011527D02*
X022753Y011527D01*
X022775Y011549D02*
X022697Y011549D01*
X022719Y011571D02*
X022797Y011571D01*
X022819Y011593D02*
X022741Y011593D01*
X022763Y011615D02*
X022841Y011615D01*
X022864Y011637D02*
X022785Y011637D01*
X022807Y011659D02*
X022886Y011659D01*
X022908Y011681D02*
X022829Y011681D01*
X022851Y011704D02*
X022900Y011704D01*
X022935Y011659D02*
X022981Y011659D01*
X022959Y011681D02*
X022957Y011681D01*
X022913Y011637D02*
X023004Y011637D01*
X022999Y011615D02*
X022891Y011615D01*
X022654Y011722D02*
X022016Y011084D01*
X022015Y011084D01*
X022016Y011084D02*
X022006Y011094D01*
X021682Y010770D01*
X021652Y010809D01*
X022227Y011383D01*
X022271Y011359D01*
X022291Y011378D01*
X022286Y011403D01*
X022305Y011422D01*
X022320Y011418D01*
X022354Y011452D01*
X022354Y011472D01*
X022374Y011452D01*
X022423Y011501D01*
X022438Y011506D01*
X022511Y011580D01*
X022516Y011614D01*
X022556Y011653D01*
X022546Y011663D01*
X022570Y011688D01*
X022654Y011722D01*
X022635Y011704D02*
X022609Y011704D01*
X022613Y011681D02*
X022564Y011681D01*
X022549Y011659D02*
X022591Y011659D01*
X022569Y011637D02*
X022540Y011637D01*
X022547Y011615D02*
X022518Y011615D01*
X022513Y011593D02*
X022525Y011593D01*
X022436Y011504D02*
X022433Y011504D01*
X022414Y011482D02*
X022404Y011482D01*
X022392Y011460D02*
X022382Y011460D01*
X022366Y011460D02*
X022354Y011460D01*
X022341Y011438D02*
X022370Y011438D01*
X022348Y011416D02*
X022299Y011416D01*
X022287Y011394D02*
X022326Y011394D01*
X022304Y011372D02*
X022284Y011372D01*
X022282Y011350D02*
X022193Y011350D01*
X022215Y011372D02*
X022247Y011372D01*
X022259Y011327D02*
X022171Y011327D01*
X022149Y011305D02*
X022237Y011305D01*
X022215Y011283D02*
X022127Y011283D01*
X022105Y011261D02*
X022193Y011261D01*
X022171Y011239D02*
X022083Y011239D01*
X022060Y011217D02*
X022149Y011217D01*
X022127Y011195D02*
X022038Y011195D01*
X022016Y011173D02*
X022105Y011173D01*
X022082Y011150D02*
X021994Y011150D01*
X021972Y011128D02*
X022060Y011128D01*
X022038Y011106D02*
X021950Y011106D01*
X021928Y011084D02*
X021996Y011084D01*
X021974Y011062D02*
X021906Y011062D01*
X021883Y011040D02*
X021952Y011040D01*
X021930Y011018D02*
X021861Y011018D01*
X021839Y010996D02*
X021908Y010996D01*
X021886Y010974D02*
X021817Y010974D01*
X021795Y010951D02*
X021864Y010951D01*
X021842Y010929D02*
X021773Y010929D01*
X021751Y010907D02*
X021819Y010907D01*
X021797Y010885D02*
X021729Y010885D01*
X021706Y010863D02*
X021775Y010863D01*
X021753Y010841D02*
X021684Y010841D01*
X021662Y010819D02*
X021731Y010819D01*
X021709Y010797D02*
X021662Y010797D01*
X021678Y010774D02*
X021687Y010774D01*
X021623Y010868D02*
X021932Y011177D01*
X021952Y011157D01*
X022153Y011359D01*
X022173Y011418D01*
X022070Y011314D01*
X022075Y011290D01*
X022045Y011260D01*
X022035Y011270D01*
X022006Y011241D01*
X021981Y011265D01*
X021608Y010892D01*
X021613Y010878D01*
X021623Y010868D01*
X021611Y010885D02*
X021640Y010885D01*
X021623Y010907D02*
X021662Y010907D01*
X021645Y010929D02*
X021684Y010929D01*
X021667Y010951D02*
X021707Y010951D01*
X021689Y010974D02*
X021729Y010974D01*
X021712Y010996D02*
X021751Y010996D01*
X021734Y011018D02*
X021773Y011018D01*
X021756Y011040D02*
X021795Y011040D01*
X021778Y011062D02*
X021817Y011062D01*
X021800Y011084D02*
X021839Y011084D01*
X021822Y011106D02*
X021861Y011106D01*
X021844Y011128D02*
X021884Y011128D01*
X021866Y011150D02*
X021906Y011150D01*
X021889Y011173D02*
X021928Y011173D01*
X021937Y011173D02*
X021967Y011173D01*
X021989Y011195D02*
X021911Y011195D01*
X021933Y011217D02*
X022011Y011217D01*
X022033Y011239D02*
X021955Y011239D01*
X021977Y011261D02*
X021986Y011261D01*
X022026Y011261D02*
X022044Y011261D01*
X022046Y011261D02*
X022056Y011261D01*
X022068Y011283D02*
X022078Y011283D01*
X022071Y011305D02*
X022100Y011305D01*
X022083Y011327D02*
X022122Y011327D01*
X022105Y011350D02*
X022144Y011350D01*
X022157Y011372D02*
X022127Y011372D01*
X022149Y011394D02*
X022165Y011394D01*
X022171Y011416D02*
X022172Y011416D01*
X022025Y011427D02*
X021996Y011437D01*
X021564Y011005D01*
X021574Y010966D01*
X021883Y011275D01*
X021903Y011256D01*
X021908Y011260D01*
X021903Y011275D01*
X021922Y011285D01*
X021981Y011344D01*
X021976Y011349D01*
X021927Y011300D01*
X021918Y011310D01*
X021913Y011324D01*
X021942Y011364D01*
X021962Y011383D01*
X021981Y011383D01*
X022025Y011427D01*
X022014Y011416D02*
X021975Y011416D01*
X021992Y011394D02*
X021953Y011394D01*
X021950Y011372D02*
X021931Y011372D01*
X021932Y011350D02*
X021908Y011350D01*
X021915Y011327D02*
X021886Y011327D01*
X021864Y011305D02*
X021922Y011305D01*
X021933Y011305D02*
X021943Y011305D01*
X021955Y011327D02*
X021965Y011327D01*
X021919Y011283D02*
X021842Y011283D01*
X021820Y011261D02*
X021869Y011261D01*
X021897Y011261D02*
X021907Y011261D01*
X021847Y011239D02*
X021798Y011239D01*
X021776Y011217D02*
X021825Y011217D01*
X021803Y011195D02*
X021754Y011195D01*
X021731Y011173D02*
X021781Y011173D01*
X021758Y011150D02*
X021709Y011150D01*
X021687Y011128D02*
X021736Y011128D01*
X021714Y011106D02*
X021665Y011106D01*
X021643Y011084D02*
X021692Y011084D01*
X021670Y011062D02*
X021621Y011062D01*
X021599Y011040D02*
X021648Y011040D01*
X021626Y011018D02*
X021577Y011018D01*
X021566Y010996D02*
X021604Y010996D01*
X021581Y010974D02*
X021572Y010974D01*
X021549Y011069D02*
X021863Y011383D01*
X021868Y011368D01*
X021927Y011427D01*
X021937Y011427D01*
X022070Y011560D01*
X022060Y011570D01*
X022060Y011580D01*
X022079Y011599D01*
X022079Y011638D01*
X022129Y011688D01*
X022124Y011692D01*
X022124Y011702D01*
X022202Y011781D01*
X022212Y011771D01*
X022232Y011791D01*
X022217Y011805D01*
X021544Y011133D01*
X021544Y011074D01*
X021549Y011069D01*
X021544Y011084D02*
X021564Y011084D01*
X021544Y011106D02*
X021587Y011106D01*
X021609Y011128D02*
X021544Y011128D01*
X021562Y011150D02*
X021631Y011150D01*
X021653Y011173D02*
X021584Y011173D01*
X021606Y011195D02*
X021675Y011195D01*
X021697Y011217D02*
X021628Y011217D01*
X021651Y011239D02*
X021719Y011239D01*
X021741Y011261D02*
X021673Y011261D01*
X021695Y011283D02*
X021764Y011283D01*
X021786Y011305D02*
X021717Y011305D01*
X021739Y011327D02*
X021808Y011327D01*
X021830Y011350D02*
X021761Y011350D01*
X021783Y011372D02*
X021852Y011372D01*
X021867Y011372D02*
X021872Y011372D01*
X021894Y011394D02*
X021805Y011394D01*
X021828Y011416D02*
X021916Y011416D01*
X021948Y011438D02*
X021850Y011438D01*
X021872Y011460D02*
X021970Y011460D01*
X021992Y011482D02*
X021894Y011482D01*
X021916Y011504D02*
X022014Y011504D01*
X022036Y011527D02*
X021938Y011527D01*
X021960Y011549D02*
X022058Y011549D01*
X022060Y011571D02*
X021982Y011571D01*
X022005Y011593D02*
X022073Y011593D01*
X022079Y011615D02*
X022027Y011615D01*
X022049Y011637D02*
X022079Y011637D01*
X022071Y011659D02*
X022100Y011659D01*
X022093Y011681D02*
X022123Y011681D01*
X022125Y011704D02*
X022115Y011704D01*
X022137Y011726D02*
X022147Y011726D01*
X022159Y011748D02*
X022169Y011748D01*
X022182Y011770D02*
X022191Y011770D01*
X022204Y011792D02*
X022230Y011792D01*
X022118Y011903D02*
X022030Y011903D01*
X022052Y011925D02*
X022140Y011925D01*
X022162Y011947D02*
X022074Y011947D01*
X022096Y011969D02*
X022184Y011969D01*
X022206Y011991D02*
X022118Y011991D01*
X022140Y012013D02*
X022229Y012013D01*
X022251Y012035D02*
X022162Y012035D01*
X022184Y012058D02*
X022273Y012058D01*
X022295Y012080D02*
X022207Y012080D01*
X022229Y012102D02*
X022317Y012102D01*
X022339Y012124D02*
X022251Y012124D01*
X022273Y012146D02*
X022361Y012146D01*
X022383Y012168D02*
X022295Y012168D01*
X022317Y012190D02*
X022405Y012190D01*
X022428Y012212D02*
X022339Y012212D01*
X022361Y012234D02*
X022450Y012234D01*
X022472Y012257D02*
X022383Y012257D01*
X022406Y012279D02*
X022494Y012279D01*
X022516Y012301D02*
X022428Y012301D01*
X022450Y012323D02*
X022538Y012323D01*
X022524Y012345D02*
X022560Y012345D01*
X022570Y012355D02*
X021854Y011638D01*
X021854Y011678D01*
X021540Y011364D01*
X021559Y011432D01*
X022457Y012331D01*
X022570Y012355D01*
X022359Y012301D02*
X022207Y012208D01*
X021677Y011678D01*
X021608Y011589D01*
X021913Y011894D01*
X021908Y011850D01*
X022359Y012301D01*
X022359Y012301D01*
X022337Y012279D02*
X022323Y012279D01*
X022315Y012257D02*
X022287Y012257D01*
X022293Y012234D02*
X022251Y012234D01*
X022271Y012212D02*
X022215Y012212D01*
X022190Y012190D02*
X022248Y012190D01*
X022226Y012168D02*
X022167Y012168D01*
X022145Y012146D02*
X022204Y012146D01*
X022182Y012124D02*
X022123Y012124D01*
X022101Y012102D02*
X022160Y012102D01*
X022138Y012080D02*
X022079Y012080D01*
X022057Y012058D02*
X022116Y012058D01*
X022094Y012035D02*
X022035Y012035D01*
X022013Y012013D02*
X022071Y012013D01*
X022049Y011991D02*
X021990Y011991D01*
X021968Y011969D02*
X022027Y011969D01*
X022005Y011947D02*
X021946Y011947D01*
X021924Y011925D02*
X021983Y011925D01*
X021961Y011903D02*
X021902Y011903D01*
X021899Y011881D02*
X021880Y011881D01*
X021877Y011858D02*
X021858Y011858D01*
X021855Y011836D02*
X021836Y011836D01*
X021833Y011814D02*
X021813Y011814D01*
X021811Y011792D02*
X021791Y011792D01*
X021789Y011770D02*
X021769Y011770D01*
X021767Y011748D02*
X021747Y011748D01*
X021745Y011726D02*
X021725Y011726D01*
X021722Y011704D02*
X021703Y011704D01*
X021700Y011681D02*
X021681Y011681D01*
X021678Y011659D02*
X021663Y011659D01*
X021656Y011637D02*
X021645Y011637D01*
X021634Y011615D02*
X021628Y011615D01*
X021611Y011593D02*
X021612Y011593D01*
X021676Y011549D02*
X021725Y011549D01*
X021747Y011571D02*
X021698Y011571D01*
X021720Y011593D02*
X021769Y011593D01*
X021791Y011615D02*
X021742Y011615D01*
X021764Y011637D02*
X021813Y011637D01*
X021835Y011659D02*
X021786Y011659D01*
X021808Y011681D02*
X021897Y011681D01*
X021875Y011659D02*
X021854Y011659D01*
X021830Y011704D02*
X021919Y011704D01*
X021941Y011726D02*
X021853Y011726D01*
X021875Y011748D02*
X021963Y011748D01*
X021985Y011770D02*
X021897Y011770D01*
X021919Y011792D02*
X022007Y011792D01*
X022029Y011814D02*
X021941Y011814D01*
X021963Y011836D02*
X022052Y011836D01*
X022074Y011858D02*
X021985Y011858D01*
X022007Y011881D02*
X022096Y011881D01*
X021939Y011881D02*
X021911Y011881D01*
X021909Y011858D02*
X021917Y011858D01*
X021703Y011527D02*
X021653Y011527D01*
X021631Y011504D02*
X021680Y011504D01*
X021658Y011482D02*
X021609Y011482D01*
X021587Y011460D02*
X021636Y011460D01*
X021614Y011438D02*
X021565Y011438D01*
X021555Y011416D02*
X021592Y011416D01*
X021570Y011394D02*
X021548Y011394D01*
X021542Y011372D02*
X021548Y011372D01*
X022568Y010841D02*
X022637Y010841D01*
X022619Y010824D02*
X022590Y010833D01*
X022261Y010505D01*
X022232Y010505D01*
X023037Y011310D01*
X023037Y011290D01*
X023061Y011265D01*
X022619Y010824D01*
X022575Y010819D02*
X022546Y010819D01*
X022553Y010797D02*
X022524Y010797D01*
X022531Y010774D02*
X022502Y010774D01*
X022509Y010752D02*
X022479Y010752D01*
X022487Y010730D02*
X022457Y010730D01*
X022465Y010708D02*
X022435Y010708D01*
X022442Y010686D02*
X022413Y010686D01*
X022420Y010664D02*
X022391Y010664D01*
X022398Y010642D02*
X022369Y010642D01*
X022376Y010620D02*
X022347Y010620D01*
X022354Y010597D02*
X022325Y010597D01*
X022332Y010575D02*
X022302Y010575D01*
X022310Y010553D02*
X022280Y010553D01*
X022288Y010531D02*
X022258Y010531D01*
X022265Y010509D02*
X022236Y010509D01*
X022374Y010509D02*
X022433Y010529D01*
X022776Y010873D01*
X022816Y010873D01*
X023100Y011157D01*
X023096Y011192D01*
X023086Y011202D01*
X023086Y011221D01*
X022374Y010509D01*
X022396Y010531D02*
X022435Y010531D01*
X022418Y010553D02*
X022457Y010553D01*
X022440Y010575D02*
X022479Y010575D01*
X022462Y010597D02*
X022501Y010597D01*
X022484Y010620D02*
X022523Y010620D01*
X022506Y010642D02*
X022545Y010642D01*
X022528Y010664D02*
X022568Y010664D01*
X022550Y010686D02*
X022590Y010686D01*
X022573Y010708D02*
X022612Y010708D01*
X022595Y010730D02*
X022634Y010730D01*
X022617Y010752D02*
X022656Y010752D01*
X022639Y010774D02*
X022678Y010774D01*
X022661Y010797D02*
X022700Y010797D01*
X022683Y010819D02*
X022722Y010819D01*
X022705Y010841D02*
X022745Y010841D01*
X022727Y010863D02*
X022767Y010863D01*
X022750Y010885D02*
X022828Y010885D01*
X022850Y010907D02*
X022772Y010907D01*
X022794Y010929D02*
X022872Y010929D01*
X022894Y010951D02*
X022816Y010951D01*
X022838Y010974D02*
X022917Y010974D01*
X022939Y010996D02*
X022860Y010996D01*
X022882Y011018D02*
X022961Y011018D01*
X022983Y011040D02*
X022904Y011040D01*
X022927Y011062D02*
X023005Y011062D01*
X023027Y011084D02*
X022949Y011084D01*
X022971Y011106D02*
X023049Y011106D01*
X023071Y011128D02*
X022993Y011128D01*
X023015Y011150D02*
X023094Y011150D01*
X023098Y011173D02*
X023037Y011173D01*
X023059Y011195D02*
X023093Y011195D01*
X023086Y011217D02*
X023081Y011217D01*
X023057Y011261D02*
X022988Y011261D01*
X022966Y011239D02*
X023035Y011239D01*
X023013Y011217D02*
X022944Y011217D01*
X022922Y011195D02*
X022991Y011195D01*
X022968Y011173D02*
X022900Y011173D01*
X022878Y011150D02*
X022946Y011150D01*
X022924Y011128D02*
X022855Y011128D01*
X022833Y011106D02*
X022902Y011106D01*
X022880Y011084D02*
X022811Y011084D01*
X022789Y011062D02*
X022858Y011062D01*
X022836Y011040D02*
X022767Y011040D01*
X022745Y011018D02*
X022814Y011018D01*
X022791Y010996D02*
X022723Y010996D01*
X022701Y010974D02*
X022769Y010974D01*
X022747Y010951D02*
X022679Y010951D01*
X022656Y010929D02*
X022725Y010929D01*
X022703Y010907D02*
X022634Y010907D01*
X022612Y010885D02*
X022681Y010885D01*
X022659Y010863D02*
X022590Y010863D01*
X022742Y010730D02*
X022791Y010730D01*
X022769Y010708D02*
X022720Y010708D01*
X022698Y010686D02*
X022747Y010686D01*
X022737Y010676D02*
X022718Y010676D01*
X022678Y010637D01*
X022644Y010622D01*
X022600Y010588D01*
X023120Y011108D01*
X023130Y011069D01*
X022737Y010676D01*
X022705Y010664D02*
X022676Y010664D01*
X022683Y010642D02*
X022653Y010642D01*
X022640Y010620D02*
X022631Y010620D01*
X022612Y010597D02*
X022609Y010597D01*
X022764Y010752D02*
X022813Y010752D01*
X022835Y010774D02*
X022786Y010774D01*
X022808Y010797D02*
X022857Y010797D01*
X022880Y010819D02*
X022830Y010819D01*
X022853Y010841D02*
X022902Y010841D01*
X022924Y010863D02*
X022875Y010863D01*
X022897Y010885D02*
X022946Y010885D01*
X022968Y010907D02*
X022919Y010907D01*
X022941Y010929D02*
X022990Y010929D01*
X023012Y010951D02*
X022963Y010951D01*
X022985Y010974D02*
X023034Y010974D01*
X023056Y010996D02*
X023007Y010996D01*
X023030Y011018D02*
X023079Y011018D01*
X023101Y011040D02*
X023052Y011040D01*
X023074Y011062D02*
X023123Y011062D01*
X023126Y011084D02*
X023096Y011084D01*
X023118Y011106D02*
X023121Y011106D01*
X023238Y011197D02*
X023238Y011226D01*
X023302Y011290D01*
X023248Y011206D01*
X023238Y011197D01*
X023238Y011217D02*
X023254Y011217D01*
X023251Y011239D02*
X023269Y011239D01*
X023273Y011261D02*
X023283Y011261D01*
X023295Y011283D02*
X023297Y011283D01*
X023271Y011327D02*
X023228Y011327D01*
X023225Y011305D02*
X023248Y011305D01*
X023237Y011350D02*
X023293Y011350D01*
X023043Y011283D02*
X023010Y011283D01*
X023032Y011305D02*
X023037Y011305D01*
D18*
X030100Y011280D02*
X030100Y010780D01*
X030350Y010530D01*
X031850Y010530D01*
X032100Y010780D01*
X032100Y011280D01*
X031850Y011530D01*
X032100Y011780D01*
X032100Y012280D01*
X031850Y012530D01*
X032100Y012780D01*
X032100Y013280D01*
X031850Y013530D01*
X030350Y013530D01*
X030100Y013280D01*
X030100Y012780D01*
X030350Y012530D01*
X030100Y012280D01*
X030100Y011780D01*
X030350Y011530D01*
X030100Y011280D01*
X036200Y010230D02*
X036200Y005730D01*
X036202Y005700D01*
X036207Y005670D01*
X036216Y005641D01*
X036229Y005614D01*
X036244Y005588D01*
X036263Y005564D01*
X036284Y005543D01*
X036308Y005524D01*
X036334Y005509D01*
X036361Y005496D01*
X036390Y005487D01*
X036420Y005482D01*
X036450Y005480D01*
X038350Y005480D01*
X038380Y005482D01*
X038410Y005487D01*
X038439Y005496D01*
X038466Y005509D01*
X038492Y005524D01*
X038516Y005543D01*
X038537Y005564D01*
X038556Y005588D01*
X038571Y005614D01*
X038584Y005641D01*
X038593Y005670D01*
X038598Y005700D01*
X038600Y005730D01*
X038600Y010230D01*
X038598Y010260D01*
X038593Y010290D01*
X038584Y010319D01*
X038571Y010346D01*
X038556Y010372D01*
X038537Y010396D01*
X038516Y010417D01*
X038492Y010436D01*
X038466Y010451D01*
X038439Y010464D01*
X038410Y010473D01*
X038380Y010478D01*
X038350Y010480D01*
X036450Y010480D01*
X036420Y010478D01*
X036390Y010473D01*
X036361Y010464D01*
X036334Y010451D01*
X036308Y010436D01*
X036284Y010417D01*
X036263Y010396D01*
X036244Y010372D01*
X036229Y010346D01*
X036216Y010319D01*
X036207Y010290D01*
X036202Y010260D01*
X036200Y010230D01*
X039700Y010230D02*
X039700Y005730D01*
X039702Y005700D01*
X039707Y005670D01*
X039716Y005641D01*
X039729Y005614D01*
X039744Y005588D01*
X039763Y005564D01*
X039784Y005543D01*
X039808Y005524D01*
X039834Y005509D01*
X039861Y005496D01*
X039890Y005487D01*
X039920Y005482D01*
X039950Y005480D01*
X041850Y005480D01*
X041880Y005482D01*
X041910Y005487D01*
X041939Y005496D01*
X041966Y005509D01*
X041992Y005524D01*
X042016Y005543D01*
X042037Y005564D01*
X042056Y005588D01*
X042071Y005614D01*
X042084Y005641D01*
X042093Y005670D01*
X042098Y005700D01*
X042100Y005730D01*
X042100Y010230D01*
X042098Y010260D01*
X042093Y010290D01*
X042084Y010319D01*
X042071Y010346D01*
X042056Y010372D01*
X042037Y010396D01*
X042016Y010417D01*
X041992Y010436D01*
X041966Y010451D01*
X041939Y010464D01*
X041910Y010473D01*
X041880Y010478D01*
X041850Y010480D01*
X039950Y010480D01*
X039920Y010478D01*
X039890Y010473D01*
X039861Y010464D01*
X039834Y010451D01*
X039808Y010436D01*
X039784Y010417D01*
X039763Y010396D01*
X039744Y010372D01*
X039729Y010346D01*
X039716Y010319D01*
X039707Y010290D01*
X039702Y010260D01*
X039700Y010230D01*
X043200Y010230D02*
X043200Y005730D01*
X043202Y005700D01*
X043207Y005670D01*
X043216Y005641D01*
X043229Y005614D01*
X043244Y005588D01*
X043263Y005564D01*
X043284Y005543D01*
X043308Y005524D01*
X043334Y005509D01*
X043361Y005496D01*
X043390Y005487D01*
X043420Y005482D01*
X043450Y005480D01*
X045350Y005480D01*
X045380Y005482D01*
X045410Y005487D01*
X045439Y005496D01*
X045466Y005509D01*
X045492Y005524D01*
X045516Y005543D01*
X045537Y005564D01*
X045556Y005588D01*
X045571Y005614D01*
X045584Y005641D01*
X045593Y005670D01*
X045598Y005700D01*
X045600Y005730D01*
X045600Y010230D01*
X045598Y010260D01*
X045593Y010290D01*
X045584Y010319D01*
X045571Y010346D01*
X045556Y010372D01*
X045537Y010396D01*
X045516Y010417D01*
X045492Y010436D01*
X045466Y010451D01*
X045439Y010464D01*
X045410Y010473D01*
X045380Y010478D01*
X045350Y010480D01*
X043450Y010480D01*
X043420Y010478D01*
X043390Y010473D01*
X043361Y010464D01*
X043334Y010451D01*
X043308Y010436D01*
X043284Y010417D01*
X043263Y010396D01*
X043244Y010372D01*
X043229Y010346D01*
X043216Y010319D01*
X043207Y010290D01*
X043202Y010260D01*
X043200Y010230D01*
X045556Y014501D02*
X045663Y014501D01*
X045770Y014608D01*
X045770Y014821D01*
X045876Y014928D01*
X045983Y014928D01*
X046090Y014821D01*
X046090Y014608D01*
X045983Y014501D01*
X045556Y014501D02*
X045449Y014608D01*
X045449Y014821D01*
X045556Y014928D01*
X045449Y015145D02*
X046090Y015145D01*
X045876Y015359D01*
X046090Y015572D01*
X045449Y015572D01*
X045350Y016480D02*
X043450Y016480D01*
X043420Y016482D01*
X043390Y016487D01*
X043361Y016496D01*
X043334Y016509D01*
X043308Y016524D01*
X043284Y016543D01*
X043263Y016564D01*
X043244Y016588D01*
X043229Y016614D01*
X043216Y016641D01*
X043207Y016670D01*
X043202Y016700D01*
X043200Y016730D01*
X043200Y021230D01*
X043202Y021260D01*
X043207Y021290D01*
X043216Y021319D01*
X043229Y021346D01*
X043244Y021372D01*
X043263Y021396D01*
X043284Y021417D01*
X043308Y021436D01*
X043334Y021451D01*
X043361Y021464D01*
X043390Y021473D01*
X043420Y021478D01*
X043450Y021480D01*
X045350Y021480D01*
X045380Y021478D01*
X045410Y021473D01*
X045439Y021464D01*
X045466Y021451D01*
X045492Y021436D01*
X045516Y021417D01*
X045537Y021396D01*
X045556Y021372D01*
X045571Y021346D01*
X045584Y021319D01*
X045593Y021290D01*
X045598Y021260D01*
X045600Y021230D01*
X045600Y016730D01*
X045598Y016700D01*
X045593Y016670D01*
X045584Y016641D01*
X045571Y016614D01*
X045556Y016588D01*
X045537Y016564D01*
X045516Y016543D01*
X045492Y016524D01*
X045466Y016509D01*
X045439Y016496D01*
X045410Y016487D01*
X045380Y016482D01*
X045350Y016480D01*
X042100Y016730D02*
X042100Y021230D01*
X042098Y021260D01*
X042093Y021290D01*
X042084Y021319D01*
X042071Y021346D01*
X042056Y021372D01*
X042037Y021396D01*
X042016Y021417D01*
X041992Y021436D01*
X041966Y021451D01*
X041939Y021464D01*
X041910Y021473D01*
X041880Y021478D01*
X041850Y021480D01*
X039950Y021480D01*
X039920Y021478D01*
X039890Y021473D01*
X039861Y021464D01*
X039834Y021451D01*
X039808Y021436D01*
X039784Y021417D01*
X039763Y021396D01*
X039744Y021372D01*
X039729Y021346D01*
X039716Y021319D01*
X039707Y021290D01*
X039702Y021260D01*
X039700Y021230D01*
X039700Y016730D01*
X039702Y016700D01*
X039707Y016670D01*
X039716Y016641D01*
X039729Y016614D01*
X039744Y016588D01*
X039763Y016564D01*
X039784Y016543D01*
X039808Y016524D01*
X039834Y016509D01*
X039861Y016496D01*
X039890Y016487D01*
X039920Y016482D01*
X039950Y016480D01*
X041850Y016480D01*
X041880Y016482D01*
X041910Y016487D01*
X041939Y016496D01*
X041966Y016509D01*
X041992Y016524D01*
X042016Y016543D01*
X042037Y016564D01*
X042056Y016588D01*
X042071Y016614D01*
X042084Y016641D01*
X042093Y016670D01*
X042098Y016700D01*
X042100Y016730D01*
X036750Y016730D02*
X036750Y021230D01*
X036748Y021260D01*
X036743Y021290D01*
X036734Y021319D01*
X036721Y021346D01*
X036706Y021372D01*
X036687Y021396D01*
X036666Y021417D01*
X036642Y021436D01*
X036616Y021451D01*
X036589Y021464D01*
X036560Y021473D01*
X036530Y021478D01*
X036500Y021480D01*
X034600Y021480D01*
X034570Y021478D01*
X034540Y021473D01*
X034511Y021464D01*
X034484Y021451D01*
X034458Y021436D01*
X034434Y021417D01*
X034413Y021396D01*
X034394Y021372D01*
X034379Y021346D01*
X034366Y021319D01*
X034357Y021290D01*
X034352Y021260D01*
X034350Y021230D01*
X034350Y016730D01*
X034352Y016700D01*
X034357Y016670D01*
X034366Y016641D01*
X034379Y016614D01*
X034394Y016588D01*
X034413Y016564D01*
X034434Y016543D01*
X034458Y016524D01*
X034484Y016509D01*
X034511Y016496D01*
X034540Y016487D01*
X034570Y016482D01*
X034600Y016480D01*
X036500Y016480D01*
X036530Y016482D01*
X036560Y016487D01*
X036589Y016496D01*
X036616Y016509D01*
X036642Y016524D01*
X036666Y016543D01*
X036687Y016564D01*
X036706Y016588D01*
X036721Y016614D01*
X036734Y016641D01*
X036743Y016670D01*
X036748Y016700D01*
X036750Y016730D01*
X028760Y017510D02*
X028760Y015360D01*
X028710Y015360D01*
X028010Y015360D01*
X027960Y015360D01*
X027960Y017510D01*
X027962Y017527D01*
X027966Y017544D01*
X027973Y017560D01*
X027983Y017574D01*
X027996Y017587D01*
X028010Y017597D01*
X028026Y017604D01*
X028043Y017608D01*
X028060Y017610D01*
X028660Y017610D01*
X028677Y017608D01*
X028694Y017604D01*
X028710Y017597D01*
X028724Y017587D01*
X028737Y017574D01*
X028747Y017560D01*
X028754Y017544D01*
X028758Y017527D01*
X028760Y017510D01*
X028360Y016860D02*
X028360Y016660D01*
X028560Y016660D01*
X028560Y016510D02*
X028160Y016510D01*
X028160Y016360D01*
X028560Y016360D01*
X028560Y016510D01*
X028360Y016660D02*
X028160Y016660D01*
X028160Y016210D02*
X028360Y016210D01*
X028560Y016210D01*
X028360Y016210D02*
X028360Y016010D01*
X028010Y015360D02*
X028010Y015210D01*
X028710Y015210D01*
X028710Y015360D01*
X012800Y015730D02*
X012800Y021230D01*
X012798Y021260D01*
X012793Y021290D01*
X012784Y021319D01*
X012771Y021346D01*
X012756Y021372D01*
X012737Y021396D01*
X012716Y021417D01*
X012692Y021436D01*
X012666Y021451D01*
X012639Y021464D01*
X012610Y021473D01*
X012580Y021478D01*
X012550Y021480D01*
X010650Y021480D01*
X010620Y021478D01*
X010590Y021473D01*
X010561Y021464D01*
X010534Y021451D01*
X010508Y021436D01*
X010484Y021417D01*
X010463Y021396D01*
X010444Y021372D01*
X010429Y021346D01*
X010416Y021319D01*
X010407Y021290D01*
X010402Y021260D01*
X010400Y021230D01*
X010400Y015730D01*
X010402Y015700D01*
X010407Y015670D01*
X010416Y015641D01*
X010429Y015614D01*
X010444Y015588D01*
X010463Y015564D01*
X010484Y015543D01*
X010508Y015524D01*
X010534Y015509D01*
X010561Y015496D01*
X010590Y015487D01*
X010620Y015482D01*
X010650Y015480D01*
X012550Y015480D01*
X012580Y015482D01*
X012610Y015487D01*
X012639Y015496D01*
X012666Y015509D01*
X012692Y015524D01*
X012716Y015543D01*
X012737Y015564D01*
X012756Y015588D01*
X012771Y015614D01*
X012784Y015641D01*
X012793Y015670D01*
X012798Y015700D01*
X012800Y015730D01*
X012550Y013630D02*
X010650Y013630D01*
X010620Y013628D01*
X010590Y013623D01*
X010561Y013614D01*
X010534Y013601D01*
X010508Y013586D01*
X010484Y013567D01*
X010463Y013546D01*
X010444Y013522D01*
X010429Y013496D01*
X010416Y013469D01*
X010407Y013440D01*
X010402Y013410D01*
X010400Y013380D01*
X010400Y007880D01*
X010402Y007850D01*
X010407Y007820D01*
X010416Y007791D01*
X010429Y007764D01*
X010444Y007738D01*
X010463Y007714D01*
X010484Y007693D01*
X010508Y007674D01*
X010534Y007659D01*
X010561Y007646D01*
X010590Y007637D01*
X010620Y007632D01*
X010650Y007630D01*
X012550Y007630D01*
X012580Y007632D01*
X012610Y007637D01*
X012639Y007646D01*
X012666Y007659D01*
X012692Y007674D01*
X012716Y007693D01*
X012737Y007714D01*
X012756Y007738D01*
X012771Y007764D01*
X012784Y007791D01*
X012793Y007820D01*
X012798Y007850D01*
X012800Y007880D01*
X012800Y013380D01*
X012798Y013410D01*
X012793Y013440D01*
X012784Y013469D01*
X012771Y013496D01*
X012756Y013522D01*
X012737Y013546D01*
X012716Y013567D01*
X012692Y013586D01*
X012666Y013601D01*
X012639Y013614D01*
X012610Y013623D01*
X012580Y013628D01*
X012550Y013630D01*
X012350Y006630D02*
X011850Y006630D01*
X011600Y006380D01*
X011600Y005880D01*
X011850Y005630D01*
X012350Y005630D01*
X012600Y005880D01*
X012600Y006380D01*
X012350Y006630D01*
X012600Y006380D02*
X012850Y006630D01*
X013350Y006630D01*
X013600Y006380D01*
X013850Y006630D01*
X014350Y006630D01*
X014600Y006380D01*
X014600Y005880D01*
X014350Y005630D01*
X013850Y005630D01*
X013600Y005880D01*
X013350Y005630D01*
X012850Y005630D01*
X012600Y005880D01*
X013600Y005880D02*
X013600Y006380D01*
X016241Y003390D02*
X016241Y003353D01*
X016241Y003390D02*
X016859Y003390D01*
X016859Y003353D01*
X016859Y003036D02*
X016859Y002624D01*
X016859Y002307D02*
X016859Y002270D01*
X016241Y002270D01*
X016241Y002307D01*
X016241Y002624D02*
X016241Y002661D01*
X016241Y002999D02*
X016241Y003036D01*
D19*
X015262Y003130D02*
X015238Y003130D01*
X017838Y003180D02*
X017862Y003180D01*
X023838Y005880D02*
X023862Y005880D01*
X024638Y005880D02*
X024662Y005880D01*
X025438Y005880D02*
X025462Y005880D01*
X026238Y005880D02*
X026262Y005880D01*
X027750Y007618D02*
X027750Y007642D01*
X029100Y007618D02*
X029100Y007642D01*
X028912Y011480D02*
X028888Y011480D01*
X027512Y011480D02*
X027488Y011480D01*
X026058Y014172D02*
X026042Y014188D01*
X026800Y015268D02*
X026800Y015292D01*
X023512Y016730D02*
X023488Y016730D01*
X022562Y016480D02*
X022538Y016480D01*
X024592Y017272D02*
X024608Y017288D01*
X022450Y017568D02*
X022450Y017592D01*
X018900Y016442D02*
X018900Y016418D01*
X017350Y012092D02*
X017350Y012068D01*
X017350Y011192D02*
X017350Y011168D01*
X018992Y008038D02*
X019008Y008022D01*
X030700Y014818D02*
X030700Y014842D01*
X030700Y015618D02*
X030700Y015642D01*
D20*
X030725Y015285D02*
X030750Y015260D01*
X030750Y015235D01*
X030725Y015210D01*
X030750Y015185D01*
X030750Y015160D01*
X030725Y015135D01*
X030675Y015135D01*
X030650Y015160D01*
X030602Y015135D02*
X030502Y015135D01*
X030552Y015135D02*
X030552Y015285D01*
X030502Y015235D01*
X030455Y015260D02*
X030430Y015285D01*
X030380Y015285D01*
X030355Y015260D01*
X030355Y015160D01*
X030380Y015135D01*
X030430Y015135D01*
X030455Y015160D01*
X030650Y015260D02*
X030675Y015285D01*
X030725Y015285D01*
X030725Y015210D02*
X030700Y015210D01*
X029395Y014707D02*
X029395Y014657D01*
X029370Y014632D01*
X029395Y014585D02*
X029345Y014535D01*
X029345Y014560D02*
X029345Y014485D01*
X029395Y014485D02*
X029245Y014485D01*
X029245Y014560D01*
X029270Y014585D01*
X029320Y014585D01*
X029345Y014560D01*
X029270Y014632D02*
X029245Y014657D01*
X029245Y014707D01*
X029270Y014732D01*
X029295Y014732D01*
X029320Y014707D01*
X029345Y014732D01*
X029370Y014732D01*
X029395Y014707D01*
X029320Y014707D02*
X029320Y014682D01*
X026850Y015610D02*
X026850Y015710D01*
X026750Y015610D01*
X026775Y015585D01*
X026825Y015585D01*
X026850Y015610D01*
X026850Y015710D02*
X026825Y015735D01*
X026775Y015735D01*
X026750Y015710D01*
X026750Y015610D01*
X026702Y015585D02*
X026602Y015585D01*
X026652Y015585D02*
X026652Y015735D01*
X026602Y015685D01*
X026555Y015710D02*
X026530Y015735D01*
X026480Y015735D01*
X026455Y015710D01*
X026455Y015610D01*
X026480Y015585D01*
X026530Y015585D01*
X026555Y015610D01*
X025677Y014415D02*
X025641Y014415D01*
X025606Y014380D01*
X025606Y014344D01*
X025624Y014327D01*
X025659Y014327D01*
X025712Y014380D01*
X025677Y014415D02*
X025748Y014344D01*
X025748Y014309D01*
X025712Y014274D01*
X025677Y014274D01*
X025643Y014240D02*
X025643Y014205D01*
X025608Y014169D01*
X025573Y014169D01*
X025502Y014240D01*
X025502Y014276D01*
X025537Y014311D01*
X025573Y014311D01*
X022245Y016160D02*
X022220Y016135D01*
X022120Y016135D01*
X022095Y016160D01*
X022095Y016210D01*
X022120Y016235D01*
X022095Y016282D02*
X022095Y016382D01*
X022120Y016382D01*
X022220Y016282D01*
X022245Y016282D01*
X022220Y016235D02*
X022245Y016210D01*
X022245Y016160D01*
X023045Y016410D02*
X023070Y016385D01*
X023170Y016385D01*
X023195Y016410D01*
X023195Y016460D01*
X023170Y016485D01*
X023195Y016532D02*
X023195Y016632D01*
X023195Y016582D02*
X023045Y016582D01*
X023095Y016532D01*
X023070Y016485D02*
X023045Y016460D01*
X023045Y016410D01*
X023070Y016680D02*
X023095Y016680D01*
X023120Y016705D01*
X023120Y016755D01*
X023145Y016780D01*
X023170Y016780D01*
X023195Y016755D01*
X023195Y016705D01*
X023170Y016680D01*
X023145Y016680D01*
X023120Y016705D01*
X023120Y016755D02*
X023095Y016780D01*
X023070Y016780D01*
X023045Y016755D01*
X023045Y016705D01*
X023070Y016680D01*
X023971Y017266D02*
X024042Y017195D01*
X024006Y017230D02*
X024112Y017336D01*
X024042Y017336D01*
X024026Y017387D02*
X024026Y017423D01*
X023991Y017458D01*
X023955Y017458D01*
X023884Y017387D01*
X023884Y017352D01*
X023920Y017317D01*
X023955Y017317D01*
X024093Y017179D02*
X024093Y017144D01*
X024128Y017108D01*
X024164Y017108D01*
X024234Y017179D01*
X024234Y017214D01*
X024199Y017250D01*
X024164Y017250D01*
X024146Y017232D01*
X024146Y017197D01*
X024199Y017144D01*
X022500Y018010D02*
X022400Y017910D01*
X022400Y017885D01*
X022352Y017885D02*
X022252Y017885D01*
X022302Y017885D02*
X022302Y018035D01*
X022252Y017985D01*
X022205Y018010D02*
X022180Y018035D01*
X022130Y018035D01*
X022105Y018010D01*
X022105Y017910D01*
X022130Y017885D01*
X022180Y017885D01*
X022205Y017910D01*
X022400Y018035D02*
X022500Y018035D01*
X022500Y018010D01*
X018802Y016885D02*
X018702Y016885D01*
X018702Y016810D01*
X018752Y016835D01*
X018777Y016835D01*
X018802Y016810D01*
X018802Y016760D01*
X018777Y016735D01*
X018727Y016735D01*
X018702Y016760D01*
X018655Y016760D02*
X018630Y016735D01*
X018580Y016735D01*
X018555Y016760D01*
X018555Y016860D01*
X018580Y016885D01*
X018630Y016885D01*
X018655Y016860D01*
X017433Y012625D02*
X017358Y012550D01*
X017458Y012550D01*
X017433Y012475D02*
X017433Y012625D01*
X017310Y012600D02*
X017285Y012625D01*
X017235Y012625D01*
X017210Y012600D01*
X017210Y012500D01*
X017235Y012475D01*
X017285Y012475D01*
X017310Y012500D01*
X017435Y010875D02*
X017410Y010850D01*
X017410Y010750D01*
X017435Y010725D01*
X017485Y010725D01*
X017510Y010750D01*
X017558Y010750D02*
X017583Y010725D01*
X017633Y010725D01*
X017658Y010750D01*
X017658Y010775D01*
X017633Y010800D01*
X017558Y010800D01*
X017558Y010750D01*
X017558Y010800D02*
X017608Y010850D01*
X017658Y010875D01*
X017510Y010850D02*
X017485Y010875D01*
X017435Y010875D01*
X016777Y008935D02*
X016727Y008935D01*
X016702Y008910D01*
X016655Y008910D02*
X016655Y008860D01*
X016630Y008835D01*
X016555Y008835D01*
X016555Y008785D02*
X016555Y008935D01*
X016630Y008935D01*
X016655Y008910D01*
X016605Y008835D02*
X016655Y008785D01*
X016702Y008785D02*
X016802Y008885D01*
X016802Y008910D01*
X016777Y008935D01*
X016802Y008785D02*
X016702Y008785D01*
X018452Y008126D02*
X018452Y008090D01*
X018523Y008019D01*
X018558Y008019D01*
X018593Y008055D01*
X018593Y008090D01*
X018645Y008106D02*
X018715Y008177D01*
X018680Y008141D02*
X018574Y008247D01*
X018574Y008177D01*
X018523Y008161D02*
X018487Y008161D01*
X018452Y008126D01*
X018696Y008263D02*
X018749Y008316D01*
X018784Y008316D01*
X018802Y008299D01*
X018802Y008263D01*
X018766Y008228D01*
X018731Y008228D01*
X018696Y008263D01*
X018696Y008334D01*
X018713Y008387D01*
X016802Y007435D02*
X016802Y007285D01*
X016752Y007285D02*
X016852Y007285D01*
X016752Y007385D02*
X016802Y007435D01*
X016705Y007410D02*
X016705Y007360D01*
X016680Y007335D01*
X016605Y007335D01*
X016605Y007285D02*
X016605Y007435D01*
X016680Y007435D01*
X016705Y007410D01*
X016655Y007335D02*
X016705Y007285D01*
X018355Y006038D02*
X018355Y005938D01*
X018430Y005938D01*
X018405Y005988D01*
X018405Y006013D01*
X018430Y006038D01*
X018480Y006038D01*
X018505Y006013D01*
X018505Y005963D01*
X018480Y005938D01*
X018505Y005890D02*
X018455Y005840D01*
X018455Y005865D02*
X018455Y005790D01*
X018505Y005790D02*
X018355Y005790D01*
X018355Y005865D01*
X018380Y005890D01*
X018430Y005890D01*
X018455Y005865D01*
X018305Y003488D02*
X018305Y003388D01*
X018205Y003488D01*
X018180Y003488D01*
X018155Y003463D01*
X018155Y003413D01*
X018180Y003388D01*
X018180Y003340D02*
X018155Y003315D01*
X018155Y003265D01*
X018180Y003240D01*
X018180Y003193D02*
X018155Y003168D01*
X018155Y003118D01*
X018180Y003093D01*
X018280Y003093D01*
X018305Y003118D01*
X018305Y003168D01*
X018280Y003193D01*
X018305Y003240D02*
X018205Y003340D01*
X018180Y003340D01*
X018305Y003340D02*
X018305Y003240D01*
X015705Y003190D02*
X015605Y003290D01*
X015580Y003290D01*
X015555Y003265D01*
X015555Y003215D01*
X015580Y003190D01*
X015580Y003143D02*
X015555Y003118D01*
X015555Y003068D01*
X015580Y003043D01*
X015680Y003043D01*
X015705Y003068D01*
X015705Y003118D01*
X015680Y003143D01*
X015705Y003190D02*
X015705Y003290D01*
X015705Y003338D02*
X015705Y003438D01*
X015705Y003388D02*
X015555Y003388D01*
X015605Y003338D01*
X024155Y005818D02*
X024180Y005793D01*
X024280Y005793D01*
X024305Y005818D01*
X024305Y005868D01*
X024280Y005893D01*
X024305Y005940D02*
X024305Y006040D01*
X024305Y006088D02*
X024305Y006188D01*
X024305Y006138D02*
X024155Y006138D01*
X024205Y006088D01*
X024155Y005990D02*
X024305Y005990D01*
X024205Y005940D02*
X024155Y005990D01*
X024180Y005893D02*
X024155Y005868D01*
X024155Y005818D01*
X024955Y005965D02*
X024955Y006015D01*
X024980Y006040D01*
X025005Y006088D02*
X024955Y006138D01*
X025105Y006138D01*
X025105Y006088D02*
X025105Y006188D01*
X025080Y006040D02*
X025105Y006015D01*
X025105Y005965D01*
X025080Y005940D01*
X024980Y005940D01*
X024955Y005965D01*
X025755Y005965D02*
X025780Y005940D01*
X025880Y005940D01*
X025905Y005965D01*
X025905Y006015D01*
X025880Y006040D01*
X025905Y006088D02*
X025805Y006188D01*
X025780Y006188D01*
X025755Y006163D01*
X025755Y006113D01*
X025780Y006088D01*
X025780Y006040D02*
X025755Y006015D01*
X025755Y005965D01*
X025905Y006088D02*
X025905Y006188D01*
X026555Y006163D02*
X026580Y006188D01*
X026605Y006188D01*
X026630Y006163D01*
X026655Y006188D01*
X026680Y006188D01*
X026705Y006163D01*
X026705Y006113D01*
X026680Y006088D01*
X026680Y006040D02*
X026705Y006015D01*
X026705Y005965D01*
X026680Y005940D01*
X026580Y005940D01*
X026555Y005965D01*
X026555Y006015D01*
X026580Y006040D01*
X026580Y006088D02*
X026555Y006113D01*
X026555Y006163D01*
X026630Y006163D02*
X026630Y006138D01*
X027630Y007185D02*
X027680Y007185D01*
X027705Y007210D01*
X027752Y007185D02*
X027852Y007185D01*
X027802Y007185D02*
X027802Y007335D01*
X027752Y007285D01*
X027705Y007310D02*
X027680Y007335D01*
X027630Y007335D01*
X027605Y007310D01*
X027605Y007210D01*
X027630Y007185D01*
X027900Y007260D02*
X028000Y007260D01*
X027975Y007185D02*
X027975Y007335D01*
X027900Y007260D01*
X028248Y007303D02*
X028323Y007303D01*
X028348Y007278D01*
X028348Y007228D01*
X028323Y007203D01*
X028248Y007203D01*
X028248Y007153D02*
X028248Y007303D01*
X028298Y007203D02*
X028348Y007153D01*
X028396Y007228D02*
X028496Y007228D01*
X028471Y007303D02*
X028396Y007228D01*
X028471Y007153D02*
X028471Y007303D01*
X029013Y007300D02*
X029013Y007200D01*
X029038Y007175D01*
X029088Y007175D01*
X029113Y007200D01*
X029160Y007175D02*
X029260Y007175D01*
X029210Y007175D02*
X029210Y007325D01*
X029160Y007275D01*
X029113Y007300D02*
X029088Y007325D01*
X029038Y007325D01*
X029013Y007300D01*
X029308Y007325D02*
X029308Y007250D01*
X029358Y007275D01*
X029383Y007275D01*
X029408Y007250D01*
X029408Y007200D01*
X029383Y007175D01*
X029333Y007175D01*
X029308Y007200D01*
X029308Y007325D02*
X029408Y007325D01*
X028570Y011135D02*
X028470Y011135D01*
X028445Y011160D01*
X028445Y011210D01*
X028470Y011235D01*
X028470Y011282D02*
X028495Y011282D01*
X028520Y011307D01*
X028520Y011357D01*
X028545Y011382D01*
X028570Y011382D01*
X028595Y011357D01*
X028595Y011307D01*
X028570Y011282D01*
X028545Y011282D01*
X028520Y011307D01*
X028520Y011357D02*
X028495Y011382D01*
X028470Y011382D01*
X028445Y011357D01*
X028445Y011307D01*
X028470Y011282D01*
X028570Y011235D02*
X028595Y011210D01*
X028595Y011160D01*
X028570Y011135D01*
X027955Y011418D02*
X027955Y011468D01*
X027930Y011493D01*
X027955Y011540D02*
X027855Y011640D01*
X027830Y011640D01*
X027805Y011615D01*
X027805Y011565D01*
X027830Y011540D01*
X027830Y011493D02*
X027805Y011468D01*
X027805Y011418D01*
X027830Y011393D01*
X027930Y011393D01*
X027955Y011418D01*
X027955Y011540D02*
X027955Y011640D01*
X027930Y011688D02*
X027830Y011788D01*
X027930Y011788D01*
X027955Y011763D01*
X027955Y011713D01*
X027930Y011688D01*
X027830Y011688D01*
X027805Y011713D01*
X027805Y011763D01*
X027830Y011788D01*
X030380Y015935D02*
X030430Y015935D01*
X030455Y015960D01*
X030502Y015935D02*
X030602Y015935D01*
X030650Y015935D02*
X030750Y016035D01*
X030750Y016060D01*
X030725Y016085D01*
X030675Y016085D01*
X030650Y016060D01*
X030552Y016085D02*
X030552Y015935D01*
X030650Y015935D02*
X030750Y015935D01*
X030552Y016085D02*
X030502Y016035D01*
X030455Y016060D02*
X030430Y016085D01*
X030380Y016085D01*
X030355Y016060D01*
X030355Y015960D01*
X030380Y015935D01*
X046805Y019785D02*
X046805Y019935D01*
X046880Y019935D01*
X046905Y019910D01*
X046905Y019860D01*
X046880Y019835D01*
X046805Y019835D01*
X046855Y019835D02*
X046905Y019785D01*
X046952Y019810D02*
X046977Y019785D01*
X047027Y019785D01*
X047052Y019810D01*
X047052Y019835D01*
X047027Y019860D01*
X046952Y019860D01*
X046952Y019810D01*
X046952Y019860D02*
X047002Y019910D01*
X047052Y019935D01*
X046952Y021085D02*
X046952Y021110D01*
X047052Y021210D01*
X047052Y021235D01*
X046952Y021235D01*
X046905Y021210D02*
X046880Y021235D01*
X046805Y021235D01*
X046805Y021085D01*
X046805Y021135D02*
X046880Y021135D01*
X046905Y021160D01*
X046905Y021210D01*
X046855Y021135D02*
X046905Y021085D01*
D21*
X028560Y015010D02*
X028560Y014860D01*
X028160Y014860D02*
X028160Y015060D01*
X033650Y010430D02*
X033650Y009430D01*
X035650Y009430D01*
X035650Y010430D01*
X034650Y010430D01*
X034650Y005430D01*
X035650Y005430D01*
X035650Y006430D01*
X033650Y006430D01*
X033650Y005430D01*
X034650Y005430D01*
X033650Y006430D02*
X033650Y007430D01*
X035650Y007430D01*
X035650Y008430D01*
X035650Y009430D01*
X035650Y008430D02*
X033650Y008430D01*
X033650Y007430D01*
X033650Y008430D02*
X033650Y009430D01*
X033650Y010430D02*
X034650Y010430D01*
X035650Y007430D02*
X035650Y006430D01*
X015200Y011680D02*
X014200Y011680D01*
X014200Y014680D01*
X014200Y017680D01*
X015200Y017680D01*
X015200Y016680D01*
X013200Y016680D01*
X013200Y017680D01*
X014200Y017680D01*
X013200Y016680D02*
X013200Y015680D01*
X015200Y015680D01*
X015200Y014680D01*
X014200Y014680D01*
X013200Y014680D01*
X013200Y015680D01*
X013200Y014680D02*
X013200Y013680D01*
X015200Y013680D01*
X015200Y012680D01*
X013200Y012680D01*
X013200Y013680D01*
X015200Y013680D02*
X015200Y014680D01*
X015200Y015680D02*
X015200Y016680D01*
X015200Y012680D02*
X015200Y011680D01*
X014200Y011680D02*
X013200Y011680D01*
X013200Y012680D01*
D22*
X028160Y015075D03*
X028560Y015075D03*
D23*
X016900Y008480D03*
X016900Y007780D03*
X028400Y006830D03*
X047150Y019480D03*
X047150Y020780D03*
D24*
X029700Y014830D03*
X018050Y005730D03*
M02*
