G75*
%MOIN*%
%OFA0B0*%
%FSLAX24Y24*%
%IPPOS*%
%LPD*%
%AMOC8*
5,1,8,0,0,1.08239X$1,22.5*
%
%ADD10C,0.0000*%
%ADD11R,0.0354X0.0118*%
%ADD12R,0.0118X0.0354*%
%ADD13R,0.0394X0.0433*%
%ADD14R,0.0433X0.0394*%
%ADD15R,0.0315X0.0315*%
%ADD16R,0.0472X0.0217*%
%ADD17R,0.0799X0.1299*%
%ADD18R,0.0689X0.0157*%
D10*
X009750Y000930D02*
X009750Y022326D01*
X049120Y022326D01*
X049120Y000930D01*
X009750Y000930D01*
X011405Y002675D02*
X011407Y002703D01*
X011413Y002731D01*
X011422Y002757D01*
X011435Y002783D01*
X011451Y002806D01*
X011471Y002826D01*
X011493Y002844D01*
X011517Y002859D01*
X011543Y002870D01*
X011570Y002878D01*
X011598Y002882D01*
X011626Y002882D01*
X011654Y002878D01*
X011681Y002870D01*
X011707Y002859D01*
X011731Y002844D01*
X011753Y002826D01*
X011773Y002806D01*
X011789Y002783D01*
X011802Y002757D01*
X011811Y002731D01*
X011817Y002703D01*
X011819Y002675D01*
X011817Y002647D01*
X011811Y002619D01*
X011802Y002593D01*
X011789Y002567D01*
X011773Y002544D01*
X011753Y002524D01*
X011731Y002506D01*
X011707Y002491D01*
X011681Y002480D01*
X011654Y002472D01*
X011626Y002468D01*
X011598Y002468D01*
X011570Y002472D01*
X011543Y002480D01*
X011517Y002491D01*
X011493Y002506D01*
X011471Y002524D01*
X011451Y002544D01*
X011435Y002567D01*
X011422Y002593D01*
X011413Y002619D01*
X011407Y002647D01*
X011405Y002675D01*
X011405Y004585D02*
X011407Y004613D01*
X011413Y004641D01*
X011422Y004667D01*
X011435Y004693D01*
X011451Y004716D01*
X011471Y004736D01*
X011493Y004754D01*
X011517Y004769D01*
X011543Y004780D01*
X011570Y004788D01*
X011598Y004792D01*
X011626Y004792D01*
X011654Y004788D01*
X011681Y004780D01*
X011707Y004769D01*
X011731Y004754D01*
X011753Y004736D01*
X011773Y004716D01*
X011789Y004693D01*
X011802Y004667D01*
X011811Y004641D01*
X011817Y004613D01*
X011819Y004585D01*
X011817Y004557D01*
X011811Y004529D01*
X011802Y004503D01*
X011789Y004477D01*
X011773Y004454D01*
X011753Y004434D01*
X011731Y004416D01*
X011707Y004401D01*
X011681Y004390D01*
X011654Y004382D01*
X011626Y004378D01*
X011598Y004378D01*
X011570Y004382D01*
X011543Y004390D01*
X011517Y004401D01*
X011493Y004416D01*
X011471Y004434D01*
X011451Y004454D01*
X011435Y004477D01*
X011422Y004503D01*
X011413Y004529D01*
X011407Y004557D01*
X011405Y004585D01*
X015879Y006125D02*
X015881Y006172D01*
X015887Y006219D01*
X015896Y006265D01*
X015910Y006310D01*
X015927Y006354D01*
X015948Y006397D01*
X015972Y006437D01*
X015999Y006476D01*
X016030Y006512D01*
X016063Y006545D01*
X016099Y006576D01*
X016138Y006603D01*
X016178Y006627D01*
X016221Y006648D01*
X016265Y006665D01*
X016310Y006679D01*
X016356Y006688D01*
X016403Y006694D01*
X016450Y006696D01*
X016497Y006694D01*
X016544Y006688D01*
X016590Y006679D01*
X016635Y006665D01*
X016679Y006648D01*
X016722Y006627D01*
X016762Y006603D01*
X016801Y006576D01*
X016837Y006545D01*
X016870Y006512D01*
X016901Y006476D01*
X016928Y006437D01*
X016952Y006397D01*
X016973Y006354D01*
X016990Y006310D01*
X017004Y006265D01*
X017013Y006219D01*
X017019Y006172D01*
X017021Y006125D01*
X017019Y006078D01*
X017013Y006031D01*
X017004Y005985D01*
X016990Y005940D01*
X016973Y005896D01*
X016952Y005853D01*
X016928Y005813D01*
X016901Y005774D01*
X016870Y005738D01*
X016837Y005705D01*
X016801Y005674D01*
X016762Y005647D01*
X016722Y005623D01*
X016679Y005602D01*
X016635Y005585D01*
X016590Y005571D01*
X016544Y005562D01*
X016497Y005556D01*
X016450Y005554D01*
X016403Y005556D01*
X016356Y005562D01*
X016310Y005571D01*
X016265Y005585D01*
X016221Y005602D01*
X016178Y005623D01*
X016138Y005647D01*
X016099Y005674D01*
X016063Y005705D01*
X016030Y005738D01*
X015999Y005774D01*
X015972Y005813D01*
X015948Y005853D01*
X015927Y005896D01*
X015910Y005940D01*
X015896Y005985D01*
X015887Y006031D01*
X015881Y006078D01*
X015879Y006125D01*
X037334Y016165D02*
X037336Y016212D01*
X037342Y016259D01*
X037351Y016305D01*
X037365Y016350D01*
X037382Y016394D01*
X037403Y016437D01*
X037427Y016477D01*
X037454Y016516D01*
X037485Y016552D01*
X037518Y016585D01*
X037554Y016616D01*
X037593Y016643D01*
X037633Y016667D01*
X037676Y016688D01*
X037720Y016705D01*
X037765Y016719D01*
X037811Y016728D01*
X037858Y016734D01*
X037905Y016736D01*
X037952Y016734D01*
X037999Y016728D01*
X038045Y016719D01*
X038090Y016705D01*
X038134Y016688D01*
X038177Y016667D01*
X038217Y016643D01*
X038256Y016616D01*
X038292Y016585D01*
X038325Y016552D01*
X038356Y016516D01*
X038383Y016477D01*
X038407Y016437D01*
X038428Y016394D01*
X038445Y016350D01*
X038459Y016305D01*
X038468Y016259D01*
X038474Y016212D01*
X038476Y016165D01*
X038474Y016118D01*
X038468Y016071D01*
X038459Y016025D01*
X038445Y015980D01*
X038428Y015936D01*
X038407Y015893D01*
X038383Y015853D01*
X038356Y015814D01*
X038325Y015778D01*
X038292Y015745D01*
X038256Y015714D01*
X038217Y015687D01*
X038177Y015663D01*
X038134Y015642D01*
X038090Y015625D01*
X038045Y015611D01*
X037999Y015602D01*
X037952Y015596D01*
X037905Y015594D01*
X037858Y015596D01*
X037811Y015602D01*
X037765Y015611D01*
X037720Y015625D01*
X037676Y015642D01*
X037633Y015663D01*
X037593Y015687D01*
X037554Y015714D01*
X037518Y015745D01*
X037485Y015778D01*
X037454Y015814D01*
X037427Y015853D01*
X037403Y015893D01*
X037382Y015936D01*
X037365Y015980D01*
X037351Y016025D01*
X037342Y016071D01*
X037336Y016118D01*
X037334Y016165D01*
D11*
G36*
X026727Y012184D02*
X026478Y011935D01*
X026395Y012018D01*
X026644Y012267D01*
X026727Y012184D01*
G37*
G36*
X026588Y012323D02*
X026339Y012074D01*
X026256Y012157D01*
X026505Y012406D01*
X026588Y012323D01*
G37*
G36*
X026449Y012462D02*
X026200Y012213D01*
X026117Y012296D01*
X026366Y012545D01*
X026449Y012462D01*
G37*
G36*
X026310Y012601D02*
X026061Y012352D01*
X025978Y012435D01*
X026227Y012684D01*
X026310Y012601D01*
G37*
G36*
X026171Y012740D02*
X025922Y012491D01*
X025839Y012574D01*
X026088Y012823D01*
X026171Y012740D01*
G37*
G36*
X026031Y012880D02*
X025782Y012631D01*
X025699Y012714D01*
X025948Y012963D01*
X026031Y012880D01*
G37*
G36*
X025892Y013019D02*
X025643Y012770D01*
X025560Y012853D01*
X025809Y013102D01*
X025892Y013019D01*
G37*
G36*
X025753Y013158D02*
X025504Y012909D01*
X025421Y012992D01*
X025670Y013241D01*
X025753Y013158D01*
G37*
G36*
X025614Y013297D02*
X025365Y013048D01*
X025282Y013131D01*
X025531Y013380D01*
X025614Y013297D01*
G37*
G36*
X025475Y013436D02*
X025226Y013187D01*
X025143Y013270D01*
X025392Y013519D01*
X025475Y013436D01*
G37*
G36*
X025335Y013576D02*
X025086Y013327D01*
X025003Y013410D01*
X025252Y013659D01*
X025335Y013576D01*
G37*
G36*
X025196Y013715D02*
X024947Y013466D01*
X024864Y013549D01*
X025113Y013798D01*
X025196Y013715D01*
G37*
G36*
X025057Y013854D02*
X024808Y013605D01*
X024725Y013688D01*
X024974Y013937D01*
X025057Y013854D01*
G37*
G36*
X024918Y013993D02*
X024669Y013744D01*
X024586Y013827D01*
X024835Y014076D01*
X024918Y013993D01*
G37*
G36*
X024779Y014132D02*
X024530Y013883D01*
X024447Y013966D01*
X024696Y014215D01*
X024779Y014132D01*
G37*
G36*
X024639Y014272D02*
X024390Y014023D01*
X024307Y014106D01*
X024556Y014355D01*
X024639Y014272D01*
G37*
G36*
X024500Y014411D02*
X024251Y014162D01*
X024168Y014245D01*
X024417Y014494D01*
X024500Y014411D01*
G37*
G36*
X024361Y014550D02*
X024112Y014301D01*
X024029Y014384D01*
X024278Y014633D01*
X024361Y014550D01*
G37*
G36*
X024222Y014689D02*
X023973Y014440D01*
X023890Y014523D01*
X024139Y014772D01*
X024222Y014689D01*
G37*
G36*
X024083Y014828D02*
X023834Y014579D01*
X023751Y014662D01*
X024000Y014911D01*
X024083Y014828D01*
G37*
G36*
X023943Y014968D02*
X023694Y014719D01*
X023611Y014802D01*
X023860Y015051D01*
X023943Y014968D01*
G37*
G36*
X023804Y015107D02*
X023555Y014858D01*
X023472Y014941D01*
X023721Y015190D01*
X023804Y015107D01*
G37*
G36*
X023665Y015246D02*
X023416Y014997D01*
X023333Y015080D01*
X023582Y015329D01*
X023665Y015246D01*
G37*
G36*
X023526Y015385D02*
X023277Y015136D01*
X023194Y015219D01*
X023443Y015468D01*
X023526Y015385D01*
G37*
G36*
X023387Y015524D02*
X023138Y015275D01*
X023055Y015358D01*
X023304Y015607D01*
X023387Y015524D01*
G37*
G36*
X018905Y011042D02*
X018656Y010793D01*
X018573Y010876D01*
X018822Y011125D01*
X018905Y011042D01*
G37*
G36*
X019044Y010903D02*
X018795Y010654D01*
X018712Y010737D01*
X018961Y010986D01*
X019044Y010903D01*
G37*
G36*
X019183Y010764D02*
X018934Y010515D01*
X018851Y010598D01*
X019100Y010847D01*
X019183Y010764D01*
G37*
G36*
X019322Y010625D02*
X019073Y010376D01*
X018990Y010459D01*
X019239Y010708D01*
X019322Y010625D01*
G37*
G36*
X019461Y010486D02*
X019212Y010237D01*
X019129Y010320D01*
X019378Y010569D01*
X019461Y010486D01*
G37*
G36*
X019601Y010346D02*
X019352Y010097D01*
X019269Y010180D01*
X019518Y010429D01*
X019601Y010346D01*
G37*
G36*
X019740Y010207D02*
X019491Y009958D01*
X019408Y010041D01*
X019657Y010290D01*
X019740Y010207D01*
G37*
G36*
X019879Y010068D02*
X019630Y009819D01*
X019547Y009902D01*
X019796Y010151D01*
X019879Y010068D01*
G37*
G36*
X020018Y009929D02*
X019769Y009680D01*
X019686Y009763D01*
X019935Y010012D01*
X020018Y009929D01*
G37*
G36*
X020157Y009790D02*
X019908Y009541D01*
X019825Y009624D01*
X020074Y009873D01*
X020157Y009790D01*
G37*
G36*
X020297Y009650D02*
X020048Y009401D01*
X019965Y009484D01*
X020214Y009733D01*
X020297Y009650D01*
G37*
G36*
X020436Y009511D02*
X020187Y009262D01*
X020104Y009345D01*
X020353Y009594D01*
X020436Y009511D01*
G37*
G36*
X020575Y009372D02*
X020326Y009123D01*
X020243Y009206D01*
X020492Y009455D01*
X020575Y009372D01*
G37*
G36*
X020714Y009233D02*
X020465Y008984D01*
X020382Y009067D01*
X020631Y009316D01*
X020714Y009233D01*
G37*
G36*
X020853Y009094D02*
X020604Y008845D01*
X020521Y008928D01*
X020770Y009177D01*
X020853Y009094D01*
G37*
G36*
X020993Y008954D02*
X020744Y008705D01*
X020661Y008788D01*
X020910Y009037D01*
X020993Y008954D01*
G37*
G36*
X021132Y008815D02*
X020883Y008566D01*
X020800Y008649D01*
X021049Y008898D01*
X021132Y008815D01*
G37*
G36*
X021271Y008676D02*
X021022Y008427D01*
X020939Y008510D01*
X021188Y008759D01*
X021271Y008676D01*
G37*
G36*
X021410Y008537D02*
X021161Y008288D01*
X021078Y008371D01*
X021327Y008620D01*
X021410Y008537D01*
G37*
G36*
X021549Y008398D02*
X021300Y008149D01*
X021217Y008232D01*
X021466Y008481D01*
X021549Y008398D01*
G37*
G36*
X021689Y008258D02*
X021440Y008009D01*
X021357Y008092D01*
X021606Y008341D01*
X021689Y008258D01*
G37*
G36*
X021828Y008119D02*
X021579Y007870D01*
X021496Y007953D01*
X021745Y008202D01*
X021828Y008119D01*
G37*
G36*
X021967Y007980D02*
X021718Y007731D01*
X021635Y007814D01*
X021884Y008063D01*
X021967Y007980D01*
G37*
G36*
X022106Y007841D02*
X021857Y007592D01*
X021774Y007675D01*
X022023Y007924D01*
X022106Y007841D01*
G37*
G36*
X022245Y007702D02*
X021996Y007453D01*
X021913Y007536D01*
X022162Y007785D01*
X022245Y007702D01*
G37*
D12*
G36*
X023387Y007536D02*
X023304Y007453D01*
X023055Y007702D01*
X023138Y007785D01*
X023387Y007536D01*
G37*
G36*
X023526Y007675D02*
X023443Y007592D01*
X023194Y007841D01*
X023277Y007924D01*
X023526Y007675D01*
G37*
G36*
X023665Y007814D02*
X023582Y007731D01*
X023333Y007980D01*
X023416Y008063D01*
X023665Y007814D01*
G37*
G36*
X023804Y007953D02*
X023721Y007870D01*
X023472Y008119D01*
X023555Y008202D01*
X023804Y007953D01*
G37*
G36*
X023943Y008092D02*
X023860Y008009D01*
X023611Y008258D01*
X023694Y008341D01*
X023943Y008092D01*
G37*
G36*
X024083Y008232D02*
X024000Y008149D01*
X023751Y008398D01*
X023834Y008481D01*
X024083Y008232D01*
G37*
G36*
X024222Y008371D02*
X024139Y008288D01*
X023890Y008537D01*
X023973Y008620D01*
X024222Y008371D01*
G37*
G36*
X024361Y008510D02*
X024278Y008427D01*
X024029Y008676D01*
X024112Y008759D01*
X024361Y008510D01*
G37*
G36*
X024500Y008649D02*
X024417Y008566D01*
X024168Y008815D01*
X024251Y008898D01*
X024500Y008649D01*
G37*
G36*
X024639Y008788D02*
X024556Y008705D01*
X024307Y008954D01*
X024390Y009037D01*
X024639Y008788D01*
G37*
G36*
X024779Y008928D02*
X024696Y008845D01*
X024447Y009094D01*
X024530Y009177D01*
X024779Y008928D01*
G37*
G36*
X024918Y009067D02*
X024835Y008984D01*
X024586Y009233D01*
X024669Y009316D01*
X024918Y009067D01*
G37*
G36*
X025057Y009206D02*
X024974Y009123D01*
X024725Y009372D01*
X024808Y009455D01*
X025057Y009206D01*
G37*
G36*
X025196Y009345D02*
X025113Y009262D01*
X024864Y009511D01*
X024947Y009594D01*
X025196Y009345D01*
G37*
G36*
X025335Y009484D02*
X025252Y009401D01*
X025003Y009650D01*
X025086Y009733D01*
X025335Y009484D01*
G37*
G36*
X025475Y009624D02*
X025392Y009541D01*
X025143Y009790D01*
X025226Y009873D01*
X025475Y009624D01*
G37*
G36*
X025614Y009763D02*
X025531Y009680D01*
X025282Y009929D01*
X025365Y010012D01*
X025614Y009763D01*
G37*
G36*
X025753Y009902D02*
X025670Y009819D01*
X025421Y010068D01*
X025504Y010151D01*
X025753Y009902D01*
G37*
G36*
X025892Y010041D02*
X025809Y009958D01*
X025560Y010207D01*
X025643Y010290D01*
X025892Y010041D01*
G37*
G36*
X026031Y010180D02*
X025948Y010097D01*
X025699Y010346D01*
X025782Y010429D01*
X026031Y010180D01*
G37*
G36*
X026171Y010320D02*
X026088Y010237D01*
X025839Y010486D01*
X025922Y010569D01*
X026171Y010320D01*
G37*
G36*
X026310Y010459D02*
X026227Y010376D01*
X025978Y010625D01*
X026061Y010708D01*
X026310Y010459D01*
G37*
G36*
X026449Y010598D02*
X026366Y010515D01*
X026117Y010764D01*
X026200Y010847D01*
X026449Y010598D01*
G37*
G36*
X026588Y010737D02*
X026505Y010654D01*
X026256Y010903D01*
X026339Y010986D01*
X026588Y010737D01*
G37*
G36*
X026727Y010876D02*
X026644Y010793D01*
X026395Y011042D01*
X026478Y011125D01*
X026727Y010876D01*
G37*
G36*
X020853Y013966D02*
X020770Y013883D01*
X020521Y014132D01*
X020604Y014215D01*
X020853Y013966D01*
G37*
G36*
X020993Y014106D02*
X020910Y014023D01*
X020661Y014272D01*
X020744Y014355D01*
X020993Y014106D01*
G37*
G36*
X021132Y014245D02*
X021049Y014162D01*
X020800Y014411D01*
X020883Y014494D01*
X021132Y014245D01*
G37*
G36*
X021271Y014384D02*
X021188Y014301D01*
X020939Y014550D01*
X021022Y014633D01*
X021271Y014384D01*
G37*
G36*
X021410Y014523D02*
X021327Y014440D01*
X021078Y014689D01*
X021161Y014772D01*
X021410Y014523D01*
G37*
G36*
X021549Y014662D02*
X021466Y014579D01*
X021217Y014828D01*
X021300Y014911D01*
X021549Y014662D01*
G37*
G36*
X021689Y014802D02*
X021606Y014719D01*
X021357Y014968D01*
X021440Y015051D01*
X021689Y014802D01*
G37*
G36*
X021828Y014941D02*
X021745Y014858D01*
X021496Y015107D01*
X021579Y015190D01*
X021828Y014941D01*
G37*
G36*
X021967Y015080D02*
X021884Y014997D01*
X021635Y015246D01*
X021718Y015329D01*
X021967Y015080D01*
G37*
G36*
X022106Y015219D02*
X022023Y015136D01*
X021774Y015385D01*
X021857Y015468D01*
X022106Y015219D01*
G37*
G36*
X022245Y015358D02*
X022162Y015275D01*
X021913Y015524D01*
X021996Y015607D01*
X022245Y015358D01*
G37*
G36*
X020714Y013827D02*
X020631Y013744D01*
X020382Y013993D01*
X020465Y014076D01*
X020714Y013827D01*
G37*
G36*
X020575Y013688D02*
X020492Y013605D01*
X020243Y013854D01*
X020326Y013937D01*
X020575Y013688D01*
G37*
G36*
X020436Y013549D02*
X020353Y013466D01*
X020104Y013715D01*
X020187Y013798D01*
X020436Y013549D01*
G37*
G36*
X020297Y013410D02*
X020214Y013327D01*
X019965Y013576D01*
X020048Y013659D01*
X020297Y013410D01*
G37*
G36*
X020157Y013270D02*
X020074Y013187D01*
X019825Y013436D01*
X019908Y013519D01*
X020157Y013270D01*
G37*
G36*
X020018Y013131D02*
X019935Y013048D01*
X019686Y013297D01*
X019769Y013380D01*
X020018Y013131D01*
G37*
G36*
X019879Y012992D02*
X019796Y012909D01*
X019547Y013158D01*
X019630Y013241D01*
X019879Y012992D01*
G37*
G36*
X019740Y012853D02*
X019657Y012770D01*
X019408Y013019D01*
X019491Y013102D01*
X019740Y012853D01*
G37*
G36*
X019601Y012714D02*
X019518Y012631D01*
X019269Y012880D01*
X019352Y012963D01*
X019601Y012714D01*
G37*
G36*
X019461Y012574D02*
X019378Y012491D01*
X019129Y012740D01*
X019212Y012823D01*
X019461Y012574D01*
G37*
G36*
X019322Y012435D02*
X019239Y012352D01*
X018990Y012601D01*
X019073Y012684D01*
X019322Y012435D01*
G37*
G36*
X019183Y012296D02*
X019100Y012213D01*
X018851Y012462D01*
X018934Y012545D01*
X019183Y012296D01*
G37*
G36*
X019044Y012157D02*
X018961Y012074D01*
X018712Y012323D01*
X018795Y012406D01*
X019044Y012157D01*
G37*
G36*
X018905Y012018D02*
X018822Y011935D01*
X018573Y012184D01*
X018656Y012267D01*
X018905Y012018D01*
G37*
D13*
X022550Y016145D03*
X022550Y016815D03*
X023500Y017065D03*
X023500Y016395D03*
X029700Y015165D03*
X029700Y014495D03*
X028900Y011815D03*
X027500Y011815D03*
X027500Y011145D03*
X028900Y011145D03*
X026250Y006215D03*
X026250Y005545D03*
X025450Y005545D03*
X024650Y005545D03*
X024650Y006215D03*
X025450Y006215D03*
X023850Y006215D03*
X023850Y005545D03*
X018050Y005395D03*
X018050Y006065D03*
X017850Y003515D03*
X017850Y002845D03*
X015250Y002795D03*
X015250Y003465D03*
D14*
X016565Y007780D03*
X017235Y007780D03*
X017235Y008480D03*
X016565Y008480D03*
G36*
X019055Y007806D02*
X018750Y007501D01*
X018471Y007780D01*
X018776Y008085D01*
X019055Y007806D01*
G37*
G36*
X019529Y008280D02*
X019224Y007975D01*
X018945Y008254D01*
X019250Y008559D01*
X019529Y008280D01*
G37*
X017685Y011180D03*
X017015Y011180D03*
X017015Y012080D03*
X017685Y012080D03*
G36*
X026105Y013956D02*
X025800Y013651D01*
X025521Y013930D01*
X025826Y014235D01*
X026105Y013956D01*
G37*
G36*
X026579Y014430D02*
X026274Y014125D01*
X025995Y014404D01*
X026300Y014709D01*
X026579Y014430D01*
G37*
X026465Y015280D03*
X027135Y015280D03*
X030365Y015630D03*
X031035Y015630D03*
X031035Y014830D03*
X030365Y014830D03*
G36*
X024824Y017335D02*
X025129Y017030D01*
X024850Y016751D01*
X024545Y017056D01*
X024824Y017335D01*
G37*
G36*
X024350Y017809D02*
X024655Y017504D01*
X024376Y017225D01*
X024071Y017530D01*
X024350Y017809D01*
G37*
X022785Y017580D03*
X022115Y017580D03*
X019235Y016430D03*
X018565Y016430D03*
X027415Y007630D03*
X028085Y007630D03*
X028765Y007630D03*
X029435Y007630D03*
X028735Y006830D03*
X028065Y006830D03*
X046815Y019480D03*
X047485Y019480D03*
X047485Y020780D03*
X046815Y020780D03*
D15*
X046905Y020180D03*
X047495Y020180D03*
X047495Y021480D03*
X046905Y021480D03*
D16*
X017062Y003204D03*
X016038Y003204D03*
X016038Y002830D03*
X016038Y002456D03*
X017062Y002456D03*
D17*
X015050Y008730D03*
X013350Y008730D03*
D18*
X011531Y004142D03*
X011531Y003886D03*
X011531Y003630D03*
X011531Y003374D03*
X011531Y003118D03*
M02*
