%
M48
M72
T01C0.0150
T02C0.0236
T03C0.0276
T04C0.0320
T05C0.0360
T06C0.0394
T07C0.0400
T08C0.0433
T09C0.0472
T10C0.1142
%
T01
X13300Y5130
X14600Y3830
X11300Y7130
T02
X15750Y9780
X16350Y9780
X16950Y9780
X17550Y9780
X18750Y8630
X17900Y7780
X19050Y6880
X19400Y6480
X19750Y6880
X20100Y6480
X20450Y6880
X20800Y6480
X21500Y6530
X21900Y6180
X22650Y6580
X22250Y6930
X24000Y7030
X24300Y7430
X25050Y7730
X25450Y7380
X25450Y8080
X24950Y8430
X23650Y8980
X23150Y8680
X22350Y8880
X22600Y9530
X20900Y9930
X21150Y11130
X21050Y11630
X20350Y12180
X20950Y12530
X22750Y11980
X23400Y11330
X23100Y10780
X25250Y10530
X25700Y11080
X26900Y11680
X28200Y11130
X27950Y12580
X27350Y12580
X25350Y12080
X25000Y12480
X23950Y13630
X25600Y14630
X25550Y15580
X26250Y16280
X26800Y16280
X27700Y16180
X25400Y17480
X24150Y16730
X23500Y17580
X19100Y15630
X17550Y14530
X16950Y14530
X16350Y14530
X15750Y14530
X15750Y17330
X16500Y17330
X17150Y17330
X17750Y17330
X15300Y11630
X14250Y11080
X18650Y6480
X19200Y3780
X17600Y1930
X24550Y2380
X24900Y4230
X32500Y4630
X32750Y2730
X39650Y5130
X31950Y9130
X31450Y8930
X30950Y8730
X32450Y9330
X32550Y9880
X32850Y10380
X28750Y8380
X26200Y9080
X34450Y13630
X33900Y14380
X32800Y14880
X31650Y15280
X32350Y15980
X39050Y18930
X38300Y20480
X33750Y20480
X33300Y19930
T03
X29430Y8890
X27430Y8890
T04
X27860Y14560
X28860Y14560
T05
X35050Y16980
X36050Y16980
X36050Y17980
X35050Y17980
X35050Y18980
X36050Y18980
X36050Y19980
X35050Y19980
X35050Y20980
X36050Y20980
X40400Y20980
X41400Y20980
X41400Y19980
X40400Y19980
X40400Y18980
X41400Y18980
X41400Y17980
X40400Y17980
X40400Y16980
X41400Y16980
X43900Y16980
X44900Y16980
X44900Y17980
X43900Y17980
X43900Y18980
X44900Y18980
X44900Y19980
X43900Y19980
X43900Y20980
X44900Y20980
X44900Y9980
X43900Y9980
X43900Y8980
X44900Y8980
X44900Y7980
X43900Y7980
X43900Y6980
X44900Y6980
X44900Y5980
X43900Y5980
X41400Y5980
X40400Y5980
X40400Y6980
X41400Y6980
X41400Y7980
X40400Y7980
X40400Y8980
X41400Y8980
X41400Y9980
X40400Y9980
X37900Y9980
X36900Y9980
X36900Y8980
X37900Y8980
X37900Y7980
X36900Y7980
X36900Y6980
X37900Y6980
X37900Y5980
X36900Y5980
X37000Y3280
X36000Y3280
X35000Y3280
X35000Y2280
X36000Y2280
X37000Y2280
X38000Y2280
X39000Y2280
X40000Y2280
X41000Y2280
X42000Y2280
X43000Y2280
X44000Y2280
X45000Y2280
X46000Y2280
X47000Y2280
X47000Y3280
X46000Y3280
X45000Y3280
X44000Y3280
X43000Y3280
X42000Y3280
X41000Y3280
X40000Y3280
X39000Y3280
X38000Y3280
X12100Y8130
X11100Y8130
X11100Y9130
X12100Y9130
X12100Y10130
X11100Y10130
X11100Y11130
X12100Y11130
X12100Y12130
X11100Y12130
X11100Y13130
X12100Y13130
X12100Y15980
X11100Y15980
X11100Y16980
X12100Y16980
X12100Y17980
X11100Y17980
X11100Y18980
X12100Y18980
X12100Y19980
X11100Y19980
X11100Y20980
X12100Y20980
T06
X47450Y9980
X47450Y8980
X47450Y7980
X47450Y6980
X47450Y5980
X11612Y4585
X11612Y2675
T07
X13550Y3130
X18600Y2030
X19600Y2030
X20600Y2030
X21600Y2030
X22600Y2030
X23600Y2030
X25600Y2030
X26600Y2030
X27600Y2030
X28600Y2030
X29600Y2030
X30600Y2030
X14100Y6130
X13100Y6130
X12100Y6130
X30600Y11030
X31600Y11030
X31600Y12030
X30600Y12030
X30600Y13030
X31600Y13030
X40900Y13480
X45370Y13070
X47930Y13070
X47930Y11290
X45370Y11290
X32650Y21030
X30600Y21030
X29600Y21030
X28600Y21030
X27600Y21030
X26600Y21030
X25600Y21030
X24600Y21030
X23600Y21030
X22100Y21030
X21100Y21030
X20100Y21030
X19100Y21030
X18100Y21030
X17100Y21030
X16100Y21030
X15100Y21030
X19050Y17380
T08
X47370Y17410
X47370Y16410
X47370Y15410
T09
X10419Y2557
X10419Y4703
T10
X16450Y6125
X37905Y16165
M30
