G75*
%MOIN*%
%OFA0B0*%
%FSLAX24Y24*%
%IPPOS*%
%LPD*%
%AMOC8*
5,1,8,0,0,1.08239X$1,22.5*
%
%ADD10C,0.0000*%
D10*
X009750Y000930D02*
X009750Y022326D01*
X049120Y022326D01*
X049120Y000930D01*
X009750Y000930D01*
X015879Y006125D02*
X015881Y006172D01*
X015887Y006219D01*
X015896Y006265D01*
X015910Y006310D01*
X015927Y006354D01*
X015948Y006397D01*
X015972Y006437D01*
X015999Y006476D01*
X016030Y006512D01*
X016063Y006545D01*
X016099Y006576D01*
X016138Y006603D01*
X016178Y006627D01*
X016221Y006648D01*
X016265Y006665D01*
X016310Y006679D01*
X016356Y006688D01*
X016403Y006694D01*
X016450Y006696D01*
X016497Y006694D01*
X016544Y006688D01*
X016590Y006679D01*
X016635Y006665D01*
X016679Y006648D01*
X016722Y006627D01*
X016762Y006603D01*
X016801Y006576D01*
X016837Y006545D01*
X016870Y006512D01*
X016901Y006476D01*
X016928Y006437D01*
X016952Y006397D01*
X016973Y006354D01*
X016990Y006310D01*
X017004Y006265D01*
X017013Y006219D01*
X017019Y006172D01*
X017021Y006125D01*
X017019Y006078D01*
X017013Y006031D01*
X017004Y005985D01*
X016990Y005940D01*
X016973Y005896D01*
X016952Y005853D01*
X016928Y005813D01*
X016901Y005774D01*
X016870Y005738D01*
X016837Y005705D01*
X016801Y005674D01*
X016762Y005647D01*
X016722Y005623D01*
X016679Y005602D01*
X016635Y005585D01*
X016590Y005571D01*
X016544Y005562D01*
X016497Y005556D01*
X016450Y005554D01*
X016403Y005556D01*
X016356Y005562D01*
X016310Y005571D01*
X016265Y005585D01*
X016221Y005602D01*
X016178Y005623D01*
X016138Y005647D01*
X016099Y005674D01*
X016063Y005705D01*
X016030Y005738D01*
X015999Y005774D01*
X015972Y005813D01*
X015948Y005853D01*
X015927Y005896D01*
X015910Y005940D01*
X015896Y005985D01*
X015887Y006031D01*
X015881Y006078D01*
X015879Y006125D01*
X037334Y016165D02*
X037336Y016212D01*
X037342Y016259D01*
X037351Y016305D01*
X037365Y016350D01*
X037382Y016394D01*
X037403Y016437D01*
X037427Y016477D01*
X037454Y016516D01*
X037485Y016552D01*
X037518Y016585D01*
X037554Y016616D01*
X037593Y016643D01*
X037633Y016667D01*
X037676Y016688D01*
X037720Y016705D01*
X037765Y016719D01*
X037811Y016728D01*
X037858Y016734D01*
X037905Y016736D01*
X037952Y016734D01*
X037999Y016728D01*
X038045Y016719D01*
X038090Y016705D01*
X038134Y016688D01*
X038177Y016667D01*
X038217Y016643D01*
X038256Y016616D01*
X038292Y016585D01*
X038325Y016552D01*
X038356Y016516D01*
X038383Y016477D01*
X038407Y016437D01*
X038428Y016394D01*
X038445Y016350D01*
X038459Y016305D01*
X038468Y016259D01*
X038474Y016212D01*
X038476Y016165D01*
X038474Y016118D01*
X038468Y016071D01*
X038459Y016025D01*
X038445Y015980D01*
X038428Y015936D01*
X038407Y015893D01*
X038383Y015853D01*
X038356Y015814D01*
X038325Y015778D01*
X038292Y015745D01*
X038256Y015714D01*
X038217Y015687D01*
X038177Y015663D01*
X038134Y015642D01*
X038090Y015625D01*
X038045Y015611D01*
X037999Y015602D01*
X037952Y015596D01*
X037905Y015594D01*
X037858Y015596D01*
X037811Y015602D01*
X037765Y015611D01*
X037720Y015625D01*
X037676Y015642D01*
X037633Y015663D01*
X037593Y015687D01*
X037554Y015714D01*
X037518Y015745D01*
X037485Y015778D01*
X037454Y015814D01*
X037427Y015853D01*
X037403Y015893D01*
X037382Y015936D01*
X037365Y015980D01*
X037351Y016025D01*
X037342Y016071D01*
X037336Y016118D01*
X037334Y016165D01*
M02*
