G75*
%MOIN*%
%OFA0B0*%
%FSLAX24Y24*%
%IPPOS*%
%LPD*%
%AMOC8*
5,1,8,0,0,1.08239X$1,22.5*
%
%ADD10C,0.0000*%
%ADD11R,0.0354X0.0118*%
%ADD12R,0.0118X0.0354*%
%ADD13C,0.0740*%
%ADD14R,0.0560X0.0560*%
%ADD15OC8,0.0560*%
%ADD16R,0.0394X0.0433*%
%ADD17R,0.0433X0.0394*%
%ADD18C,0.0660*%
%ADD19C,0.0650*%
%ADD20C,0.0650*%
%ADD21C,0.0600*%
%ADD22OC8,0.0600*%
%ADD23R,0.0600X0.0600*%
%ADD24R,0.0315X0.0315*%
%ADD25C,0.0594*%
%ADD26R,0.0472X0.0217*%
%ADD27C,0.0600*%
%ADD28R,0.0799X0.1299*%
%ADD29C,0.0394*%
%ADD30R,0.0689X0.0157*%
%ADD31R,0.0787X0.0787*%
%ADD32R,0.0276X0.0787*%
%ADD33R,0.0787X0.0394*%
%ADD34C,0.0396*%
%ADD35C,0.0100*%
%ADD36C,0.0160*%
%ADD37C,0.0240*%
%ADD38C,0.0310*%
%ADD39C,0.0120*%
D10*
X009750Y000930D02*
X009750Y022326D01*
X049120Y022326D01*
X049120Y000930D01*
X009750Y000930D01*
X015879Y006125D02*
X015881Y006172D01*
X015887Y006219D01*
X015896Y006265D01*
X015910Y006310D01*
X015927Y006354D01*
X015948Y006397D01*
X015972Y006437D01*
X015999Y006476D01*
X016030Y006512D01*
X016063Y006545D01*
X016099Y006576D01*
X016138Y006603D01*
X016178Y006627D01*
X016221Y006648D01*
X016265Y006665D01*
X016310Y006679D01*
X016356Y006688D01*
X016403Y006694D01*
X016450Y006696D01*
X016497Y006694D01*
X016544Y006688D01*
X016590Y006679D01*
X016635Y006665D01*
X016679Y006648D01*
X016722Y006627D01*
X016762Y006603D01*
X016801Y006576D01*
X016837Y006545D01*
X016870Y006512D01*
X016901Y006476D01*
X016928Y006437D01*
X016952Y006397D01*
X016973Y006354D01*
X016990Y006310D01*
X017004Y006265D01*
X017013Y006219D01*
X017019Y006172D01*
X017021Y006125D01*
X017019Y006078D01*
X017013Y006031D01*
X017004Y005985D01*
X016990Y005940D01*
X016973Y005896D01*
X016952Y005853D01*
X016928Y005813D01*
X016901Y005774D01*
X016870Y005738D01*
X016837Y005705D01*
X016801Y005674D01*
X016762Y005647D01*
X016722Y005623D01*
X016679Y005602D01*
X016635Y005585D01*
X016590Y005571D01*
X016544Y005562D01*
X016497Y005556D01*
X016450Y005554D01*
X016403Y005556D01*
X016356Y005562D01*
X016310Y005571D01*
X016265Y005585D01*
X016221Y005602D01*
X016178Y005623D01*
X016138Y005647D01*
X016099Y005674D01*
X016063Y005705D01*
X016030Y005738D01*
X015999Y005774D01*
X015972Y005813D01*
X015948Y005853D01*
X015927Y005896D01*
X015910Y005940D01*
X015896Y005985D01*
X015887Y006031D01*
X015881Y006078D01*
X015879Y006125D01*
X037334Y016165D02*
X037336Y016212D01*
X037342Y016259D01*
X037351Y016305D01*
X037365Y016350D01*
X037382Y016394D01*
X037403Y016437D01*
X037427Y016477D01*
X037454Y016516D01*
X037485Y016552D01*
X037518Y016585D01*
X037554Y016616D01*
X037593Y016643D01*
X037633Y016667D01*
X037676Y016688D01*
X037720Y016705D01*
X037765Y016719D01*
X037811Y016728D01*
X037858Y016734D01*
X037905Y016736D01*
X037952Y016734D01*
X037999Y016728D01*
X038045Y016719D01*
X038090Y016705D01*
X038134Y016688D01*
X038177Y016667D01*
X038217Y016643D01*
X038256Y016616D01*
X038292Y016585D01*
X038325Y016552D01*
X038356Y016516D01*
X038383Y016477D01*
X038407Y016437D01*
X038428Y016394D01*
X038445Y016350D01*
X038459Y016305D01*
X038468Y016259D01*
X038474Y016212D01*
X038476Y016165D01*
X038474Y016118D01*
X038468Y016071D01*
X038459Y016025D01*
X038445Y015980D01*
X038428Y015936D01*
X038407Y015893D01*
X038383Y015853D01*
X038356Y015814D01*
X038325Y015778D01*
X038292Y015745D01*
X038256Y015714D01*
X038217Y015687D01*
X038177Y015663D01*
X038134Y015642D01*
X038090Y015625D01*
X038045Y015611D01*
X037999Y015602D01*
X037952Y015596D01*
X037905Y015594D01*
X037858Y015596D01*
X037811Y015602D01*
X037765Y015611D01*
X037720Y015625D01*
X037676Y015642D01*
X037633Y015663D01*
X037593Y015687D01*
X037554Y015714D01*
X037518Y015745D01*
X037485Y015778D01*
X037454Y015814D01*
X037427Y015853D01*
X037403Y015893D01*
X037382Y015936D01*
X037365Y015980D01*
X037351Y016025D01*
X037342Y016071D01*
X037336Y016118D01*
X037334Y016165D01*
D11*
G36*
X026727Y012184D02*
X026478Y011935D01*
X026395Y012018D01*
X026644Y012267D01*
X026727Y012184D01*
G37*
G36*
X026588Y012323D02*
X026339Y012074D01*
X026256Y012157D01*
X026505Y012406D01*
X026588Y012323D01*
G37*
G36*
X026449Y012462D02*
X026200Y012213D01*
X026117Y012296D01*
X026366Y012545D01*
X026449Y012462D01*
G37*
G36*
X026310Y012601D02*
X026061Y012352D01*
X025978Y012435D01*
X026227Y012684D01*
X026310Y012601D01*
G37*
G36*
X026171Y012740D02*
X025922Y012491D01*
X025839Y012574D01*
X026088Y012823D01*
X026171Y012740D01*
G37*
G36*
X026031Y012880D02*
X025782Y012631D01*
X025699Y012714D01*
X025948Y012963D01*
X026031Y012880D01*
G37*
G36*
X025892Y013019D02*
X025643Y012770D01*
X025560Y012853D01*
X025809Y013102D01*
X025892Y013019D01*
G37*
G36*
X025753Y013158D02*
X025504Y012909D01*
X025421Y012992D01*
X025670Y013241D01*
X025753Y013158D01*
G37*
G36*
X025614Y013297D02*
X025365Y013048D01*
X025282Y013131D01*
X025531Y013380D01*
X025614Y013297D01*
G37*
G36*
X025475Y013436D02*
X025226Y013187D01*
X025143Y013270D01*
X025392Y013519D01*
X025475Y013436D01*
G37*
G36*
X025335Y013576D02*
X025086Y013327D01*
X025003Y013410D01*
X025252Y013659D01*
X025335Y013576D01*
G37*
G36*
X025196Y013715D02*
X024947Y013466D01*
X024864Y013549D01*
X025113Y013798D01*
X025196Y013715D01*
G37*
G36*
X025057Y013854D02*
X024808Y013605D01*
X024725Y013688D01*
X024974Y013937D01*
X025057Y013854D01*
G37*
G36*
X024918Y013993D02*
X024669Y013744D01*
X024586Y013827D01*
X024835Y014076D01*
X024918Y013993D01*
G37*
G36*
X024779Y014132D02*
X024530Y013883D01*
X024447Y013966D01*
X024696Y014215D01*
X024779Y014132D01*
G37*
G36*
X024639Y014272D02*
X024390Y014023D01*
X024307Y014106D01*
X024556Y014355D01*
X024639Y014272D01*
G37*
G36*
X024500Y014411D02*
X024251Y014162D01*
X024168Y014245D01*
X024417Y014494D01*
X024500Y014411D01*
G37*
G36*
X024361Y014550D02*
X024112Y014301D01*
X024029Y014384D01*
X024278Y014633D01*
X024361Y014550D01*
G37*
G36*
X024222Y014689D02*
X023973Y014440D01*
X023890Y014523D01*
X024139Y014772D01*
X024222Y014689D01*
G37*
G36*
X024083Y014828D02*
X023834Y014579D01*
X023751Y014662D01*
X024000Y014911D01*
X024083Y014828D01*
G37*
G36*
X023943Y014968D02*
X023694Y014719D01*
X023611Y014802D01*
X023860Y015051D01*
X023943Y014968D01*
G37*
G36*
X023804Y015107D02*
X023555Y014858D01*
X023472Y014941D01*
X023721Y015190D01*
X023804Y015107D01*
G37*
G36*
X023665Y015246D02*
X023416Y014997D01*
X023333Y015080D01*
X023582Y015329D01*
X023665Y015246D01*
G37*
G36*
X023526Y015385D02*
X023277Y015136D01*
X023194Y015219D01*
X023443Y015468D01*
X023526Y015385D01*
G37*
G36*
X023387Y015524D02*
X023138Y015275D01*
X023055Y015358D01*
X023304Y015607D01*
X023387Y015524D01*
G37*
G36*
X018905Y011042D02*
X018656Y010793D01*
X018573Y010876D01*
X018822Y011125D01*
X018905Y011042D01*
G37*
G36*
X019044Y010903D02*
X018795Y010654D01*
X018712Y010737D01*
X018961Y010986D01*
X019044Y010903D01*
G37*
G36*
X019183Y010764D02*
X018934Y010515D01*
X018851Y010598D01*
X019100Y010847D01*
X019183Y010764D01*
G37*
G36*
X019322Y010625D02*
X019073Y010376D01*
X018990Y010459D01*
X019239Y010708D01*
X019322Y010625D01*
G37*
G36*
X019461Y010486D02*
X019212Y010237D01*
X019129Y010320D01*
X019378Y010569D01*
X019461Y010486D01*
G37*
G36*
X019601Y010346D02*
X019352Y010097D01*
X019269Y010180D01*
X019518Y010429D01*
X019601Y010346D01*
G37*
G36*
X019740Y010207D02*
X019491Y009958D01*
X019408Y010041D01*
X019657Y010290D01*
X019740Y010207D01*
G37*
G36*
X019879Y010068D02*
X019630Y009819D01*
X019547Y009902D01*
X019796Y010151D01*
X019879Y010068D01*
G37*
G36*
X020018Y009929D02*
X019769Y009680D01*
X019686Y009763D01*
X019935Y010012D01*
X020018Y009929D01*
G37*
G36*
X020157Y009790D02*
X019908Y009541D01*
X019825Y009624D01*
X020074Y009873D01*
X020157Y009790D01*
G37*
G36*
X020297Y009650D02*
X020048Y009401D01*
X019965Y009484D01*
X020214Y009733D01*
X020297Y009650D01*
G37*
G36*
X020436Y009511D02*
X020187Y009262D01*
X020104Y009345D01*
X020353Y009594D01*
X020436Y009511D01*
G37*
G36*
X020575Y009372D02*
X020326Y009123D01*
X020243Y009206D01*
X020492Y009455D01*
X020575Y009372D01*
G37*
G36*
X020714Y009233D02*
X020465Y008984D01*
X020382Y009067D01*
X020631Y009316D01*
X020714Y009233D01*
G37*
G36*
X020853Y009094D02*
X020604Y008845D01*
X020521Y008928D01*
X020770Y009177D01*
X020853Y009094D01*
G37*
G36*
X020993Y008954D02*
X020744Y008705D01*
X020661Y008788D01*
X020910Y009037D01*
X020993Y008954D01*
G37*
G36*
X021132Y008815D02*
X020883Y008566D01*
X020800Y008649D01*
X021049Y008898D01*
X021132Y008815D01*
G37*
G36*
X021271Y008676D02*
X021022Y008427D01*
X020939Y008510D01*
X021188Y008759D01*
X021271Y008676D01*
G37*
G36*
X021410Y008537D02*
X021161Y008288D01*
X021078Y008371D01*
X021327Y008620D01*
X021410Y008537D01*
G37*
G36*
X021549Y008398D02*
X021300Y008149D01*
X021217Y008232D01*
X021466Y008481D01*
X021549Y008398D01*
G37*
G36*
X021689Y008258D02*
X021440Y008009D01*
X021357Y008092D01*
X021606Y008341D01*
X021689Y008258D01*
G37*
G36*
X021828Y008119D02*
X021579Y007870D01*
X021496Y007953D01*
X021745Y008202D01*
X021828Y008119D01*
G37*
G36*
X021967Y007980D02*
X021718Y007731D01*
X021635Y007814D01*
X021884Y008063D01*
X021967Y007980D01*
G37*
G36*
X022106Y007841D02*
X021857Y007592D01*
X021774Y007675D01*
X022023Y007924D01*
X022106Y007841D01*
G37*
G36*
X022245Y007702D02*
X021996Y007453D01*
X021913Y007536D01*
X022162Y007785D01*
X022245Y007702D01*
G37*
D12*
G36*
X023387Y007536D02*
X023304Y007453D01*
X023055Y007702D01*
X023138Y007785D01*
X023387Y007536D01*
G37*
G36*
X023526Y007675D02*
X023443Y007592D01*
X023194Y007841D01*
X023277Y007924D01*
X023526Y007675D01*
G37*
G36*
X023665Y007814D02*
X023582Y007731D01*
X023333Y007980D01*
X023416Y008063D01*
X023665Y007814D01*
G37*
G36*
X023804Y007953D02*
X023721Y007870D01*
X023472Y008119D01*
X023555Y008202D01*
X023804Y007953D01*
G37*
G36*
X023943Y008092D02*
X023860Y008009D01*
X023611Y008258D01*
X023694Y008341D01*
X023943Y008092D01*
G37*
G36*
X024083Y008232D02*
X024000Y008149D01*
X023751Y008398D01*
X023834Y008481D01*
X024083Y008232D01*
G37*
G36*
X024222Y008371D02*
X024139Y008288D01*
X023890Y008537D01*
X023973Y008620D01*
X024222Y008371D01*
G37*
G36*
X024361Y008510D02*
X024278Y008427D01*
X024029Y008676D01*
X024112Y008759D01*
X024361Y008510D01*
G37*
G36*
X024500Y008649D02*
X024417Y008566D01*
X024168Y008815D01*
X024251Y008898D01*
X024500Y008649D01*
G37*
G36*
X024639Y008788D02*
X024556Y008705D01*
X024307Y008954D01*
X024390Y009037D01*
X024639Y008788D01*
G37*
G36*
X024779Y008928D02*
X024696Y008845D01*
X024447Y009094D01*
X024530Y009177D01*
X024779Y008928D01*
G37*
G36*
X024918Y009067D02*
X024835Y008984D01*
X024586Y009233D01*
X024669Y009316D01*
X024918Y009067D01*
G37*
G36*
X025057Y009206D02*
X024974Y009123D01*
X024725Y009372D01*
X024808Y009455D01*
X025057Y009206D01*
G37*
G36*
X025196Y009345D02*
X025113Y009262D01*
X024864Y009511D01*
X024947Y009594D01*
X025196Y009345D01*
G37*
G36*
X025335Y009484D02*
X025252Y009401D01*
X025003Y009650D01*
X025086Y009733D01*
X025335Y009484D01*
G37*
G36*
X025475Y009624D02*
X025392Y009541D01*
X025143Y009790D01*
X025226Y009873D01*
X025475Y009624D01*
G37*
G36*
X025614Y009763D02*
X025531Y009680D01*
X025282Y009929D01*
X025365Y010012D01*
X025614Y009763D01*
G37*
G36*
X025753Y009902D02*
X025670Y009819D01*
X025421Y010068D01*
X025504Y010151D01*
X025753Y009902D01*
G37*
G36*
X025892Y010041D02*
X025809Y009958D01*
X025560Y010207D01*
X025643Y010290D01*
X025892Y010041D01*
G37*
G36*
X026031Y010180D02*
X025948Y010097D01*
X025699Y010346D01*
X025782Y010429D01*
X026031Y010180D01*
G37*
G36*
X026171Y010320D02*
X026088Y010237D01*
X025839Y010486D01*
X025922Y010569D01*
X026171Y010320D01*
G37*
G36*
X026310Y010459D02*
X026227Y010376D01*
X025978Y010625D01*
X026061Y010708D01*
X026310Y010459D01*
G37*
G36*
X026449Y010598D02*
X026366Y010515D01*
X026117Y010764D01*
X026200Y010847D01*
X026449Y010598D01*
G37*
G36*
X026588Y010737D02*
X026505Y010654D01*
X026256Y010903D01*
X026339Y010986D01*
X026588Y010737D01*
G37*
G36*
X026727Y010876D02*
X026644Y010793D01*
X026395Y011042D01*
X026478Y011125D01*
X026727Y010876D01*
G37*
G36*
X020853Y013966D02*
X020770Y013883D01*
X020521Y014132D01*
X020604Y014215D01*
X020853Y013966D01*
G37*
G36*
X020993Y014106D02*
X020910Y014023D01*
X020661Y014272D01*
X020744Y014355D01*
X020993Y014106D01*
G37*
G36*
X021132Y014245D02*
X021049Y014162D01*
X020800Y014411D01*
X020883Y014494D01*
X021132Y014245D01*
G37*
G36*
X021271Y014384D02*
X021188Y014301D01*
X020939Y014550D01*
X021022Y014633D01*
X021271Y014384D01*
G37*
G36*
X021410Y014523D02*
X021327Y014440D01*
X021078Y014689D01*
X021161Y014772D01*
X021410Y014523D01*
G37*
G36*
X021549Y014662D02*
X021466Y014579D01*
X021217Y014828D01*
X021300Y014911D01*
X021549Y014662D01*
G37*
G36*
X021689Y014802D02*
X021606Y014719D01*
X021357Y014968D01*
X021440Y015051D01*
X021689Y014802D01*
G37*
G36*
X021828Y014941D02*
X021745Y014858D01*
X021496Y015107D01*
X021579Y015190D01*
X021828Y014941D01*
G37*
G36*
X021967Y015080D02*
X021884Y014997D01*
X021635Y015246D01*
X021718Y015329D01*
X021967Y015080D01*
G37*
G36*
X022106Y015219D02*
X022023Y015136D01*
X021774Y015385D01*
X021857Y015468D01*
X022106Y015219D01*
G37*
G36*
X022245Y015358D02*
X022162Y015275D01*
X021913Y015524D01*
X021996Y015607D01*
X022245Y015358D01*
G37*
G36*
X020714Y013827D02*
X020631Y013744D01*
X020382Y013993D01*
X020465Y014076D01*
X020714Y013827D01*
G37*
G36*
X020575Y013688D02*
X020492Y013605D01*
X020243Y013854D01*
X020326Y013937D01*
X020575Y013688D01*
G37*
G36*
X020436Y013549D02*
X020353Y013466D01*
X020104Y013715D01*
X020187Y013798D01*
X020436Y013549D01*
G37*
G36*
X020297Y013410D02*
X020214Y013327D01*
X019965Y013576D01*
X020048Y013659D01*
X020297Y013410D01*
G37*
G36*
X020157Y013270D02*
X020074Y013187D01*
X019825Y013436D01*
X019908Y013519D01*
X020157Y013270D01*
G37*
G36*
X020018Y013131D02*
X019935Y013048D01*
X019686Y013297D01*
X019769Y013380D01*
X020018Y013131D01*
G37*
G36*
X019879Y012992D02*
X019796Y012909D01*
X019547Y013158D01*
X019630Y013241D01*
X019879Y012992D01*
G37*
G36*
X019740Y012853D02*
X019657Y012770D01*
X019408Y013019D01*
X019491Y013102D01*
X019740Y012853D01*
G37*
G36*
X019601Y012714D02*
X019518Y012631D01*
X019269Y012880D01*
X019352Y012963D01*
X019601Y012714D01*
G37*
G36*
X019461Y012574D02*
X019378Y012491D01*
X019129Y012740D01*
X019212Y012823D01*
X019461Y012574D01*
G37*
G36*
X019322Y012435D02*
X019239Y012352D01*
X018990Y012601D01*
X019073Y012684D01*
X019322Y012435D01*
G37*
G36*
X019183Y012296D02*
X019100Y012213D01*
X018851Y012462D01*
X018934Y012545D01*
X019183Y012296D01*
G37*
G36*
X019044Y012157D02*
X018961Y012074D01*
X018712Y012323D01*
X018795Y012406D01*
X019044Y012157D01*
G37*
G36*
X018905Y012018D02*
X018822Y011935D01*
X018573Y012184D01*
X018656Y012267D01*
X018905Y012018D01*
G37*
D13*
X019100Y021030D03*
X018100Y021030D03*
X017100Y021030D03*
X016100Y021030D03*
X015100Y021030D03*
X020100Y021030D03*
X021100Y021030D03*
X022100Y021030D03*
X023600Y021030D03*
X024600Y021030D03*
X025600Y021030D03*
X026600Y021030D03*
X027600Y021030D03*
X028600Y021030D03*
X029600Y021030D03*
X030600Y021030D03*
X045370Y013070D03*
X047930Y013070D03*
X047930Y011290D03*
X045370Y011290D03*
X030600Y002030D03*
X029600Y002030D03*
X028600Y002030D03*
X027600Y002030D03*
X026600Y002030D03*
X025600Y002030D03*
X023600Y002030D03*
X022600Y002030D03*
X021600Y002030D03*
X020600Y002030D03*
X019600Y002030D03*
X018600Y002030D03*
D14*
X036900Y005980D03*
X040400Y005980D03*
X043900Y005980D03*
X047000Y003280D03*
X043900Y016980D03*
X040400Y016980D03*
X035050Y016980D03*
X012100Y013130D03*
X012100Y020980D03*
D15*
X011100Y020980D03*
X011100Y019980D03*
X012100Y019980D03*
X012100Y018980D03*
X011100Y018980D03*
X011100Y017980D03*
X012100Y017980D03*
X012100Y016980D03*
X011100Y016980D03*
X011100Y015980D03*
X012100Y015980D03*
X011100Y013130D03*
X011100Y012130D03*
X012100Y012130D03*
X012100Y011130D03*
X011100Y011130D03*
X011100Y010130D03*
X012100Y010130D03*
X012100Y009130D03*
X011100Y009130D03*
X011100Y008130D03*
X012100Y008130D03*
X035000Y003280D03*
X036000Y003280D03*
X037000Y003280D03*
X038000Y003280D03*
X039000Y003280D03*
X040000Y003280D03*
X041000Y003280D03*
X042000Y003280D03*
X043000Y003280D03*
X044000Y003280D03*
X045000Y003280D03*
X046000Y003280D03*
X046000Y002280D03*
X045000Y002280D03*
X044000Y002280D03*
X043000Y002280D03*
X042000Y002280D03*
X041000Y002280D03*
X040000Y002280D03*
X039000Y002280D03*
X038000Y002280D03*
X037000Y002280D03*
X036000Y002280D03*
X035000Y002280D03*
X037900Y005980D03*
X037900Y006980D03*
X036900Y006980D03*
X036900Y007980D03*
X037900Y007980D03*
X037900Y008980D03*
X036900Y008980D03*
X036900Y009980D03*
X037900Y009980D03*
X040400Y009980D03*
X041400Y009980D03*
X041400Y008980D03*
X040400Y008980D03*
X040400Y007980D03*
X041400Y007980D03*
X041400Y006980D03*
X040400Y006980D03*
X041400Y005980D03*
X043900Y006980D03*
X044900Y006980D03*
X044900Y007980D03*
X043900Y007980D03*
X043900Y008980D03*
X044900Y008980D03*
X044900Y009980D03*
X043900Y009980D03*
X044900Y005980D03*
X047000Y002280D03*
X044900Y016980D03*
X044900Y017980D03*
X043900Y017980D03*
X043900Y018980D03*
X044900Y018980D03*
X044900Y019980D03*
X043900Y019980D03*
X043900Y020980D03*
X044900Y020980D03*
X041400Y020980D03*
X040400Y020980D03*
X040400Y019980D03*
X041400Y019980D03*
X041400Y018980D03*
X040400Y018980D03*
X040400Y017980D03*
X041400Y017980D03*
X041400Y016980D03*
X036050Y016980D03*
X036050Y017980D03*
X035050Y017980D03*
X035050Y018980D03*
X036050Y018980D03*
X036050Y019980D03*
X035050Y019980D03*
X035050Y020980D03*
X036050Y020980D03*
D16*
X029700Y015165D03*
X029700Y014495D03*
X028900Y011815D03*
X027500Y011815D03*
X027500Y011145D03*
X028900Y011145D03*
X026250Y006215D03*
X026250Y005545D03*
X025450Y005545D03*
X024650Y005545D03*
X024650Y006215D03*
X025450Y006215D03*
X023850Y006215D03*
X023850Y005545D03*
X018050Y005395D03*
X018050Y006065D03*
X017850Y003515D03*
X017850Y002845D03*
X015250Y002795D03*
X015250Y003465D03*
X010700Y006195D03*
X010700Y006865D03*
X022550Y016145D03*
X022550Y016815D03*
X023500Y017065D03*
X023500Y016395D03*
D17*
G36*
X024824Y017335D02*
X025129Y017030D01*
X024850Y016751D01*
X024545Y017056D01*
X024824Y017335D01*
G37*
G36*
X024350Y017809D02*
X024655Y017504D01*
X024376Y017225D01*
X024071Y017530D01*
X024350Y017809D01*
G37*
X022785Y017580D03*
X022115Y017580D03*
X019235Y016430D03*
X018565Y016430D03*
G36*
X026105Y013956D02*
X025800Y013651D01*
X025521Y013930D01*
X025826Y014235D01*
X026105Y013956D01*
G37*
G36*
X026579Y014430D02*
X026274Y014125D01*
X025995Y014404D01*
X026300Y014709D01*
X026579Y014430D01*
G37*
X026465Y015280D03*
X027135Y015280D03*
X030365Y015630D03*
X031035Y015630D03*
X031035Y014830D03*
X030365Y014830D03*
X017685Y012080D03*
X017015Y012080D03*
X017015Y011180D03*
X017685Y011180D03*
X017235Y008480D03*
X016565Y008480D03*
X016565Y007780D03*
X017235Y007780D03*
G36*
X019055Y007806D02*
X018750Y007501D01*
X018471Y007780D01*
X018776Y008085D01*
X019055Y007806D01*
G37*
G36*
X019529Y008280D02*
X019224Y007975D01*
X018945Y008254D01*
X019250Y008559D01*
X019529Y008280D01*
G37*
X027415Y007630D03*
X028085Y007630D03*
X028765Y007630D03*
X029435Y007630D03*
X028735Y006830D03*
X028065Y006830D03*
X015235Y001930D03*
X014565Y001930D03*
X013535Y001930D03*
X012865Y001930D03*
X046815Y019480D03*
X047485Y019480D03*
X047485Y020780D03*
X046815Y020780D03*
D18*
X028860Y014560D03*
X027860Y014560D03*
D19*
X027430Y008890D03*
X029430Y008890D03*
D20*
X047045Y015410D02*
X047695Y015410D01*
X047695Y016410D02*
X047045Y016410D01*
X047045Y017410D02*
X047695Y017410D01*
D21*
X040900Y013480D03*
X030600Y013030D03*
X019050Y017380D03*
X032650Y021030D03*
X013550Y003130D03*
D22*
X030600Y011030D03*
X031600Y011030D03*
X031600Y012030D03*
X030600Y012030D03*
D23*
X031600Y013030D03*
D24*
X046905Y020180D03*
X047495Y020180D03*
X047495Y021480D03*
X046905Y021480D03*
D25*
X047153Y009980D02*
X047747Y009980D01*
X047747Y008980D02*
X047153Y008980D01*
X047153Y007980D02*
X047747Y007980D01*
X047747Y006980D02*
X047153Y006980D01*
X047153Y005980D02*
X047747Y005980D01*
X011612Y005178D02*
X011612Y004585D01*
X011612Y002675D02*
X011612Y002082D01*
D26*
X016038Y002456D03*
X016038Y002830D03*
X016038Y003204D03*
X017062Y003204D03*
X017062Y002456D03*
D27*
X014100Y005830D02*
X014100Y006430D01*
X013100Y006430D02*
X013100Y005830D01*
X012100Y005830D02*
X012100Y006430D01*
D28*
X013350Y008730D03*
X015050Y008730D03*
D29*
X016500Y004230D03*
X048550Y004230D03*
X048550Y021480D03*
D30*
X011531Y004142D03*
X011531Y003886D03*
X011531Y003630D03*
X011531Y003374D03*
X011531Y003118D03*
D31*
X010419Y002557D03*
X010419Y004703D03*
D32*
X011089Y004850D03*
X011089Y002410D03*
D33*
X010419Y003335D03*
X010419Y003925D03*
D34*
X017600Y001930D03*
X019200Y003780D03*
X021900Y006180D03*
X021500Y006530D03*
X020800Y006480D03*
X020450Y006880D03*
X020100Y006480D03*
X019750Y006880D03*
X019400Y006480D03*
X019050Y006880D03*
X018650Y006480D03*
X017900Y007780D03*
X018750Y008630D03*
X017550Y009780D03*
X016950Y009780D03*
X016350Y009780D03*
X015750Y009780D03*
X014250Y011080D03*
X015300Y011630D03*
X020350Y012180D03*
X020950Y012530D03*
X021050Y011630D03*
X021150Y011130D03*
X022750Y011980D03*
X023400Y011330D03*
X023100Y010780D03*
X025250Y010530D03*
X025700Y011080D03*
X026900Y011680D03*
X028200Y011130D03*
X027950Y012580D03*
X027350Y012580D03*
X025350Y012080D03*
X025000Y012480D03*
X023950Y013630D03*
X025600Y014630D03*
X025550Y015580D03*
X026250Y016280D03*
X026800Y016280D03*
X027700Y016180D03*
X025400Y017480D03*
X024150Y016730D03*
X023500Y017580D03*
X019100Y015630D03*
X017550Y014530D03*
X016950Y014530D03*
X016350Y014530D03*
X015750Y014530D03*
X015750Y017330D03*
X016500Y017330D03*
X017150Y017330D03*
X017750Y017330D03*
X031650Y015280D03*
X032800Y014880D03*
X033900Y014380D03*
X034450Y013630D03*
X032350Y015980D03*
X039050Y018930D03*
X038300Y020480D03*
X033750Y020480D03*
X033300Y019930D03*
X032850Y010380D03*
X032550Y009880D03*
X032450Y009330D03*
X031950Y009130D03*
X031450Y008930D03*
X030950Y008730D03*
X028750Y008380D03*
X026200Y009080D03*
X024950Y008430D03*
X025450Y008080D03*
X025050Y007730D03*
X025450Y007380D03*
X024300Y007430D03*
X024000Y007030D03*
X022650Y006580D03*
X022250Y006930D03*
X023150Y008680D03*
X023650Y008980D03*
X022600Y009530D03*
X022350Y008880D03*
X020900Y009930D03*
X032500Y004630D03*
X032750Y002730D03*
X039650Y005130D03*
X024900Y004230D03*
X024550Y002380D03*
D35*
X025600Y002430D02*
X025600Y002030D01*
X025600Y002430D02*
X026700Y003530D01*
X029150Y003530D01*
X029400Y003780D01*
X029400Y005130D01*
X030950Y006680D01*
X030950Y008730D01*
X030200Y009480D01*
X026370Y009480D01*
X025726Y010124D01*
X025587Y009985D02*
X025250Y010322D01*
X025250Y010530D01*
X025700Y010707D02*
X025700Y011080D01*
X025700Y010707D02*
X026005Y010403D01*
X026527Y009880D01*
X031200Y009880D01*
X031950Y009130D01*
X031950Y007080D01*
X029800Y004930D01*
X029800Y003530D01*
X029400Y003130D01*
X028350Y003130D01*
X027600Y002380D01*
X027600Y002030D01*
X026600Y002030D02*
X026600Y002530D01*
X027400Y003330D01*
X029300Y003330D01*
X029600Y003630D01*
X029600Y005030D01*
X031450Y006880D01*
X031450Y008930D01*
X030700Y009680D01*
X026449Y009680D01*
X025865Y010263D01*
X026144Y010542D02*
X026605Y010080D01*
X031700Y010080D01*
X032450Y009330D01*
X032450Y007280D01*
X030000Y004830D01*
X030000Y003430D01*
X028600Y002030D01*
X029600Y002030D02*
X030200Y002630D01*
X030200Y004730D01*
X032975Y007505D01*
X032975Y009455D01*
X032550Y009880D01*
X032150Y010280D01*
X026684Y010280D01*
X026283Y010681D01*
X026422Y010820D02*
X026762Y010480D01*
X032750Y010480D01*
X032850Y010380D01*
X033300Y009930D01*
X033300Y007530D01*
X030400Y004630D01*
X030400Y002230D01*
X030600Y002030D01*
X035500Y002780D02*
X035500Y007980D01*
X036000Y008480D01*
X036400Y008480D01*
X036900Y008980D01*
X036750Y008480D02*
X037400Y008480D01*
X037900Y008980D01*
X036750Y008480D02*
X036550Y008280D01*
X036300Y008280D01*
X035700Y007680D01*
X035700Y005380D01*
X036500Y004580D01*
X036500Y002780D01*
X037000Y002280D01*
X036000Y002280D02*
X035500Y002780D01*
X036700Y004080D02*
X036950Y003830D01*
X037450Y003830D01*
X038000Y003280D01*
X038500Y003730D02*
X038500Y001930D01*
X038650Y001780D01*
X043500Y001780D01*
X044000Y002280D01*
X045000Y002280D02*
X045500Y001780D01*
X047300Y001780D01*
X047550Y002030D01*
X047550Y003880D01*
X046800Y004630D01*
X039500Y004630D01*
X038700Y005430D01*
X038700Y006730D01*
X038450Y006980D01*
X037900Y006980D01*
X037650Y006480D02*
X037150Y005980D01*
X036900Y005980D01*
X036200Y005730D02*
X038000Y003930D01*
X038300Y003930D01*
X038500Y003730D01*
X039150Y004180D02*
X037900Y005430D01*
X037900Y005980D01*
X038300Y006480D02*
X038450Y006330D01*
X038450Y005280D01*
X039350Y004380D01*
X044900Y004380D01*
X046000Y003280D01*
X045500Y002780D02*
X044650Y002780D01*
X044500Y002930D01*
X044500Y004080D01*
X044400Y004180D01*
X039150Y004180D01*
X039650Y005130D02*
X039000Y005780D01*
X039000Y006880D01*
X037900Y007980D01*
X037400Y007480D02*
X037400Y006680D01*
X037200Y006480D01*
X036400Y006480D01*
X036200Y006280D01*
X036200Y005730D01*
X035900Y005480D02*
X035900Y006430D01*
X036200Y006730D01*
X036650Y006730D01*
X036900Y006980D01*
X037400Y007480D02*
X036900Y007980D01*
X037650Y006480D02*
X038300Y006480D01*
X036700Y004680D02*
X035900Y005480D01*
X036700Y004680D02*
X036700Y004080D01*
X033600Y005080D02*
X033150Y004630D01*
X032500Y004630D01*
X033600Y005080D02*
X033600Y009680D01*
X034950Y011030D01*
X043150Y011030D01*
X043550Y010630D01*
X045400Y010630D01*
X045800Y010230D01*
X045800Y008280D01*
X046400Y007980D01*
X047450Y007980D01*
X045400Y010630D02*
X045370Y010660D01*
X045370Y011290D01*
X045370Y013070D02*
X045950Y013650D01*
X045950Y019280D01*
X046150Y019480D01*
X046815Y019480D01*
X047485Y019480D02*
X047485Y020169D01*
X047495Y020180D01*
X046905Y020180D02*
X046855Y020130D01*
X046100Y020130D01*
X045750Y020480D01*
X044750Y020480D01*
X044250Y020980D01*
X043900Y020980D01*
X044400Y020480D02*
X043300Y020480D01*
X042200Y019380D01*
X042200Y016780D01*
X041700Y016280D01*
X040650Y016280D01*
X038900Y014530D01*
X036750Y014530D01*
X033250Y018030D01*
X031900Y018030D01*
X031300Y018630D01*
X021550Y018630D01*
X021050Y018130D01*
X021050Y015635D01*
X021662Y015024D01*
X021801Y015163D02*
X021250Y015714D01*
X021250Y018030D01*
X021650Y018430D01*
X031200Y018430D01*
X031800Y017830D01*
X033150Y017830D01*
X036650Y014330D01*
X039000Y014330D01*
X040750Y016080D01*
X041800Y016080D01*
X042400Y016680D01*
X042400Y018980D01*
X043400Y019980D01*
X043900Y019980D01*
X043450Y019480D02*
X042600Y018630D01*
X042600Y016580D01*
X041900Y015880D01*
X040850Y015880D01*
X039100Y014130D01*
X036550Y014130D01*
X033050Y017630D01*
X031700Y017630D01*
X031100Y018230D01*
X021750Y018230D01*
X021450Y017930D01*
X021450Y015792D01*
X021940Y015302D01*
X022079Y015441D02*
X021650Y015871D01*
X021650Y017580D01*
X022115Y017580D01*
X021650Y017580D02*
X021650Y017830D01*
X021850Y018030D01*
X031000Y018030D01*
X031600Y017430D01*
X032950Y017430D01*
X036450Y013930D01*
X039200Y013930D01*
X040950Y015680D01*
X042000Y015680D01*
X042800Y016480D01*
X042800Y018330D01*
X043450Y018980D01*
X043900Y018980D01*
X043500Y018480D02*
X043000Y017980D01*
X043000Y016380D01*
X042100Y015480D01*
X041050Y015480D01*
X040075Y014505D01*
X040000Y014430D01*
X039250Y013680D01*
X036400Y013680D01*
X032850Y017230D01*
X031500Y017230D01*
X030900Y017830D01*
X025750Y017830D01*
X025400Y017480D01*
X025366Y017030D02*
X026200Y017030D01*
X026650Y017480D01*
X030950Y017480D01*
X031400Y017030D01*
X032750Y017030D01*
X035425Y014355D01*
X035550Y014230D01*
X036300Y013480D01*
X039350Y013480D01*
X041150Y015280D01*
X042200Y015280D01*
X043200Y016280D01*
X043200Y017630D01*
X043550Y017980D01*
X043900Y017980D01*
X043500Y017480D02*
X043400Y017380D01*
X043400Y016180D01*
X042300Y015080D01*
X041250Y015080D01*
X039450Y013280D01*
X036200Y013280D01*
X032650Y016830D01*
X029000Y016830D01*
X028650Y017180D01*
X026700Y017180D01*
X026350Y016830D01*
X025450Y016830D01*
X024750Y016130D01*
X024745Y016130D01*
X023638Y015024D01*
X023499Y015163D02*
X025083Y016747D01*
X025366Y017030D01*
X025083Y016797D02*
X025083Y016747D01*
X025083Y016797D02*
X024837Y017043D01*
X024150Y016730D02*
X024150Y016080D01*
X023856Y015786D01*
X023844Y015786D01*
X023500Y016130D01*
X023500Y016395D01*
X022950Y015745D02*
X022550Y016145D01*
X022950Y015745D02*
X022950Y015180D01*
X022500Y014730D01*
X022950Y015180D02*
X023211Y015441D01*
X023221Y015441D01*
X023360Y015302D02*
X023844Y015786D01*
X023917Y014745D02*
X025451Y016280D01*
X026250Y016280D01*
X026450Y015930D02*
X026800Y016280D01*
X026450Y015930D02*
X025380Y015930D01*
X024056Y014606D01*
X024195Y014467D02*
X025308Y015580D01*
X025550Y015580D01*
X025750Y015230D02*
X025236Y015230D01*
X024334Y014328D01*
X024473Y014189D02*
X023950Y013665D01*
X023950Y013630D01*
X024350Y013680D02*
X024350Y013787D01*
X024613Y014049D01*
X024950Y014387D01*
X024950Y014480D01*
X025250Y014130D02*
X025627Y014130D01*
X025813Y013943D01*
X025250Y014130D02*
X024891Y013771D01*
X024752Y013910D02*
X025472Y014630D01*
X025600Y014630D01*
X026073Y014630D01*
X026287Y014417D01*
X026337Y014417D01*
X027135Y015215D01*
X027135Y015280D01*
X027250Y015730D02*
X026250Y015730D01*
X025750Y015230D01*
X027250Y015730D02*
X027700Y016180D01*
X028500Y016980D02*
X028850Y016630D01*
X032550Y016630D01*
X036100Y013080D01*
X039550Y013080D01*
X041350Y014880D01*
X042400Y014880D01*
X043900Y016380D01*
X043900Y016980D01*
X043500Y017480D02*
X044400Y017480D01*
X044900Y016980D01*
X044900Y017980D02*
X044400Y018480D01*
X043500Y018480D01*
X044400Y019480D02*
X044900Y018980D01*
X044400Y019480D02*
X043450Y019480D01*
X042000Y019880D02*
X043650Y021530D01*
X046755Y021530D01*
X046905Y021480D01*
X047485Y021369D02*
X047495Y021480D01*
X047485Y021369D02*
X047485Y020780D01*
X046815Y020780D02*
X046665Y020780D01*
X046465Y020980D01*
X044900Y020980D01*
X044400Y020480D02*
X044900Y019980D01*
X042000Y019880D02*
X042000Y016930D01*
X041600Y016530D01*
X040850Y016530D01*
X040400Y016980D01*
X040900Y018480D02*
X039500Y018480D01*
X039050Y018930D01*
X040900Y018480D02*
X041400Y018980D01*
X041400Y019980D02*
X040900Y020480D01*
X040900Y021430D01*
X040700Y021630D01*
X028200Y021630D01*
X027600Y021030D01*
X029600Y021030D02*
X031050Y020180D01*
X033050Y020180D01*
X033300Y019930D01*
X033750Y020480D02*
X031750Y020480D01*
X030600Y021030D01*
X031900Y019830D02*
X032500Y019230D01*
X033100Y019230D01*
X034350Y020480D01*
X038300Y020480D01*
X039950Y021430D02*
X040400Y020980D01*
X039950Y021430D02*
X035500Y021430D01*
X035050Y020980D01*
X035050Y019980D02*
X034350Y019980D01*
X033400Y019030D01*
X032400Y019030D01*
X031800Y019630D01*
X021050Y019630D01*
X020050Y018630D01*
X020050Y015244D01*
X020966Y014328D01*
X021105Y014467D02*
X020250Y015322D01*
X020250Y018530D01*
X021150Y019430D01*
X031700Y019430D01*
X032300Y018830D01*
X033700Y018830D01*
X034350Y019480D01*
X035550Y019480D01*
X036050Y018980D01*
X035550Y018480D02*
X034350Y018480D01*
X034300Y018430D01*
X032100Y018430D01*
X031500Y019030D01*
X021350Y019030D01*
X020650Y018330D01*
X020650Y015479D01*
X021383Y014745D01*
X021244Y014606D02*
X020450Y015400D01*
X020450Y018430D01*
X021250Y019230D01*
X031600Y019230D01*
X032200Y018630D01*
X034000Y018630D01*
X034350Y018980D01*
X035050Y018980D01*
X035550Y018480D02*
X036050Y017980D01*
X035050Y017980D02*
X034150Y017980D01*
X033900Y018230D01*
X032000Y018230D01*
X031400Y018830D01*
X021450Y018830D01*
X020850Y018230D01*
X020850Y015557D01*
X021523Y014885D01*
X020827Y014189D02*
X019850Y015165D01*
X019850Y018730D01*
X020950Y019830D01*
X031900Y019830D01*
X028500Y016980D02*
X026850Y016980D01*
X026500Y016630D01*
X025523Y016630D01*
X023777Y014885D01*
X022750Y011987D02*
X020687Y014049D01*
X020548Y013910D02*
X019489Y014969D01*
X019489Y015791D01*
X019250Y016030D01*
X019250Y016430D01*
X019235Y016430D01*
X018565Y016430D02*
X018550Y016430D01*
X018100Y016880D01*
X018100Y017030D01*
X018300Y017230D01*
X018100Y016880D02*
X018100Y016080D01*
X020050Y014130D01*
X020409Y013771D01*
X020650Y013530D01*
X020270Y013632D02*
X017750Y016152D01*
X017750Y017330D01*
X014100Y020980D01*
X012100Y020980D01*
X011600Y020480D02*
X011100Y020980D01*
X011600Y020480D02*
X014000Y020480D01*
X017150Y017330D01*
X017150Y016473D01*
X020131Y013493D01*
X019991Y013353D02*
X016500Y016845D01*
X016500Y017330D01*
X013850Y019980D01*
X012100Y019980D01*
X011600Y019480D02*
X011100Y019980D01*
X011600Y019480D02*
X013600Y019480D01*
X015750Y017330D01*
X015750Y017030D01*
X016200Y016580D01*
X016486Y016580D01*
X019852Y013214D01*
X019713Y013075D02*
X020258Y012530D01*
X020950Y012530D01*
X020350Y012180D02*
X020330Y012180D01*
X019574Y012936D01*
X019435Y012797D02*
X018101Y014130D01*
X014450Y014130D01*
X013450Y013130D01*
X012100Y013130D01*
X011600Y012630D02*
X013250Y012630D01*
X014550Y013930D01*
X018023Y013930D01*
X019295Y012657D01*
X019156Y012518D02*
X017945Y013730D01*
X014650Y013730D01*
X013050Y012130D01*
X012100Y012130D01*
X011600Y011630D02*
X012850Y011630D01*
X014750Y013530D01*
X017866Y013530D01*
X019017Y012379D01*
X018878Y012240D02*
X017788Y013330D01*
X014850Y013330D01*
X012650Y011130D01*
X012100Y011130D01*
X011600Y011630D02*
X011100Y012130D01*
X011600Y012630D02*
X011100Y013130D01*
X014250Y011080D02*
X014750Y010580D01*
X018359Y010580D01*
X018739Y010959D01*
X018878Y010820D02*
X018438Y010380D01*
X013800Y010380D01*
X013550Y010130D01*
X012100Y010130D01*
X011600Y009630D02*
X013650Y009630D01*
X014200Y010180D01*
X018516Y010180D01*
X019017Y010681D01*
X019156Y010542D02*
X019595Y010980D01*
X020400Y010980D01*
X021050Y011630D01*
X021150Y011130D02*
X020800Y010780D01*
X019673Y010780D01*
X019295Y010403D01*
X019435Y010263D02*
X018951Y009780D01*
X017550Y009780D01*
X017350Y009380D02*
X016950Y009780D01*
X016950Y009180D02*
X016350Y009780D01*
X015750Y009780D02*
X016550Y008980D01*
X018650Y008980D01*
X018850Y009180D01*
X019186Y009180D01*
X019852Y009846D01*
X019713Y009985D02*
X019108Y009380D01*
X018700Y009380D01*
X018500Y009180D01*
X016950Y009180D01*
X017350Y009380D02*
X018400Y009380D01*
X018600Y009580D01*
X019030Y009580D01*
X019574Y010124D01*
X019991Y009707D02*
X020415Y010130D01*
X020700Y010130D01*
X020900Y009930D01*
X021000Y009830D01*
X021000Y009602D01*
X020548Y009150D01*
X020128Y008730D01*
X019700Y008730D01*
X019237Y008267D01*
X018750Y008630D02*
X018450Y008630D01*
X018300Y008480D01*
X017235Y008480D01*
X016565Y008480D02*
X016250Y008480D01*
X014850Y007080D01*
X014850Y005030D01*
X014650Y004830D01*
X013550Y004830D01*
X013300Y004580D01*
X013200Y004480D01*
X012606Y003886D01*
X011531Y003886D01*
X011531Y003630D02*
X012650Y003630D01*
X012950Y003930D01*
X013150Y004130D01*
X013600Y004130D01*
X014200Y003530D01*
X014200Y002830D01*
X013850Y002480D01*
X013700Y002480D01*
X013535Y002315D01*
X013535Y001930D01*
X012865Y001930D02*
X012865Y002445D01*
X013550Y003130D01*
X014600Y003830D02*
X014600Y001930D01*
X014565Y001930D01*
X015235Y001930D02*
X015250Y001945D01*
X015250Y002795D01*
X015285Y002830D01*
X016038Y002830D01*
X017835Y002830D01*
X017850Y002845D01*
X017850Y002180D01*
X017600Y001930D01*
X018600Y002030D02*
X018600Y003180D01*
X019200Y003780D01*
X015300Y004980D02*
X014950Y004630D01*
X013650Y004630D01*
X013150Y004130D01*
X013300Y004580D02*
X013300Y005130D01*
X015050Y005380D02*
X015300Y005130D01*
X015300Y004980D01*
X015050Y005380D02*
X015050Y006750D01*
X016080Y007780D01*
X016565Y007780D01*
X017235Y007780D02*
X017900Y007780D01*
X018763Y007767D02*
X019103Y007427D01*
X018650Y006973D01*
X018650Y006480D01*
X018200Y006480D01*
X018050Y006330D01*
X018050Y006065D01*
X019400Y006480D02*
X019400Y007166D01*
X020966Y008732D01*
X021105Y008593D02*
X019750Y007238D01*
X019750Y006880D01*
X020100Y006480D02*
X020100Y007310D01*
X021244Y008454D01*
X021383Y008315D02*
X020450Y007381D01*
X020450Y006880D01*
X020800Y006480D02*
X020800Y007453D01*
X021523Y008175D01*
X021662Y008036D02*
X021700Y008080D01*
X021662Y008036D02*
X021150Y007525D01*
X021150Y006380D01*
X021350Y006180D01*
X021900Y006180D01*
X022050Y006580D02*
X022650Y006580D01*
X022050Y006580D02*
X021600Y007030D01*
X021600Y007418D01*
X021940Y007758D01*
X021801Y007897D02*
X021350Y007446D01*
X021350Y006680D01*
X021500Y006530D01*
X022000Y006930D02*
X021800Y007130D01*
X021800Y007339D01*
X022079Y007619D01*
X023360Y007758D02*
X024000Y007118D01*
X024000Y007030D01*
X023650Y006630D02*
X023550Y006730D01*
X023650Y006630D02*
X024550Y006630D01*
X024650Y006530D01*
X024650Y006215D01*
X025450Y006215D02*
X025450Y006580D01*
X025850Y006980D01*
X025850Y008330D01*
X025400Y008780D01*
X025122Y008780D01*
X024752Y009150D01*
X024730Y009150D01*
X024100Y009780D01*
X023950Y009780D01*
X024093Y009530D02*
X022600Y009530D01*
X023250Y009330D02*
X022800Y008880D01*
X022350Y008880D01*
X023150Y008680D02*
X023150Y008525D01*
X023638Y008036D01*
X023499Y007897D02*
X023966Y007430D01*
X024300Y007430D01*
X024851Y007380D02*
X025450Y007380D01*
X025050Y007730D02*
X024780Y007730D01*
X024056Y008454D01*
X024200Y008580D02*
X024195Y008593D01*
X024708Y008080D01*
X025450Y008080D01*
X024950Y008430D02*
X024636Y008430D01*
X024334Y008732D01*
X024473Y008871D02*
X024015Y009330D01*
X023250Y009330D01*
X023650Y008980D02*
X023500Y008830D01*
X023500Y008453D01*
X023777Y008175D01*
X023917Y008315D02*
X024851Y007380D01*
X026250Y008380D02*
X025500Y009130D01*
X025328Y009130D01*
X025030Y009428D01*
X024550Y009908D01*
X024550Y010180D01*
X023400Y011330D01*
X023300Y011330D01*
X022750Y011980D02*
X022750Y011987D01*
X023100Y010780D02*
X023400Y010780D01*
X024891Y009289D01*
X024613Y009011D02*
X024093Y009530D01*
X025448Y009832D02*
X026200Y009080D01*
X027430Y008890D02*
X027430Y007645D01*
X027415Y007630D01*
X027415Y007065D01*
X027650Y006830D01*
X028065Y006830D01*
X028735Y006830D02*
X029200Y006830D01*
X029435Y007065D01*
X029435Y007630D01*
X029435Y008885D01*
X029430Y008890D01*
X028750Y008380D02*
X028750Y007645D01*
X028765Y007630D01*
X028085Y007630D01*
X026250Y008380D02*
X026250Y006215D01*
X026250Y005545D02*
X025450Y005545D01*
X025450Y004780D01*
X024900Y004230D01*
X024635Y005530D02*
X024619Y005545D01*
X023850Y005545D01*
X024635Y005530D02*
X024650Y005545D01*
X025450Y005545D01*
X022250Y006930D02*
X022000Y006930D01*
X020827Y008871D02*
X019050Y007095D01*
X019050Y006880D01*
X019103Y007427D02*
X020687Y009011D01*
X020548Y009150D02*
X020409Y009289D01*
X020270Y009428D01*
X018763Y007793D02*
X018763Y007767D01*
X025448Y009832D02*
X025448Y009846D01*
X026561Y010959D02*
X026791Y010730D01*
X028485Y010730D01*
X028900Y011145D01*
X028200Y011130D02*
X028200Y011730D01*
X028285Y011815D01*
X028900Y011815D01*
X027500Y011815D02*
X027035Y011815D01*
X026900Y011680D01*
X026561Y010959D02*
X025991Y011530D01*
X025550Y011530D01*
X025550Y011880D02*
X025350Y012080D01*
X025550Y011880D02*
X025784Y011880D01*
X026283Y012379D01*
X026422Y012240D02*
X027112Y012930D01*
X027600Y012930D01*
X027950Y012580D01*
X027350Y012580D02*
X027041Y012580D01*
X026561Y012101D01*
X026144Y012518D02*
X025855Y012230D01*
X025700Y012230D01*
X025450Y012480D01*
X025000Y012480D01*
X025865Y012797D02*
X027629Y014560D01*
X027860Y014560D01*
X028465Y015165D01*
X029700Y015165D01*
X029700Y015430D01*
X029900Y015630D01*
X030365Y015630D01*
X031035Y015630D02*
X031300Y015630D01*
X031650Y015280D01*
X031200Y014830D01*
X031035Y014830D01*
X030365Y014830D02*
X030031Y014495D01*
X029700Y014495D01*
X029698Y014509D01*
X029694Y014523D01*
X029686Y014536D01*
X029676Y014546D01*
X029663Y014554D01*
X029649Y014558D01*
X029635Y014560D01*
X028860Y014560D01*
X028330Y014030D01*
X027377Y014030D01*
X026005Y012657D01*
X027500Y011145D02*
X027515Y011130D01*
X028200Y011130D01*
X028485Y010730D02*
X029800Y010730D01*
X030600Y011030D02*
X031100Y011530D01*
X033700Y011530D01*
X034450Y012280D01*
X034450Y013630D01*
X033900Y014380D02*
X033900Y012830D01*
X033100Y012030D01*
X031600Y012030D01*
X031250Y012530D02*
X032450Y012530D01*
X032800Y012880D01*
X032800Y014880D01*
X032350Y014780D02*
X030600Y013030D01*
X031250Y012530D02*
X030750Y012030D01*
X030600Y012030D01*
X032350Y014780D02*
X032350Y015980D01*
X029715Y015180D02*
X029700Y015165D01*
X024363Y017517D02*
X024363Y017580D01*
X023500Y017580D01*
X023500Y017065D01*
X024363Y017517D02*
X024363Y017517D01*
X023500Y017580D02*
X022785Y017580D01*
X022785Y017365D01*
X022550Y017130D01*
X022550Y016815D01*
X019489Y014969D02*
X019100Y015358D01*
X019100Y015630D01*
X017550Y014530D02*
X013100Y018980D01*
X012100Y018980D01*
X011600Y018480D02*
X011100Y018980D01*
X011600Y018480D02*
X013000Y018480D01*
X016950Y014530D01*
X016350Y014530D02*
X012900Y017980D01*
X012100Y017980D01*
X011600Y017480D02*
X011100Y017980D01*
X011600Y017480D02*
X012800Y017480D01*
X015750Y014530D01*
X017800Y012630D02*
X018209Y012630D01*
X018739Y012101D01*
X018750Y012089D01*
X018750Y012080D01*
X018550Y012280D01*
X017885Y012280D01*
X017685Y012080D01*
X017015Y012080D02*
X017015Y011630D01*
X015300Y011630D01*
X017015Y011630D02*
X017015Y011180D01*
X017685Y011180D02*
X017985Y011480D01*
X019950Y011480D01*
X011600Y009630D02*
X011100Y010130D01*
X045500Y002780D02*
X046000Y002280D01*
D36*
X045421Y001590D02*
X045151Y001860D01*
X044826Y001860D01*
X044580Y002106D01*
X044580Y002454D01*
X044716Y002590D01*
X044571Y002590D01*
X044421Y002740D01*
X044421Y002740D01*
X044310Y002851D01*
X044310Y002996D01*
X044174Y002860D01*
X043826Y002860D01*
X043580Y003106D01*
X043580Y003454D01*
X043826Y003700D01*
X044174Y003700D01*
X044310Y003564D01*
X044310Y003990D01*
X039071Y003990D01*
X037821Y005240D01*
X037710Y005351D01*
X037710Y005576D01*
X037480Y005806D01*
X037480Y006041D01*
X037340Y005901D01*
X037320Y005881D01*
X037320Y005642D01*
X037238Y005560D01*
X036639Y005560D01*
X038079Y004120D01*
X038379Y004120D01*
X038579Y003920D01*
X038690Y003809D01*
X038690Y003564D01*
X038826Y003700D01*
X039174Y003700D01*
X039420Y003454D01*
X039420Y003106D01*
X039174Y002860D01*
X038826Y002860D01*
X038690Y002996D01*
X038690Y002564D01*
X038826Y002700D01*
X039174Y002700D01*
X039420Y002454D01*
X039420Y002106D01*
X039284Y001970D01*
X039716Y001970D01*
X039580Y002106D01*
X039580Y002454D01*
X039826Y002700D01*
X040174Y002700D01*
X040420Y002454D01*
X040420Y002106D01*
X040284Y001970D01*
X040716Y001970D01*
X040580Y002106D01*
X040580Y002454D01*
X040826Y002700D01*
X041174Y002700D01*
X041420Y002454D01*
X041420Y002106D01*
X041284Y001970D01*
X041716Y001970D01*
X041580Y002106D01*
X041580Y002454D01*
X041826Y002700D01*
X042174Y002700D01*
X042420Y002454D01*
X042420Y002106D01*
X042284Y001970D01*
X042716Y001970D01*
X042580Y002106D01*
X042580Y002454D01*
X042826Y002700D01*
X043174Y002700D01*
X043420Y002454D01*
X043420Y002106D01*
X043284Y001970D01*
X043421Y001970D01*
X043580Y002129D01*
X043580Y002454D01*
X043826Y002700D01*
X044174Y002700D01*
X044420Y002454D01*
X044420Y002106D01*
X044174Y001860D01*
X043849Y001860D01*
X043579Y001590D01*
X038571Y001590D01*
X038460Y001701D01*
X038310Y001851D01*
X038310Y001996D01*
X038174Y001860D01*
X037826Y001860D01*
X037580Y002106D01*
X037580Y002454D01*
X037826Y002700D01*
X038174Y002700D01*
X038310Y002564D01*
X038310Y002996D01*
X038174Y002860D01*
X037826Y002860D01*
X037580Y003106D01*
X037580Y003431D01*
X037371Y003640D01*
X037234Y003640D01*
X037420Y003454D01*
X037420Y003106D01*
X037174Y002860D01*
X036826Y002860D01*
X036690Y002996D01*
X036690Y002859D01*
X036849Y002700D01*
X037174Y002700D01*
X037420Y002454D01*
X037420Y002106D01*
X037174Y001860D01*
X036826Y001860D01*
X036580Y002106D01*
X036580Y002431D01*
X036421Y002590D01*
X036310Y002701D01*
X036310Y002996D01*
X036174Y002860D01*
X035826Y002860D01*
X035690Y002996D01*
X035690Y002859D01*
X035849Y002700D01*
X036174Y002700D01*
X036420Y002454D01*
X036420Y002106D01*
X036174Y001860D01*
X035826Y001860D01*
X035580Y002106D01*
X035580Y002431D01*
X035421Y002590D01*
X035310Y002701D01*
X035310Y002996D01*
X035174Y002860D01*
X034826Y002860D01*
X034580Y003106D01*
X034580Y003454D01*
X034826Y003700D01*
X035174Y003700D01*
X035310Y003564D01*
X035310Y008059D01*
X035810Y008559D01*
X035921Y008670D01*
X036321Y008670D01*
X036480Y008829D01*
X036480Y009154D01*
X036726Y009400D01*
X037074Y009400D01*
X037320Y009154D01*
X037320Y008806D01*
X037184Y008670D01*
X037321Y008670D01*
X037480Y008829D01*
X037480Y009154D01*
X037726Y009400D01*
X038074Y009400D01*
X038320Y009154D01*
X038320Y008806D01*
X038074Y008560D01*
X037749Y008560D01*
X037479Y008290D01*
X037184Y008290D01*
X037320Y008154D01*
X037320Y007829D01*
X037479Y007670D01*
X037479Y007670D01*
X037590Y007559D01*
X037590Y007264D01*
X037726Y007400D01*
X038074Y007400D01*
X038304Y007170D01*
X038441Y007170D01*
X038051Y007560D01*
X037726Y007560D01*
X037480Y007806D01*
X037480Y008154D01*
X037726Y008400D01*
X038074Y008400D01*
X038320Y008154D01*
X038320Y007829D01*
X039079Y007070D01*
X039190Y006959D01*
X039190Y005859D01*
X039581Y005467D01*
X039583Y005468D01*
X039717Y005468D01*
X039842Y005417D01*
X039937Y005322D01*
X039988Y005197D01*
X039988Y005063D01*
X039937Y004938D01*
X039842Y004843D01*
X039785Y004820D01*
X046879Y004820D01*
X047629Y004070D01*
X047740Y003959D01*
X047740Y001951D01*
X047490Y001701D01*
X047379Y001590D01*
X045421Y001590D01*
X045289Y001723D02*
X043711Y001723D01*
X043491Y002040D02*
X043353Y002040D01*
X043420Y002198D02*
X043580Y002198D01*
X043580Y002357D02*
X043420Y002357D01*
X043359Y002515D02*
X043641Y002515D01*
X043800Y002674D02*
X043200Y002674D01*
X043174Y002860D02*
X042826Y002860D01*
X042580Y003106D01*
X042580Y003454D01*
X042826Y003700D01*
X043174Y003700D01*
X043420Y003454D01*
X043420Y003106D01*
X043174Y002860D01*
X043304Y002991D02*
X043696Y002991D01*
X043580Y003149D02*
X043420Y003149D01*
X043420Y003308D02*
X043580Y003308D01*
X043592Y003466D02*
X043408Y003466D01*
X043249Y003625D02*
X043751Y003625D01*
X044249Y003625D02*
X044310Y003625D01*
X044310Y003783D02*
X038690Y003783D01*
X038690Y003625D02*
X038751Y003625D01*
X039249Y003625D02*
X039751Y003625D01*
X039826Y003700D02*
X039580Y003454D01*
X039580Y003106D01*
X039826Y002860D01*
X040174Y002860D01*
X040420Y003106D01*
X040420Y003454D01*
X040174Y003700D01*
X039826Y003700D01*
X039592Y003466D02*
X039408Y003466D01*
X039420Y003308D02*
X039580Y003308D01*
X039580Y003149D02*
X039420Y003149D01*
X039304Y002991D02*
X039696Y002991D01*
X039800Y002674D02*
X039200Y002674D01*
X039359Y002515D02*
X039641Y002515D01*
X039580Y002357D02*
X039420Y002357D01*
X039420Y002198D02*
X039580Y002198D01*
X039647Y002040D02*
X039353Y002040D01*
X038439Y001723D02*
X031014Y001723D01*
X031032Y001741D02*
X031110Y001929D01*
X031110Y002131D01*
X031032Y002319D01*
X030889Y002462D01*
X030701Y002540D01*
X030590Y002540D01*
X030590Y004551D01*
X033379Y007340D01*
X033410Y007371D01*
X033410Y005159D01*
X033071Y004820D01*
X032787Y004820D01*
X032787Y004822D01*
X032692Y004917D01*
X032567Y004968D01*
X032433Y004968D01*
X032308Y004917D01*
X032213Y004822D01*
X032162Y004697D01*
X032162Y004563D01*
X032213Y004438D01*
X032308Y004343D01*
X032433Y004292D01*
X032567Y004292D01*
X032692Y004343D01*
X032787Y004438D01*
X032787Y004440D01*
X033229Y004440D01*
X033790Y005001D01*
X033790Y009601D01*
X035029Y010840D01*
X037449Y010840D01*
X037009Y010400D01*
X036726Y010400D01*
X036526Y010200D01*
X035509Y010200D01*
X034559Y009250D01*
X034430Y009121D01*
X034430Y004721D01*
X032777Y003068D01*
X032683Y003068D01*
X032558Y003017D01*
X032463Y002922D01*
X032412Y002797D01*
X032412Y002663D01*
X032463Y002538D01*
X032558Y002443D01*
X032683Y002392D01*
X032817Y002392D01*
X032942Y002443D01*
X033037Y002538D01*
X033088Y002663D01*
X033088Y002757D01*
X034870Y004539D01*
X034870Y008939D01*
X035691Y009760D01*
X036526Y009760D01*
X036726Y009560D01*
X037074Y009560D01*
X037320Y009806D01*
X037480Y009806D01*
X037726Y009560D01*
X038074Y009560D01*
X038274Y009760D01*
X038509Y009760D01*
X038880Y009389D01*
X039009Y009260D01*
X040086Y009260D01*
X039980Y009154D01*
X039980Y008806D01*
X040226Y008560D01*
X040574Y008560D01*
X040820Y008806D01*
X040820Y009154D01*
X040714Y009260D01*
X040991Y009260D01*
X041291Y009560D01*
X041509Y009560D01*
X041680Y009389D01*
X041809Y009260D01*
X043586Y009260D01*
X043480Y009154D01*
X043480Y008806D01*
X043726Y008560D01*
X044074Y008560D01*
X044320Y008806D01*
X044320Y009154D01*
X044214Y009260D01*
X044491Y009260D01*
X044791Y009560D01*
X045074Y009560D01*
X045320Y009806D01*
X045610Y009806D01*
X045610Y009648D02*
X045161Y009648D01*
X045320Y009806D02*
X045320Y010154D01*
X045074Y010400D01*
X044726Y010400D01*
X044480Y010154D01*
X044480Y009871D01*
X044309Y009700D01*
X044271Y009700D01*
X044360Y009789D01*
X044360Y009970D01*
X043910Y009970D01*
X043910Y009990D01*
X043890Y009990D01*
X043890Y010440D01*
X043709Y010440D01*
X043440Y010171D01*
X043440Y009990D01*
X043890Y009990D01*
X043890Y009970D01*
X043440Y009970D01*
X043440Y009789D01*
X043529Y009700D01*
X041991Y009700D01*
X041820Y009871D01*
X041820Y010154D01*
X041574Y010400D01*
X041226Y010400D01*
X040980Y010154D01*
X040980Y009871D01*
X040809Y009700D01*
X040714Y009700D01*
X040820Y009806D01*
X040915Y009806D01*
X040820Y009806D02*
X040820Y010154D01*
X040574Y010400D01*
X040226Y010400D01*
X040026Y010200D01*
X039641Y010200D01*
X039070Y010771D01*
X039001Y010840D01*
X043071Y010840D01*
X043471Y010440D01*
X039401Y010440D01*
X039243Y010599D02*
X043313Y010599D01*
X043154Y010757D02*
X039084Y010757D01*
X038850Y010680D02*
X037600Y010680D01*
X036900Y009980D01*
X035600Y009980D01*
X034650Y009030D01*
X034650Y004630D01*
X032750Y002730D01*
X032426Y002832D02*
X030590Y002832D01*
X030590Y002674D02*
X032412Y002674D01*
X032487Y002515D02*
X030762Y002515D01*
X030995Y002357D02*
X034580Y002357D01*
X034580Y002454D02*
X034580Y002106D01*
X034826Y001860D01*
X035174Y001860D01*
X035420Y002106D01*
X035420Y002454D01*
X035174Y002700D01*
X034826Y002700D01*
X034580Y002454D01*
X034641Y002515D02*
X033013Y002515D01*
X033088Y002674D02*
X034800Y002674D01*
X034696Y002991D02*
X033322Y002991D01*
X033480Y003149D02*
X034580Y003149D01*
X034580Y003308D02*
X033639Y003308D01*
X033797Y003466D02*
X034592Y003466D01*
X034751Y003625D02*
X033956Y003625D01*
X034114Y003783D02*
X035310Y003783D01*
X035310Y003625D02*
X035249Y003625D01*
X035310Y003942D02*
X034273Y003942D01*
X034431Y004100D02*
X035310Y004100D01*
X035310Y004259D02*
X034590Y004259D01*
X034748Y004417D02*
X035310Y004417D01*
X035310Y004576D02*
X034870Y004576D01*
X034870Y004734D02*
X035310Y004734D01*
X035310Y004893D02*
X034870Y004893D01*
X034870Y005051D02*
X035310Y005051D01*
X035310Y005210D02*
X034870Y005210D01*
X034870Y005368D02*
X035310Y005368D01*
X035310Y005527D02*
X034870Y005527D01*
X034870Y005685D02*
X035310Y005685D01*
X035310Y005844D02*
X034870Y005844D01*
X034870Y006002D02*
X035310Y006002D01*
X035310Y006161D02*
X034870Y006161D01*
X034870Y006319D02*
X035310Y006319D01*
X035310Y006478D02*
X034870Y006478D01*
X034870Y006636D02*
X035310Y006636D01*
X035310Y006795D02*
X034870Y006795D01*
X034870Y006953D02*
X035310Y006953D01*
X035310Y007112D02*
X034870Y007112D01*
X034870Y007270D02*
X035310Y007270D01*
X035310Y007429D02*
X034870Y007429D01*
X034870Y007587D02*
X035310Y007587D01*
X035310Y007746D02*
X034870Y007746D01*
X034870Y007904D02*
X035310Y007904D01*
X035314Y008063D02*
X034870Y008063D01*
X034870Y008221D02*
X035472Y008221D01*
X035631Y008380D02*
X034870Y008380D01*
X034870Y008538D02*
X035789Y008538D01*
X036348Y008697D02*
X034870Y008697D01*
X034870Y008855D02*
X036480Y008855D01*
X036480Y009014D02*
X034945Y009014D01*
X035103Y009172D02*
X036498Y009172D01*
X036657Y009331D02*
X035262Y009331D01*
X035420Y009489D02*
X038780Y009489D01*
X038938Y009331D02*
X038143Y009331D01*
X038302Y009172D02*
X039998Y009172D01*
X039980Y009014D02*
X038320Y009014D01*
X038320Y008855D02*
X039980Y008855D01*
X040090Y008697D02*
X038210Y008697D01*
X038094Y008380D02*
X040206Y008380D01*
X040226Y008400D02*
X039980Y008154D01*
X039980Y007806D01*
X040226Y007560D01*
X040574Y007560D01*
X040820Y007806D01*
X040820Y008154D01*
X040574Y008400D01*
X040226Y008400D01*
X040047Y008221D02*
X038253Y008221D01*
X038320Y008063D02*
X039980Y008063D01*
X039980Y007904D02*
X038320Y007904D01*
X038403Y007746D02*
X040041Y007746D01*
X040199Y007587D02*
X038562Y007587D01*
X038720Y007429D02*
X048890Y007429D01*
X048890Y007587D02*
X047940Y007587D01*
X047994Y007610D02*
X047834Y007543D01*
X047066Y007543D01*
X046906Y007610D01*
X046783Y007733D01*
X046759Y007790D01*
X046431Y007790D01*
X046385Y007775D01*
X046355Y007790D01*
X046321Y007790D01*
X046287Y007824D01*
X045755Y008090D01*
X045721Y008090D01*
X045687Y008124D01*
X045645Y008145D01*
X045634Y008177D01*
X045610Y008201D01*
X045610Y008249D01*
X045595Y008295D01*
X045610Y008325D01*
X045610Y010151D01*
X045321Y010440D01*
X043471Y010440D01*
X043551Y010282D02*
X041692Y010282D01*
X041820Y010123D02*
X043440Y010123D01*
X043440Y009965D02*
X041820Y009965D01*
X041885Y009806D02*
X043440Y009806D01*
X043910Y009990D02*
X043910Y010440D01*
X044091Y010440D01*
X044360Y010171D01*
X044360Y009990D01*
X043910Y009990D01*
X043910Y010123D02*
X043890Y010123D01*
X043890Y010282D02*
X043910Y010282D01*
X044249Y010282D02*
X044608Y010282D01*
X044480Y010123D02*
X044360Y010123D01*
X044360Y009965D02*
X044480Y009965D01*
X044415Y009806D02*
X044360Y009806D01*
X044400Y009480D02*
X044900Y009980D01*
X045192Y010282D02*
X045480Y010282D01*
X045610Y010123D02*
X045320Y010123D01*
X045320Y009965D02*
X045610Y009965D01*
X045990Y009965D02*
X047432Y009965D01*
X047432Y009962D02*
X046676Y009962D01*
X046676Y009942D01*
X046688Y009868D01*
X046711Y009797D01*
X046745Y009730D01*
X046789Y009669D01*
X046843Y009616D01*
X046903Y009572D01*
X046970Y009538D01*
X047041Y009515D01*
X047116Y009503D01*
X047432Y009503D01*
X047432Y009962D01*
X047468Y009962D01*
X047468Y009998D01*
X047432Y009998D01*
X047432Y010457D01*
X047116Y010457D01*
X047041Y010445D01*
X046970Y010422D01*
X046903Y010388D01*
X046843Y010344D01*
X046789Y010291D01*
X046745Y010230D01*
X046711Y010163D01*
X046688Y010092D01*
X046676Y010018D01*
X046676Y009998D01*
X047432Y009998D01*
X047432Y009962D01*
X047468Y009962D02*
X047468Y009503D01*
X047784Y009503D01*
X047859Y009515D01*
X047930Y009538D01*
X047997Y009572D01*
X048057Y009616D01*
X048111Y009669D01*
X048155Y009730D01*
X048189Y009797D01*
X048212Y009868D01*
X048224Y009942D01*
X048224Y009962D01*
X047468Y009962D01*
X047468Y009965D02*
X048890Y009965D01*
X048890Y010123D02*
X048202Y010123D01*
X048212Y010092D02*
X048189Y010163D01*
X048155Y010230D01*
X048111Y010291D01*
X048057Y010344D01*
X047997Y010388D01*
X047930Y010422D01*
X047859Y010445D01*
X047784Y010457D01*
X047468Y010457D01*
X047468Y009998D01*
X048224Y009998D01*
X048224Y010018D01*
X048212Y010092D01*
X048117Y010282D02*
X048890Y010282D01*
X048890Y010440D02*
X047874Y010440D01*
X047829Y010780D02*
X048031Y010780D01*
X048219Y010858D01*
X048362Y011001D01*
X048440Y011189D01*
X048440Y011391D01*
X048890Y011391D01*
X048890Y011233D02*
X048440Y011233D01*
X048440Y011391D02*
X048362Y011579D01*
X048219Y011722D01*
X048031Y011800D01*
X047829Y011800D01*
X047641Y011722D01*
X047498Y011579D01*
X047420Y011391D01*
X045880Y011391D01*
X045802Y011579D01*
X045659Y011722D01*
X045471Y011800D01*
X045269Y011800D01*
X045081Y011722D01*
X044938Y011579D01*
X044860Y011391D01*
X033830Y011391D01*
X033779Y011340D02*
X034529Y012090D01*
X034640Y012201D01*
X034640Y013343D01*
X034642Y013343D01*
X034737Y013438D01*
X034788Y013563D01*
X034788Y013697D01*
X034737Y013822D01*
X034642Y013917D01*
X034517Y013968D01*
X034383Y013968D01*
X034258Y013917D01*
X034163Y013822D01*
X034112Y013697D01*
X034112Y013563D01*
X034163Y013438D01*
X034258Y013343D01*
X034260Y013343D01*
X034260Y012359D01*
X033621Y011720D01*
X031912Y011720D01*
X032032Y011840D01*
X033179Y011840D01*
X033979Y012640D01*
X034090Y012751D01*
X034090Y014093D01*
X034092Y014093D01*
X034187Y014188D01*
X034238Y014313D01*
X034238Y014447D01*
X034187Y014572D01*
X034092Y014667D01*
X033967Y014718D01*
X033833Y014718D01*
X033708Y014667D01*
X033613Y014572D01*
X033562Y014447D01*
X033562Y014313D01*
X033613Y014188D01*
X033708Y014093D01*
X033710Y014093D01*
X033710Y012909D01*
X033021Y012220D01*
X032032Y012220D01*
X031912Y012340D01*
X032529Y012340D01*
X032990Y012801D01*
X032990Y014593D01*
X032992Y014593D01*
X033087Y014688D01*
X033138Y014813D01*
X033138Y014947D01*
X033087Y015072D01*
X032992Y015167D01*
X032867Y015218D01*
X032733Y015218D01*
X032608Y015167D01*
X032540Y015098D01*
X032540Y015693D01*
X032542Y015693D01*
X032637Y015788D01*
X032688Y015913D01*
X032688Y016047D01*
X032637Y016172D01*
X032542Y016267D01*
X032455Y016302D01*
X032455Y016440D01*
X032471Y016440D01*
X035910Y013001D01*
X036021Y012890D01*
X039629Y012890D01*
X041429Y014690D01*
X042479Y014690D01*
X042590Y014801D01*
X042590Y014801D01*
X043979Y016190D01*
X044090Y016301D01*
X044090Y016560D01*
X044238Y016560D01*
X044320Y016642D01*
X044320Y017290D01*
X044321Y017290D01*
X044480Y017131D01*
X044480Y016806D01*
X044726Y016560D01*
X045074Y016560D01*
X045320Y016806D01*
X045320Y017154D01*
X045074Y017400D01*
X044749Y017400D01*
X044479Y017670D01*
X044184Y017670D01*
X044320Y017806D01*
X044320Y018154D01*
X044184Y018290D01*
X044321Y018290D01*
X044480Y018131D01*
X044480Y017806D01*
X044726Y017560D01*
X045074Y017560D01*
X045320Y017806D01*
X045320Y018154D01*
X045074Y018400D01*
X044749Y018400D01*
X044479Y018670D01*
X044184Y018670D01*
X044320Y018806D01*
X044320Y019154D01*
X044184Y019290D01*
X044321Y019290D01*
X044480Y019131D01*
X044480Y018806D01*
X044726Y018560D01*
X045074Y018560D01*
X045320Y018806D01*
X045320Y019154D01*
X045074Y019400D01*
X044749Y019400D01*
X044479Y019670D01*
X044184Y019670D01*
X044320Y019806D01*
X044320Y020154D01*
X044184Y020290D01*
X044321Y020290D01*
X044480Y020131D01*
X044480Y019806D01*
X044726Y019560D01*
X045074Y019560D01*
X045320Y019806D01*
X045320Y020154D01*
X045074Y020400D01*
X044749Y020400D01*
X044479Y020670D01*
X044241Y020670D01*
X044360Y020789D01*
X044360Y020970D01*
X043910Y020970D01*
X043910Y020990D01*
X044360Y020990D01*
X044360Y021171D01*
X044191Y021340D01*
X044666Y021340D01*
X044480Y021154D01*
X044480Y020806D01*
X044726Y020560D01*
X045074Y020560D01*
X045304Y020790D01*
X046387Y020790D01*
X046459Y020718D01*
X046459Y020525D01*
X046541Y020443D01*
X046600Y020443D01*
X046580Y020407D01*
X046567Y020361D01*
X046567Y020180D01*
X046567Y019999D01*
X046580Y019953D01*
X046603Y019912D01*
X046637Y019878D01*
X046678Y019855D01*
X046724Y019843D01*
X046905Y019843D01*
X047086Y019843D01*
X047132Y019855D01*
X047173Y019878D01*
X047206Y019912D01*
X047222Y019940D01*
X047280Y019883D01*
X047295Y019883D01*
X047295Y019817D01*
X047210Y019817D01*
X047150Y019757D01*
X047090Y019817D01*
X046541Y019817D01*
X046459Y019735D01*
X046459Y019670D01*
X046071Y019670D01*
X045871Y019470D01*
X045760Y019359D01*
X045760Y013729D01*
X045570Y013539D01*
X045471Y013580D01*
X045269Y013580D01*
X045081Y013502D01*
X044938Y013359D01*
X044860Y013171D01*
X044860Y012969D01*
X044938Y012781D01*
X045081Y012638D01*
X045269Y012560D01*
X045471Y012560D01*
X045659Y012638D01*
X045802Y012781D01*
X045880Y012969D01*
X045880Y013171D01*
X045839Y013270D01*
X046140Y013571D01*
X046140Y019201D01*
X046229Y019290D01*
X046459Y019290D01*
X046459Y019225D01*
X046541Y019143D01*
X047090Y019143D01*
X047150Y019203D01*
X047210Y019143D01*
X047759Y019143D01*
X047841Y019225D01*
X047841Y019735D01*
X047759Y019817D01*
X047675Y019817D01*
X047675Y019883D01*
X047711Y019883D01*
X047793Y019965D01*
X047793Y020395D01*
X047745Y020443D01*
X047759Y020443D01*
X047841Y020525D01*
X047841Y021035D01*
X047759Y021117D01*
X047675Y021117D01*
X047675Y021183D01*
X047711Y021183D01*
X047793Y021265D01*
X047793Y021695D01*
X047711Y021777D01*
X047280Y021777D01*
X047200Y021698D01*
X047120Y021777D01*
X046689Y021777D01*
X046632Y021720D01*
X043571Y021720D01*
X041820Y019969D01*
X041820Y020154D01*
X041574Y020400D01*
X041249Y020400D01*
X041090Y020559D01*
X041090Y020696D01*
X041226Y020560D01*
X041574Y020560D01*
X041820Y020806D01*
X041820Y021154D01*
X041574Y021400D01*
X041226Y021400D01*
X041090Y021264D01*
X041090Y021509D01*
X040979Y021620D01*
X040779Y021820D01*
X028121Y021820D01*
X027800Y021499D01*
X027701Y021540D01*
X027499Y021540D01*
X027311Y021462D01*
X027168Y021319D01*
X027100Y021156D01*
X027032Y021319D01*
X026889Y021462D01*
X026701Y021540D01*
X026499Y021540D01*
X026311Y021462D01*
X026168Y021319D01*
X026100Y021156D01*
X026032Y021319D01*
X025889Y021462D01*
X025701Y021540D01*
X025499Y021540D01*
X025311Y021462D01*
X025168Y021319D01*
X025100Y021156D01*
X025032Y021319D01*
X024889Y021462D01*
X024701Y021540D01*
X024499Y021540D01*
X024311Y021462D01*
X024168Y021319D01*
X024100Y021156D01*
X024032Y021319D01*
X023889Y021462D01*
X023701Y021540D01*
X023499Y021540D01*
X023311Y021462D01*
X023168Y021319D01*
X023090Y021131D01*
X023090Y020929D01*
X023168Y020741D01*
X023311Y020598D01*
X023499Y020520D01*
X023701Y020520D01*
X023889Y020598D01*
X024032Y020741D01*
X024100Y020904D01*
X024168Y020741D01*
X024311Y020598D01*
X024499Y020520D01*
X024701Y020520D01*
X024889Y020598D01*
X025032Y020741D01*
X025100Y020904D01*
X025168Y020741D01*
X025311Y020598D01*
X025499Y020520D01*
X025701Y020520D01*
X025889Y020598D01*
X026032Y020741D01*
X026100Y020904D01*
X026168Y020741D01*
X026311Y020598D01*
X026499Y020520D01*
X026701Y020520D01*
X026889Y020598D01*
X027032Y020741D01*
X027100Y020904D01*
X027168Y020741D01*
X027311Y020598D01*
X027499Y020520D01*
X027701Y020520D01*
X027889Y020598D01*
X028032Y020741D01*
X028100Y020904D01*
X028168Y020741D01*
X028311Y020598D01*
X028499Y020520D01*
X028701Y020520D01*
X028889Y020598D01*
X029032Y020741D01*
X029100Y020904D01*
X029168Y020741D01*
X029311Y020598D01*
X029499Y020520D01*
X029701Y020520D01*
X029889Y020598D01*
X029916Y020625D01*
X030933Y020028D01*
X030941Y020020D01*
X020871Y020020D01*
X019771Y018920D01*
X019660Y018809D01*
X019660Y017110D01*
X019402Y017110D01*
X019423Y017131D01*
X019490Y017292D01*
X019490Y017468D01*
X019423Y017629D01*
X019299Y017753D01*
X019138Y017820D01*
X018962Y017820D01*
X018801Y017753D01*
X018677Y017629D01*
X018610Y017468D01*
X018610Y017292D01*
X018677Y017131D01*
X018698Y017110D01*
X018008Y017110D01*
X018037Y017138D01*
X018088Y017263D01*
X018088Y017397D01*
X018037Y017522D01*
X017942Y017617D01*
X017817Y017668D01*
X017683Y017668D01*
X017681Y017667D01*
X014179Y021170D01*
X012520Y021170D01*
X012520Y021318D01*
X012438Y021400D01*
X011762Y021400D01*
X011680Y021318D01*
X011680Y020670D01*
X011679Y020670D01*
X011520Y020829D01*
X011520Y021154D01*
X011274Y021400D01*
X010926Y021400D01*
X010680Y021154D01*
X010680Y020806D01*
X010926Y020560D01*
X011251Y020560D01*
X011521Y020290D01*
X011816Y020290D01*
X011680Y020154D01*
X011680Y019806D01*
X011816Y019670D01*
X011679Y019670D01*
X011520Y019829D01*
X011520Y020154D01*
X011274Y020400D01*
X010926Y020400D01*
X010680Y020154D01*
X010680Y019806D01*
X010926Y019560D01*
X011251Y019560D01*
X011521Y019290D01*
X011816Y019290D01*
X011680Y019154D01*
X011680Y018806D01*
X011816Y018670D01*
X011679Y018670D01*
X011520Y018829D01*
X011520Y019154D01*
X011274Y019400D01*
X010926Y019400D01*
X010680Y019154D01*
X010680Y018806D01*
X010926Y018560D01*
X011251Y018560D01*
X011521Y018290D01*
X011816Y018290D01*
X011680Y018154D01*
X011680Y017806D01*
X011816Y017670D01*
X011679Y017670D01*
X011520Y017829D01*
X011520Y018154D01*
X011274Y018400D01*
X010926Y018400D01*
X010680Y018154D01*
X010680Y017806D01*
X010926Y017560D01*
X011251Y017560D01*
X011521Y017290D01*
X011816Y017290D01*
X011680Y017154D01*
X011680Y016806D01*
X011926Y016560D01*
X012274Y016560D01*
X012520Y016806D01*
X012520Y017154D01*
X012384Y017290D01*
X012721Y017290D01*
X015413Y014599D01*
X015412Y014597D01*
X015412Y014463D01*
X015463Y014338D01*
X015482Y014320D01*
X014371Y014320D01*
X014260Y014209D01*
X013371Y013320D01*
X012520Y013320D01*
X012520Y013468D01*
X012438Y013550D01*
X011762Y013550D01*
X011680Y013468D01*
X011680Y012820D01*
X011679Y012820D01*
X011520Y012979D01*
X011520Y013304D01*
X011274Y013550D01*
X010926Y013550D01*
X010680Y013304D01*
X010680Y012956D01*
X010926Y012710D01*
X011251Y012710D01*
X011410Y012551D01*
X011521Y012440D01*
X011816Y012440D01*
X011680Y012304D01*
X011680Y011956D01*
X011816Y011820D01*
X011679Y011820D01*
X011520Y011979D01*
X011520Y012304D01*
X011274Y012550D01*
X010926Y012550D01*
X010680Y012304D01*
X010680Y011956D01*
X010926Y011710D01*
X011251Y011710D01*
X011410Y011551D01*
X011521Y011440D01*
X011816Y011440D01*
X011680Y011304D01*
X011680Y010956D01*
X011926Y010710D01*
X012274Y010710D01*
X012504Y010940D01*
X012729Y010940D01*
X014929Y013140D01*
X017709Y013140D01*
X018289Y012560D01*
X014796Y012560D01*
X014720Y012484D01*
X014720Y010879D01*
X014587Y011011D01*
X014588Y011013D01*
X014588Y011147D01*
X014537Y011272D01*
X014442Y011367D01*
X014317Y011418D01*
X014183Y011418D01*
X014058Y011367D01*
X013963Y011272D01*
X013912Y011147D01*
X013912Y011013D01*
X013963Y010888D01*
X014058Y010793D01*
X014183Y010742D01*
X014317Y010742D01*
X014319Y010743D01*
X014491Y010570D01*
X013721Y010570D01*
X013471Y010320D01*
X012504Y010320D01*
X012274Y010550D01*
X011926Y010550D01*
X011680Y010304D01*
X011680Y009956D01*
X011816Y009820D01*
X011679Y009820D01*
X011520Y009979D01*
X011520Y010304D01*
X011274Y010550D01*
X010926Y010550D01*
X010680Y010304D01*
X010680Y009956D01*
X010926Y009710D01*
X011251Y009710D01*
X011410Y009551D01*
X011521Y009440D01*
X011816Y009440D01*
X011680Y009304D01*
X011680Y008956D01*
X011926Y008710D01*
X012274Y008710D01*
X012520Y008956D01*
X012520Y009304D01*
X012384Y009440D01*
X012780Y009440D01*
X012770Y009403D01*
X012770Y008810D01*
X013270Y008810D01*
X013270Y008650D01*
X013430Y008650D01*
X013430Y008810D01*
X013929Y008810D01*
X013929Y009403D01*
X013917Y009449D01*
X013893Y009490D01*
X013860Y009524D01*
X013830Y009541D01*
X013840Y009551D01*
X014279Y009990D01*
X015482Y009990D01*
X015463Y009972D01*
X015412Y009847D01*
X015412Y009713D01*
X015463Y009588D01*
X015558Y009493D01*
X015683Y009442D01*
X015817Y009442D01*
X015819Y009443D01*
X016360Y008901D01*
X016444Y008817D01*
X016291Y008817D01*
X016209Y008735D01*
X016209Y008670D01*
X016171Y008670D01*
X015590Y008089D01*
X015590Y009438D01*
X015508Y009520D01*
X014593Y009520D01*
X014511Y009438D01*
X014511Y008022D01*
X014593Y007940D01*
X014643Y007940D01*
X014242Y007540D01*
X013548Y007540D01*
X013453Y007500D01*
X013380Y007427D01*
X012880Y006927D01*
X012840Y006832D01*
X012840Y006792D01*
X012727Y006679D01*
X012660Y006518D01*
X012660Y005742D01*
X012727Y005581D01*
X012851Y005457D01*
X013012Y005390D01*
X013157Y005390D01*
X013133Y005380D01*
X013050Y005297D01*
X013005Y005189D01*
X013005Y005071D01*
X013050Y004963D01*
X013110Y004903D01*
X013110Y004659D01*
X013010Y004559D01*
X013010Y004559D01*
X012996Y004545D01*
X013010Y004578D01*
X013010Y004882D01*
X012970Y004977D01*
X012420Y005528D01*
X012473Y005581D01*
X012540Y005742D01*
X012540Y006518D01*
X012473Y006679D01*
X012349Y006803D01*
X012188Y006870D01*
X012012Y006870D01*
X011851Y006803D01*
X011727Y006679D01*
X011660Y006518D01*
X011660Y006390D01*
X011037Y006390D01*
X011037Y006470D01*
X010977Y006530D01*
X011037Y006590D01*
X011037Y006605D01*
X011086Y006605D01*
X011182Y006644D01*
X011383Y006845D01*
X011467Y006880D01*
X011550Y006963D01*
X011595Y007071D01*
X011595Y007189D01*
X011550Y007297D01*
X011467Y007380D01*
X011359Y007425D01*
X011241Y007425D01*
X011133Y007380D01*
X011050Y007297D01*
X011015Y007213D01*
X010989Y007187D01*
X010955Y007221D01*
X010445Y007221D01*
X010363Y007139D01*
X010363Y006590D01*
X010423Y006530D01*
X010363Y006470D01*
X010363Y005921D01*
X010445Y005839D01*
X010955Y005839D01*
X010986Y005870D01*
X011660Y005870D01*
X011660Y005742D01*
X011716Y005608D01*
X011699Y005615D01*
X011525Y005615D01*
X011365Y005549D01*
X011242Y005426D01*
X011225Y005384D01*
X010893Y005384D01*
X010811Y005302D01*
X010811Y005237D01*
X009980Y005237D01*
X009980Y022096D01*
X048890Y022096D01*
X048890Y021810D01*
X048818Y021882D01*
X048644Y021954D01*
X048456Y021954D01*
X048282Y021882D01*
X048148Y021748D01*
X048076Y021574D01*
X048076Y021386D01*
X048148Y021212D01*
X048282Y021078D01*
X048456Y021006D01*
X048644Y021006D01*
X048818Y021078D01*
X048890Y021150D01*
X048890Y004560D01*
X048818Y004632D01*
X048644Y004704D01*
X048456Y004704D01*
X048282Y004632D01*
X048148Y004498D01*
X048076Y004324D01*
X048076Y004136D01*
X048148Y003962D01*
X048282Y003828D01*
X048456Y003756D01*
X048644Y003756D01*
X048818Y003828D01*
X048890Y003900D01*
X048890Y001160D01*
X009980Y001160D01*
X009980Y002023D01*
X010811Y002023D01*
X010811Y001958D01*
X010893Y001876D01*
X011225Y001876D01*
X011242Y001834D01*
X011365Y001711D01*
X011525Y001645D01*
X011699Y001645D01*
X011860Y001711D01*
X011983Y001834D01*
X012049Y001995D01*
X012049Y002762D01*
X011993Y002898D01*
X012552Y002898D01*
X012553Y002898D01*
X012648Y002858D01*
X013009Y002858D01*
X012675Y002524D01*
X012675Y002267D01*
X012591Y002267D01*
X012509Y002185D01*
X012509Y001675D01*
X012591Y001593D01*
X013140Y001593D01*
X013200Y001653D01*
X013260Y001593D01*
X013809Y001593D01*
X013891Y001675D01*
X013891Y002185D01*
X013809Y002267D01*
X013756Y002267D01*
X013779Y002290D01*
X013929Y002290D01*
X014279Y002640D01*
X014390Y002751D01*
X014390Y003609D01*
X013790Y004209D01*
X013679Y004320D01*
X013609Y004320D01*
X013729Y004440D01*
X015029Y004440D01*
X015140Y004551D01*
X015490Y004901D01*
X015490Y005209D01*
X015379Y005320D01*
X015240Y005459D01*
X015240Y005768D01*
X015274Y005643D01*
X015440Y005355D01*
X015675Y005120D01*
X015963Y004954D01*
X016284Y004868D01*
X016616Y004868D01*
X016937Y004954D01*
X017225Y005120D01*
X017460Y005355D01*
X017626Y005643D01*
X017712Y005964D01*
X017712Y006296D01*
X017626Y006617D01*
X017460Y006905D01*
X017225Y007140D01*
X016937Y007306D01*
X016616Y007392D01*
X016284Y007392D01*
X015963Y007306D01*
X015756Y007187D01*
X016159Y007590D01*
X016209Y007590D01*
X016209Y007525D01*
X016291Y007443D01*
X016840Y007443D01*
X016900Y007503D01*
X016960Y007443D01*
X017509Y007443D01*
X017591Y007525D01*
X017591Y007590D01*
X017613Y007590D01*
X017613Y007588D01*
X017708Y007493D01*
X017833Y007442D01*
X017967Y007442D01*
X018092Y007493D01*
X018187Y007588D01*
X018238Y007713D01*
X018238Y007847D01*
X018187Y007972D01*
X018092Y008067D01*
X017967Y008118D01*
X017833Y008118D01*
X017708Y008067D01*
X017613Y007972D01*
X017613Y007970D01*
X017591Y007970D01*
X017591Y008035D01*
X017509Y008117D01*
X016960Y008117D01*
X016900Y008057D01*
X016840Y008117D01*
X016291Y008117D01*
X016209Y008035D01*
X016209Y007970D01*
X016009Y007970D01*
X016236Y008198D01*
X016291Y008143D01*
X016840Y008143D01*
X016900Y008203D01*
X016960Y008143D01*
X017509Y008143D01*
X017591Y008225D01*
X017591Y008290D01*
X018379Y008290D01*
X018495Y008407D01*
X018558Y008343D01*
X018683Y008292D01*
X018804Y008292D01*
X018804Y008226D01*
X018719Y008226D01*
X018331Y007837D01*
X018331Y007721D01*
X018691Y007361D01*
X018769Y007361D01*
X018571Y007163D01*
X018460Y007052D01*
X018460Y006767D01*
X018458Y006767D01*
X018363Y006672D01*
X018363Y006670D01*
X018121Y006670D01*
X017971Y006520D01*
X017872Y006421D01*
X017795Y006421D01*
X017713Y006339D01*
X017713Y005790D01*
X017746Y005758D01*
X017743Y005756D01*
X017709Y005722D01*
X017685Y005681D01*
X017673Y005636D01*
X017673Y005414D01*
X018032Y005414D01*
X018032Y005377D01*
X018068Y005377D01*
X018068Y004999D01*
X018271Y004999D01*
X018316Y005011D01*
X018357Y005035D01*
X018391Y005068D01*
X018415Y005109D01*
X018427Y005155D01*
X018427Y005377D01*
X018068Y005377D01*
X018068Y005414D01*
X018427Y005414D01*
X018427Y005636D01*
X018415Y005681D01*
X018391Y005722D01*
X018357Y005756D01*
X018354Y005758D01*
X018387Y005790D01*
X018387Y006265D01*
X018458Y006193D01*
X018583Y006142D01*
X018717Y006142D01*
X018842Y006193D01*
X018937Y006288D01*
X018988Y006413D01*
X018988Y006542D01*
X019062Y006542D01*
X019062Y006413D01*
X019113Y006288D01*
X019208Y006193D01*
X019333Y006142D01*
X019467Y006142D01*
X019592Y006193D01*
X019687Y006288D01*
X019738Y006413D01*
X019738Y006542D01*
X019762Y006542D01*
X019762Y006413D01*
X019813Y006288D01*
X019908Y006193D01*
X020033Y006142D01*
X020167Y006142D01*
X020292Y006193D01*
X020387Y006288D01*
X020438Y006413D01*
X020438Y006542D01*
X020462Y006542D01*
X020462Y006413D01*
X020513Y006288D01*
X020608Y006193D01*
X020733Y006142D01*
X020867Y006142D01*
X020992Y006193D01*
X021030Y006232D01*
X021160Y006101D01*
X021271Y005990D01*
X021613Y005990D01*
X021613Y005988D01*
X021708Y005893D01*
X021833Y005842D01*
X021967Y005842D01*
X022092Y005893D01*
X022187Y005988D01*
X022238Y006113D01*
X022238Y006247D01*
X022187Y006372D01*
X022168Y006390D01*
X022363Y006390D01*
X022363Y006388D01*
X022458Y006293D01*
X022583Y006242D01*
X022717Y006242D01*
X022823Y006286D01*
X020987Y004450D01*
X018809Y004450D01*
X018680Y004321D01*
X018167Y003809D01*
X018105Y003871D01*
X017595Y003871D01*
X017513Y003789D01*
X017513Y003750D01*
X016971Y003750D01*
X016842Y003621D01*
X016842Y003452D01*
X016768Y003452D01*
X016686Y003370D01*
X016686Y003038D01*
X016703Y003020D01*
X016439Y003020D01*
X016442Y003026D01*
X016454Y003072D01*
X016454Y003204D01*
X016454Y003336D01*
X016442Y003382D01*
X016418Y003423D01*
X016385Y003456D01*
X016344Y003480D01*
X016298Y003492D01*
X016038Y003492D01*
X015778Y003492D01*
X015732Y003480D01*
X015691Y003456D01*
X015658Y003423D01*
X015634Y003382D01*
X015627Y003354D01*
X015627Y003446D01*
X015268Y003446D01*
X015268Y003483D01*
X015232Y003483D01*
X015232Y003861D01*
X015029Y003861D01*
X014984Y003849D01*
X014943Y003825D01*
X014909Y003792D01*
X014889Y003757D01*
X014895Y003771D01*
X014895Y003889D01*
X014850Y003997D01*
X014767Y004080D01*
X014659Y004125D01*
X014541Y004125D01*
X014433Y004080D01*
X014350Y003997D01*
X014305Y003889D01*
X014305Y003771D01*
X014350Y003663D01*
X014410Y003603D01*
X014410Y002267D01*
X014291Y002267D01*
X014209Y002185D01*
X014209Y001675D01*
X014291Y001593D01*
X014840Y001593D01*
X014900Y001653D01*
X014960Y001593D01*
X015509Y001593D01*
X015591Y001675D01*
X015591Y002185D01*
X015509Y002267D01*
X015440Y002267D01*
X015440Y002439D01*
X015505Y002439D01*
X015587Y002521D01*
X015587Y002640D01*
X015638Y002640D01*
X015634Y002634D01*
X015622Y002588D01*
X015622Y002456D01*
X016038Y002456D01*
X016038Y002456D01*
X015622Y002456D01*
X015622Y002324D01*
X015634Y002278D01*
X015658Y002237D01*
X015691Y002204D01*
X015732Y002180D01*
X015778Y002168D01*
X016038Y002168D01*
X016038Y002456D01*
X016038Y002456D01*
X016038Y002168D01*
X016298Y002168D01*
X016344Y002180D01*
X016385Y002204D01*
X016418Y002237D01*
X016442Y002278D01*
X016454Y002324D01*
X016454Y002456D01*
X016454Y002588D01*
X016442Y002634D01*
X016439Y002640D01*
X016703Y002640D01*
X016686Y002622D01*
X016686Y002290D01*
X016768Y002208D01*
X017356Y002208D01*
X017438Y002290D01*
X017438Y002622D01*
X017420Y002640D01*
X017513Y002640D01*
X017513Y002571D01*
X017595Y002489D01*
X017660Y002489D01*
X017660Y002268D01*
X017533Y002268D01*
X017408Y002217D01*
X017313Y002122D01*
X017262Y001997D01*
X017262Y001863D01*
X017313Y001738D01*
X017408Y001643D01*
X017533Y001592D01*
X017667Y001592D01*
X017792Y001643D01*
X017887Y001738D01*
X017938Y001863D01*
X017938Y001997D01*
X017937Y001999D01*
X018040Y002101D01*
X018040Y002489D01*
X018105Y002489D01*
X018187Y002571D01*
X018187Y003120D01*
X018127Y003180D01*
X018187Y003240D01*
X018187Y003295D01*
X018276Y003295D01*
X018886Y003904D01*
X018862Y003847D01*
X018862Y003713D01*
X018863Y003711D01*
X018521Y003370D01*
X018410Y003259D01*
X018410Y002503D01*
X018311Y002462D01*
X018168Y002319D01*
X018090Y002131D01*
X018090Y001929D01*
X018168Y001741D01*
X018311Y001598D01*
X018499Y001520D01*
X018701Y001520D01*
X018889Y001598D01*
X019032Y001741D01*
X019100Y001904D01*
X019168Y001741D01*
X019311Y001598D01*
X019499Y001520D01*
X019701Y001520D01*
X019889Y001598D01*
X020032Y001741D01*
X020079Y001854D01*
X020090Y001819D01*
X020130Y001742D01*
X020180Y001672D01*
X020242Y001610D01*
X020312Y001560D01*
X020389Y001520D01*
X020471Y001494D01*
X020557Y001480D01*
X020580Y001480D01*
X020580Y002010D01*
X020620Y002010D01*
X020620Y001480D01*
X020643Y001480D01*
X020729Y001494D01*
X020811Y001520D01*
X020888Y001560D01*
X020958Y001610D01*
X021020Y001672D01*
X021070Y001742D01*
X021110Y001819D01*
X021121Y001854D01*
X021168Y001741D01*
X021311Y001598D01*
X021499Y001520D01*
X021701Y001520D01*
X021889Y001598D01*
X022032Y001741D01*
X022100Y001904D01*
X022168Y001741D01*
X022311Y001598D01*
X022499Y001520D01*
X022701Y001520D01*
X022889Y001598D01*
X023032Y001741D01*
X023100Y001904D01*
X023168Y001741D01*
X023311Y001598D01*
X023499Y001520D01*
X023701Y001520D01*
X023889Y001598D01*
X024032Y001741D01*
X024110Y001929D01*
X024110Y002131D01*
X024055Y002264D01*
X024159Y002160D01*
X024292Y002160D01*
X024358Y002093D01*
X024483Y002042D01*
X024617Y002042D01*
X024742Y002093D01*
X024837Y002188D01*
X024888Y002313D01*
X024888Y002447D01*
X024837Y002572D01*
X024742Y002667D01*
X024617Y002718D01*
X024483Y002718D01*
X024358Y002667D01*
X024316Y002625D01*
X022491Y004450D01*
X021553Y004450D01*
X023473Y006370D01*
X023473Y006233D01*
X023832Y006233D01*
X023832Y006196D01*
X023473Y006196D01*
X023473Y005974D01*
X023485Y005929D01*
X023509Y005888D01*
X023543Y005854D01*
X023546Y005852D01*
X023513Y005820D01*
X023513Y005271D01*
X023595Y005189D01*
X024105Y005189D01*
X024187Y005271D01*
X024187Y005355D01*
X024313Y005355D01*
X024313Y005271D01*
X024395Y005189D01*
X024905Y005189D01*
X024987Y005271D01*
X024987Y005355D01*
X025113Y005355D01*
X025113Y005271D01*
X025195Y005189D01*
X025260Y005189D01*
X025260Y004859D01*
X024969Y004567D01*
X024967Y004568D01*
X024833Y004568D01*
X024708Y004517D01*
X024613Y004422D01*
X024562Y004297D01*
X024562Y004163D01*
X024613Y004038D01*
X024708Y003943D01*
X024833Y003892D01*
X024967Y003892D01*
X025092Y003943D01*
X025187Y004038D01*
X025238Y004163D01*
X025238Y004297D01*
X025237Y004299D01*
X025529Y004590D01*
X025640Y004701D01*
X025640Y005189D01*
X025705Y005189D01*
X025787Y005271D01*
X025787Y005355D01*
X025913Y005355D01*
X025913Y005271D01*
X025995Y005189D01*
X026505Y005189D01*
X026587Y005271D01*
X026587Y005820D01*
X026527Y005880D01*
X026587Y005940D01*
X026587Y006489D01*
X026505Y006571D01*
X026440Y006571D01*
X026440Y007820D01*
X027059Y007820D01*
X027059Y007375D01*
X027141Y007293D01*
X027225Y007293D01*
X027225Y006986D01*
X027337Y006875D01*
X027571Y006640D01*
X027709Y006640D01*
X027709Y006575D01*
X027791Y006493D01*
X028340Y006493D01*
X028400Y006553D01*
X028460Y006493D01*
X029009Y006493D01*
X029091Y006575D01*
X029091Y006640D01*
X029279Y006640D01*
X029513Y006875D01*
X029513Y006875D01*
X029625Y006986D01*
X029625Y007293D01*
X029709Y007293D01*
X029791Y007375D01*
X029791Y007820D01*
X030760Y007820D01*
X030760Y006759D01*
X029210Y005209D01*
X029210Y003859D01*
X029071Y003720D01*
X026621Y003720D01*
X026510Y003609D01*
X026510Y003609D01*
X025410Y002509D01*
X025410Y002503D01*
X025311Y002462D01*
X025168Y002319D01*
X025090Y002131D01*
X025090Y001929D01*
X025168Y001741D01*
X025311Y001598D01*
X025499Y001520D01*
X025701Y001520D01*
X025889Y001598D01*
X026032Y001741D01*
X026100Y001904D01*
X026168Y001741D01*
X026311Y001598D01*
X026499Y001520D01*
X026701Y001520D01*
X026889Y001598D01*
X027032Y001741D01*
X027100Y001904D01*
X027168Y001741D01*
X027311Y001598D01*
X027499Y001520D01*
X027701Y001520D01*
X027889Y001598D01*
X028032Y001741D01*
X028100Y001904D01*
X028168Y001741D01*
X028311Y001598D01*
X028499Y001520D01*
X028701Y001520D01*
X028889Y001598D01*
X029032Y001741D01*
X029100Y001904D01*
X029168Y001741D01*
X029311Y001598D01*
X029499Y001520D01*
X029701Y001520D01*
X029889Y001598D01*
X030032Y001741D01*
X030100Y001904D01*
X030168Y001741D01*
X030311Y001598D01*
X030499Y001520D01*
X030701Y001520D01*
X030889Y001598D01*
X031032Y001741D01*
X031090Y001881D02*
X034805Y001881D01*
X034647Y002040D02*
X031110Y002040D01*
X031082Y002198D02*
X034580Y002198D01*
X035195Y001881D02*
X035805Y001881D01*
X035647Y002040D02*
X035353Y002040D01*
X035420Y002198D02*
X035580Y002198D01*
X035580Y002357D02*
X035420Y002357D01*
X035359Y002515D02*
X035496Y002515D01*
X035338Y002674D02*
X035200Y002674D01*
X035310Y002832D02*
X033163Y002832D01*
X032858Y003149D02*
X030590Y003149D01*
X030590Y002991D02*
X032532Y002991D01*
X033016Y003308D02*
X030590Y003308D01*
X030590Y003466D02*
X033175Y003466D01*
X033333Y003625D02*
X030590Y003625D01*
X030590Y003783D02*
X033492Y003783D01*
X033650Y003942D02*
X030590Y003942D01*
X030590Y004100D02*
X033809Y004100D01*
X033967Y004259D02*
X030590Y004259D01*
X030590Y004417D02*
X032235Y004417D01*
X032162Y004576D02*
X030614Y004576D01*
X030773Y004734D02*
X032177Y004734D01*
X032284Y004893D02*
X030931Y004893D01*
X031090Y005051D02*
X033302Y005051D01*
X033410Y005210D02*
X031248Y005210D01*
X031407Y005368D02*
X033410Y005368D01*
X033410Y005527D02*
X031565Y005527D01*
X031724Y005685D02*
X033410Y005685D01*
X033410Y005844D02*
X031882Y005844D01*
X032041Y006002D02*
X033410Y006002D01*
X033410Y006161D02*
X032199Y006161D01*
X032358Y006319D02*
X033410Y006319D01*
X033410Y006478D02*
X032516Y006478D01*
X032675Y006636D02*
X033410Y006636D01*
X033410Y006795D02*
X032833Y006795D01*
X032992Y006953D02*
X033410Y006953D01*
X033410Y007112D02*
X033150Y007112D01*
X033309Y007270D02*
X033410Y007270D01*
X033790Y007270D02*
X034430Y007270D01*
X034430Y007112D02*
X033790Y007112D01*
X033790Y006953D02*
X034430Y006953D01*
X034430Y006795D02*
X033790Y006795D01*
X033790Y006636D02*
X034430Y006636D01*
X034430Y006478D02*
X033790Y006478D01*
X033790Y006319D02*
X034430Y006319D01*
X034430Y006161D02*
X033790Y006161D01*
X033790Y006002D02*
X034430Y006002D01*
X034430Y005844D02*
X033790Y005844D01*
X033790Y005685D02*
X034430Y005685D01*
X034430Y005527D02*
X033790Y005527D01*
X033790Y005368D02*
X034430Y005368D01*
X034430Y005210D02*
X033790Y005210D01*
X033790Y005051D02*
X034430Y005051D01*
X034430Y004893D02*
X033681Y004893D01*
X033523Y004734D02*
X034430Y004734D01*
X034284Y004576D02*
X033364Y004576D01*
X032765Y004417D02*
X034126Y004417D01*
X033144Y004893D02*
X032716Y004893D01*
X030162Y006161D02*
X026587Y006161D01*
X026587Y006319D02*
X030320Y006319D01*
X030479Y006478D02*
X026587Y006478D01*
X026440Y006636D02*
X027709Y006636D01*
X027417Y006795D02*
X026440Y006795D01*
X026440Y006953D02*
X027258Y006953D01*
X027225Y007112D02*
X026440Y007112D01*
X026440Y007270D02*
X027225Y007270D01*
X027059Y007429D02*
X026440Y007429D01*
X026440Y007587D02*
X027059Y007587D01*
X027059Y007746D02*
X026440Y007746D01*
X026060Y007746D02*
X025526Y007746D01*
X025517Y007742D02*
X025642Y007793D01*
X025737Y007888D01*
X025788Y008013D01*
X025788Y008147D01*
X025737Y008272D01*
X025642Y008367D01*
X025517Y008418D01*
X025383Y008418D01*
X025288Y008379D01*
X025288Y008497D01*
X025237Y008622D01*
X025142Y008717D01*
X025017Y008768D01*
X024883Y008768D01*
X024773Y008723D01*
X024853Y008803D01*
X024859Y008803D01*
X024905Y008815D01*
X024946Y008839D01*
X025004Y008897D01*
X024920Y008982D01*
X025004Y008897D01*
X025063Y008956D01*
X025087Y008997D01*
X025099Y009043D01*
X025099Y009048D01*
X025120Y009070D01*
X025250Y008940D01*
X025421Y008940D01*
X025940Y008421D01*
X025940Y007914D01*
X026034Y007820D01*
X026060Y007820D01*
X026060Y006571D01*
X025995Y006571D01*
X025913Y006489D01*
X025913Y005940D01*
X025973Y005880D01*
X025913Y005820D01*
X025913Y005735D01*
X025787Y005735D01*
X025787Y005820D01*
X025754Y005852D01*
X025757Y005854D01*
X025791Y005888D01*
X025815Y005929D01*
X025827Y005974D01*
X025827Y006196D01*
X025468Y006196D01*
X025468Y006233D01*
X025432Y006233D01*
X025432Y006611D01*
X025229Y006611D01*
X025184Y006599D01*
X025143Y006575D01*
X025109Y006542D01*
X025085Y006501D01*
X025073Y006455D01*
X025073Y006233D01*
X025432Y006233D01*
X025432Y006196D01*
X025073Y006196D01*
X025073Y005974D01*
X025085Y005929D01*
X025109Y005888D01*
X025143Y005854D01*
X025146Y005852D01*
X025113Y005820D01*
X025113Y005735D01*
X024987Y005735D01*
X024987Y005820D01*
X024927Y005880D01*
X024987Y005940D01*
X024987Y006489D01*
X024905Y006571D01*
X024840Y006571D01*
X024840Y006609D01*
X024729Y006720D01*
X024629Y006820D01*
X024268Y006820D01*
X024287Y006838D01*
X024338Y006963D01*
X024338Y007092D01*
X024367Y007092D01*
X024492Y007143D01*
X024587Y007238D01*
X024627Y007336D01*
X024661Y007301D01*
X024773Y007190D01*
X025163Y007190D01*
X025163Y007188D01*
X025258Y007093D01*
X025383Y007042D01*
X025517Y007042D01*
X025642Y007093D01*
X025737Y007188D01*
X025788Y007313D01*
X025788Y007447D01*
X025737Y007572D01*
X025642Y007667D01*
X025517Y007718D01*
X025388Y007718D01*
X025388Y007742D01*
X025517Y007742D01*
X025721Y007587D02*
X026060Y007587D01*
X026060Y007429D02*
X025788Y007429D01*
X025770Y007270D02*
X026060Y007270D01*
X026060Y007112D02*
X025660Y007112D01*
X025240Y007112D02*
X024415Y007112D01*
X024334Y006953D02*
X026060Y006953D01*
X026060Y006795D02*
X024654Y006795D01*
X024813Y006636D02*
X026060Y006636D01*
X025913Y006478D02*
X025821Y006478D01*
X025815Y006501D02*
X025791Y006542D01*
X025757Y006575D01*
X025716Y006599D01*
X025671Y006611D01*
X025468Y006611D01*
X025468Y006233D01*
X025827Y006233D01*
X025827Y006455D01*
X025815Y006501D01*
X025827Y006319D02*
X025913Y006319D01*
X025913Y006161D02*
X025827Y006161D01*
X025827Y006002D02*
X025913Y006002D01*
X025937Y005844D02*
X025763Y005844D01*
X025137Y005844D02*
X024963Y005844D01*
X024987Y006002D02*
X025073Y006002D01*
X025073Y006161D02*
X024987Y006161D01*
X024987Y006319D02*
X025073Y006319D01*
X025079Y006478D02*
X024987Y006478D01*
X025432Y006478D02*
X025468Y006478D01*
X025468Y006319D02*
X025432Y006319D01*
X024313Y006319D02*
X024227Y006319D01*
X024227Y006233D02*
X024227Y006440D01*
X024313Y006440D01*
X024313Y005940D01*
X024373Y005880D01*
X024313Y005820D01*
X024313Y005735D01*
X024187Y005735D01*
X024187Y005820D01*
X024154Y005852D01*
X024157Y005854D01*
X024191Y005888D01*
X024215Y005929D01*
X024227Y005974D01*
X024227Y006196D01*
X023868Y006196D01*
X023868Y006233D01*
X024227Y006233D01*
X024227Y006161D02*
X024313Y006161D01*
X024313Y006002D02*
X024227Y006002D01*
X024163Y005844D02*
X024337Y005844D01*
X023537Y005844D02*
X022946Y005844D01*
X023105Y006002D02*
X023473Y006002D01*
X023473Y006161D02*
X023263Y006161D01*
X023422Y006319D02*
X023473Y006319D01*
X023173Y006636D02*
X022988Y006636D01*
X022988Y006647D02*
X022937Y006772D01*
X022842Y006867D01*
X022717Y006918D01*
X022588Y006918D01*
X022588Y006997D01*
X022537Y007122D01*
X022442Y007217D01*
X022317Y007268D01*
X022183Y007268D01*
X022058Y007217D01*
X022020Y007178D01*
X021990Y007209D01*
X021990Y007261D01*
X022041Y007312D01*
X022054Y007312D01*
X022386Y007644D01*
X022386Y007760D01*
X022221Y007926D01*
X022108Y008039D01*
X021942Y008204D01*
X021803Y008343D01*
X021664Y008482D01*
X021525Y008622D01*
X021386Y008761D01*
X021246Y008900D01*
X021107Y009039D01*
X020968Y009178D01*
X020907Y009240D01*
X021190Y009523D01*
X021190Y009747D01*
X021238Y009863D01*
X021238Y009997D01*
X021187Y010122D01*
X021092Y010217D01*
X020967Y010268D01*
X020833Y010268D01*
X020831Y010267D01*
X020779Y010320D01*
X020336Y010320D01*
X020081Y010065D01*
X019994Y010153D01*
X019855Y010292D01*
X019715Y010431D01*
X019654Y010492D01*
X019752Y010590D01*
X020879Y010590D01*
X021081Y010793D01*
X021083Y010792D01*
X021217Y010792D01*
X021342Y010843D01*
X021437Y010938D01*
X021488Y011063D01*
X021488Y011197D01*
X021437Y011322D01*
X021342Y011417D01*
X021323Y011424D01*
X021337Y011438D01*
X021388Y011563D01*
X021388Y011697D01*
X021337Y011822D01*
X021242Y011917D01*
X021117Y011968D01*
X020983Y011968D01*
X020858Y011917D01*
X020763Y011822D01*
X020712Y011697D01*
X020712Y011563D01*
X020713Y011561D01*
X020321Y011170D01*
X019630Y011170D01*
X019630Y012484D01*
X019600Y012514D01*
X019602Y012516D01*
X019664Y012577D01*
X020012Y012229D01*
X020012Y012113D01*
X020063Y011988D01*
X020158Y011893D01*
X020283Y011842D01*
X020417Y011842D01*
X020542Y011893D01*
X020637Y011988D01*
X020688Y012113D01*
X020688Y012247D01*
X020650Y012340D01*
X020663Y012340D01*
X020663Y012338D01*
X020758Y012243D01*
X020883Y012192D01*
X021017Y012192D01*
X021142Y012243D01*
X021237Y012338D01*
X021288Y012463D01*
X021288Y012597D01*
X021237Y012722D01*
X021142Y012817D01*
X021017Y012868D01*
X020883Y012868D01*
X020758Y012817D01*
X020663Y012722D01*
X020663Y012720D01*
X020337Y012720D01*
X020072Y012985D01*
X020159Y013073D01*
X020298Y013212D01*
X020438Y013351D01*
X020510Y013424D01*
X020516Y013424D01*
X020562Y013436D01*
X020603Y013460D01*
X020662Y013518D01*
X020693Y013550D01*
X020904Y013550D01*
X020911Y013557D01*
X022415Y012054D01*
X022412Y012047D01*
X022412Y011913D01*
X022463Y011788D01*
X022558Y011693D01*
X022683Y011642D01*
X022817Y011642D01*
X022942Y011693D01*
X023037Y011788D01*
X023088Y011913D01*
X023088Y012047D01*
X023037Y012172D01*
X022942Y012267D01*
X022817Y012318D01*
X022687Y012318D01*
X021046Y013959D01*
X021134Y014047D01*
X021273Y014186D01*
X021412Y014325D01*
X021551Y014465D01*
X021690Y014604D01*
X021830Y014743D01*
X021886Y014800D01*
X023414Y014800D01*
X023497Y014717D01*
X023636Y014578D01*
X023775Y014438D01*
X023914Y014299D01*
X024054Y014160D01*
X024115Y014099D01*
X023984Y013968D01*
X023883Y013968D01*
X023758Y013917D01*
X023663Y013822D01*
X023612Y013697D01*
X023612Y013563D01*
X023663Y013438D01*
X023758Y013343D01*
X023883Y013292D01*
X024017Y013292D01*
X024142Y013343D01*
X024237Y013438D01*
X024288Y013563D01*
X024288Y013697D01*
X024277Y013724D01*
X024355Y013802D01*
X024360Y013797D01*
X024445Y013882D01*
X024445Y013882D01*
X024445Y013882D01*
X024360Y013797D01*
X024419Y013738D01*
X024460Y013715D01*
X024505Y013702D01*
X024511Y013702D01*
X024610Y013603D01*
X024610Y013603D01*
X024723Y013490D01*
X024889Y013325D01*
X025028Y013186D01*
X025167Y013046D01*
X025306Y012907D01*
X025306Y012907D01*
X025419Y012794D01*
X025585Y012629D01*
X025724Y012490D01*
X025785Y012428D01*
X025778Y012421D01*
X025640Y012559D01*
X025529Y012670D01*
X025287Y012670D01*
X025287Y012672D01*
X025192Y012767D01*
X025067Y012818D01*
X024933Y012818D01*
X024808Y012767D01*
X024713Y012672D01*
X024662Y012547D01*
X024662Y012413D01*
X024713Y012288D01*
X024808Y012193D01*
X024933Y012142D01*
X025012Y012142D01*
X025012Y012013D01*
X025063Y011888D01*
X025158Y011793D01*
X025283Y011742D01*
X025417Y011742D01*
X025419Y011743D01*
X025471Y011690D01*
X025863Y011690D01*
X025920Y011747D01*
X025920Y011338D01*
X025892Y011367D01*
X025767Y011418D01*
X025633Y011418D01*
X025508Y011367D01*
X025413Y011272D01*
X025362Y011147D01*
X025362Y011013D01*
X025413Y010888D01*
X025508Y010793D01*
X025510Y010793D01*
X025510Y010748D01*
X025442Y010817D01*
X025317Y010868D01*
X025183Y010868D01*
X025058Y010817D01*
X024963Y010722D01*
X024912Y010597D01*
X024912Y010463D01*
X024963Y010338D01*
X025058Y010243D01*
X025061Y010242D01*
X025171Y010132D01*
X025228Y010075D01*
X025141Y009987D01*
X025002Y009848D01*
X024940Y009787D01*
X024740Y009987D01*
X024740Y010259D01*
X023737Y011261D01*
X023738Y011263D01*
X023738Y011397D01*
X023687Y011522D01*
X023592Y011617D01*
X023467Y011668D01*
X023333Y011668D01*
X023208Y011617D01*
X023113Y011522D01*
X023062Y011397D01*
X023062Y011263D01*
X023113Y011138D01*
X023134Y011118D01*
X023033Y011118D01*
X022908Y011067D01*
X022813Y010972D01*
X022762Y010847D01*
X022762Y010713D01*
X022813Y010588D01*
X022908Y010493D01*
X023033Y010442D01*
X023167Y010442D01*
X023292Y010493D01*
X023355Y010557D01*
X024504Y009407D01*
X024499Y009402D01*
X024494Y009397D01*
X024283Y009609D01*
X024172Y009720D01*
X022887Y009720D01*
X022887Y009722D01*
X022792Y009817D01*
X022667Y009868D01*
X022533Y009868D01*
X022408Y009817D01*
X022313Y009722D01*
X022262Y009597D01*
X022262Y009463D01*
X022313Y009338D01*
X022408Y009243D01*
X022533Y009192D01*
X022667Y009192D01*
X022792Y009243D01*
X022887Y009338D01*
X022887Y009340D01*
X022991Y009340D01*
X022721Y009070D01*
X022637Y009070D01*
X022637Y009072D01*
X022542Y009167D01*
X022417Y009218D01*
X022283Y009218D01*
X022158Y009167D01*
X022063Y009072D01*
X022012Y008947D01*
X022012Y008813D01*
X022063Y008688D01*
X022158Y008593D01*
X022283Y008542D01*
X022417Y008542D01*
X022542Y008593D01*
X022637Y008688D01*
X022637Y008690D01*
X022812Y008690D01*
X022812Y008613D01*
X022863Y008488D01*
X022958Y008393D01*
X023051Y008355D01*
X023071Y008335D01*
X023280Y008126D01*
X023192Y008039D01*
X023192Y008039D01*
X023053Y007899D01*
X022914Y007760D01*
X022914Y007644D01*
X023021Y007537D01*
X023021Y007526D01*
X023138Y007409D01*
X023350Y007197D01*
X023350Y006813D01*
X022944Y006407D01*
X022988Y006513D01*
X022988Y006647D01*
X022914Y006795D02*
X023332Y006795D01*
X023350Y006953D02*
X022588Y006953D01*
X022541Y007112D02*
X023350Y007112D01*
X023277Y007270D02*
X021999Y007270D01*
X022171Y007429D02*
X023119Y007429D01*
X022971Y007587D02*
X022329Y007587D01*
X022386Y007746D02*
X022914Y007746D01*
X023058Y007904D02*
X022242Y007904D01*
X022108Y008039D02*
X022108Y008039D01*
X022084Y008063D02*
X023216Y008063D01*
X023185Y008221D02*
X021925Y008221D01*
X021767Y008380D02*
X022992Y008380D01*
X022843Y008538D02*
X021608Y008538D01*
X021450Y008697D02*
X022060Y008697D01*
X022012Y008855D02*
X021291Y008855D01*
X021133Y009014D02*
X022039Y009014D01*
X022171Y009172D02*
X020974Y009172D01*
X020998Y009331D02*
X022321Y009331D01*
X022262Y009489D02*
X021156Y009489D01*
X021190Y009648D02*
X022283Y009648D01*
X022398Y009806D02*
X021215Y009806D01*
X021238Y009965D02*
X023947Y009965D01*
X023788Y010123D02*
X021185Y010123D01*
X020817Y010282D02*
X023630Y010282D01*
X023471Y010440D02*
X019706Y010440D01*
X019865Y010282D02*
X020298Y010282D01*
X020139Y010123D02*
X020023Y010123D01*
X020887Y010599D02*
X022809Y010599D01*
X022762Y010757D02*
X021046Y010757D01*
X021414Y010916D02*
X022790Y010916D01*
X022926Y011074D02*
X021488Y011074D01*
X021474Y011233D02*
X023074Y011233D01*
X023062Y011391D02*
X021367Y011391D01*
X021383Y011550D02*
X023141Y011550D01*
X022956Y011708D02*
X025453Y011708D01*
X025567Y011391D02*
X023738Y011391D01*
X023766Y011233D02*
X025397Y011233D01*
X025362Y011074D02*
X023925Y011074D01*
X024083Y010916D02*
X025402Y010916D01*
X025501Y010757D02*
X025510Y010757D01*
X024999Y010757D02*
X024242Y010757D01*
X024400Y010599D02*
X024912Y010599D01*
X024921Y010440D02*
X024559Y010440D01*
X024717Y010282D02*
X025020Y010282D01*
X025180Y010123D02*
X024740Y010123D01*
X024763Y009965D02*
X025118Y009965D01*
X024960Y009806D02*
X024921Y009806D01*
X024422Y009489D02*
X024403Y009489D01*
X024499Y009402D02*
X024584Y009318D01*
X024584Y009318D01*
X024499Y009402D01*
X024571Y009331D02*
X024571Y009331D01*
X024584Y009318D02*
X024584Y009318D01*
X024264Y009648D02*
X024244Y009648D01*
X024105Y009806D02*
X022802Y009806D01*
X022879Y009331D02*
X022982Y009331D01*
X022823Y009172D02*
X022529Y009172D01*
X024920Y008982D02*
X024920Y008982D01*
X024920Y008982D01*
X024962Y008855D02*
X025506Y008855D01*
X025665Y008697D02*
X025162Y008697D01*
X025271Y008538D02*
X025823Y008538D01*
X025940Y008380D02*
X025610Y008380D01*
X025758Y008221D02*
X025940Y008221D01*
X025940Y008063D02*
X025788Y008063D01*
X025743Y007904D02*
X025950Y007904D01*
X025290Y008380D02*
X025288Y008380D01*
X025176Y009014D02*
X025091Y009014D01*
X024693Y007270D02*
X024600Y007270D01*
X023015Y006478D02*
X022974Y006478D01*
X022433Y006319D02*
X022208Y006319D01*
X022238Y006161D02*
X022698Y006161D01*
X022539Y006002D02*
X022192Y006002D01*
X022381Y005844D02*
X021971Y005844D01*
X021829Y005844D02*
X018387Y005844D01*
X018387Y006002D02*
X021259Y006002D01*
X021101Y006161D02*
X020912Y006161D01*
X020688Y006161D02*
X020212Y006161D01*
X019988Y006161D02*
X019512Y006161D01*
X019288Y006161D02*
X018762Y006161D01*
X018538Y006161D02*
X018387Y006161D01*
X018949Y006319D02*
X019101Y006319D01*
X019062Y006478D02*
X018988Y006478D01*
X018460Y006795D02*
X017524Y006795D01*
X017616Y006636D02*
X018087Y006636D01*
X017929Y006478D02*
X017664Y006478D01*
X017706Y006319D02*
X017713Y006319D01*
X017712Y006161D02*
X017713Y006161D01*
X017712Y006002D02*
X017713Y006002D01*
X017713Y005844D02*
X017680Y005844D01*
X017688Y005685D02*
X017638Y005685D01*
X017673Y005527D02*
X017559Y005527D01*
X017468Y005368D02*
X017673Y005368D01*
X017673Y005377D02*
X017673Y005155D01*
X017685Y005109D01*
X017709Y005068D01*
X017743Y005035D01*
X017784Y005011D01*
X017829Y004999D01*
X018032Y004999D01*
X018032Y005377D01*
X017673Y005377D01*
X017673Y005210D02*
X017315Y005210D01*
X017106Y005051D02*
X017726Y005051D01*
X018032Y005051D02*
X018068Y005051D01*
X018068Y005210D02*
X018032Y005210D01*
X018032Y005368D02*
X018068Y005368D01*
X018427Y005368D02*
X021905Y005368D01*
X021747Y005210D02*
X018427Y005210D01*
X018374Y005051D02*
X021588Y005051D01*
X021430Y004893D02*
X016710Y004893D01*
X016594Y004704D02*
X016406Y004704D01*
X016232Y004632D01*
X016098Y004498D01*
X016026Y004324D01*
X016026Y004136D01*
X016098Y003962D01*
X016232Y003828D01*
X016406Y003756D01*
X016594Y003756D01*
X016768Y003828D01*
X016902Y003962D01*
X016974Y004136D01*
X016974Y004324D01*
X016902Y004498D01*
X016768Y004632D01*
X016594Y004704D01*
X016824Y004576D02*
X021113Y004576D01*
X021271Y004734D02*
X015323Y004734D01*
X015481Y004893D02*
X016190Y004893D01*
X015794Y005051D02*
X015490Y005051D01*
X015489Y005210D02*
X015585Y005210D01*
X015432Y005368D02*
X015331Y005368D01*
X015341Y005527D02*
X015240Y005527D01*
X015240Y005685D02*
X015262Y005685D01*
X013121Y005368D02*
X012580Y005368D01*
X012738Y005210D02*
X013014Y005210D01*
X013013Y005051D02*
X012897Y005051D01*
X013006Y004893D02*
X013110Y004893D01*
X013110Y004734D02*
X013010Y004734D01*
X013009Y004576D02*
X013027Y004576D01*
X013706Y004417D02*
X016065Y004417D01*
X016026Y004259D02*
X013740Y004259D01*
X013899Y004100D02*
X014481Y004100D01*
X014327Y003942D02*
X014057Y003942D01*
X014216Y003783D02*
X014305Y003783D01*
X014374Y003625D02*
X014388Y003625D01*
X014390Y003466D02*
X014410Y003466D01*
X014410Y003308D02*
X014390Y003308D01*
X014390Y003149D02*
X014410Y003149D01*
X014410Y002991D02*
X014390Y002991D01*
X014390Y002832D02*
X014410Y002832D01*
X014410Y002674D02*
X014312Y002674D01*
X014279Y002640D02*
X014279Y002640D01*
X014154Y002515D02*
X014410Y002515D01*
X014410Y002357D02*
X013995Y002357D01*
X013878Y002198D02*
X014222Y002198D01*
X014209Y002040D02*
X013891Y002040D01*
X013891Y001881D02*
X014209Y001881D01*
X014209Y001723D02*
X013891Y001723D01*
X014790Y002267D02*
X014790Y003603D01*
X014850Y003663D01*
X014884Y003744D01*
X014873Y003705D01*
X014873Y003483D01*
X015232Y003483D01*
X015232Y003446D01*
X014873Y003446D01*
X014873Y003224D01*
X014885Y003179D01*
X014909Y003138D01*
X014943Y003104D01*
X014946Y003102D01*
X014913Y003070D01*
X014913Y002521D01*
X014995Y002439D01*
X015060Y002439D01*
X015060Y002267D01*
X014960Y002267D01*
X014900Y002207D01*
X014840Y002267D01*
X014790Y002267D01*
X014790Y002357D02*
X015060Y002357D01*
X014919Y002515D02*
X014790Y002515D01*
X014790Y002674D02*
X014913Y002674D01*
X014913Y002832D02*
X014790Y002832D01*
X014790Y002991D02*
X014913Y002991D01*
X014903Y003149D02*
X014790Y003149D01*
X014790Y003308D02*
X014873Y003308D01*
X014790Y003466D02*
X015232Y003466D01*
X015268Y003466D02*
X015708Y003466D01*
X015627Y003483D02*
X015627Y003705D01*
X015615Y003751D01*
X015591Y003792D01*
X015557Y003825D01*
X015516Y003849D01*
X015471Y003861D01*
X015268Y003861D01*
X015268Y003483D01*
X015627Y003483D01*
X015627Y003625D02*
X016845Y003625D01*
X016842Y003466D02*
X016368Y003466D01*
X016454Y003308D02*
X016686Y003308D01*
X016686Y003149D02*
X016454Y003149D01*
X016454Y003204D02*
X016038Y003204D01*
X015622Y003204D01*
X015622Y003072D01*
X015634Y003026D01*
X015638Y003020D01*
X015587Y003020D01*
X015587Y003070D01*
X015554Y003102D01*
X015557Y003104D01*
X015591Y003138D01*
X015615Y003179D01*
X015622Y003206D01*
X015622Y003204D01*
X016038Y003204D01*
X016038Y003204D01*
X016038Y003492D01*
X016038Y003204D01*
X016038Y003204D01*
X016454Y003204D01*
X016038Y003204D02*
X016038Y003204D01*
X016038Y003308D02*
X016038Y003308D01*
X016038Y003466D02*
X016038Y003466D01*
X016341Y003783D02*
X015596Y003783D01*
X015268Y003783D02*
X015232Y003783D01*
X015232Y003625D02*
X015268Y003625D01*
X014873Y003625D02*
X014812Y003625D01*
X014895Y003783D02*
X014904Y003783D01*
X014873Y003942D02*
X016119Y003942D01*
X016041Y004100D02*
X014719Y004100D01*
X015164Y004576D02*
X016176Y004576D01*
X016935Y004417D02*
X018776Y004417D01*
X018680Y004321D02*
X018680Y004321D01*
X018617Y004259D02*
X016974Y004259D01*
X016959Y004100D02*
X018459Y004100D01*
X018300Y003942D02*
X016881Y003942D01*
X016659Y003783D02*
X017513Y003783D01*
X017850Y003530D02*
X017062Y003530D01*
X017062Y003204D01*
X017850Y003515D02*
X018185Y003515D01*
X018900Y004230D01*
X019800Y004230D01*
X020300Y003730D01*
X020300Y002730D01*
X019600Y002030D01*
X019110Y001881D02*
X019090Y001881D01*
X019014Y001723D02*
X019186Y001723D01*
X019392Y001564D02*
X018808Y001564D01*
X018392Y001564D02*
X009980Y001564D01*
X009980Y001406D02*
X048890Y001406D01*
X048890Y001564D02*
X030808Y001564D01*
X030392Y001564D02*
X029808Y001564D01*
X030014Y001723D02*
X030186Y001723D01*
X030110Y001881D02*
X030090Y001881D01*
X029392Y001564D02*
X028808Y001564D01*
X029014Y001723D02*
X029186Y001723D01*
X029110Y001881D02*
X029090Y001881D01*
X028392Y001564D02*
X027808Y001564D01*
X028014Y001723D02*
X028186Y001723D01*
X028110Y001881D02*
X028090Y001881D01*
X027392Y001564D02*
X026808Y001564D01*
X027014Y001723D02*
X027186Y001723D01*
X027110Y001881D02*
X027090Y001881D01*
X026392Y001564D02*
X025808Y001564D01*
X026014Y001723D02*
X026186Y001723D01*
X026110Y001881D02*
X026090Y001881D01*
X025392Y001564D02*
X023808Y001564D01*
X024014Y001723D02*
X025186Y001723D01*
X025110Y001881D02*
X024090Y001881D01*
X024110Y002040D02*
X025090Y002040D01*
X025118Y002198D02*
X024841Y002198D01*
X024888Y002357D02*
X025205Y002357D01*
X025416Y002515D02*
X024860Y002515D01*
X024725Y002674D02*
X025575Y002674D01*
X025733Y002832D02*
X024109Y002832D01*
X023951Y002991D02*
X025892Y002991D01*
X026050Y003149D02*
X023792Y003149D01*
X023634Y003308D02*
X026209Y003308D01*
X026367Y003466D02*
X023475Y003466D01*
X023317Y003625D02*
X026526Y003625D01*
X025212Y004100D02*
X029210Y004100D01*
X029210Y003942D02*
X025087Y003942D01*
X025238Y004259D02*
X029210Y004259D01*
X029210Y004417D02*
X025356Y004417D01*
X025514Y004576D02*
X029210Y004576D01*
X029210Y004734D02*
X025640Y004734D01*
X025640Y004893D02*
X029210Y004893D01*
X029210Y005051D02*
X025640Y005051D01*
X025726Y005210D02*
X025974Y005210D01*
X025260Y005051D02*
X022154Y005051D01*
X022312Y005210D02*
X023574Y005210D01*
X023513Y005368D02*
X022471Y005368D01*
X022629Y005527D02*
X023513Y005527D01*
X023513Y005685D02*
X022788Y005685D01*
X022222Y005685D02*
X018412Y005685D01*
X018427Y005527D02*
X022064Y005527D01*
X021995Y004893D02*
X025260Y004893D01*
X025135Y004734D02*
X021837Y004734D01*
X021678Y004576D02*
X024977Y004576D01*
X024611Y004417D02*
X022524Y004417D01*
X022683Y004259D02*
X024562Y004259D01*
X024588Y004100D02*
X022841Y004100D01*
X023000Y003942D02*
X024713Y003942D01*
X025529Y004590D02*
X025529Y004590D01*
X025174Y005210D02*
X024926Y005210D01*
X024374Y005210D02*
X024126Y005210D01*
X022400Y004230D02*
X021050Y004230D01*
X021000Y004230D01*
X019800Y004230D01*
X020331Y004010D02*
X022309Y004010D01*
X023834Y002485D01*
X023701Y002540D01*
X023499Y002540D01*
X023311Y002462D01*
X023168Y002319D01*
X023100Y002156D01*
X023032Y002319D01*
X022889Y002462D01*
X022701Y002540D01*
X022499Y002540D01*
X022311Y002462D01*
X022168Y002319D01*
X022100Y002156D01*
X022032Y002319D01*
X021889Y002462D01*
X021701Y002540D01*
X021499Y002540D01*
X021311Y002462D01*
X021168Y002319D01*
X021121Y002206D01*
X021110Y002241D01*
X021070Y002318D01*
X021020Y002388D01*
X020958Y002450D01*
X020888Y002500D01*
X020811Y002540D01*
X020729Y002566D01*
X020643Y002580D01*
X020620Y002580D01*
X020620Y002050D01*
X020580Y002050D01*
X020580Y002580D01*
X020557Y002580D01*
X020471Y002566D01*
X020436Y002555D01*
X020520Y002639D01*
X020520Y003821D01*
X020331Y004010D01*
X020400Y003942D02*
X022377Y003942D01*
X022536Y003783D02*
X020520Y003783D01*
X020520Y003625D02*
X022694Y003625D01*
X022853Y003466D02*
X020520Y003466D01*
X020520Y003308D02*
X023011Y003308D01*
X023170Y003149D02*
X020520Y003149D01*
X020520Y002991D02*
X023328Y002991D01*
X023487Y002832D02*
X020520Y002832D01*
X020520Y002674D02*
X023645Y002674D01*
X023762Y002515D02*
X023804Y002515D01*
X023438Y002515D02*
X022762Y002515D01*
X022995Y002357D02*
X023205Y002357D01*
X023118Y002198D02*
X023082Y002198D01*
X023090Y001881D02*
X023110Y001881D01*
X023186Y001723D02*
X023014Y001723D01*
X022808Y001564D02*
X023392Y001564D01*
X022392Y001564D02*
X021808Y001564D01*
X022014Y001723D02*
X022186Y001723D01*
X022110Y001881D02*
X022090Y001881D01*
X022082Y002198D02*
X022118Y002198D01*
X022205Y002357D02*
X021995Y002357D01*
X021762Y002515D02*
X022438Y002515D01*
X021438Y002515D02*
X020860Y002515D01*
X020620Y002515D02*
X020580Y002515D01*
X020580Y002357D02*
X020620Y002357D01*
X020620Y002198D02*
X020580Y002198D01*
X020580Y001881D02*
X020620Y001881D01*
X020620Y001723D02*
X020580Y001723D01*
X020580Y001564D02*
X020620Y001564D01*
X020894Y001564D02*
X021392Y001564D01*
X021186Y001723D02*
X021056Y001723D01*
X020306Y001564D02*
X019808Y001564D01*
X020014Y001723D02*
X020144Y001723D01*
X021043Y002357D02*
X021205Y002357D01*
X018776Y003625D02*
X018606Y003625D01*
X018617Y003466D02*
X018447Y003466D01*
X018459Y003308D02*
X018289Y003308D01*
X018410Y003149D02*
X018158Y003149D01*
X018187Y002991D02*
X018410Y002991D01*
X018410Y002832D02*
X018187Y002832D01*
X018187Y002674D02*
X018410Y002674D01*
X018410Y002515D02*
X018131Y002515D01*
X018205Y002357D02*
X018040Y002357D01*
X018040Y002198D02*
X018118Y002198D01*
X018090Y002040D02*
X017978Y002040D01*
X017938Y001881D02*
X018110Y001881D01*
X018186Y001723D02*
X017871Y001723D01*
X017329Y001723D02*
X015591Y001723D01*
X015591Y001881D02*
X017262Y001881D01*
X017279Y002040D02*
X015591Y002040D01*
X015578Y002198D02*
X015701Y002198D01*
X015622Y002357D02*
X015440Y002357D01*
X015581Y002515D02*
X015622Y002515D01*
X016038Y002456D02*
X016454Y002456D01*
X016038Y002456D01*
X016038Y002456D01*
X016038Y002357D02*
X016038Y002357D01*
X016038Y002198D02*
X016038Y002198D01*
X016375Y002198D02*
X017390Y002198D01*
X017438Y002357D02*
X017660Y002357D01*
X017569Y002515D02*
X017438Y002515D01*
X016686Y002515D02*
X016454Y002515D01*
X016454Y002357D02*
X016686Y002357D01*
X015622Y003149D02*
X015597Y003149D01*
X012983Y002832D02*
X012020Y002832D01*
X012049Y002674D02*
X012825Y002674D01*
X012675Y002515D02*
X012049Y002515D01*
X012049Y002357D02*
X012675Y002357D01*
X012522Y002198D02*
X012049Y002198D01*
X012049Y002040D02*
X012509Y002040D01*
X012509Y001881D02*
X012002Y001881D01*
X011871Y001723D02*
X012509Y001723D01*
X011353Y001723D02*
X009980Y001723D01*
X009980Y001881D02*
X010888Y001881D01*
X009980Y001247D02*
X048890Y001247D01*
X048890Y001723D02*
X047511Y001723D01*
X047670Y001881D02*
X048890Y001881D01*
X048890Y002040D02*
X047740Y002040D01*
X047740Y002198D02*
X048890Y002198D01*
X048890Y002357D02*
X047740Y002357D01*
X047740Y002515D02*
X048890Y002515D01*
X048890Y002674D02*
X047740Y002674D01*
X047740Y002832D02*
X048890Y002832D01*
X048890Y002991D02*
X047740Y002991D01*
X047740Y003149D02*
X048890Y003149D01*
X048890Y003308D02*
X047740Y003308D01*
X047740Y003466D02*
X048890Y003466D01*
X048890Y003625D02*
X047740Y003625D01*
X047740Y003783D02*
X048391Y003783D01*
X048169Y003942D02*
X047740Y003942D01*
X047599Y004100D02*
X048091Y004100D01*
X048076Y004259D02*
X047440Y004259D01*
X047282Y004417D02*
X048115Y004417D01*
X048226Y004576D02*
X047123Y004576D01*
X046965Y004734D02*
X048890Y004734D01*
X048874Y004576D02*
X048890Y004576D01*
X048890Y004893D02*
X039891Y004893D01*
X039983Y005051D02*
X048890Y005051D01*
X048890Y005210D02*
X039983Y005210D01*
X039890Y005368D02*
X048890Y005368D01*
X048890Y005527D02*
X039522Y005527D01*
X039364Y005685D02*
X039980Y005685D01*
X039980Y005642D02*
X040062Y005560D01*
X040738Y005560D01*
X040820Y005642D01*
X040820Y006318D01*
X040738Y006400D01*
X040062Y006400D01*
X039980Y006318D01*
X039980Y005642D01*
X039980Y005844D02*
X039205Y005844D01*
X039190Y006002D02*
X039980Y006002D01*
X039980Y006161D02*
X039190Y006161D01*
X039190Y006319D02*
X039981Y006319D01*
X040226Y006560D02*
X040574Y006560D01*
X040820Y006806D01*
X040820Y007154D01*
X040574Y007400D01*
X040226Y007400D01*
X039980Y007154D01*
X039980Y006806D01*
X040226Y006560D01*
X040150Y006636D02*
X039190Y006636D01*
X039190Y006478D02*
X048890Y006478D01*
X048890Y006636D02*
X048021Y006636D01*
X047994Y006610D02*
X048117Y006733D01*
X048184Y006893D01*
X048184Y007067D01*
X048117Y007227D01*
X047994Y007350D01*
X047834Y007417D01*
X047066Y007417D01*
X046906Y007350D01*
X046783Y007227D01*
X046716Y007067D01*
X046716Y006893D01*
X046783Y006733D01*
X046906Y006610D01*
X047066Y006543D01*
X047834Y006543D01*
X047994Y006610D01*
X048143Y006795D02*
X048890Y006795D01*
X048890Y006953D02*
X048184Y006953D01*
X048165Y007112D02*
X048890Y007112D01*
X048890Y007270D02*
X048075Y007270D01*
X047994Y007610D02*
X048117Y007733D01*
X048184Y007893D01*
X048184Y008067D01*
X048117Y008227D01*
X047994Y008350D01*
X047834Y008417D01*
X047066Y008417D01*
X046906Y008350D01*
X046783Y008227D01*
X046759Y008170D01*
X046445Y008170D01*
X045990Y008397D01*
X045990Y010309D01*
X045560Y010739D01*
X045560Y010817D01*
X045659Y010858D01*
X045802Y011001D01*
X045880Y011189D01*
X045880Y011391D01*
X045880Y011233D02*
X047420Y011233D01*
X047420Y011189D02*
X047498Y011001D01*
X047641Y010858D01*
X047829Y010780D01*
X047583Y010916D02*
X045717Y010916D01*
X045833Y011074D02*
X047467Y011074D01*
X047420Y011189D02*
X047420Y011391D01*
X047485Y011550D02*
X045815Y011550D01*
X045673Y011708D02*
X047627Y011708D01*
X048233Y011708D02*
X048890Y011708D01*
X048890Y011550D02*
X048375Y011550D01*
X048890Y011867D02*
X034305Y011867D01*
X034464Y012025D02*
X048890Y012025D01*
X048890Y012184D02*
X034622Y012184D01*
X034640Y012342D02*
X048890Y012342D01*
X048890Y012501D02*
X034640Y012501D01*
X034640Y012659D02*
X045060Y012659D01*
X044923Y012818D02*
X034640Y012818D01*
X034640Y012976D02*
X035935Y012976D01*
X035777Y013135D02*
X034640Y013135D01*
X034640Y013293D02*
X035618Y013293D01*
X035460Y013452D02*
X034742Y013452D01*
X034788Y013610D02*
X035301Y013610D01*
X035143Y013769D02*
X034759Y013769D01*
X034616Y013927D02*
X034984Y013927D01*
X034826Y014086D02*
X034090Y014086D01*
X034090Y013927D02*
X034284Y013927D01*
X034141Y013769D02*
X034090Y013769D01*
X034090Y013610D02*
X034112Y013610D01*
X034090Y013452D02*
X034158Y013452D01*
X034090Y013293D02*
X034260Y013293D01*
X034260Y013135D02*
X034090Y013135D01*
X034090Y012976D02*
X034260Y012976D01*
X034260Y012818D02*
X034090Y012818D01*
X033998Y012659D02*
X034260Y012659D01*
X034260Y012501D02*
X033839Y012501D01*
X033681Y012342D02*
X034243Y012342D01*
X034085Y012184D02*
X033522Y012184D01*
X033364Y012025D02*
X033926Y012025D01*
X033768Y011867D02*
X033205Y011867D01*
X033143Y012342D02*
X032531Y012342D01*
X032689Y012501D02*
X033302Y012501D01*
X033460Y012659D02*
X032848Y012659D01*
X032990Y012818D02*
X033619Y012818D01*
X033710Y012976D02*
X032990Y012976D01*
X032990Y013135D02*
X033710Y013135D01*
X033710Y013293D02*
X032990Y013293D01*
X032990Y013452D02*
X033710Y013452D01*
X033710Y013610D02*
X032990Y013610D01*
X032990Y013769D02*
X033710Y013769D01*
X033710Y013927D02*
X032990Y013927D01*
X032990Y014086D02*
X033710Y014086D01*
X033590Y014244D02*
X032990Y014244D01*
X032990Y014403D02*
X033562Y014403D01*
X033609Y014561D02*
X032990Y014561D01*
X033099Y014720D02*
X034192Y014720D01*
X034191Y014561D02*
X034350Y014561D01*
X034238Y014403D02*
X034509Y014403D01*
X034667Y014244D02*
X034210Y014244D01*
X034033Y014878D02*
X033138Y014878D01*
X033101Y015037D02*
X033875Y015037D01*
X033716Y015195D02*
X032923Y015195D01*
X032677Y015195D02*
X032540Y015195D01*
X032540Y015354D02*
X033558Y015354D01*
X033399Y015512D02*
X032540Y015512D01*
X032540Y015671D02*
X033241Y015671D01*
X033082Y015829D02*
X032653Y015829D01*
X032688Y015988D02*
X032924Y015988D01*
X032765Y016146D02*
X032647Y016146D01*
X032607Y016305D02*
X032455Y016305D01*
X034293Y017256D02*
X034630Y017256D01*
X034630Y017318D02*
X034630Y016919D01*
X033509Y018040D01*
X033821Y018040D01*
X034071Y017790D01*
X034646Y017790D01*
X034876Y017560D01*
X035224Y017560D01*
X035470Y017806D01*
X035470Y018154D01*
X035334Y018290D01*
X035471Y018290D01*
X035630Y018131D01*
X035630Y017806D01*
X035876Y017560D01*
X036224Y017560D01*
X036470Y017806D01*
X036470Y018154D01*
X036224Y018400D01*
X035899Y018400D01*
X035740Y018559D01*
X035629Y018670D01*
X035334Y018670D01*
X035470Y018806D01*
X035470Y019154D01*
X035334Y019290D01*
X035471Y019290D01*
X035630Y019131D01*
X035630Y018806D01*
X035876Y018560D01*
X036224Y018560D01*
X036470Y018806D01*
X036470Y019154D01*
X036224Y019400D01*
X035899Y019400D01*
X035629Y019670D01*
X035334Y019670D01*
X035470Y019806D01*
X035470Y020154D01*
X035334Y020290D01*
X035766Y020290D01*
X035630Y020154D01*
X035630Y019806D01*
X035876Y019560D01*
X036224Y019560D01*
X036470Y019806D01*
X036470Y020154D01*
X036334Y020290D01*
X038013Y020290D01*
X038013Y020288D01*
X038108Y020193D01*
X038233Y020142D01*
X038367Y020142D01*
X038492Y020193D01*
X038587Y020288D01*
X038638Y020413D01*
X038638Y020547D01*
X038587Y020672D01*
X038492Y020767D01*
X038367Y020818D01*
X038233Y020818D01*
X038108Y020767D01*
X038013Y020672D01*
X038013Y020670D01*
X036334Y020670D01*
X036470Y020806D01*
X036470Y021154D01*
X036224Y021400D01*
X035876Y021400D01*
X035630Y021154D01*
X035630Y020806D01*
X035766Y020670D01*
X035391Y020670D01*
X035510Y020789D01*
X035510Y020970D01*
X035060Y020970D01*
X035060Y020990D01*
X035040Y020990D01*
X035040Y021440D01*
X034859Y021440D01*
X034590Y021171D01*
X034590Y020990D01*
X035040Y020990D01*
X035040Y020970D01*
X034590Y020970D01*
X034590Y020789D01*
X034709Y020670D01*
X034271Y020670D01*
X034160Y020559D01*
X034088Y020487D01*
X034088Y020547D01*
X034037Y020672D01*
X033942Y020767D01*
X033817Y020818D01*
X033683Y020818D01*
X033558Y020767D01*
X033463Y020672D01*
X033463Y020670D01*
X032912Y020670D01*
X033023Y020781D01*
X033090Y020942D01*
X033090Y021118D01*
X033023Y021279D01*
X032899Y021403D01*
X032810Y021440D01*
X040621Y021440D01*
X040710Y021351D01*
X040710Y021321D01*
X040591Y021440D01*
X040410Y021440D01*
X040410Y020990D01*
X040390Y020990D01*
X040390Y021440D01*
X040209Y021440D01*
X039940Y021171D01*
X039940Y020990D01*
X040390Y020990D01*
X040390Y020970D01*
X040410Y020970D01*
X040410Y020520D01*
X040591Y020520D01*
X040710Y020639D01*
X040710Y020401D01*
X040980Y020131D01*
X040980Y019806D01*
X041226Y019560D01*
X041574Y019560D01*
X041810Y019796D01*
X041810Y019164D01*
X041574Y019400D01*
X041226Y019400D01*
X040980Y019154D01*
X040980Y018829D01*
X040821Y018670D01*
X040684Y018670D01*
X040820Y018806D01*
X040820Y019154D01*
X040574Y019400D01*
X040226Y019400D01*
X039980Y019154D01*
X039980Y018806D01*
X040116Y018670D01*
X039579Y018670D01*
X039387Y018861D01*
X039388Y018863D01*
X039388Y018997D01*
X039337Y019122D01*
X039242Y019217D01*
X039117Y019268D01*
X038983Y019268D01*
X038858Y019217D01*
X038763Y019122D01*
X038712Y018997D01*
X038712Y018863D01*
X038763Y018738D01*
X038858Y018643D01*
X038983Y018592D01*
X039117Y018592D01*
X039119Y018593D01*
X039310Y018401D01*
X039421Y018290D01*
X040116Y018290D01*
X039980Y018154D01*
X039980Y017806D01*
X040226Y017560D01*
X040574Y017560D01*
X040820Y017806D01*
X040820Y018154D01*
X040684Y018290D01*
X040979Y018290D01*
X041090Y018401D01*
X041090Y018401D01*
X041249Y018560D01*
X041574Y018560D01*
X041810Y018796D01*
X041810Y018164D01*
X041574Y018400D01*
X041226Y018400D01*
X040980Y018154D01*
X040980Y017806D01*
X041226Y017560D01*
X041574Y017560D01*
X041810Y017796D01*
X041810Y017164D01*
X041574Y017400D01*
X041226Y017400D01*
X040980Y017154D01*
X040980Y016806D01*
X041066Y016720D01*
X040929Y016720D01*
X040820Y016829D01*
X040820Y017318D01*
X040738Y017400D01*
X040062Y017400D01*
X039980Y017318D01*
X039980Y016642D01*
X040062Y016560D01*
X040551Y016560D01*
X040641Y016470D01*
X040571Y016470D01*
X038821Y014720D01*
X036829Y014720D01*
X034989Y016560D01*
X035388Y016560D01*
X035470Y016642D01*
X035470Y017318D01*
X035388Y017400D01*
X034712Y017400D01*
X034630Y017318D01*
X034630Y017097D02*
X034452Y017097D01*
X034610Y016939D02*
X034630Y016939D01*
X035470Y016939D02*
X035630Y016939D01*
X035630Y016806D02*
X035876Y016560D01*
X036224Y016560D01*
X036470Y016806D01*
X036470Y017154D01*
X036224Y017400D01*
X035876Y017400D01*
X035630Y017154D01*
X035630Y016806D01*
X035656Y016780D02*
X035470Y016780D01*
X035450Y016622D02*
X035815Y016622D01*
X036285Y016622D02*
X036711Y016622D01*
X036724Y016667D02*
X036638Y016346D01*
X036638Y016014D01*
X036724Y015693D01*
X036890Y015405D01*
X037125Y015170D01*
X037413Y015004D01*
X037734Y014918D01*
X038066Y014918D01*
X038387Y015004D01*
X038675Y015170D01*
X038910Y015405D01*
X039076Y015693D01*
X039162Y016014D01*
X039162Y016346D01*
X039076Y016667D01*
X038910Y016955D01*
X038675Y017190D01*
X038387Y017356D01*
X038066Y017442D01*
X037734Y017442D01*
X037413Y017356D01*
X037125Y017190D01*
X036890Y016955D01*
X036724Y016667D01*
X036789Y016780D02*
X036444Y016780D01*
X036470Y016939D02*
X036880Y016939D01*
X037032Y017097D02*
X036470Y017097D01*
X036368Y017256D02*
X037238Y017256D01*
X037628Y017414D02*
X034135Y017414D01*
X033976Y017573D02*
X034864Y017573D01*
X034705Y017731D02*
X033818Y017731D01*
X033972Y017890D02*
X033659Y017890D01*
X035236Y017573D02*
X035864Y017573D01*
X035705Y017731D02*
X035395Y017731D01*
X035470Y017890D02*
X035630Y017890D01*
X035630Y018048D02*
X035470Y018048D01*
X035417Y018207D02*
X035555Y018207D01*
X036259Y018365D02*
X039346Y018365D01*
X039310Y018401D02*
X039310Y018401D01*
X039188Y018524D02*
X035775Y018524D01*
X035754Y018682D02*
X035346Y018682D01*
X035470Y018841D02*
X035630Y018841D01*
X035630Y018999D02*
X035470Y018999D01*
X035466Y019158D02*
X035604Y019158D01*
X035824Y019475D02*
X041810Y019475D01*
X041810Y019633D02*
X041647Y019633D01*
X041805Y019792D02*
X041810Y019792D01*
X042190Y019792D02*
X042343Y019792D01*
X042190Y019801D02*
X043440Y021051D01*
X043440Y020990D01*
X043890Y020990D01*
X043890Y020970D01*
X043440Y020970D01*
X043440Y020789D01*
X043559Y020670D01*
X043221Y020670D01*
X042190Y019639D01*
X042190Y019801D01*
X042339Y019950D02*
X042501Y019950D01*
X042497Y020109D02*
X042660Y020109D01*
X042656Y020267D02*
X042818Y020267D01*
X042814Y020426D02*
X042977Y020426D01*
X042973Y020584D02*
X043135Y020584D01*
X043131Y020743D02*
X043487Y020743D01*
X043440Y020901D02*
X043290Y020901D01*
X042911Y021060D02*
X041820Y021060D01*
X041820Y020901D02*
X042752Y020901D01*
X042594Y020743D02*
X041756Y020743D01*
X041598Y020584D02*
X042435Y020584D01*
X042277Y020426D02*
X041223Y020426D01*
X041202Y020584D02*
X041090Y020584D01*
X040710Y020584D02*
X040655Y020584D01*
X040710Y020426D02*
X038638Y020426D01*
X038623Y020584D02*
X040145Y020584D01*
X040209Y020520D02*
X039940Y020789D01*
X039940Y020970D01*
X040390Y020970D01*
X040390Y020520D01*
X040209Y020520D01*
X040226Y020400D02*
X039980Y020154D01*
X039980Y019806D01*
X040226Y019560D01*
X040574Y019560D01*
X040820Y019806D01*
X040820Y020154D01*
X040574Y020400D01*
X040226Y020400D01*
X040093Y020267D02*
X038565Y020267D01*
X038035Y020267D02*
X036357Y020267D01*
X036470Y020109D02*
X039980Y020109D01*
X039980Y019950D02*
X036470Y019950D01*
X036455Y019792D02*
X039995Y019792D01*
X040153Y019633D02*
X036297Y019633D01*
X035803Y019633D02*
X035666Y019633D01*
X035645Y019792D02*
X035455Y019792D01*
X035470Y019950D02*
X035630Y019950D01*
X035630Y020109D02*
X035470Y020109D01*
X035357Y020267D02*
X035743Y020267D01*
X035693Y020743D02*
X035463Y020743D01*
X035510Y020901D02*
X035630Y020901D01*
X035510Y020990D02*
X035060Y020990D01*
X035060Y021440D01*
X035241Y021440D01*
X035510Y021171D01*
X035510Y020990D01*
X035510Y021060D02*
X035630Y021060D01*
X035694Y021218D02*
X035463Y021218D01*
X035304Y021377D02*
X035853Y021377D01*
X036247Y021377D02*
X040146Y021377D01*
X039987Y021218D02*
X036406Y021218D01*
X036470Y021060D02*
X039940Y021060D01*
X039940Y020901D02*
X036470Y020901D01*
X036406Y020743D02*
X038084Y020743D01*
X038516Y020743D02*
X039987Y020743D01*
X040390Y020743D02*
X040410Y020743D01*
X040410Y020901D02*
X040390Y020901D01*
X040390Y021060D02*
X040410Y021060D01*
X040410Y021218D02*
X040390Y021218D01*
X040390Y021377D02*
X040410Y021377D01*
X040654Y021377D02*
X040685Y021377D01*
X041090Y021377D02*
X041203Y021377D01*
X041064Y021535D02*
X043386Y021535D01*
X043228Y021377D02*
X041597Y021377D01*
X041756Y021218D02*
X043069Y021218D01*
X043545Y021694D02*
X040905Y021694D01*
X040410Y020584D02*
X040390Y020584D01*
X040707Y020267D02*
X040844Y020267D01*
X040820Y020109D02*
X040980Y020109D01*
X040980Y019950D02*
X040820Y019950D01*
X040805Y019792D02*
X040995Y019792D01*
X041153Y019633D02*
X040647Y019633D01*
X040658Y019316D02*
X041142Y019316D01*
X040984Y019158D02*
X040816Y019158D01*
X040820Y018999D02*
X040980Y018999D01*
X040980Y018841D02*
X040820Y018841D01*
X040833Y018682D02*
X040696Y018682D01*
X041212Y018524D02*
X041810Y018524D01*
X041810Y018682D02*
X041696Y018682D01*
X041609Y018365D02*
X041810Y018365D01*
X041810Y018207D02*
X041767Y018207D01*
X041191Y018365D02*
X041054Y018365D01*
X041033Y018207D02*
X040767Y018207D01*
X040820Y018048D02*
X040980Y018048D01*
X040980Y017890D02*
X040820Y017890D01*
X040745Y017731D02*
X041055Y017731D01*
X041214Y017573D02*
X040586Y017573D01*
X040214Y017573D02*
X036236Y017573D01*
X036395Y017731D02*
X040055Y017731D01*
X039980Y017890D02*
X036470Y017890D01*
X036470Y018048D02*
X039980Y018048D01*
X040033Y018207D02*
X036417Y018207D01*
X036346Y018682D02*
X038820Y018682D01*
X038721Y018841D02*
X036470Y018841D01*
X036470Y018999D02*
X038713Y018999D01*
X038799Y019158D02*
X036466Y019158D01*
X036308Y019316D02*
X040142Y019316D01*
X039984Y019158D02*
X039301Y019158D01*
X039387Y018999D02*
X039980Y018999D01*
X039980Y018841D02*
X039408Y018841D01*
X039567Y018682D02*
X040104Y018682D01*
X041658Y019316D02*
X041810Y019316D01*
X041820Y020109D02*
X041960Y020109D01*
X042118Y020267D02*
X041707Y020267D01*
X044207Y020267D02*
X044344Y020267D01*
X044320Y020109D02*
X044480Y020109D01*
X044480Y019950D02*
X044320Y019950D01*
X044305Y019792D02*
X044495Y019792D01*
X044516Y019633D02*
X044653Y019633D01*
X044674Y019475D02*
X045876Y019475D01*
X045871Y019470D02*
X045871Y019470D01*
X045760Y019316D02*
X045158Y019316D01*
X045316Y019158D02*
X045760Y019158D01*
X045760Y018999D02*
X045320Y018999D01*
X045320Y018841D02*
X045760Y018841D01*
X045760Y018682D02*
X045196Y018682D01*
X045760Y018524D02*
X044625Y018524D01*
X044604Y018682D02*
X044196Y018682D01*
X044320Y018841D02*
X044480Y018841D01*
X044480Y018999D02*
X044320Y018999D01*
X044316Y019158D02*
X044454Y019158D01*
X045147Y019633D02*
X046034Y019633D01*
X046516Y019792D02*
X045305Y019792D01*
X045320Y019950D02*
X046581Y019950D01*
X046567Y020109D02*
X045320Y020109D01*
X045207Y020267D02*
X046567Y020267D01*
X046567Y020180D02*
X046905Y020180D01*
X046905Y019843D01*
X046905Y020180D01*
X046905Y020180D01*
X046567Y020180D01*
X046590Y020426D02*
X044723Y020426D01*
X044702Y020584D02*
X044565Y020584D01*
X044543Y020743D02*
X044313Y020743D01*
X044360Y020901D02*
X044480Y020901D01*
X044480Y021060D02*
X044360Y021060D01*
X044313Y021218D02*
X044544Y021218D01*
X045098Y020584D02*
X046459Y020584D01*
X046434Y020743D02*
X045256Y020743D01*
X046905Y020180D02*
X046905Y020180D01*
X046905Y020109D02*
X046905Y020109D01*
X046905Y019950D02*
X046905Y019950D01*
X047115Y019792D02*
X047185Y019792D01*
X047784Y019792D02*
X048890Y019792D01*
X048890Y019950D02*
X047778Y019950D01*
X047793Y020109D02*
X048890Y020109D01*
X048890Y020267D02*
X047793Y020267D01*
X047763Y020426D02*
X048890Y020426D01*
X048890Y020584D02*
X047841Y020584D01*
X047841Y020743D02*
X048890Y020743D01*
X048890Y020901D02*
X047841Y020901D01*
X047816Y021060D02*
X048327Y021060D01*
X048146Y021218D02*
X047746Y021218D01*
X047793Y021377D02*
X048080Y021377D01*
X048076Y021535D02*
X047793Y021535D01*
X047793Y021694D02*
X048126Y021694D01*
X048252Y021852D02*
X009980Y021852D01*
X009980Y021694D02*
X027995Y021694D01*
X027836Y021535D02*
X027713Y021535D01*
X027487Y021535D02*
X026713Y021535D01*
X026487Y021535D02*
X025713Y021535D01*
X025487Y021535D02*
X024713Y021535D01*
X024487Y021535D02*
X023713Y021535D01*
X023487Y021535D02*
X022213Y021535D01*
X022201Y021540D02*
X021999Y021540D01*
X021811Y021462D01*
X021668Y021319D01*
X021600Y021156D01*
X021532Y021319D01*
X021389Y021462D01*
X021201Y021540D01*
X020999Y021540D01*
X020811Y021462D01*
X020668Y021319D01*
X020600Y021156D01*
X020532Y021319D01*
X020389Y021462D01*
X020201Y021540D01*
X019999Y021540D01*
X019811Y021462D01*
X019668Y021319D01*
X019600Y021156D01*
X019532Y021319D01*
X019389Y021462D01*
X019201Y021540D01*
X018999Y021540D01*
X018811Y021462D01*
X018668Y021319D01*
X018600Y021156D01*
X018532Y021319D01*
X018389Y021462D01*
X018201Y021540D01*
X017999Y021540D01*
X017811Y021462D01*
X017668Y021319D01*
X017600Y021156D01*
X017532Y021319D01*
X017389Y021462D01*
X017201Y021540D01*
X016999Y021540D01*
X016811Y021462D01*
X016668Y021319D01*
X016600Y021156D01*
X016532Y021319D01*
X016389Y021462D01*
X016201Y021540D01*
X015999Y021540D01*
X015811Y021462D01*
X015668Y021319D01*
X015600Y021156D01*
X015532Y021319D01*
X015389Y021462D01*
X015201Y021540D01*
X014999Y021540D01*
X014811Y021462D01*
X014668Y021319D01*
X014590Y021131D01*
X014590Y020929D01*
X014668Y020741D01*
X014811Y020598D01*
X014999Y020520D01*
X015201Y020520D01*
X015389Y020598D01*
X015532Y020741D01*
X015600Y020904D01*
X015668Y020741D01*
X015811Y020598D01*
X015999Y020520D01*
X016201Y020520D01*
X016389Y020598D01*
X016532Y020741D01*
X016600Y020904D01*
X016668Y020741D01*
X016811Y020598D01*
X016999Y020520D01*
X017201Y020520D01*
X017389Y020598D01*
X017532Y020741D01*
X017600Y020904D01*
X017668Y020741D01*
X017811Y020598D01*
X017999Y020520D01*
X018201Y020520D01*
X018389Y020598D01*
X018532Y020741D01*
X018600Y020904D01*
X018668Y020741D01*
X018811Y020598D01*
X018999Y020520D01*
X019201Y020520D01*
X019389Y020598D01*
X019532Y020741D01*
X019600Y020904D01*
X019668Y020741D01*
X019811Y020598D01*
X019999Y020520D01*
X020201Y020520D01*
X020389Y020598D01*
X020532Y020741D01*
X020600Y020904D01*
X020668Y020741D01*
X020811Y020598D01*
X020999Y020520D01*
X021201Y020520D01*
X021389Y020598D01*
X021532Y020741D01*
X021600Y020904D01*
X021668Y020741D01*
X021811Y020598D01*
X021999Y020520D01*
X022201Y020520D01*
X022389Y020598D01*
X022532Y020741D01*
X022610Y020929D01*
X022610Y021131D01*
X022532Y021319D01*
X022389Y021462D01*
X022201Y021540D01*
X021987Y021535D02*
X021213Y021535D01*
X020987Y021535D02*
X020213Y021535D01*
X019987Y021535D02*
X019213Y021535D01*
X018987Y021535D02*
X018213Y021535D01*
X017987Y021535D02*
X017213Y021535D01*
X016987Y021535D02*
X016213Y021535D01*
X015987Y021535D02*
X015213Y021535D01*
X014987Y021535D02*
X009980Y021535D01*
X009980Y021377D02*
X010903Y021377D01*
X010744Y021218D02*
X009980Y021218D01*
X009980Y021060D02*
X010680Y021060D01*
X010680Y020901D02*
X009980Y020901D01*
X009980Y020743D02*
X010743Y020743D01*
X010902Y020584D02*
X009980Y020584D01*
X009980Y020426D02*
X011386Y020426D01*
X011407Y020267D02*
X011793Y020267D01*
X011680Y020109D02*
X011520Y020109D01*
X011520Y019950D02*
X011680Y019950D01*
X011695Y019792D02*
X011557Y019792D01*
X011337Y019475D02*
X009980Y019475D01*
X009980Y019633D02*
X010853Y019633D01*
X010695Y019792D02*
X009980Y019792D01*
X009980Y019950D02*
X010680Y019950D01*
X010680Y020109D02*
X009980Y020109D01*
X009980Y020267D02*
X010793Y020267D01*
X011606Y020743D02*
X011680Y020743D01*
X011680Y020901D02*
X011520Y020901D01*
X011520Y021060D02*
X011680Y021060D01*
X011680Y021218D02*
X011456Y021218D01*
X011297Y021377D02*
X011739Y021377D01*
X012461Y021377D02*
X014725Y021377D01*
X014626Y021218D02*
X012520Y021218D01*
X014289Y021060D02*
X014590Y021060D01*
X014601Y020901D02*
X014448Y020901D01*
X014606Y020743D02*
X014667Y020743D01*
X014765Y020584D02*
X014844Y020584D01*
X014923Y020426D02*
X030255Y020426D01*
X029985Y020584D02*
X029856Y020584D01*
X029344Y020584D02*
X028856Y020584D01*
X029033Y020743D02*
X029167Y020743D01*
X029101Y020901D02*
X029099Y020901D01*
X028344Y020584D02*
X027856Y020584D01*
X028033Y020743D02*
X028167Y020743D01*
X028101Y020901D02*
X028099Y020901D01*
X027344Y020584D02*
X026856Y020584D01*
X027033Y020743D02*
X027167Y020743D01*
X027101Y020901D02*
X027099Y020901D01*
X027074Y021218D02*
X027126Y021218D01*
X027225Y021377D02*
X026975Y021377D01*
X026225Y021377D02*
X025975Y021377D01*
X026074Y021218D02*
X026126Y021218D01*
X026101Y020901D02*
X026099Y020901D01*
X026033Y020743D02*
X026167Y020743D01*
X026344Y020584D02*
X025856Y020584D01*
X025344Y020584D02*
X024856Y020584D01*
X025033Y020743D02*
X025167Y020743D01*
X025101Y020901D02*
X025099Y020901D01*
X025074Y021218D02*
X025126Y021218D01*
X025225Y021377D02*
X024975Y021377D01*
X024225Y021377D02*
X023975Y021377D01*
X024074Y021218D02*
X024126Y021218D01*
X024101Y020901D02*
X024099Y020901D01*
X024033Y020743D02*
X024167Y020743D01*
X024344Y020584D02*
X023856Y020584D01*
X023344Y020584D02*
X022356Y020584D01*
X022533Y020743D02*
X023167Y020743D01*
X023101Y020901D02*
X022599Y020901D01*
X022610Y021060D02*
X023090Y021060D01*
X023126Y021218D02*
X022574Y021218D01*
X022475Y021377D02*
X023225Y021377D01*
X021725Y021377D02*
X021475Y021377D01*
X021574Y021218D02*
X021626Y021218D01*
X021601Y020901D02*
X021599Y020901D01*
X021533Y020743D02*
X021667Y020743D01*
X021844Y020584D02*
X021356Y020584D01*
X020844Y020584D02*
X020356Y020584D01*
X020533Y020743D02*
X020667Y020743D01*
X020601Y020901D02*
X020599Y020901D01*
X020574Y021218D02*
X020626Y021218D01*
X020725Y021377D02*
X020475Y021377D01*
X019725Y021377D02*
X019475Y021377D01*
X019574Y021218D02*
X019626Y021218D01*
X019601Y020901D02*
X019599Y020901D01*
X019533Y020743D02*
X019667Y020743D01*
X019844Y020584D02*
X019356Y020584D01*
X018844Y020584D02*
X018356Y020584D01*
X018533Y020743D02*
X018667Y020743D01*
X018601Y020901D02*
X018599Y020901D01*
X018574Y021218D02*
X018626Y021218D01*
X018725Y021377D02*
X018475Y021377D01*
X017725Y021377D02*
X017475Y021377D01*
X017574Y021218D02*
X017626Y021218D01*
X017601Y020901D02*
X017599Y020901D01*
X017533Y020743D02*
X017667Y020743D01*
X017844Y020584D02*
X017356Y020584D01*
X016844Y020584D02*
X016356Y020584D01*
X016533Y020743D02*
X016667Y020743D01*
X016601Y020901D02*
X016599Y020901D01*
X016574Y021218D02*
X016626Y021218D01*
X016725Y021377D02*
X016475Y021377D01*
X015725Y021377D02*
X015475Y021377D01*
X015574Y021218D02*
X015626Y021218D01*
X015601Y020901D02*
X015599Y020901D01*
X015533Y020743D02*
X015667Y020743D01*
X015844Y020584D02*
X015356Y020584D01*
X015082Y020267D02*
X030526Y020267D01*
X030796Y020109D02*
X015240Y020109D01*
X015399Y019950D02*
X020801Y019950D01*
X020643Y019792D02*
X015557Y019792D01*
X015716Y019633D02*
X020484Y019633D01*
X020326Y019475D02*
X015874Y019475D01*
X016033Y019316D02*
X020167Y019316D01*
X020009Y019158D02*
X016191Y019158D01*
X016350Y018999D02*
X019850Y018999D01*
X019692Y018841D02*
X016508Y018841D01*
X016667Y018682D02*
X019660Y018682D01*
X019660Y018524D02*
X016825Y018524D01*
X016984Y018365D02*
X019660Y018365D01*
X019660Y018207D02*
X017142Y018207D01*
X017301Y018048D02*
X019660Y018048D01*
X019660Y017890D02*
X017459Y017890D01*
X017618Y017731D02*
X018779Y017731D01*
X018653Y017573D02*
X017986Y017573D01*
X018081Y017414D02*
X018610Y017414D01*
X018625Y017256D02*
X018085Y017256D01*
X019321Y017731D02*
X019660Y017731D01*
X019660Y017573D02*
X019447Y017573D01*
X019490Y017414D02*
X019660Y017414D01*
X019660Y017256D02*
X019475Y017256D01*
X014975Y015037D02*
X009980Y015037D01*
X009980Y015195D02*
X014816Y015195D01*
X014658Y015354D02*
X009980Y015354D01*
X009980Y015512D02*
X014499Y015512D01*
X014341Y015671D02*
X012441Y015671D01*
X012560Y015789D02*
X012291Y015520D01*
X012110Y015520D01*
X012110Y015970D01*
X012110Y015990D01*
X012090Y015990D01*
X012090Y016440D01*
X011909Y016440D01*
X011640Y016171D01*
X011640Y015990D01*
X012090Y015990D01*
X012090Y015970D01*
X011640Y015970D01*
X011640Y015789D01*
X011909Y015520D01*
X012090Y015520D01*
X012090Y015970D01*
X012110Y015970D01*
X012560Y015970D01*
X012560Y015789D01*
X012560Y015829D02*
X014182Y015829D01*
X014024Y015988D02*
X012110Y015988D01*
X012110Y015990D02*
X012560Y015990D01*
X012560Y016171D01*
X012291Y016440D01*
X012110Y016440D01*
X012110Y015990D01*
X012090Y015988D02*
X011110Y015988D01*
X011110Y015990D02*
X011560Y015990D01*
X011560Y016171D01*
X011291Y016440D01*
X011110Y016440D01*
X011110Y015990D01*
X011090Y015990D01*
X011090Y016440D01*
X010909Y016440D01*
X010640Y016171D01*
X010640Y015990D01*
X011090Y015990D01*
X011090Y015970D01*
X010640Y015970D01*
X010640Y015789D01*
X010909Y015520D01*
X011090Y015520D01*
X011090Y015970D01*
X011110Y015970D01*
X011110Y015990D01*
X011110Y015970D02*
X011560Y015970D01*
X011560Y015789D01*
X011291Y015520D01*
X011110Y015520D01*
X011110Y015970D01*
X011090Y015988D02*
X009980Y015988D01*
X009980Y016146D02*
X010640Y016146D01*
X010774Y016305D02*
X009980Y016305D01*
X009980Y016463D02*
X013548Y016463D01*
X013390Y016622D02*
X012335Y016622D01*
X012494Y016780D02*
X013231Y016780D01*
X013073Y016939D02*
X012520Y016939D01*
X012520Y017097D02*
X012914Y017097D01*
X012756Y017256D02*
X012418Y017256D01*
X011782Y017256D02*
X011418Y017256D01*
X011520Y017154D02*
X011274Y017400D01*
X010926Y017400D01*
X010680Y017154D01*
X010680Y016806D01*
X010926Y016560D01*
X011274Y016560D01*
X011520Y016806D01*
X011520Y017154D01*
X011520Y017097D02*
X011680Y017097D01*
X011680Y016939D02*
X011520Y016939D01*
X011494Y016780D02*
X011706Y016780D01*
X011865Y016622D02*
X011335Y016622D01*
X010865Y016622D02*
X009980Y016622D01*
X009980Y016780D02*
X010706Y016780D01*
X010680Y016939D02*
X009980Y016939D01*
X009980Y017097D02*
X010680Y017097D01*
X010782Y017256D02*
X009980Y017256D01*
X009980Y017414D02*
X011397Y017414D01*
X011618Y017731D02*
X011755Y017731D01*
X011680Y017890D02*
X011520Y017890D01*
X011520Y018048D02*
X011680Y018048D01*
X011733Y018207D02*
X011467Y018207D01*
X011446Y018365D02*
X011309Y018365D01*
X011288Y018524D02*
X009980Y018524D01*
X009980Y018682D02*
X010804Y018682D01*
X010680Y018841D02*
X009980Y018841D01*
X009980Y018999D02*
X010680Y018999D01*
X010684Y019158D02*
X009980Y019158D01*
X009980Y019316D02*
X010842Y019316D01*
X011358Y019316D02*
X011495Y019316D01*
X011516Y019158D02*
X011684Y019158D01*
X011680Y018999D02*
X011520Y018999D01*
X011520Y018841D02*
X011680Y018841D01*
X011667Y018682D02*
X011804Y018682D01*
X010891Y018365D02*
X009980Y018365D01*
X009980Y018207D02*
X010733Y018207D01*
X010680Y018048D02*
X009980Y018048D01*
X009980Y017890D02*
X010680Y017890D01*
X010755Y017731D02*
X009980Y017731D01*
X009980Y017573D02*
X010914Y017573D01*
X011090Y016305D02*
X011110Y016305D01*
X011110Y016146D02*
X011090Y016146D01*
X011426Y016305D02*
X011774Y016305D01*
X011640Y016146D02*
X011560Y016146D01*
X012090Y016146D02*
X012110Y016146D01*
X012110Y016305D02*
X012090Y016305D01*
X012426Y016305D02*
X013707Y016305D01*
X013865Y016146D02*
X012560Y016146D01*
X012110Y015829D02*
X012090Y015829D01*
X012090Y015671D02*
X012110Y015671D01*
X011759Y015671D02*
X011441Y015671D01*
X011560Y015829D02*
X011640Y015829D01*
X011110Y015829D02*
X011090Y015829D01*
X011090Y015671D02*
X011110Y015671D01*
X010759Y015671D02*
X009980Y015671D01*
X009980Y015829D02*
X010640Y015829D01*
X009980Y014878D02*
X015133Y014878D01*
X015292Y014720D02*
X009980Y014720D01*
X009980Y014561D02*
X015412Y014561D01*
X015437Y014403D02*
X009980Y014403D01*
X009980Y014244D02*
X014295Y014244D01*
X014137Y014086D02*
X009980Y014086D01*
X009980Y013927D02*
X013978Y013927D01*
X013820Y013769D02*
X009980Y013769D01*
X009980Y013610D02*
X013661Y013610D01*
X013503Y013452D02*
X012520Y013452D01*
X011680Y013452D02*
X011372Y013452D01*
X011520Y013293D02*
X011680Y013293D01*
X011680Y013135D02*
X011520Y013135D01*
X011523Y012976D02*
X011680Y012976D01*
X011302Y012659D02*
X009980Y012659D01*
X009980Y012501D02*
X010877Y012501D01*
X010718Y012342D02*
X009980Y012342D01*
X009980Y012184D02*
X010680Y012184D01*
X010680Y012025D02*
X009980Y012025D01*
X009980Y011867D02*
X010770Y011867D01*
X010926Y011550D02*
X010680Y011304D01*
X010680Y010956D01*
X010926Y010710D01*
X011274Y010710D01*
X011520Y010956D01*
X011520Y011304D01*
X011274Y011550D01*
X010926Y011550D01*
X009980Y011550D01*
X009980Y011708D02*
X011253Y011708D01*
X011274Y011550D02*
X011412Y011550D01*
X011433Y011391D02*
X011767Y011391D01*
X011680Y011233D02*
X011520Y011233D01*
X011520Y011074D02*
X011680Y011074D01*
X011721Y010916D02*
X011479Y010916D01*
X011321Y010757D02*
X011879Y010757D01*
X011816Y010440D02*
X011384Y010440D01*
X011520Y010282D02*
X011680Y010282D01*
X011680Y010123D02*
X011520Y010123D01*
X011534Y009965D02*
X011680Y009965D01*
X011314Y009648D02*
X009980Y009648D01*
X009980Y009806D02*
X010830Y009806D01*
X010680Y009965D02*
X009980Y009965D01*
X009980Y010123D02*
X010680Y010123D01*
X010680Y010282D02*
X009980Y010282D01*
X009980Y010440D02*
X010816Y010440D01*
X010879Y010757D02*
X009980Y010757D01*
X009980Y010599D02*
X014463Y010599D01*
X014146Y010757D02*
X012321Y010757D01*
X012479Y010916D02*
X013952Y010916D01*
X013912Y011074D02*
X012863Y011074D01*
X013021Y011233D02*
X013947Y011233D01*
X014117Y011391D02*
X013180Y011391D01*
X013338Y011550D02*
X014720Y011550D01*
X014720Y011708D02*
X013497Y011708D01*
X013655Y011867D02*
X014720Y011867D01*
X014720Y012025D02*
X013814Y012025D01*
X013972Y012184D02*
X014720Y012184D01*
X014720Y012342D02*
X014131Y012342D01*
X014289Y012501D02*
X014737Y012501D01*
X014448Y012659D02*
X018190Y012659D01*
X018032Y012818D02*
X014606Y012818D01*
X014765Y012976D02*
X017873Y012976D01*
X017715Y013135D02*
X014923Y013135D01*
X011718Y012342D02*
X011482Y012342D01*
X011461Y012501D02*
X011323Y012501D01*
X010819Y012818D02*
X009980Y012818D01*
X009980Y012976D02*
X010680Y012976D01*
X010680Y013135D02*
X009980Y013135D01*
X009980Y013293D02*
X010680Y013293D01*
X010828Y013452D02*
X009980Y013452D01*
X011520Y012184D02*
X011680Y012184D01*
X011680Y012025D02*
X011520Y012025D01*
X011632Y011867D02*
X011770Y011867D01*
X010767Y011391D02*
X009980Y011391D01*
X009980Y011233D02*
X010680Y011233D01*
X010680Y011074D02*
X009980Y011074D01*
X009980Y010916D02*
X010721Y010916D01*
X012384Y010440D02*
X013591Y010440D01*
X014253Y009965D02*
X015460Y009965D01*
X015412Y009806D02*
X014095Y009806D01*
X013936Y009648D02*
X015439Y009648D01*
X015539Y009489D02*
X015569Y009489D01*
X015590Y009331D02*
X015931Y009331D01*
X016089Y009172D02*
X015590Y009172D01*
X015590Y009014D02*
X016248Y009014D01*
X016360Y008901D02*
X016360Y008901D01*
X016406Y008855D02*
X015590Y008855D01*
X015590Y008697D02*
X016209Y008697D01*
X016039Y008538D02*
X015590Y008538D01*
X015590Y008380D02*
X015881Y008380D01*
X015722Y008221D02*
X015590Y008221D01*
X016101Y008063D02*
X016236Y008063D01*
X016894Y008063D02*
X016906Y008063D01*
X017564Y008063D02*
X017704Y008063D01*
X017587Y008221D02*
X018715Y008221D01*
X018556Y008063D02*
X018096Y008063D01*
X018215Y007904D02*
X018398Y007904D01*
X018331Y007746D02*
X018238Y007746D01*
X018185Y007587D02*
X018466Y007587D01*
X018624Y007429D02*
X015997Y007429D01*
X015900Y007270D02*
X015839Y007270D01*
X016156Y007587D02*
X016209Y007587D01*
X017000Y007270D02*
X018678Y007270D01*
X018520Y007112D02*
X017254Y007112D01*
X017412Y006953D02*
X018460Y006953D01*
X017615Y007587D02*
X017591Y007587D01*
X018468Y008380D02*
X018522Y008380D01*
X019738Y006478D02*
X019762Y006478D01*
X019801Y006319D02*
X019699Y006319D01*
X020399Y006319D02*
X020501Y006319D01*
X020462Y006478D02*
X020438Y006478D01*
X022400Y004230D02*
X024250Y002380D01*
X024550Y002380D01*
X024375Y002674D02*
X024268Y002674D01*
X024121Y002198D02*
X024082Y002198D01*
X023158Y003783D02*
X029134Y003783D01*
X029211Y005210D02*
X026526Y005210D01*
X026587Y005368D02*
X029369Y005368D01*
X029528Y005527D02*
X026587Y005527D01*
X026587Y005685D02*
X029686Y005685D01*
X029845Y005844D02*
X026563Y005844D01*
X026587Y006002D02*
X030003Y006002D01*
X030637Y006636D02*
X029091Y006636D01*
X029433Y006795D02*
X030760Y006795D01*
X030760Y006953D02*
X029592Y006953D01*
X029625Y007112D02*
X030760Y007112D01*
X030760Y007270D02*
X029625Y007270D01*
X029791Y007429D02*
X030760Y007429D01*
X030760Y007587D02*
X029791Y007587D01*
X029791Y007746D02*
X030760Y007746D01*
X033790Y007746D02*
X034430Y007746D01*
X034430Y007904D02*
X033790Y007904D01*
X033790Y008063D02*
X034430Y008063D01*
X034430Y008221D02*
X033790Y008221D01*
X033790Y008380D02*
X034430Y008380D01*
X034430Y008538D02*
X033790Y008538D01*
X033790Y008697D02*
X034430Y008697D01*
X034430Y008855D02*
X033790Y008855D01*
X033790Y009014D02*
X034430Y009014D01*
X034481Y009172D02*
X033790Y009172D01*
X033790Y009331D02*
X034639Y009331D01*
X034798Y009489D02*
X033790Y009489D01*
X033836Y009648D02*
X034956Y009648D01*
X035115Y009806D02*
X033995Y009806D01*
X034153Y009965D02*
X035273Y009965D01*
X035432Y010123D02*
X034312Y010123D01*
X034470Y010282D02*
X036608Y010282D01*
X037049Y010440D02*
X034629Y010440D01*
X034787Y010599D02*
X037207Y010599D01*
X037366Y010757D02*
X034946Y010757D01*
X034567Y010916D02*
X032040Y010916D01*
X032040Y010848D02*
X032040Y011212D01*
X031912Y011340D01*
X033779Y011340D01*
X033988Y011550D02*
X044925Y011550D01*
X044860Y011391D02*
X044860Y011189D01*
X044938Y011001D01*
X045081Y010858D01*
X045172Y010820D01*
X043629Y010820D01*
X043340Y011109D01*
X043229Y011220D01*
X034871Y011220D01*
X034760Y011109D01*
X033521Y009870D01*
X033490Y009839D01*
X033490Y010009D01*
X033187Y010311D01*
X033188Y010313D01*
X033188Y010447D01*
X033137Y010572D01*
X033042Y010667D01*
X032917Y010718D01*
X032783Y010718D01*
X032667Y010670D01*
X031862Y010670D01*
X032040Y010848D01*
X031949Y010757D02*
X034408Y010757D01*
X034250Y010599D02*
X033110Y010599D01*
X033188Y010440D02*
X034091Y010440D01*
X033933Y010282D02*
X033217Y010282D01*
X033376Y010123D02*
X033774Y010123D01*
X033616Y009965D02*
X033490Y009965D01*
X035579Y009648D02*
X036639Y009648D01*
X037161Y009648D02*
X037639Y009648D01*
X037480Y009806D02*
X037480Y010154D01*
X037726Y010400D01*
X038074Y010400D01*
X038274Y010200D01*
X038691Y010200D01*
X039191Y009700D01*
X040086Y009700D01*
X040026Y009760D01*
X039459Y009760D01*
X038759Y010460D01*
X037691Y010460D01*
X037320Y010089D01*
X037320Y009806D01*
X037320Y009965D02*
X037480Y009965D01*
X037480Y010123D02*
X037354Y010123D01*
X037513Y010282D02*
X037608Y010282D01*
X037671Y010440D02*
X038779Y010440D01*
X038937Y010282D02*
X038192Y010282D01*
X037900Y009980D02*
X038600Y009980D01*
X039100Y009480D01*
X040900Y009480D01*
X041400Y009980D01*
X041900Y009480D01*
X044400Y009480D01*
X044562Y009331D02*
X044657Y009331D01*
X044726Y009400D02*
X044480Y009154D01*
X044480Y008806D01*
X044726Y008560D01*
X045074Y008560D01*
X045320Y008806D01*
X045320Y009154D01*
X045074Y009400D01*
X044726Y009400D01*
X044720Y009489D02*
X045610Y009489D01*
X045610Y009331D02*
X045143Y009331D01*
X045302Y009172D02*
X045610Y009172D01*
X045610Y009014D02*
X045320Y009014D01*
X045320Y008855D02*
X045610Y008855D01*
X045610Y008697D02*
X045210Y008697D01*
X045074Y008400D02*
X044726Y008400D01*
X044480Y008154D01*
X044480Y007806D01*
X044726Y007560D01*
X045074Y007560D01*
X045320Y007806D01*
X045320Y008154D01*
X045074Y008400D01*
X045094Y008380D02*
X045610Y008380D01*
X045610Y008538D02*
X037727Y008538D01*
X037706Y008380D02*
X037568Y008380D01*
X037547Y008221D02*
X037253Y008221D01*
X037320Y008063D02*
X037480Y008063D01*
X037480Y007904D02*
X037320Y007904D01*
X037403Y007746D02*
X037541Y007746D01*
X037562Y007587D02*
X037699Y007587D01*
X037590Y007429D02*
X038183Y007429D01*
X038204Y007270D02*
X038341Y007270D01*
X038879Y007270D02*
X040096Y007270D01*
X039980Y007112D02*
X039037Y007112D01*
X039190Y006953D02*
X039980Y006953D01*
X039992Y006795D02*
X039190Y006795D01*
X040650Y006636D02*
X041150Y006636D01*
X041226Y006560D02*
X041574Y006560D01*
X041820Y006806D01*
X041820Y007154D01*
X041574Y007400D01*
X041226Y007400D01*
X040980Y007154D01*
X040980Y006806D01*
X041226Y006560D01*
X041226Y006400D02*
X040980Y006154D01*
X040980Y005806D01*
X041226Y005560D01*
X041574Y005560D01*
X041820Y005806D01*
X041820Y006154D01*
X041574Y006400D01*
X041226Y006400D01*
X041145Y006319D02*
X040819Y006319D01*
X040820Y006161D02*
X040987Y006161D01*
X040980Y006002D02*
X040820Y006002D01*
X040820Y005844D02*
X040980Y005844D01*
X041101Y005685D02*
X040820Y005685D01*
X041699Y005685D02*
X043480Y005685D01*
X043480Y005642D02*
X043562Y005560D01*
X044238Y005560D01*
X044320Y005642D01*
X044320Y006318D01*
X044238Y006400D01*
X043562Y006400D01*
X043480Y006318D01*
X043480Y005642D01*
X043480Y005844D02*
X041820Y005844D01*
X041820Y006002D02*
X043480Y006002D01*
X043480Y006161D02*
X041813Y006161D01*
X041655Y006319D02*
X043481Y006319D01*
X043726Y006560D02*
X044074Y006560D01*
X044320Y006806D01*
X044320Y007154D01*
X044074Y007400D01*
X043726Y007400D01*
X043480Y007154D01*
X043480Y006806D01*
X043726Y006560D01*
X043650Y006636D02*
X041650Y006636D01*
X041808Y006795D02*
X043492Y006795D01*
X043480Y006953D02*
X041820Y006953D01*
X041820Y007112D02*
X043480Y007112D01*
X043596Y007270D02*
X041704Y007270D01*
X041574Y007560D02*
X041226Y007560D01*
X040980Y007806D01*
X040980Y008154D01*
X041226Y008400D01*
X041574Y008400D01*
X041820Y008154D01*
X041820Y007806D01*
X041574Y007560D01*
X041601Y007587D02*
X043699Y007587D01*
X043726Y007560D02*
X044074Y007560D01*
X044320Y007806D01*
X044320Y008154D01*
X044074Y008400D01*
X043726Y008400D01*
X043480Y008154D01*
X043480Y007806D01*
X043726Y007560D01*
X043541Y007746D02*
X041759Y007746D01*
X041820Y007904D02*
X043480Y007904D01*
X043480Y008063D02*
X041820Y008063D01*
X041753Y008221D02*
X043547Y008221D01*
X043706Y008380D02*
X041594Y008380D01*
X041574Y008560D02*
X041226Y008560D01*
X040980Y008806D01*
X040980Y009154D01*
X041226Y009400D01*
X041574Y009400D01*
X041820Y009154D01*
X041820Y008806D01*
X041574Y008560D01*
X041710Y008697D02*
X043590Y008697D01*
X043480Y008855D02*
X041820Y008855D01*
X041820Y009014D02*
X043480Y009014D01*
X043498Y009172D02*
X041802Y009172D01*
X041738Y009331D02*
X041643Y009331D01*
X041580Y009489D02*
X041220Y009489D01*
X041157Y009331D02*
X041062Y009331D01*
X040998Y009172D02*
X040802Y009172D01*
X040820Y009014D02*
X040980Y009014D01*
X040980Y008855D02*
X040820Y008855D01*
X040710Y008697D02*
X041090Y008697D01*
X041206Y008380D02*
X040594Y008380D01*
X040753Y008221D02*
X041047Y008221D01*
X040980Y008063D02*
X040820Y008063D01*
X040820Y007904D02*
X040980Y007904D01*
X041041Y007746D02*
X040759Y007746D01*
X040601Y007587D02*
X041199Y007587D01*
X041096Y007270D02*
X040704Y007270D01*
X040820Y007112D02*
X040980Y007112D01*
X040980Y006953D02*
X040820Y006953D01*
X040808Y006795D02*
X040992Y006795D01*
X044150Y006636D02*
X044650Y006636D01*
X044726Y006560D02*
X045074Y006560D01*
X045320Y006806D01*
X045320Y007154D01*
X045074Y007400D01*
X044726Y007400D01*
X044480Y007154D01*
X044480Y006806D01*
X044726Y006560D01*
X044726Y006400D02*
X044480Y006154D01*
X044480Y005806D01*
X044726Y005560D01*
X045074Y005560D01*
X045320Y005806D01*
X045320Y006154D01*
X045074Y006400D01*
X044726Y006400D01*
X044645Y006319D02*
X044319Y006319D01*
X044320Y006161D02*
X044487Y006161D01*
X044480Y006002D02*
X044320Y006002D01*
X044320Y005844D02*
X044480Y005844D01*
X044601Y005685D02*
X044320Y005685D01*
X045199Y005685D02*
X046830Y005685D01*
X046783Y005733D02*
X046906Y005610D01*
X047066Y005543D01*
X047834Y005543D01*
X047994Y005610D01*
X048117Y005733D01*
X048184Y005893D01*
X048184Y006067D01*
X048117Y006227D01*
X047994Y006350D01*
X047834Y006417D01*
X047066Y006417D01*
X046906Y006350D01*
X046783Y006227D01*
X046716Y006067D01*
X046716Y005893D01*
X046783Y005733D01*
X046737Y005844D02*
X045320Y005844D01*
X045320Y006002D02*
X046716Y006002D01*
X046755Y006161D02*
X045313Y006161D01*
X045155Y006319D02*
X046874Y006319D01*
X046879Y006636D02*
X045150Y006636D01*
X045308Y006795D02*
X046757Y006795D01*
X046716Y006953D02*
X045320Y006953D01*
X045320Y007112D02*
X046735Y007112D01*
X046825Y007270D02*
X045204Y007270D01*
X045101Y007587D02*
X046960Y007587D01*
X046777Y007746D02*
X045259Y007746D01*
X045320Y007904D02*
X046127Y007904D01*
X045810Y008063D02*
X045320Y008063D01*
X045253Y008221D02*
X045610Y008221D01*
X046026Y008380D02*
X046976Y008380D01*
X047066Y008543D02*
X046906Y008610D01*
X046783Y008733D01*
X046716Y008893D01*
X046716Y009067D01*
X046783Y009227D01*
X046906Y009350D01*
X047066Y009417D01*
X047834Y009417D01*
X047994Y009350D01*
X048117Y009227D01*
X048184Y009067D01*
X048184Y008893D01*
X048117Y008733D01*
X047994Y008610D01*
X047834Y008543D01*
X047066Y008543D01*
X046819Y008697D02*
X045990Y008697D01*
X045990Y008855D02*
X046732Y008855D01*
X046716Y009014D02*
X045990Y009014D01*
X045990Y009172D02*
X046760Y009172D01*
X046886Y009331D02*
X045990Y009331D01*
X045990Y009489D02*
X048890Y009489D01*
X048890Y009331D02*
X048014Y009331D01*
X048140Y009172D02*
X048890Y009172D01*
X048890Y009014D02*
X048184Y009014D01*
X048168Y008855D02*
X048890Y008855D01*
X048890Y008697D02*
X048081Y008697D01*
X047924Y008380D02*
X048890Y008380D01*
X048890Y008538D02*
X045990Y008538D01*
X046343Y008221D02*
X046780Y008221D01*
X048120Y008221D02*
X048890Y008221D01*
X048890Y008063D02*
X048184Y008063D01*
X048184Y007904D02*
X048890Y007904D01*
X048890Y007746D02*
X048123Y007746D01*
X048026Y006319D02*
X048890Y006319D01*
X048890Y006161D02*
X048145Y006161D01*
X048184Y006002D02*
X048890Y006002D01*
X048890Y005844D02*
X048163Y005844D01*
X048070Y005685D02*
X048890Y005685D01*
X048890Y003783D02*
X048709Y003783D01*
X044641Y002515D02*
X044359Y002515D01*
X044420Y002357D02*
X044580Y002357D01*
X044580Y002198D02*
X044420Y002198D01*
X044353Y002040D02*
X044647Y002040D01*
X044805Y001881D02*
X044195Y001881D01*
X044200Y002674D02*
X044488Y002674D01*
X044329Y002832D02*
X038690Y002832D01*
X038690Y002674D02*
X038800Y002674D01*
X038696Y002991D02*
X038690Y002991D01*
X038310Y002991D02*
X038304Y002991D01*
X038310Y002832D02*
X036717Y002832D01*
X036696Y002991D02*
X036690Y002991D01*
X036310Y002991D02*
X036304Y002991D01*
X036310Y002832D02*
X035717Y002832D01*
X035696Y002991D02*
X035690Y002991D01*
X035310Y002991D02*
X035304Y002991D01*
X036200Y002674D02*
X036338Y002674D01*
X036359Y002515D02*
X036496Y002515D01*
X036420Y002357D02*
X036580Y002357D01*
X036580Y002198D02*
X036420Y002198D01*
X036353Y002040D02*
X036647Y002040D01*
X036805Y001881D02*
X036195Y001881D01*
X037195Y001881D02*
X037805Y001881D01*
X037647Y002040D02*
X037353Y002040D01*
X037420Y002198D02*
X037580Y002198D01*
X037580Y002357D02*
X037420Y002357D01*
X037359Y002515D02*
X037641Y002515D01*
X037800Y002674D02*
X037200Y002674D01*
X037304Y002991D02*
X037696Y002991D01*
X037580Y003149D02*
X037420Y003149D01*
X037420Y003308D02*
X037580Y003308D01*
X037545Y003466D02*
X037408Y003466D01*
X037387Y003625D02*
X037249Y003625D01*
X038399Y004100D02*
X038961Y004100D01*
X038803Y004259D02*
X037940Y004259D01*
X037782Y004417D02*
X038644Y004417D01*
X038486Y004576D02*
X037623Y004576D01*
X037465Y004734D02*
X038327Y004734D01*
X038169Y004893D02*
X037306Y004893D01*
X037148Y005051D02*
X038010Y005051D01*
X037852Y005210D02*
X036989Y005210D01*
X036831Y005368D02*
X037710Y005368D01*
X037710Y005527D02*
X036672Y005527D01*
X037320Y005685D02*
X037601Y005685D01*
X037480Y005844D02*
X037320Y005844D01*
X037441Y006002D02*
X037480Y006002D01*
X037590Y007270D02*
X037596Y007270D01*
X037348Y008697D02*
X037210Y008697D01*
X037320Y008855D02*
X037480Y008855D01*
X037480Y009014D02*
X037320Y009014D01*
X037302Y009172D02*
X037498Y009172D01*
X037657Y009331D02*
X037143Y009331D01*
X038161Y009648D02*
X038621Y009648D01*
X039085Y009806D02*
X039413Y009806D01*
X039550Y009980D02*
X038850Y010680D01*
X039560Y010282D02*
X040108Y010282D01*
X040400Y009980D02*
X039550Y009980D01*
X039254Y009965D02*
X038927Y009965D01*
X038768Y010123D02*
X039096Y010123D01*
X040692Y010282D02*
X041108Y010282D01*
X040980Y010123D02*
X040820Y010123D01*
X040820Y009965D02*
X040980Y009965D01*
X043375Y011074D02*
X044907Y011074D01*
X044860Y011233D02*
X032020Y011233D01*
X032040Y011074D02*
X034725Y011074D01*
X034147Y011708D02*
X045067Y011708D01*
X045023Y010916D02*
X043533Y010916D01*
X045560Y010757D02*
X048890Y010757D01*
X048890Y010599D02*
X045700Y010599D01*
X045859Y010440D02*
X047026Y010440D01*
X046783Y010282D02*
X045990Y010282D01*
X045990Y010123D02*
X046698Y010123D01*
X046708Y009806D02*
X045990Y009806D01*
X045990Y009648D02*
X046811Y009648D01*
X047432Y009648D02*
X047468Y009648D01*
X047468Y009806D02*
X047432Y009806D01*
X047432Y010123D02*
X047468Y010123D01*
X047468Y010282D02*
X047432Y010282D01*
X047432Y010440D02*
X047468Y010440D01*
X048277Y010916D02*
X048890Y010916D01*
X048890Y011074D02*
X048393Y011074D01*
X048192Y009806D02*
X048890Y009806D01*
X048890Y009648D02*
X048089Y009648D01*
X044706Y008380D02*
X044094Y008380D01*
X044253Y008221D02*
X044547Y008221D01*
X044480Y008063D02*
X044320Y008063D01*
X044320Y007904D02*
X044480Y007904D01*
X044541Y007746D02*
X044259Y007746D01*
X044101Y007587D02*
X044699Y007587D01*
X044596Y007270D02*
X044204Y007270D01*
X044320Y007112D02*
X044480Y007112D01*
X044480Y006953D02*
X044320Y006953D01*
X044308Y006795D02*
X044492Y006795D01*
X044590Y008697D02*
X044210Y008697D01*
X044320Y008855D02*
X044480Y008855D01*
X044480Y009014D02*
X044320Y009014D01*
X044302Y009172D02*
X044498Y009172D01*
X045680Y012659D02*
X047620Y012659D01*
X047641Y012638D02*
X047829Y012560D01*
X048031Y012560D01*
X048219Y012638D01*
X048362Y012781D01*
X048440Y012969D01*
X048440Y013171D01*
X048362Y013359D01*
X048219Y013502D01*
X048031Y013580D01*
X047829Y013580D01*
X047641Y013502D01*
X047498Y013359D01*
X047420Y013171D01*
X047420Y012969D01*
X047498Y012781D01*
X047641Y012638D01*
X047483Y012818D02*
X045817Y012818D01*
X045880Y012976D02*
X047420Y012976D01*
X047420Y013135D02*
X045880Y013135D01*
X045862Y013293D02*
X047470Y013293D01*
X047590Y013452D02*
X046020Y013452D01*
X046140Y013610D02*
X048890Y013610D01*
X048890Y013452D02*
X048270Y013452D01*
X048390Y013293D02*
X048890Y013293D01*
X048890Y013135D02*
X048440Y013135D01*
X048440Y012976D02*
X048890Y012976D01*
X048890Y012818D02*
X048377Y012818D01*
X048240Y012659D02*
X048890Y012659D01*
X048890Y013769D02*
X046140Y013769D01*
X046140Y013927D02*
X048890Y013927D01*
X048890Y014086D02*
X046140Y014086D01*
X046140Y014244D02*
X048890Y014244D01*
X048890Y014403D02*
X046140Y014403D01*
X046140Y014561D02*
X048890Y014561D01*
X048890Y014720D02*
X046140Y014720D01*
X046140Y014878D02*
X048890Y014878D01*
X048890Y015037D02*
X047979Y015037D01*
X047958Y015016D02*
X048089Y015147D01*
X048160Y015318D01*
X048160Y015502D01*
X048089Y015673D01*
X047958Y015804D01*
X047787Y015875D01*
X046953Y015875D01*
X046782Y015804D01*
X046651Y015673D01*
X046580Y015502D01*
X046580Y015318D01*
X046651Y015147D01*
X046782Y015016D01*
X046953Y014945D01*
X047787Y014945D01*
X047958Y015016D01*
X048109Y015195D02*
X048890Y015195D01*
X048890Y015354D02*
X048160Y015354D01*
X048156Y015512D02*
X048890Y015512D01*
X048890Y015671D02*
X048090Y015671D01*
X047898Y015829D02*
X048890Y015829D01*
X048890Y015988D02*
X047889Y015988D01*
X047958Y016016D02*
X048089Y016147D01*
X048160Y016318D01*
X048160Y016502D01*
X048089Y016673D01*
X047958Y016804D01*
X047787Y016875D01*
X046953Y016875D01*
X046782Y016804D01*
X046651Y016673D01*
X046580Y016502D01*
X046580Y016318D01*
X046651Y016147D01*
X046782Y016016D01*
X046953Y015945D01*
X047787Y015945D01*
X047958Y016016D01*
X048088Y016146D02*
X048890Y016146D01*
X048890Y016305D02*
X048154Y016305D01*
X048160Y016463D02*
X048890Y016463D01*
X048890Y016622D02*
X048110Y016622D01*
X047982Y016780D02*
X048890Y016780D01*
X048890Y016939D02*
X046140Y016939D01*
X046140Y017097D02*
X046701Y017097D01*
X046651Y017147D02*
X046782Y017016D01*
X046953Y016945D01*
X047787Y016945D01*
X047958Y017016D01*
X048089Y017147D01*
X048160Y017318D01*
X048160Y017502D01*
X048089Y017673D01*
X047958Y017804D01*
X047787Y017875D01*
X046953Y017875D01*
X046782Y017804D01*
X046651Y017673D01*
X046580Y017502D01*
X046580Y017318D01*
X046651Y017147D01*
X046606Y017256D02*
X046140Y017256D01*
X046140Y017414D02*
X046580Y017414D01*
X046609Y017573D02*
X046140Y017573D01*
X046140Y017731D02*
X046709Y017731D01*
X046140Y017890D02*
X048890Y017890D01*
X048890Y018048D02*
X046140Y018048D01*
X046140Y018207D02*
X048890Y018207D01*
X048890Y018365D02*
X046140Y018365D01*
X046140Y018524D02*
X048890Y018524D01*
X048890Y018682D02*
X046140Y018682D01*
X046140Y018841D02*
X048890Y018841D01*
X048890Y018999D02*
X046140Y018999D01*
X046140Y019158D02*
X046526Y019158D01*
X047104Y019158D02*
X047196Y019158D01*
X047774Y019158D02*
X048890Y019158D01*
X048890Y019316D02*
X047841Y019316D01*
X047841Y019475D02*
X048890Y019475D01*
X048890Y019633D02*
X047841Y019633D01*
X048773Y021060D02*
X048890Y021060D01*
X048890Y021852D02*
X048848Y021852D01*
X048890Y022011D02*
X009980Y022011D01*
X024693Y014418D02*
X025315Y015040D01*
X025829Y015040D01*
X026087Y015298D01*
X026447Y015298D01*
X026447Y015262D01*
X026069Y015262D01*
X026069Y015059D01*
X026081Y015014D01*
X026105Y014973D01*
X026138Y014939D01*
X026179Y014915D01*
X026225Y014903D01*
X026447Y014903D01*
X026447Y015262D01*
X026484Y015262D01*
X026484Y014903D01*
X026554Y014903D01*
X026429Y014778D01*
X026359Y014849D01*
X026243Y014849D01*
X026183Y014789D01*
X026152Y014820D01*
X025887Y014820D01*
X025887Y014822D01*
X025792Y014917D01*
X025667Y014968D01*
X025533Y014968D01*
X025408Y014917D01*
X025313Y014822D01*
X025262Y014697D01*
X025262Y014689D01*
X024870Y014297D01*
X024865Y014302D01*
X024807Y014360D01*
X024766Y014384D01*
X024720Y014396D01*
X024714Y014396D01*
X024693Y014418D01*
X024708Y014403D02*
X024975Y014403D01*
X024865Y014302D02*
X024780Y014217D01*
X024780Y014217D01*
X024780Y014217D01*
X024865Y014302D01*
X024807Y014244D02*
X024807Y014244D01*
X024102Y014086D02*
X021172Y014086D01*
X021078Y013927D02*
X023784Y013927D01*
X023641Y013769D02*
X021237Y013769D01*
X021395Y013610D02*
X023612Y013610D01*
X023658Y013452D02*
X021554Y013452D01*
X021712Y013293D02*
X023880Y013293D01*
X024020Y013293D02*
X024920Y013293D01*
X024762Y013452D02*
X024242Y013452D01*
X024288Y013610D02*
X024603Y013610D01*
X024723Y013490D02*
X024723Y013490D01*
X024388Y013769D02*
X024322Y013769D01*
X023969Y014244D02*
X021331Y014244D01*
X021489Y014403D02*
X023811Y014403D01*
X023652Y014561D02*
X021648Y014561D01*
X021806Y014720D02*
X023494Y014720D01*
X024836Y014561D02*
X025134Y014561D01*
X025271Y014720D02*
X024995Y014720D01*
X025153Y014878D02*
X025370Y014878D01*
X025312Y015037D02*
X026075Y015037D01*
X026069Y015195D02*
X025984Y015195D01*
X025830Y014878D02*
X026529Y014878D01*
X026484Y015037D02*
X026447Y015037D01*
X026447Y015195D02*
X026484Y015195D01*
X025079Y013135D02*
X021871Y013135D01*
X022029Y012976D02*
X025237Y012976D01*
X025167Y013046D02*
X025167Y013046D01*
X025069Y012818D02*
X025396Y012818D01*
X025419Y012794D02*
X025419Y012794D01*
X025540Y012659D02*
X025554Y012659D01*
X025640Y012559D02*
X025640Y012559D01*
X025698Y012501D02*
X025713Y012501D01*
X024931Y012818D02*
X022188Y012818D01*
X022346Y012659D02*
X024708Y012659D01*
X024662Y012501D02*
X022505Y012501D01*
X022663Y012342D02*
X024691Y012342D01*
X024832Y012184D02*
X023025Y012184D01*
X023088Y012025D02*
X025012Y012025D01*
X025085Y011867D02*
X023069Y011867D01*
X022544Y011708D02*
X021384Y011708D01*
X021292Y011867D02*
X022431Y011867D01*
X022412Y012025D02*
X020652Y012025D01*
X020688Y012184D02*
X022285Y012184D01*
X022126Y012342D02*
X021238Y012342D01*
X021288Y012501D02*
X021968Y012501D01*
X021809Y012659D02*
X021263Y012659D01*
X021139Y012818D02*
X021651Y012818D01*
X021492Y012976D02*
X020081Y012976D01*
X020221Y013135D02*
X021334Y013135D01*
X021175Y013293D02*
X020380Y013293D01*
X020588Y013452D02*
X021017Y013452D01*
X020662Y013518D02*
X020630Y013550D01*
X020630Y013550D01*
X020662Y013518D01*
X020761Y012818D02*
X020239Y012818D01*
X019740Y012501D02*
X019613Y012501D01*
X019630Y012342D02*
X019899Y012342D01*
X020012Y012184D02*
X019630Y012184D01*
X019630Y012025D02*
X020048Y012025D01*
X020223Y011867D02*
X019630Y011867D01*
X019630Y011708D02*
X020716Y011708D01*
X020701Y011550D02*
X019630Y011550D01*
X019630Y011391D02*
X020542Y011391D01*
X020384Y011233D02*
X019630Y011233D01*
X020477Y011867D02*
X020808Y011867D01*
X023659Y011550D02*
X025920Y011550D01*
X025920Y011708D02*
X025881Y011708D01*
X025920Y011391D02*
X025833Y011391D01*
X028266Y012460D02*
X029496Y012460D01*
X029604Y012460D01*
X029680Y012384D01*
X029680Y010670D01*
X030338Y010670D01*
X030160Y010848D01*
X030160Y011212D01*
X030418Y011470D01*
X030771Y011470D01*
X031021Y011720D01*
X031288Y011720D01*
X031160Y011848D01*
X031160Y012171D01*
X031040Y012051D01*
X031040Y011848D01*
X030782Y011590D01*
X030418Y011590D01*
X030160Y011848D01*
X030160Y012212D01*
X030418Y012470D01*
X030782Y012470D01*
X030852Y012400D01*
X031060Y012609D01*
X031128Y012677D01*
X031120Y012706D01*
X031120Y013010D01*
X031580Y013010D01*
X031580Y013050D01*
X031120Y013050D01*
X031120Y013281D01*
X031015Y013177D01*
X031040Y013118D01*
X031040Y012942D01*
X030973Y012781D01*
X030849Y012657D01*
X030688Y012590D01*
X030512Y012590D01*
X030351Y012657D01*
X030227Y012781D01*
X030167Y012925D01*
X028305Y012925D01*
X028305Y012537D01*
X028288Y012520D01*
X028288Y012513D01*
X028266Y012460D01*
X028283Y012501D02*
X030952Y012501D01*
X030851Y012659D02*
X031110Y012659D01*
X031120Y012818D02*
X030988Y012818D01*
X031040Y012976D02*
X031120Y012976D01*
X031120Y013135D02*
X031033Y013135D01*
X031620Y013050D02*
X032080Y013050D01*
X032080Y013354D01*
X032068Y013399D01*
X032044Y013441D01*
X032011Y013474D01*
X032009Y013475D01*
X032393Y013475D01*
X032455Y013537D01*
X032455Y014616D01*
X032520Y014682D01*
X032608Y014593D01*
X032610Y014593D01*
X032610Y012959D01*
X032371Y012720D01*
X032080Y012720D01*
X032080Y013010D01*
X031620Y013010D01*
X031620Y013050D01*
X032080Y012976D02*
X032610Y012976D01*
X032610Y013135D02*
X032080Y013135D01*
X032080Y013293D02*
X032610Y013293D01*
X032610Y013452D02*
X032033Y013452D01*
X032455Y013610D02*
X032610Y013610D01*
X032610Y013769D02*
X032455Y013769D01*
X032455Y013927D02*
X032610Y013927D01*
X032610Y014086D02*
X032455Y014086D01*
X032455Y014244D02*
X032610Y014244D01*
X032610Y014403D02*
X032455Y014403D01*
X032455Y014561D02*
X032610Y014561D01*
X035561Y015988D02*
X036645Y015988D01*
X036638Y016146D02*
X035403Y016146D01*
X035244Y016305D02*
X036638Y016305D01*
X036669Y016463D02*
X035086Y016463D01*
X035470Y017097D02*
X035630Y017097D01*
X035732Y017256D02*
X035470Y017256D01*
X035720Y015829D02*
X036687Y015829D01*
X036736Y015671D02*
X035878Y015671D01*
X036037Y015512D02*
X036828Y015512D01*
X036941Y015354D02*
X036195Y015354D01*
X036354Y015195D02*
X037100Y015195D01*
X037356Y015037D02*
X036512Y015037D01*
X036671Y014878D02*
X038979Y014878D01*
X039138Y015037D02*
X038444Y015037D01*
X038700Y015195D02*
X039296Y015195D01*
X039455Y015354D02*
X038859Y015354D01*
X038972Y015512D02*
X039613Y015512D01*
X039772Y015671D02*
X039064Y015671D01*
X039113Y015829D02*
X039930Y015829D01*
X040089Y015988D02*
X039155Y015988D01*
X039162Y016146D02*
X040247Y016146D01*
X040406Y016305D02*
X039162Y016305D01*
X039131Y016463D02*
X040564Y016463D01*
X040869Y016780D02*
X041006Y016780D01*
X040980Y016939D02*
X040820Y016939D01*
X040820Y017097D02*
X040980Y017097D01*
X041082Y017256D02*
X040820Y017256D01*
X041586Y017573D02*
X041810Y017573D01*
X041810Y017731D02*
X041745Y017731D01*
X041810Y017414D02*
X038172Y017414D01*
X038562Y017256D02*
X039980Y017256D01*
X039980Y017097D02*
X038768Y017097D01*
X038920Y016939D02*
X039980Y016939D01*
X039980Y016780D02*
X039011Y016780D01*
X039089Y016622D02*
X040000Y016622D01*
X041718Y017256D02*
X041810Y017256D01*
X043935Y016146D02*
X045760Y016146D01*
X045760Y015988D02*
X043776Y015988D01*
X043618Y015829D02*
X045760Y015829D01*
X045760Y015671D02*
X043459Y015671D01*
X043301Y015512D02*
X045760Y015512D01*
X045760Y015354D02*
X043142Y015354D01*
X042984Y015195D02*
X045760Y015195D01*
X045760Y015037D02*
X042825Y015037D01*
X042667Y014878D02*
X045760Y014878D01*
X045760Y014720D02*
X042508Y014720D01*
X041300Y014561D02*
X045760Y014561D01*
X045760Y014403D02*
X041141Y014403D01*
X040983Y014244D02*
X045760Y014244D01*
X045760Y014086D02*
X040824Y014086D01*
X040812Y013920D02*
X040651Y013853D01*
X040527Y013729D01*
X040460Y013568D01*
X040460Y013392D01*
X040527Y013231D01*
X040651Y013107D01*
X040812Y013040D01*
X040988Y013040D01*
X041149Y013107D01*
X041273Y013231D01*
X041340Y013392D01*
X041340Y013568D01*
X041273Y013729D01*
X041149Y013853D01*
X040988Y013920D01*
X040812Y013920D01*
X040666Y013927D02*
X045760Y013927D01*
X045760Y013769D02*
X041234Y013769D01*
X041322Y013610D02*
X045641Y013610D01*
X045030Y013452D02*
X041340Y013452D01*
X041299Y013293D02*
X044910Y013293D01*
X044860Y013135D02*
X041177Y013135D01*
X040623Y013135D02*
X039873Y013135D01*
X040032Y013293D02*
X040501Y013293D01*
X040460Y013452D02*
X040190Y013452D01*
X040349Y013610D02*
X040478Y013610D01*
X040507Y013769D02*
X040566Y013769D01*
X039715Y012976D02*
X044860Y012976D01*
X046140Y015037D02*
X046761Y015037D01*
X046631Y015195D02*
X046140Y015195D01*
X046140Y015354D02*
X046580Y015354D01*
X046584Y015512D02*
X046140Y015512D01*
X046140Y015671D02*
X046650Y015671D01*
X046842Y015829D02*
X046140Y015829D01*
X046140Y015988D02*
X046851Y015988D01*
X046652Y016146D02*
X046140Y016146D01*
X046140Y016305D02*
X046586Y016305D01*
X046580Y016463D02*
X046140Y016463D01*
X046140Y016622D02*
X046630Y016622D01*
X046758Y016780D02*
X046140Y016780D01*
X045760Y016780D02*
X045294Y016780D01*
X045320Y016939D02*
X045760Y016939D01*
X045760Y017097D02*
X045320Y017097D01*
X045218Y017256D02*
X045760Y017256D01*
X045760Y017414D02*
X044735Y017414D01*
X044714Y017573D02*
X044576Y017573D01*
X044555Y017731D02*
X044245Y017731D01*
X044320Y017890D02*
X044480Y017890D01*
X044480Y018048D02*
X044320Y018048D01*
X044267Y018207D02*
X044405Y018207D01*
X045109Y018365D02*
X045760Y018365D01*
X045760Y018207D02*
X045267Y018207D01*
X045320Y018048D02*
X045760Y018048D01*
X045760Y017890D02*
X045320Y017890D01*
X045245Y017731D02*
X045760Y017731D01*
X045760Y017573D02*
X045086Y017573D01*
X044480Y017097D02*
X044320Y017097D01*
X044320Y016939D02*
X044480Y016939D01*
X044506Y016780D02*
X044320Y016780D01*
X044300Y016622D02*
X044665Y016622D01*
X045135Y016622D02*
X045760Y016622D01*
X045760Y016463D02*
X044090Y016463D01*
X044090Y016305D02*
X045760Y016305D01*
X044356Y017256D02*
X044320Y017256D01*
X043979Y016190D02*
X043979Y016190D01*
X048039Y017097D02*
X048890Y017097D01*
X048890Y017256D02*
X048134Y017256D01*
X048160Y017414D02*
X048890Y017414D01*
X048890Y017573D02*
X048131Y017573D01*
X048031Y017731D02*
X048890Y017731D01*
X035060Y021060D02*
X035040Y021060D01*
X035040Y021218D02*
X035060Y021218D01*
X035060Y021377D02*
X035040Y021377D01*
X034796Y021377D02*
X032926Y021377D01*
X033048Y021218D02*
X034637Y021218D01*
X034590Y021060D02*
X033090Y021060D01*
X033073Y020901D02*
X034590Y020901D01*
X034637Y020743D02*
X033966Y020743D01*
X034073Y020584D02*
X034185Y020584D01*
X033534Y020743D02*
X032985Y020743D01*
X032469Y012818D02*
X032080Y012818D01*
X031160Y012025D02*
X031040Y012025D01*
X031040Y011867D02*
X031160Y011867D01*
X031009Y011708D02*
X030900Y011708D01*
X030851Y011550D02*
X029680Y011550D01*
X029680Y011708D02*
X030300Y011708D01*
X030160Y011867D02*
X029680Y011867D01*
X029680Y012025D02*
X030160Y012025D01*
X030160Y012184D02*
X029680Y012184D01*
X029680Y012342D02*
X030290Y012342D01*
X030349Y012659D02*
X028305Y012659D01*
X028305Y012818D02*
X030212Y012818D01*
X030339Y011391D02*
X029680Y011391D01*
X029680Y011233D02*
X030180Y011233D01*
X030160Y011074D02*
X029680Y011074D01*
X029680Y010916D02*
X030160Y010916D01*
X030251Y010757D02*
X029680Y010757D01*
X033790Y007587D02*
X034430Y007587D01*
X034430Y007429D02*
X033790Y007429D01*
X038557Y003942D02*
X044310Y003942D01*
X042751Y003625D02*
X042249Y003625D01*
X042174Y003700D02*
X041826Y003700D01*
X041580Y003454D01*
X041580Y003106D01*
X041826Y002860D01*
X042174Y002860D01*
X042420Y003106D01*
X042420Y003454D01*
X042174Y003700D01*
X042408Y003466D02*
X042592Y003466D01*
X042580Y003308D02*
X042420Y003308D01*
X042420Y003149D02*
X042580Y003149D01*
X042696Y002991D02*
X042304Y002991D01*
X042200Y002674D02*
X042800Y002674D01*
X042641Y002515D02*
X042359Y002515D01*
X042420Y002357D02*
X042580Y002357D01*
X042580Y002198D02*
X042420Y002198D01*
X042353Y002040D02*
X042647Y002040D01*
X041647Y002040D02*
X041353Y002040D01*
X041420Y002198D02*
X041580Y002198D01*
X041580Y002357D02*
X041420Y002357D01*
X041359Y002515D02*
X041641Y002515D01*
X041800Y002674D02*
X041200Y002674D01*
X041174Y002860D02*
X040826Y002860D01*
X040580Y003106D01*
X040580Y003454D01*
X040826Y003700D01*
X041174Y003700D01*
X041420Y003454D01*
X041420Y003106D01*
X041174Y002860D01*
X041304Y002991D02*
X041696Y002991D01*
X041580Y003149D02*
X041420Y003149D01*
X041420Y003308D02*
X041580Y003308D01*
X041592Y003466D02*
X041408Y003466D01*
X041249Y003625D02*
X041751Y003625D01*
X040751Y003625D02*
X040249Y003625D01*
X040408Y003466D02*
X040592Y003466D01*
X040580Y003308D02*
X040420Y003308D01*
X040420Y003149D02*
X040580Y003149D01*
X040696Y002991D02*
X040304Y002991D01*
X040200Y002674D02*
X040800Y002674D01*
X040641Y002515D02*
X040359Y002515D01*
X040420Y002357D02*
X040580Y002357D01*
X040580Y002198D02*
X040420Y002198D01*
X040353Y002040D02*
X040647Y002040D01*
X038310Y001881D02*
X038195Y001881D01*
X038200Y002674D02*
X038310Y002674D01*
X044304Y002991D02*
X044310Y002991D01*
X018862Y003783D02*
X018764Y003783D01*
X012700Y003118D02*
X011531Y003118D01*
X011531Y004142D02*
X012262Y004142D01*
X012421Y005527D02*
X012781Y005527D01*
X012684Y005685D02*
X012516Y005685D01*
X012540Y005844D02*
X012660Y005844D01*
X012660Y006002D02*
X012540Y006002D01*
X012540Y006161D02*
X012660Y006161D01*
X012660Y006319D02*
X012540Y006319D01*
X012540Y006478D02*
X012660Y006478D01*
X012709Y006636D02*
X012491Y006636D01*
X012358Y006795D02*
X012840Y006795D01*
X012905Y006953D02*
X011540Y006953D01*
X011595Y007112D02*
X013064Y007112D01*
X013222Y007270D02*
X011561Y007270D01*
X011039Y007270D02*
X009980Y007270D01*
X009980Y007112D02*
X010363Y007112D01*
X010363Y006953D02*
X009980Y006953D01*
X009980Y006795D02*
X010363Y006795D01*
X010363Y006636D02*
X009980Y006636D01*
X009980Y006478D02*
X010371Y006478D01*
X010363Y006319D02*
X009980Y006319D01*
X009980Y006161D02*
X010363Y006161D01*
X010363Y006002D02*
X009980Y006002D01*
X009980Y005844D02*
X010440Y005844D01*
X009980Y005685D02*
X011684Y005685D01*
X011660Y005844D02*
X010960Y005844D01*
X010877Y005368D02*
X009980Y005368D01*
X009980Y005527D02*
X011342Y005527D01*
X011029Y006478D02*
X011660Y006478D01*
X011709Y006636D02*
X011162Y006636D01*
X011332Y006795D02*
X011842Y006795D01*
X013380Y007427D02*
X013380Y007427D01*
X013381Y007429D02*
X009980Y007429D01*
X009980Y007587D02*
X014289Y007587D01*
X014448Y007746D02*
X012366Y007746D01*
X012291Y007670D02*
X012560Y007939D01*
X012560Y008120D01*
X012110Y008120D01*
X012110Y008140D01*
X012090Y008140D01*
X012090Y008590D01*
X011909Y008590D01*
X011640Y008321D01*
X011640Y008140D01*
X012090Y008140D01*
X012090Y008120D01*
X011640Y008120D01*
X011640Y007939D01*
X011909Y007670D01*
X012090Y007670D01*
X012090Y008120D01*
X012110Y008120D01*
X012110Y007670D01*
X012291Y007670D01*
X012110Y007746D02*
X012090Y007746D01*
X012090Y007904D02*
X012110Y007904D01*
X012110Y008063D02*
X012090Y008063D01*
X012110Y008140D02*
X012560Y008140D01*
X012560Y008321D01*
X012291Y008590D01*
X012110Y008590D01*
X012110Y008140D01*
X012110Y008221D02*
X012090Y008221D01*
X012090Y008380D02*
X012110Y008380D01*
X012110Y008538D02*
X012090Y008538D01*
X011857Y008538D02*
X011343Y008538D01*
X011291Y008590D02*
X011110Y008590D01*
X011110Y008140D01*
X011090Y008140D01*
X011090Y008590D01*
X010909Y008590D01*
X010640Y008321D01*
X010640Y008140D01*
X011090Y008140D01*
X011090Y008120D01*
X010640Y008120D01*
X010640Y007939D01*
X010909Y007670D01*
X011090Y007670D01*
X011090Y008120D01*
X011110Y008120D01*
X011110Y008140D01*
X011560Y008140D01*
X011560Y008321D01*
X011291Y008590D01*
X011274Y008710D02*
X011520Y008956D01*
X011520Y009304D01*
X011274Y009550D01*
X010926Y009550D01*
X010680Y009304D01*
X010680Y008956D01*
X010926Y008710D01*
X011274Y008710D01*
X011419Y008855D02*
X011781Y008855D01*
X011680Y009014D02*
X011520Y009014D01*
X011520Y009172D02*
X011680Y009172D01*
X011707Y009331D02*
X011493Y009331D01*
X011472Y009489D02*
X011335Y009489D01*
X010865Y009489D02*
X009980Y009489D01*
X009980Y009331D02*
X010707Y009331D01*
X010680Y009172D02*
X009980Y009172D01*
X009980Y009014D02*
X010680Y009014D01*
X010781Y008855D02*
X009980Y008855D01*
X009980Y008697D02*
X013270Y008697D01*
X013270Y008650D02*
X012770Y008650D01*
X012770Y008057D01*
X012782Y008011D01*
X012806Y007970D01*
X012839Y007936D01*
X012881Y007913D01*
X012926Y007900D01*
X013270Y007900D01*
X013270Y008650D01*
X013270Y008538D02*
X013430Y008538D01*
X013430Y008650D02*
X013430Y007900D01*
X013773Y007900D01*
X013819Y007913D01*
X013860Y007936D01*
X013893Y007970D01*
X013917Y008011D01*
X013929Y008057D01*
X013929Y008650D01*
X013430Y008650D01*
X013430Y008697D02*
X014511Y008697D01*
X014511Y008855D02*
X013929Y008855D01*
X013929Y009014D02*
X014511Y009014D01*
X014511Y009172D02*
X013929Y009172D01*
X013929Y009331D02*
X014511Y009331D01*
X014562Y009489D02*
X013894Y009489D01*
X012770Y009331D02*
X012493Y009331D01*
X012520Y009172D02*
X012770Y009172D01*
X012770Y009014D02*
X012520Y009014D01*
X012419Y008855D02*
X012770Y008855D01*
X012770Y008538D02*
X012343Y008538D01*
X012501Y008380D02*
X012770Y008380D01*
X012770Y008221D02*
X012560Y008221D01*
X012560Y008063D02*
X012770Y008063D01*
X012913Y007904D02*
X012525Y007904D01*
X013270Y007904D02*
X013430Y007904D01*
X013430Y008063D02*
X013270Y008063D01*
X013270Y008221D02*
X013430Y008221D01*
X013430Y008380D02*
X013270Y008380D01*
X013929Y008380D02*
X014511Y008380D01*
X014511Y008538D02*
X013929Y008538D01*
X013929Y008221D02*
X014511Y008221D01*
X014511Y008063D02*
X013929Y008063D01*
X013786Y007904D02*
X014606Y007904D01*
X011834Y007746D02*
X011366Y007746D01*
X011291Y007670D02*
X011560Y007939D01*
X011560Y008120D01*
X011110Y008120D01*
X011110Y007670D01*
X011291Y007670D01*
X011110Y007746D02*
X011090Y007746D01*
X011090Y007904D02*
X011110Y007904D01*
X011110Y008063D02*
X011090Y008063D01*
X011090Y008221D02*
X011110Y008221D01*
X011110Y008380D02*
X011090Y008380D01*
X011090Y008538D02*
X011110Y008538D01*
X010857Y008538D02*
X009980Y008538D01*
X009980Y008380D02*
X010699Y008380D01*
X010640Y008221D02*
X009980Y008221D01*
X009980Y008063D02*
X010640Y008063D01*
X010675Y007904D02*
X009980Y007904D01*
X009980Y007746D02*
X010834Y007746D01*
X011525Y007904D02*
X011675Y007904D01*
X011640Y008063D02*
X011560Y008063D01*
X011560Y008221D02*
X011640Y008221D01*
X011699Y008380D02*
X011501Y008380D01*
X014683Y010916D02*
X014720Y010916D01*
X014720Y011074D02*
X014588Y011074D01*
X014553Y011233D02*
X014720Y011233D01*
X014720Y011391D02*
X014383Y011391D01*
D37*
X015050Y008730D02*
X015050Y008730D01*
X015050Y007980D01*
X014350Y007280D01*
X013600Y007280D01*
X013100Y006780D01*
X013100Y006130D01*
X012100Y006130D02*
X010765Y006130D01*
X010700Y006195D01*
X010700Y006865D02*
X011035Y006865D01*
X011300Y007130D01*
X012100Y006130D02*
X012100Y005480D01*
X012750Y004830D01*
X012750Y004630D01*
X012262Y004142D01*
X012700Y003118D02*
X013550Y003118D01*
X013550Y003130D01*
X017850Y003515D02*
X017850Y003530D01*
D38*
X014600Y003830D03*
X013300Y005130D03*
X011300Y007130D03*
D39*
X021050Y004230D02*
X023550Y006730D01*
X023550Y007280D01*
X023221Y007609D01*
X023221Y007619D01*
M02*
